G04*
G04 #@! TF.GenerationSoftware,Altium Limited,Altium Designer,22.4.2 (48)*
G04*
G04 Layer_Color=32768*
%FSLAX25Y25*%
%MOIN*%
G70*
G04*
G04 #@! TF.SameCoordinates,FFA694D2-1829-43A5-BD7A-47FC6BC8C01B*
G04*
G04*
G04 #@! TF.FilePolarity,Positive*
G04*
G01*
G75*
%ADD13C,0.00787*%
%ADD108C,0.00394*%
%ADD109C,0.00197*%
D13*
X82978Y84444D02*
Y95556D01*
X77222Y84444D02*
X82978D01*
X77222D02*
Y95556D01*
X82978D01*
X84736Y94728D02*
X89264D01*
X84736Y85672D02*
Y94728D01*
Y85672D02*
X89264D01*
Y94728D01*
X84535Y107321D02*
X88865D01*
X84535Y97479D02*
Y107321D01*
Y97479D02*
X88865D01*
Y107321D01*
X78335D02*
X82665D01*
X78335Y97479D02*
Y107321D01*
Y97479D02*
X82665D01*
Y107321D01*
X114047Y27836D02*
Y32364D01*
X105353D02*
X114047D01*
X105353Y27836D02*
Y32364D01*
Y27836D02*
X114047D01*
X87074Y-73740D02*
Y-64660D01*
Y-73740D02*
X110326D01*
Y-64660D01*
X87074D02*
X110326D01*
X69894Y-80614D02*
X84106D01*
Y-57386D01*
X69894D02*
X84106D01*
X69894Y-80614D02*
Y-57386D01*
X-77256Y-95791D02*
X-69744D01*
X-77256Y-109209D02*
Y-95791D01*
Y-109209D02*
X-69744D01*
Y-95791D01*
X-67856Y-95691D02*
X-60344D01*
X-67856Y-109109D02*
Y-95691D01*
Y-109109D02*
X-60344D01*
Y-95691D01*
X-121836Y953D02*
Y9647D01*
X-126364Y953D02*
X-121836D01*
X-126364D02*
Y9647D01*
X-121836D01*
X-101338Y44076D02*
Y53524D01*
X-106062Y44076D02*
X-101338D01*
X-106062D02*
Y53524D01*
X-101338D01*
X-114564Y44306D02*
Y53361D01*
X-110036D01*
Y44306D02*
Y53361D01*
X-114564Y44306D02*
X-110036D01*
X-106162Y55409D02*
Y64858D01*
X-101438D01*
Y55409D02*
Y64858D01*
X-106162Y55409D02*
X-101438D01*
X-110036Y55606D02*
Y64661D01*
X-114564Y55606D02*
X-110036D01*
X-114564D02*
Y64661D01*
X-110036D01*
X-118636Y55787D02*
Y64480D01*
X-123164Y55787D02*
X-118636D01*
X-123164D02*
Y64480D01*
X-118636D01*
X-123164Y44387D02*
Y53080D01*
X-118636D01*
Y44387D02*
Y53080D01*
X-123164Y44387D02*
X-118636D01*
X-118762Y-6462D02*
Y-1738D01*
Y-6462D02*
X-109313D01*
Y-1738D01*
X-118762D02*
X-109313D01*
X-118874Y-16737D02*
Y-8863D01*
Y-16737D02*
X-103126D01*
Y-8863D01*
X-118874D02*
X-103126D01*
X-18264Y-87528D02*
X-13736D01*
Y-78472D01*
X-18264D02*
X-13736D01*
X-18264Y-87528D02*
Y-78472D01*
X-27264Y-87213D02*
X-22736D01*
Y-78520D01*
X-27264D02*
X-22736D01*
X-27264Y-87213D02*
Y-78520D01*
X-35764Y-78653D02*
X-31236D01*
X-35764Y-87347D02*
Y-78653D01*
Y-87347D02*
X-31236D01*
Y-78653D01*
X86576Y-62462D02*
Y-57738D01*
Y-62462D02*
X96024D01*
Y-57738D01*
X86576D02*
X96024D01*
X110224Y-62362D02*
Y-57638D01*
X100776D02*
X110224D01*
X100776Y-62362D02*
Y-57638D01*
Y-62362D02*
X110224D01*
X130824Y3138D02*
Y7862D01*
X121376D02*
X130824D01*
X121376Y3138D02*
Y7862D01*
Y3138D02*
X130824D01*
X118246Y88052D02*
Y94548D01*
X106553D02*
X118246D01*
X106553Y88052D02*
Y94548D01*
Y88052D02*
X118246D01*
X118754D02*
Y94548D01*
Y88052D02*
X130447D01*
Y94548D01*
X118754D02*
X130447D01*
X121896Y-40059D02*
Y-31941D01*
Y-40059D02*
X136904D01*
Y-31941D01*
X121896D02*
X136904D01*
X121324Y-43744D02*
X124276D01*
X121324Y-49256D02*
Y-43744D01*
Y-49256D02*
X124276D01*
Y-43744D01*
X123904Y-40059D02*
Y-31941D01*
X108896D02*
X123904D01*
X108896Y-40059D02*
Y-31941D01*
Y-40059D02*
X123904D01*
X97239Y17368D02*
Y25832D01*
Y17368D02*
X114561D01*
Y25832D01*
X97239D02*
X114561D01*
X-112281Y-66541D02*
X-105600Y-59859D01*
X-102259Y-63200D01*
X-108941Y-69881D02*
X-102259Y-63200D01*
X-112281Y-66541D02*
X-108941Y-69881D01*
X-101211Y-84830D02*
X-94530Y-91511D01*
X-101211Y-84830D02*
X-97870Y-81489D01*
X-91189Y-88170D01*
X-94530Y-91511D02*
X-91189Y-88170D01*
X-101252Y-75716D02*
X-90116Y-86852D01*
X-101252Y-75716D02*
X-95684Y-70148D01*
X-84548Y-81284D01*
X-90116Y-86852D02*
X-84548Y-81284D01*
X-111670Y-81711D02*
X-104989Y-75030D01*
X-115011Y-78370D02*
X-111670Y-81711D01*
X-115011Y-78370D02*
X-108330Y-71689D01*
X-104989Y-75030D01*
X-107611Y-71070D02*
X-100930Y-64389D01*
X-97589Y-67730D01*
X-104270Y-74411D02*
X-97589Y-67730D01*
X-107611Y-71070D02*
X-104270Y-74411D01*
X-122341Y-85700D02*
X-115659Y-79019D01*
X-112319Y-82359D01*
X-119000Y-89041D02*
X-112319Y-82359D01*
X-122341Y-85700D02*
X-119000Y-89041D01*
X-97431Y-67089D02*
X-80989Y-83531D01*
X-97431Y-67089D02*
X-91011Y-60669D01*
X-74569Y-77111D01*
X-80989Y-83531D02*
X-74569Y-77111D01*
X-90070Y-96311D02*
X-83389Y-89630D01*
X-93411Y-92970D02*
X-90070Y-96311D01*
X-93411Y-92970D02*
X-86730Y-86289D01*
X-83389Y-89630D01*
X105653Y7664D02*
X114347D01*
Y3136D02*
Y7664D01*
X105653Y3136D02*
X114347D01*
X105653D02*
Y7664D01*
X105176Y10838D02*
X114624D01*
X105176D02*
Y15562D01*
X114624D01*
Y10838D02*
Y15562D01*
X94053Y-23264D02*
X102747D01*
X94053D02*
Y-18736D01*
X102747D01*
Y-23264D02*
Y-18736D01*
X93613Y-17062D02*
X103062D01*
X93613D02*
Y-12338D01*
X103062D01*
Y-17062D02*
Y-12338D01*
X93538Y-10062D02*
X102987D01*
X93538D02*
Y-5338D01*
X102987D01*
Y-10062D02*
Y-5338D01*
X121313Y10738D02*
X130762D01*
X121313D02*
Y15462D01*
X130762D01*
Y10738D02*
Y15462D01*
D108*
X-114600Y-23072D02*
Y-19528D01*
X-116372Y-21300D02*
X-112828D01*
X15965Y-17257D02*
Y-14108D01*
X14390Y-15683D02*
X17539D01*
X3425Y-48391D02*
X6575D01*
X5000Y-49966D02*
Y-46817D01*
X16000Y-60502D02*
Y-57352D01*
X14425Y-58927D02*
X17575D01*
X18417Y-5427D02*
X20583D01*
X19500Y-6509D02*
Y-4344D01*
X1917Y-5427D02*
X4083D01*
X3000Y-6509D02*
Y-4344D01*
X6417Y-67356D02*
X8583D01*
X7500Y-68439D02*
Y-66273D01*
X14917Y-67427D02*
X17083D01*
X16000Y-68510D02*
Y-66344D01*
X3425Y-26356D02*
X6575D01*
X5000Y-27931D02*
Y-24781D01*
X16000Y-38931D02*
Y-35781D01*
X14425Y-37356D02*
X17575D01*
X10417Y-5427D02*
X12583D01*
X11500Y-6509D02*
Y-4344D01*
X35925Y-48391D02*
X39075D01*
X37500Y-49966D02*
Y-46817D01*
X35925Y-26356D02*
X39075D01*
X37500Y-27931D02*
Y-24781D01*
X-41083Y-67427D02*
X-38917D01*
X-40000Y-68510D02*
Y-66344D01*
X-50083Y-67427D02*
X-47917D01*
X-49000Y-68510D02*
Y-66344D01*
X-58583Y-67356D02*
X-56417D01*
X-57500Y-68439D02*
Y-66273D01*
X-26083Y-67356D02*
X-23917D01*
X-25000Y-68439D02*
Y-66273D01*
X23917Y-67427D02*
X26083D01*
X25000Y-68510D02*
Y-66344D01*
X-8583Y-67427D02*
X-6417D01*
X-7500Y-68510D02*
Y-66344D01*
X-17583Y-67427D02*
X-15417D01*
X-16500Y-68510D02*
Y-66344D01*
X57925Y-48391D02*
X61075D01*
X59500Y-49966D02*
Y-46817D01*
X38917Y-67356D02*
X41083D01*
X40000Y-68439D02*
Y-66273D01*
X48500Y-60502D02*
Y-57352D01*
X46925Y-58927D02*
X50075D01*
X56417Y-67427D02*
X58583D01*
X57500Y-68510D02*
Y-66344D01*
X48500Y-38931D02*
Y-35781D01*
X46925Y-37356D02*
X50075D01*
X57925Y-26391D02*
X61075D01*
X59500Y-27966D02*
Y-24816D01*
X47417Y-67427D02*
X49583D01*
X48500Y-68510D02*
Y-66344D01*
X58917Y-5427D02*
X61083D01*
X60000Y-6509D02*
Y-4344D01*
X48465Y-17257D02*
Y-14108D01*
X46890Y-15683D02*
X50039D01*
X42917Y-5427D02*
X45083D01*
X44000Y-6509D02*
Y-4344D01*
X50917Y-5427D02*
X53083D01*
X52000Y-6509D02*
Y-4344D01*
X-49000Y-60502D02*
Y-57352D01*
X-50575Y-58927D02*
X-47425D01*
X-61575Y-48391D02*
X-58425D01*
X-60000Y-49966D02*
Y-46817D01*
X-63083Y-5427D02*
X-60917D01*
X-62000Y-6509D02*
Y-4344D01*
X-49035Y-17257D02*
Y-14108D01*
X-50610Y-15683D02*
X-47461D01*
X-49000Y-38931D02*
Y-35781D01*
X-50575Y-37356D02*
X-47425D01*
X-61575Y-26356D02*
X-58425D01*
X-60000Y-27931D02*
Y-24781D01*
X-54583Y-5427D02*
X-52417D01*
X-53500Y-6509D02*
Y-4344D01*
X-46583Y-5427D02*
X-44417D01*
X-45500Y-6509D02*
Y-4344D01*
X-29075Y-48391D02*
X-25925D01*
X-27500Y-49966D02*
Y-46817D01*
X-16500Y-38931D02*
Y-35781D01*
X-18075Y-37356D02*
X-14925D01*
X-16500Y-60502D02*
Y-57352D01*
X-18075Y-58927D02*
X-14925D01*
X-29075Y-26356D02*
X-25925D01*
X-27500Y-27931D02*
Y-24781D01*
X-16535Y-17257D02*
Y-14108D01*
X-18110Y-15683D02*
X-14961D01*
X-14083Y-5427D02*
X-11917D01*
X-13000Y-6509D02*
Y-4344D01*
X-22083Y-5427D02*
X-19917D01*
X-21000Y-6509D02*
Y-4344D01*
X-30583Y-5427D02*
X-28417D01*
X-29500Y-6509D02*
Y-4344D01*
X26417Y-5427D02*
X28583D01*
X27500Y-6509D02*
Y-4344D01*
X25425Y-26391D02*
X28575D01*
X27000Y-27966D02*
Y-24816D01*
X-38583Y-5427D02*
X-36417D01*
X-37500Y-6509D02*
Y-4344D01*
X-39575Y-26391D02*
X-36425D01*
X-38000Y-27966D02*
Y-24816D01*
X-7075Y-26391D02*
X-3925D01*
X-5500Y-27966D02*
Y-24816D01*
X-6083Y-5427D02*
X-3917D01*
X-5000Y-6509D02*
Y-4344D01*
X-39575Y-48391D02*
X-36425D01*
X-38000Y-49966D02*
Y-46817D01*
X34417Y-5427D02*
X36583D01*
X35500Y-6509D02*
Y-4344D01*
X-7075Y-48391D02*
X-3925D01*
X-5500Y-49966D02*
Y-46817D01*
X25425Y-48391D02*
X28575D01*
X27000Y-49966D02*
Y-46817D01*
X-61575Y46500D02*
X-58425D01*
X-60000Y44925D02*
Y48075D01*
X-61575Y24465D02*
X-58425D01*
X-60000Y22890D02*
Y26039D01*
X-58583Y5900D02*
X-56417D01*
X-57500Y4817D02*
Y6983D01*
X-49000Y12354D02*
Y15504D01*
X-50575Y13929D02*
X-47425D01*
X-54583Y67429D02*
X-52417D01*
X-53500Y66347D02*
Y68512D01*
X-49035Y55598D02*
Y58748D01*
X-50610Y57173D02*
X-47461D01*
X-46583Y67429D02*
X-44417D01*
X-45500Y66347D02*
Y68512D01*
X-39575Y24465D02*
X-36425D01*
X-38000Y22890D02*
Y26039D01*
X-41083Y5800D02*
X-38917D01*
X-40000Y4717D02*
Y6883D01*
X-49000Y33925D02*
Y37075D01*
X-50575Y35500D02*
X-47425D01*
X-39575Y46465D02*
X-36425D01*
X-38000Y44890D02*
Y48039D01*
X-63083Y67429D02*
X-60917D01*
X-62000Y66347D02*
Y68512D01*
X-38583Y67429D02*
X-36417D01*
X-37500Y66347D02*
Y68512D01*
X-50083Y5900D02*
X-47917D01*
X-49000Y4817D02*
Y6983D01*
X58917Y67173D02*
X61083D01*
X60000Y66091D02*
Y68256D01*
X50917Y67173D02*
X53083D01*
X52000Y66091D02*
Y68256D01*
X42917Y67173D02*
X45083D01*
X44000Y66091D02*
Y68256D01*
X47417Y5173D02*
X49583D01*
X48500Y4091D02*
Y6256D01*
X34417Y67173D02*
X36583D01*
X35500Y66091D02*
Y68256D01*
X48500Y33669D02*
Y36819D01*
X46925Y35244D02*
X50075D01*
X35925Y24209D02*
X39075D01*
X37500Y22634D02*
Y25784D01*
X27000Y22634D02*
Y25784D01*
X25425Y24209D02*
X28575D01*
X14425Y35244D02*
X17575D01*
X16000Y33669D02*
Y36819D01*
X14390Y56917D02*
X17539D01*
X15965Y55343D02*
Y58492D01*
X11500Y66091D02*
Y68256D01*
X10417Y67173D02*
X12583D01*
X3000Y66091D02*
Y68256D01*
X1917Y67173D02*
X4083D01*
X-6083Y67394D02*
X-3917D01*
X-5000Y66311D02*
Y68476D01*
X57925Y24209D02*
X61075D01*
X59500Y22634D02*
Y25784D01*
X35925Y46244D02*
X39075D01*
X37500Y44669D02*
Y47819D01*
X27000Y44634D02*
Y47783D01*
X25425Y46209D02*
X28575D01*
X27500Y66091D02*
Y68256D01*
X26417Y67173D02*
X28583D01*
X19500Y66091D02*
Y68256D01*
X18417Y67173D02*
X20583D01*
X48465Y55343D02*
Y58492D01*
X46890Y56917D02*
X50039D01*
X57925Y46209D02*
X61075D01*
X59500Y44634D02*
Y47783D01*
X-29075Y46465D02*
X-25925D01*
X-27500Y44890D02*
Y48039D01*
X-14083Y67394D02*
X-11917D01*
X-13000Y66311D02*
Y68476D01*
X-16535Y55563D02*
Y58713D01*
X-18110Y57138D02*
X-14961D01*
X-30583Y67394D02*
X-28417D01*
X-29500Y66311D02*
Y68476D01*
X-22083Y67394D02*
X-19917D01*
X-21000Y66311D02*
Y68476D01*
X56417Y5173D02*
X58583D01*
X57500Y4091D02*
Y6256D01*
X48500Y12098D02*
Y15248D01*
X46925Y13673D02*
X50075D01*
X14425D02*
X17575D01*
X16000Y12098D02*
Y15248D01*
Y4091D02*
Y6256D01*
X14917Y5173D02*
X17083D01*
X25000Y4091D02*
Y6256D01*
X23917Y5173D02*
X26083D01*
X38917Y5244D02*
X41083D01*
X40000Y4161D02*
Y6327D01*
X5000Y22634D02*
Y25784D01*
X3425Y24209D02*
X6575D01*
X-17583Y5394D02*
X-15417D01*
X-16500Y4311D02*
Y6476D01*
Y12319D02*
Y15469D01*
X-18075Y13894D02*
X-14925D01*
X-8583Y5394D02*
X-6417D01*
X-7500Y4311D02*
Y6476D01*
X-7075Y46429D02*
X-3925D01*
X-5500Y44854D02*
Y48004D01*
X-7075Y24429D02*
X-3925D01*
X-5500Y22854D02*
Y26004D01*
X-16500Y33890D02*
Y37039D01*
X-18075Y35465D02*
X-14925D01*
X5000Y44669D02*
Y47819D01*
X3425Y46244D02*
X6575D01*
X-26083Y5465D02*
X-23917D01*
X-25000Y4382D02*
Y6547D01*
X-29075Y24429D02*
X-25925D01*
X-27500Y22854D02*
Y26004D01*
X7500Y4161D02*
Y6327D01*
X6417Y5244D02*
X8583D01*
D109*
X-118734Y-23465D02*
X-110466D01*
X-118734Y-19135D02*
X-110466D01*
Y-23465D02*
Y-19135D01*
X-118734Y-23465D02*
Y-19135D01*
X8484Y-12730D02*
X23445D01*
X8484Y-18635D02*
X23445D01*
X8484D02*
Y-12730D01*
X23445Y-18635D02*
Y-12730D01*
X2047Y-55872D02*
Y-40911D01*
X7953Y-55872D02*
Y-40911D01*
X2047Y-55872D02*
X7953D01*
X2047Y-40911D02*
X7953D01*
X8520Y-55974D02*
X23480D01*
X8520Y-61879D02*
X23480D01*
X8520D02*
Y-55974D01*
X23480Y-61879D02*
Y-55974D01*
X21272Y-8970D02*
Y-1884D01*
X17728Y-8970D02*
Y-1884D01*
X21272D01*
X17728Y-8970D02*
X21272D01*
X4772D02*
Y-1884D01*
X1228Y-8970D02*
Y-1884D01*
X4772D01*
X1228Y-8970D02*
X4772D01*
X5728Y-70899D02*
Y-63813D01*
X9272Y-70899D02*
Y-63813D01*
X5728Y-70899D02*
X9272D01*
X5728Y-63813D02*
X9272D01*
X14228Y-70970D02*
Y-63884D01*
X17772Y-70970D02*
Y-63884D01*
X14228Y-70970D02*
X17772D01*
X14228Y-63884D02*
X17772D01*
X7953Y-33836D02*
Y-18876D01*
X2047Y-33836D02*
Y-18876D01*
X7953D01*
X2047Y-33836D02*
X7953D01*
X8520Y-34403D02*
X23480D01*
X8520Y-40309D02*
X23480D01*
X8520D02*
Y-34403D01*
X23480Y-40309D02*
Y-34403D01*
X13272Y-8970D02*
Y-1884D01*
X9728Y-8970D02*
Y-1884D01*
X13272D01*
X9728Y-8970D02*
X13272D01*
X34547Y-55872D02*
Y-40911D01*
X40453Y-55872D02*
Y-40911D01*
X34547Y-55872D02*
X40453D01*
X34547Y-40911D02*
X40453D01*
X40453Y-33836D02*
Y-18876D01*
X34547Y-33836D02*
Y-18876D01*
X40453D01*
X34547Y-33836D02*
X40453D01*
X-41772Y-70970D02*
Y-63884D01*
X-38228Y-70970D02*
Y-63884D01*
X-41772Y-70970D02*
X-38228D01*
X-41772Y-63884D02*
X-38228D01*
X-50772Y-70970D02*
Y-63884D01*
X-47228Y-70970D02*
Y-63884D01*
X-50772Y-70970D02*
X-47228D01*
X-50772Y-63884D02*
X-47228D01*
X-59272Y-70899D02*
Y-63813D01*
X-55728Y-70899D02*
Y-63813D01*
X-59272Y-70899D02*
X-55728D01*
X-59272Y-63813D02*
X-55728D01*
X-26772Y-70899D02*
Y-63813D01*
X-23228Y-70899D02*
Y-63813D01*
X-26772Y-70899D02*
X-23228D01*
X-26772Y-63813D02*
X-23228D01*
X23228Y-70970D02*
Y-63884D01*
X26772Y-70970D02*
Y-63884D01*
X23228Y-70970D02*
X26772D01*
X23228Y-63884D02*
X26772D01*
X-9272Y-70970D02*
Y-63884D01*
X-5728Y-70970D02*
Y-63884D01*
X-9272Y-70970D02*
X-5728D01*
X-9272Y-63884D02*
X-5728D01*
X-18272Y-70970D02*
Y-63884D01*
X-14728Y-70970D02*
Y-63884D01*
X-18272Y-70970D02*
X-14728D01*
X-18272Y-63884D02*
X-14728D01*
X56547Y-55872D02*
Y-40911D01*
X62453Y-55872D02*
Y-40911D01*
X56547Y-55872D02*
X62453D01*
X56547Y-40911D02*
X62453D01*
X38228Y-70899D02*
Y-63813D01*
X41772Y-70899D02*
Y-63813D01*
X38228Y-70899D02*
X41772D01*
X38228Y-63813D02*
X41772D01*
X41020Y-55974D02*
X55980D01*
X41020Y-61879D02*
X55980D01*
X41020D02*
Y-55974D01*
X55980Y-61879D02*
Y-55974D01*
X55728Y-70970D02*
Y-63884D01*
X59272Y-70970D02*
Y-63884D01*
X55728Y-70970D02*
X59272D01*
X55728Y-63884D02*
X59272D01*
X41020Y-34403D02*
X55980D01*
X41020Y-40309D02*
X55980D01*
X41020D02*
Y-34403D01*
X55980Y-40309D02*
Y-34403D01*
X62453Y-33872D02*
Y-18911D01*
X56547Y-33872D02*
Y-18911D01*
X62453D01*
X56547Y-33872D02*
X62453D01*
X46728Y-70970D02*
Y-63884D01*
X50272Y-70970D02*
Y-63884D01*
X46728Y-70970D02*
X50272D01*
X46728Y-63884D02*
X50272D01*
X61772Y-8970D02*
Y-1884D01*
X58228Y-8970D02*
Y-1884D01*
X61772D01*
X58228Y-8970D02*
X61772D01*
X40984Y-12730D02*
X55945D01*
X40984Y-18635D02*
X55945D01*
X40984D02*
Y-12730D01*
X55945Y-18635D02*
Y-12730D01*
X45772Y-8970D02*
Y-1884D01*
X42228Y-8970D02*
Y-1884D01*
X45772D01*
X42228Y-8970D02*
X45772D01*
X53772D02*
Y-1884D01*
X50228Y-8970D02*
Y-1884D01*
X53772D01*
X50228Y-8970D02*
X53772D01*
X-56480Y-55974D02*
X-41520D01*
X-56480Y-61879D02*
X-41520D01*
X-56480D02*
Y-55974D01*
X-41520Y-61879D02*
Y-55974D01*
X-62953Y-55872D02*
Y-40911D01*
X-57047Y-55872D02*
Y-40911D01*
X-62953Y-55872D02*
X-57047D01*
X-62953Y-40911D02*
X-57047D01*
X-60228Y-8970D02*
Y-1884D01*
X-63772Y-8970D02*
Y-1884D01*
X-60228D01*
X-63772Y-8970D02*
X-60228D01*
X-56516Y-12730D02*
X-41555D01*
X-56516Y-18635D02*
X-41555D01*
X-56516D02*
Y-12730D01*
X-41555Y-18635D02*
Y-12730D01*
X-56480Y-34403D02*
X-41520D01*
X-56480Y-40309D02*
X-41520D01*
X-56480D02*
Y-34403D01*
X-41520Y-40309D02*
Y-34403D01*
X-57047Y-33836D02*
Y-18876D01*
X-62953Y-33836D02*
Y-18876D01*
X-57047D01*
X-62953Y-33836D02*
X-57047D01*
X-51728Y-8970D02*
Y-1884D01*
X-55272Y-8970D02*
Y-1884D01*
X-51728D01*
X-55272Y-8970D02*
X-51728D01*
X-43728D02*
Y-1884D01*
X-47272Y-8970D02*
Y-1884D01*
X-43728D01*
X-47272Y-8970D02*
X-43728D01*
X-30453Y-55872D02*
Y-40911D01*
X-24547Y-55872D02*
Y-40911D01*
X-30453Y-55872D02*
X-24547D01*
X-30453Y-40911D02*
X-24547D01*
X-23980Y-34403D02*
X-9020D01*
X-23980Y-40309D02*
X-9020D01*
X-23980D02*
Y-34403D01*
X-9020Y-40309D02*
Y-34403D01*
X-23980Y-55974D02*
X-9020D01*
X-23980Y-61879D02*
X-9020D01*
X-23980D02*
Y-55974D01*
X-9020Y-61879D02*
Y-55974D01*
X-24547Y-33836D02*
Y-18876D01*
X-30453Y-33836D02*
Y-18876D01*
X-24547D01*
X-30453Y-33836D02*
X-24547D01*
X-24016Y-12730D02*
X-9055D01*
X-24016Y-18635D02*
X-9055D01*
X-24016D02*
Y-12730D01*
X-9055Y-18635D02*
Y-12730D01*
X-11228Y-8970D02*
Y-1884D01*
X-14772Y-8970D02*
Y-1884D01*
X-11228D01*
X-14772Y-8970D02*
X-11228D01*
X-19228D02*
Y-1884D01*
X-22772Y-8970D02*
Y-1884D01*
X-19228D01*
X-22772Y-8970D02*
X-19228D01*
X-27728D02*
Y-1884D01*
X-31272Y-8970D02*
Y-1884D01*
X-27728D01*
X-31272Y-8970D02*
X-27728D01*
X29272D02*
Y-1884D01*
X25728Y-8970D02*
Y-1884D01*
X29272D01*
X25728Y-8970D02*
X29272D01*
X29953Y-33872D02*
Y-18911D01*
X24047Y-33872D02*
Y-18911D01*
X29953D01*
X24047Y-33872D02*
X29953D01*
X-35728Y-8970D02*
Y-1884D01*
X-39272Y-8970D02*
Y-1884D01*
X-35728D01*
X-39272Y-8970D02*
X-35728D01*
X-35047Y-33872D02*
Y-18911D01*
X-40953Y-33872D02*
Y-18911D01*
X-35047D01*
X-40953Y-33872D02*
X-35047D01*
X-2547D02*
Y-18911D01*
X-8453Y-33872D02*
Y-18911D01*
X-2547D01*
X-8453Y-33872D02*
X-2547D01*
X-3228Y-8970D02*
Y-1884D01*
X-6772Y-8970D02*
Y-1884D01*
X-3228D01*
X-6772Y-8970D02*
X-3228D01*
X-40953Y-55872D02*
Y-40911D01*
X-35047Y-55872D02*
Y-40911D01*
X-40953Y-55872D02*
X-35047D01*
X-40953Y-40911D02*
X-35047D01*
X37272Y-8970D02*
Y-1884D01*
X33728Y-8970D02*
Y-1884D01*
X37272D01*
X33728Y-8970D02*
X37272D01*
X-8453Y-55872D02*
Y-40911D01*
X-2547Y-55872D02*
Y-40911D01*
X-8453Y-55872D02*
X-2547D01*
X-8453Y-40911D02*
X-2547D01*
X24047Y-55872D02*
Y-40911D01*
X29953Y-55872D02*
Y-40911D01*
X24047Y-55872D02*
X29953D01*
X24047Y-40911D02*
X29953D01*
X-57047Y39020D02*
Y53980D01*
X-62953Y39020D02*
Y53980D01*
X-57047D01*
X-62953Y39020D02*
X-57047D01*
X-62953Y16984D02*
Y31945D01*
X-57047Y16984D02*
Y31945D01*
X-62953Y16984D02*
X-57047D01*
X-62953Y31945D02*
X-57047D01*
X-59272Y2357D02*
Y9443D01*
X-55728Y2357D02*
Y9443D01*
X-59272Y2357D02*
X-55728D01*
X-59272Y9443D02*
X-55728D01*
X-56480Y16882D02*
X-41520D01*
X-56480Y10976D02*
X-41520D01*
X-56480D02*
Y16882D01*
X-41520Y10976D02*
Y16882D01*
X-51728Y63886D02*
Y70972D01*
X-55272Y63886D02*
Y70972D01*
X-51728D01*
X-55272Y63886D02*
X-51728D01*
X-56516Y60126D02*
X-41555D01*
X-56516Y54220D02*
X-41555D01*
X-56516D02*
Y60126D01*
X-41555Y54220D02*
Y60126D01*
X-43728Y63886D02*
Y70972D01*
X-47272Y63886D02*
Y70972D01*
X-43728D01*
X-47272Y63886D02*
X-43728D01*
X-40953Y16984D02*
Y31945D01*
X-35047Y16984D02*
Y31945D01*
X-40953Y16984D02*
X-35047D01*
X-40953Y31945D02*
X-35047D01*
X-41772Y2257D02*
Y9343D01*
X-38228Y2257D02*
Y9343D01*
X-41772Y2257D02*
X-38228D01*
X-41772Y9343D02*
X-38228D01*
X-56480Y38453D02*
X-41520D01*
X-56480Y32547D02*
X-41520D01*
X-56480D02*
Y38453D01*
X-41520Y32547D02*
Y38453D01*
X-35047Y38984D02*
Y53945D01*
X-40953Y38984D02*
Y53945D01*
X-35047D01*
X-40953Y38984D02*
X-35047D01*
X-60228Y63886D02*
Y70972D01*
X-63772Y63886D02*
Y70972D01*
X-60228D01*
X-63772Y63886D02*
X-60228D01*
X-35728D02*
Y70972D01*
X-39272Y63886D02*
Y70972D01*
X-35728D01*
X-39272Y63886D02*
X-35728D01*
X-50772Y2357D02*
Y9443D01*
X-47228Y2357D02*
Y9443D01*
X-50772Y2357D02*
X-47228D01*
X-50772Y9443D02*
X-47228D01*
X61772Y63630D02*
Y70717D01*
X58228Y63630D02*
Y70717D01*
X61772D01*
X58228Y63630D02*
X61772D01*
X53772D02*
Y70717D01*
X50228Y63630D02*
Y70717D01*
X53772D01*
X50228Y63630D02*
X53772D01*
X45772D02*
Y70717D01*
X42228Y63630D02*
Y70717D01*
X45772D01*
X42228Y63630D02*
X45772D01*
X46728Y1630D02*
Y8716D01*
X50272Y1630D02*
Y8716D01*
X46728Y1630D02*
X50272D01*
X46728Y8716D02*
X50272D01*
X37272Y63630D02*
Y70717D01*
X33728Y63630D02*
Y70717D01*
X37272D01*
X33728Y63630D02*
X37272D01*
X41020Y38197D02*
X55980D01*
X41020Y32291D02*
X55980D01*
X41020D02*
Y38197D01*
X55980Y32291D02*
Y38197D01*
X34547Y16728D02*
Y31689D01*
X40453Y16728D02*
Y31689D01*
X34547Y16728D02*
X40453D01*
X34547Y31689D02*
X40453D01*
X24047D02*
X29953D01*
X24047Y16728D02*
X29953D01*
Y31689D01*
X24047Y16728D02*
Y31689D01*
X23480Y32291D02*
Y38197D01*
X8520Y32291D02*
Y38197D01*
Y32291D02*
X23480D01*
X8520Y38197D02*
X23480D01*
X23445Y53965D02*
Y59870D01*
X8484Y53965D02*
Y59870D01*
Y53965D02*
X23445D01*
X8484Y59870D02*
X23445D01*
X9728Y63630D02*
X13272D01*
X9728Y70717D02*
X13272D01*
X9728Y63630D02*
Y70717D01*
X13272Y63630D02*
Y70717D01*
X1228Y63630D02*
X4772D01*
X1228Y70717D02*
X4772D01*
X1228Y63630D02*
Y70717D01*
X4772Y63630D02*
Y70717D01*
X-3228Y63850D02*
Y70937D01*
X-6772Y63850D02*
Y70937D01*
X-3228D01*
X-6772Y63850D02*
X-3228D01*
X56547Y16728D02*
Y31689D01*
X62453Y16728D02*
Y31689D01*
X56547Y16728D02*
X62453D01*
X56547Y31689D02*
X62453D01*
X40453Y38764D02*
Y53724D01*
X34547Y38764D02*
Y53724D01*
X40453D01*
X34547Y38764D02*
X40453D01*
X24047Y38728D02*
X29953D01*
X24047Y53689D02*
X29953D01*
X24047Y38728D02*
Y53689D01*
X29953Y38728D02*
Y53689D01*
X25728Y63630D02*
X29272D01*
X25728Y70717D02*
X29272D01*
X25728Y63630D02*
Y70717D01*
X29272Y63630D02*
Y70717D01*
X17728Y63630D02*
X21272D01*
X17728Y70717D02*
X21272D01*
X17728Y63630D02*
Y70717D01*
X21272Y63630D02*
Y70717D01*
X40984Y59870D02*
X55945D01*
X40984Y53965D02*
X55945D01*
X40984D02*
Y59870D01*
X55945Y53965D02*
Y59870D01*
X62453Y38728D02*
Y53689D01*
X56547Y38728D02*
Y53689D01*
X62453D01*
X56547Y38728D02*
X62453D01*
X-24547Y38984D02*
Y53945D01*
X-30453Y38984D02*
Y53945D01*
X-24547D01*
X-30453Y38984D02*
X-24547D01*
X-11228Y63850D02*
Y70937D01*
X-14772Y63850D02*
Y70937D01*
X-11228D01*
X-14772Y63850D02*
X-11228D01*
X-24016Y60091D02*
X-9055D01*
X-24016Y54185D02*
X-9055D01*
X-24016D02*
Y60091D01*
X-9055Y54185D02*
Y60091D01*
X-27728Y63850D02*
Y70937D01*
X-31272Y63850D02*
Y70937D01*
X-27728D01*
X-31272Y63850D02*
X-27728D01*
X-19228D02*
Y70937D01*
X-22772Y63850D02*
Y70937D01*
X-19228D01*
X-22772Y63850D02*
X-19228D01*
X55728Y1630D02*
Y8716D01*
X59272Y1630D02*
Y8716D01*
X55728Y1630D02*
X59272D01*
X55728Y8716D02*
X59272D01*
X41020Y16626D02*
X55980D01*
X41020Y10721D02*
X55980D01*
X41020D02*
Y16626D01*
X55980Y10721D02*
Y16626D01*
X23480Y10721D02*
Y16626D01*
X8520Y10721D02*
Y16626D01*
Y10721D02*
X23480D01*
X8520Y16626D02*
X23480D01*
X14228Y8716D02*
X17772D01*
X14228Y1630D02*
X17772D01*
Y8716D01*
X14228Y1630D02*
Y8716D01*
X23228D02*
X26772D01*
X23228Y1630D02*
X26772D01*
Y8716D01*
X23228Y1630D02*
Y8716D01*
X38228Y1701D02*
Y8787D01*
X41772Y1701D02*
Y8787D01*
X38228Y1701D02*
X41772D01*
X38228Y8787D02*
X41772D01*
X2047Y31689D02*
X7953D01*
X2047Y16728D02*
X7953D01*
Y31689D01*
X2047Y16728D02*
Y31689D01*
X-18272Y1850D02*
Y8937D01*
X-14728Y1850D02*
Y8937D01*
X-18272Y1850D02*
X-14728D01*
X-18272Y8937D02*
X-14728D01*
X-23980Y16846D02*
X-9020D01*
X-23980Y10941D02*
X-9020D01*
X-23980D02*
Y16846D01*
X-9020Y10941D02*
Y16846D01*
X-9272Y1850D02*
Y8937D01*
X-5728Y1850D02*
Y8937D01*
X-9272Y1850D02*
X-5728D01*
X-9272Y8937D02*
X-5728D01*
X-2547Y38949D02*
Y53909D01*
X-8453Y38949D02*
Y53909D01*
X-2547D01*
X-8453Y38949D02*
X-2547D01*
X-8453Y16949D02*
Y31909D01*
X-2547Y16949D02*
Y31909D01*
X-8453Y16949D02*
X-2547D01*
X-8453Y31909D02*
X-2547D01*
X-23980Y38417D02*
X-9020D01*
X-23980Y32512D02*
X-9020D01*
X-23980D02*
Y38417D01*
X-9020Y32512D02*
Y38417D01*
X2047Y38764D02*
X7953D01*
X2047Y53724D02*
X7953D01*
X2047Y38764D02*
Y53724D01*
X7953Y38764D02*
Y53724D01*
X-26772Y1921D02*
Y9008D01*
X-23228Y1921D02*
Y9008D01*
X-26772Y1921D02*
X-23228D01*
X-26772Y9008D02*
X-23228D01*
X-30453Y16949D02*
Y31909D01*
X-24547Y16949D02*
Y31909D01*
X-30453Y16949D02*
X-24547D01*
X-30453Y31909D02*
X-24547D01*
X5728Y8787D02*
X9272D01*
X5728Y1701D02*
X9272D01*
Y8787D01*
X5728Y1701D02*
Y8787D01*
M02*
