G04*
G04 #@! TF.GenerationSoftware,Altium Limited,Altium Designer,22.4.2 (48)*
G04*
G04 Layer_Color=16711935*
%FSLAX25Y25*%
%MOIN*%
G70*
G04*
G04 #@! TF.SameCoordinates,FFA694D2-1829-43A5-BD7A-47FC6BC8C01B*
G04*
G04*
G04 #@! TF.FilePolarity,Negative*
G04*
G01*
G75*
%ADD15R,0.03543X0.02559*%
%ADD16R,0.03150X0.03150*%
%ADD22R,0.03543X0.02953*%
%ADD24R,0.02953X0.03543*%
G04:AMPARAMS|DCode=41|XSize=39.5mil|YSize=70.99mil|CornerRadius=15.81mil|HoleSize=0mil|Usage=FLASHONLY|Rotation=0.000|XOffset=0mil|YOffset=0mil|HoleType=Round|Shape=RoundedRectangle|*
%AMROUNDEDRECTD41*
21,1,0.03950,0.03937,0,0,0.0*
21,1,0.00787,0.07099,0,0,0.0*
1,1,0.03162,0.00394,-0.01968*
1,1,0.03162,-0.00394,-0.01968*
1,1,0.03162,-0.00394,0.01968*
1,1,0.03162,0.00394,0.01968*
%
%ADD41ROUNDEDRECTD41*%
%ADD42C,0.05359*%
%ADD43C,0.05300*%
G04:AMPARAMS|DCode=44|XSize=39.5mil|YSize=70.99mil|CornerRadius=15.81mil|HoleSize=0mil|Usage=FLASHONLY|Rotation=90.000|XOffset=0mil|YOffset=0mil|HoleType=Round|Shape=RoundedRectangle|*
%AMROUNDEDRECTD44*
21,1,0.03950,0.03937,0,0,90.0*
21,1,0.00787,0.07099,0,0,90.0*
1,1,0.03162,0.01968,0.00394*
1,1,0.03162,0.01968,-0.00394*
1,1,0.03162,-0.01968,-0.00394*
1,1,0.03162,-0.01968,0.00394*
%
%ADD44ROUNDEDRECTD44*%
%ADD45R,0.07099X0.03950*%
%ADD46C,0.03200*%
%ADD47C,0.04400*%
%ADD61R,0.03642X0.06693*%
%ADD62R,0.01575X0.07480*%
%ADD63R,0.04134X0.06299*%
%ADD66R,0.02047X0.02047*%
%ADD67R,0.03150X0.03543*%
%ADD68R,0.01499X0.06517*%
G04:AMPARAMS|DCode=69|XSize=65.17mil|YSize=14.99mil|CornerRadius=7.5mil|HoleSize=0mil|Usage=FLASHONLY|Rotation=90.000|XOffset=0mil|YOffset=0mil|HoleType=Round|Shape=RoundedRectangle|*
%AMROUNDEDRECTD69*
21,1,0.06517,0.00000,0,0,90.0*
21,1,0.05018,0.01499,0,0,90.0*
1,1,0.01499,0.00000,0.02509*
1,1,0.01499,0.00000,-0.02509*
1,1,0.01499,0.00000,-0.02509*
1,1,0.01499,0.00000,0.02509*
%
%ADD69ROUNDEDRECTD69*%
%ADD72R,0.02756X0.03937*%
%ADD73R,0.02756X0.02362*%
%ADD80R,0.01772X0.06890*%
%ADD84R,0.03773X0.03961*%
%ADD85R,0.07087X0.05276*%
G04:AMPARAMS|DCode=89|XSize=19.81mil|YSize=70.99mil|CornerRadius=0mil|HoleSize=0mil|Usage=FLASHONLY|Rotation=225.000|XOffset=0mil|YOffset=0mil|HoleType=Round|Shape=Round|*
%AMOVALD89*
21,1,0.05118,0.01981,0.00000,0.00000,315.0*
1,1,0.01981,-0.01810,0.01810*
1,1,0.01981,0.01810,-0.01810*
%
%ADD89OVALD89*%

G04:AMPARAMS|DCode=90|XSize=19.81mil|YSize=70.99mil|CornerRadius=0mil|HoleSize=0mil|Usage=FLASHONLY|Rotation=135.000|XOffset=0mil|YOffset=0mil|HoleType=Round|Shape=Round|*
%AMOVALD90*
21,1,0.05118,0.01981,0.00000,0.00000,225.0*
1,1,0.01981,0.01810,0.01810*
1,1,0.01981,-0.01810,-0.01810*
%
%ADD90OVALD90*%

%ADD91R,0.09461X0.07099*%
%ADD92R,0.09383X0.07099*%
%ADD93O,0.09461X0.02178*%
%ADD94R,0.04737X0.07099*%
%ADD95R,0.12611X0.10642*%
%ADD96R,0.08280X0.08280*%
%ADD97R,0.09068X0.07099*%
%ADD98R,0.02375X0.06115*%
G04:AMPARAMS|DCode=99|XSize=31.62mil|YSize=47.37mil|CornerRadius=6.01mil|HoleSize=0mil|Usage=FLASHONLY|Rotation=180.000|XOffset=0mil|YOffset=0mil|HoleType=Round|Shape=RoundedRectangle|*
%AMROUNDEDRECTD99*
21,1,0.03162,0.03535,0,0,180.0*
21,1,0.01961,0.04737,0,0,180.0*
1,1,0.01202,-0.00980,0.01768*
1,1,0.01202,0.00980,0.01768*
1,1,0.01202,0.00980,-0.01768*
1,1,0.01202,-0.00980,-0.01768*
%
%ADD99ROUNDEDRECTD99*%
%ADD100R,0.04147X0.03556*%
%ADD101R,0.08300X0.11800*%
G04:AMPARAMS|DCode=102|XSize=65.09mil|YSize=31.23mil|CornerRadius=6.9mil|HoleSize=0mil|Usage=FLASHONLY|Rotation=0.000|XOffset=0mil|YOffset=0mil|HoleType=Round|Shape=RoundedRectangle|*
%AMROUNDEDRECTD102*
21,1,0.06509,0.01742,0,0,0.0*
21,1,0.05128,0.03123,0,0,0.0*
1,1,0.01381,0.02564,-0.00871*
1,1,0.01381,-0.02564,-0.00871*
1,1,0.01381,-0.02564,0.00871*
1,1,0.01381,0.02564,0.00871*
%
%ADD102ROUNDEDRECTD102*%
D15*
X-70100Y-39854D02*
D03*
Y-34146D02*
D03*
D16*
X-76500Y-34047D02*
D03*
Y-39953D02*
D03*
D22*
X129100Y-48962D02*
D03*
Y-44238D02*
D03*
X73100Y-96062D02*
D03*
X73131Y-91338D02*
D03*
D24*
X116238Y24600D02*
D03*
X120962D02*
D03*
X862Y-95000D02*
D03*
X-3862D02*
D03*
X-102638Y70100D02*
D03*
X-107362D02*
D03*
X-102738Y62300D02*
D03*
X-107462D02*
D03*
X116238Y32200D02*
D03*
X120962D02*
D03*
X116238Y17100D02*
D03*
X120962D02*
D03*
X116200Y9500D02*
D03*
X120924D02*
D03*
X111962Y68600D02*
D03*
X107238D02*
D03*
X111962Y90200D02*
D03*
X107238D02*
D03*
D41*
X116121Y102500D02*
D03*
X121043D02*
D03*
X111200D02*
D03*
X106279D02*
D03*
D42*
X-62000Y-81000D02*
D03*
X-57000D02*
D03*
X-52000D02*
D03*
X-47000D02*
D03*
X-42000D02*
D03*
X-62000Y-86000D02*
D03*
X-57000D02*
D03*
X-52000D02*
D03*
X-47000D02*
D03*
X-42000D02*
D03*
D43*
X86614Y-47244D02*
D03*
X-86614D02*
D03*
Y47244D02*
D03*
X86614D02*
D03*
D44*
X-132700Y57106D02*
D03*
Y52185D02*
D03*
Y47264D02*
D03*
Y42342D02*
D03*
Y37421D02*
D03*
Y32500D02*
D03*
Y27579D02*
D03*
Y22658D02*
D03*
Y17736D02*
D03*
Y12815D02*
D03*
Y7894D02*
D03*
D45*
Y2972D02*
D03*
D46*
X-94960Y8961D02*
D03*
X-101200Y-12489D02*
D03*
D47*
X-71200Y-93100D02*
D03*
X-66400D02*
D03*
D61*
X112936Y51000D02*
D03*
X123664D02*
D03*
Y60400D02*
D03*
X112936D02*
D03*
D62*
X105276Y-48700D02*
D03*
X110000D02*
D03*
X114724D02*
D03*
D63*
X89807Y96600D02*
D03*
X78193D02*
D03*
X112493Y40500D02*
D03*
X124107D02*
D03*
X78093Y106800D02*
D03*
X89707D02*
D03*
D66*
X-98000Y-56875D02*
D03*
Y-53725D02*
D03*
X-118800Y-53525D02*
D03*
Y-56675D02*
D03*
D67*
X80800Y23663D02*
D03*
X84540Y31537D02*
D03*
X77060D02*
D03*
X122500Y88147D02*
D03*
Y81454D02*
D03*
D68*
X-99643Y30876D02*
D03*
D69*
X-102202D02*
D03*
X-104761D02*
D03*
X-107320D02*
D03*
X-109880D02*
D03*
X-112439D02*
D03*
X-114998D02*
D03*
X-117557D02*
D03*
Y53124D02*
D03*
X-114998D02*
D03*
X-112439D02*
D03*
X-109880D02*
D03*
X-107320D02*
D03*
X-104761D02*
D03*
X-102202D02*
D03*
X-99643D02*
D03*
D72*
X113837Y-71747D02*
D03*
D73*
Y-78440D02*
D03*
X105963D02*
D03*
Y-70960D02*
D03*
D80*
X129134Y-7527D02*
D03*
X126575D02*
D03*
X124016D02*
D03*
X121457D02*
D03*
X118898D02*
D03*
X116339D02*
D03*
X113779D02*
D03*
X111221D02*
D03*
X108661D02*
D03*
X106102D02*
D03*
X103543D02*
D03*
X100984D02*
D03*
X98425D02*
D03*
X95866D02*
D03*
Y-35873D02*
D03*
X98425D02*
D03*
X100984D02*
D03*
X103543D02*
D03*
X106102D02*
D03*
X108661D02*
D03*
X111221D02*
D03*
X113779D02*
D03*
X116339D02*
D03*
X118898D02*
D03*
X121457D02*
D03*
X124016D02*
D03*
X126575D02*
D03*
X129134D02*
D03*
D84*
X81500Y-96160D02*
D03*
Y-90640D02*
D03*
D85*
X103900Y51230D02*
D03*
Y39970D02*
D03*
D89*
X-83957Y-90199D02*
D03*
X-96485Y-102726D02*
D03*
X-90917Y-97159D02*
D03*
X-89525Y-95767D02*
D03*
X-105115Y-63474D02*
D03*
X-106507Y-64866D02*
D03*
X-107899Y-66258D02*
D03*
X-109291Y-67649D02*
D03*
X-110683Y-69041D02*
D03*
X-112075Y-70433D02*
D03*
X-113467Y-71825D02*
D03*
X-114859Y-73217D02*
D03*
X-116251Y-74609D02*
D03*
X-117642Y-76001D02*
D03*
X-119034Y-77393D02*
D03*
X-120426Y-78785D02*
D03*
X-95093Y-101335D02*
D03*
X-93701Y-99942D02*
D03*
X-92309Y-98551D02*
D03*
X-88133Y-94375D02*
D03*
X-86741Y-92983D02*
D03*
X-85349Y-91591D02*
D03*
X-82565Y-88807D02*
D03*
X-81174Y-87415D02*
D03*
D90*
X-105115Y-102726D02*
D03*
X-120426Y-87415D02*
D03*
X-119034Y-88807D02*
D03*
X-117642Y-90199D02*
D03*
X-116251Y-91591D02*
D03*
X-114859Y-92983D02*
D03*
X-113467Y-94375D02*
D03*
X-112075Y-95767D02*
D03*
X-110683Y-97159D02*
D03*
X-109291Y-98551D02*
D03*
X-107899Y-99942D02*
D03*
X-106507Y-101335D02*
D03*
X-81174Y-78785D02*
D03*
X-82565Y-77393D02*
D03*
X-83957Y-76001D02*
D03*
X-85349Y-74609D02*
D03*
X-86741Y-73217D02*
D03*
X-88133Y-71825D02*
D03*
X-89525Y-70433D02*
D03*
X-90917Y-69041D02*
D03*
X-92309Y-67649D02*
D03*
X-93701Y-66258D02*
D03*
X-95093Y-64866D02*
D03*
X-96485Y-63474D02*
D03*
D91*
X-19590Y-83000D02*
D03*
D92*
X16590D02*
D03*
D93*
X-106949Y-14550D02*
D03*
Y-12050D02*
D03*
Y-9550D02*
D03*
Y-7050D02*
D03*
Y-4550D02*
D03*
Y-2050D02*
D03*
Y450D02*
D03*
Y2950D02*
D03*
Y5450D02*
D03*
Y7950D02*
D03*
Y10450D02*
D03*
Y12950D02*
D03*
X-88051Y-14550D02*
D03*
Y-12050D02*
D03*
Y-9550D02*
D03*
Y-7050D02*
D03*
Y-4550D02*
D03*
Y-2050D02*
D03*
Y450D02*
D03*
Y2950D02*
D03*
Y5450D02*
D03*
Y7950D02*
D03*
Y10450D02*
D03*
Y12950D02*
D03*
D94*
X-103364Y-55200D02*
D03*
X-113600D02*
D03*
D95*
X-108482Y-30594D02*
D03*
D96*
X93715Y-97800D02*
D03*
X123636D02*
D03*
X103951D02*
D03*
X113400D02*
D03*
D97*
X96471Y-87761D02*
D03*
X120880D02*
D03*
D98*
X103558Y-87269D02*
D03*
X106116D02*
D03*
X108676D02*
D03*
X111235D02*
D03*
X113794D02*
D03*
D99*
X100460Y22213D02*
D03*
X104200D02*
D03*
X107940D02*
D03*
Y11387D02*
D03*
X100460D02*
D03*
D100*
X122600Y75261D02*
D03*
Y70339D02*
D03*
D101*
X72050Y79500D02*
D03*
X91150D02*
D03*
D102*
X104853Y75560D02*
D03*
Y79300D02*
D03*
Y83040D02*
D03*
X113947D02*
D03*
Y79300D02*
D03*
Y75560D02*
D03*
M02*
