G04*
G04 #@! TF.GenerationSoftware,Altium Limited,Altium Designer,22.4.2 (48)*
G04*
G04 Layer_Color=16711935*
%FSLAX25Y25*%
%MOIN*%
G70*
G04*
G04 #@! TF.SameCoordinates,FFA694D2-1829-43A5-BD7A-47FC6BC8C01B*
G04*
G04*
G04 #@! TF.FilePolarity,Positive*
G04*
G01*
G75*
G36*
X104367Y19293D02*
X104441Y19289D01*
X104497Y19282D01*
X104545Y19274D01*
X104575Y19270D01*
X104593Y19263D01*
X104601D01*
X104649Y19248D01*
X104689Y19233D01*
X104726Y19219D01*
X104760Y19204D01*
X104786Y19189D01*
X104808Y19178D01*
X104819Y19174D01*
X104823Y19171D01*
X104889Y19122D01*
X104915Y19100D01*
X104941Y19074D01*
X104959Y19056D01*
X104974Y19041D01*
X104985Y19030D01*
X104989Y19026D01*
X105030Y18971D01*
X105067Y18915D01*
X105100Y18856D01*
X105126Y18793D01*
X105148Y18734D01*
X105167Y18671D01*
X105196Y18553D01*
X105207Y18501D01*
X105215Y18449D01*
X105219Y18405D01*
X105222Y18368D01*
X105226Y18334D01*
Y18290D01*
X105222Y18209D01*
X105215Y18127D01*
X105204Y18053D01*
X105189Y17987D01*
X105170Y17920D01*
X105152Y17861D01*
X105130Y17805D01*
X105107Y17757D01*
X105085Y17713D01*
X105063Y17672D01*
X105045Y17639D01*
X105026Y17613D01*
X105011Y17591D01*
X105000Y17572D01*
X104993Y17565D01*
X104989Y17561D01*
X104930Y17502D01*
X104904Y17480D01*
X104878Y17457D01*
X104856Y17443D01*
X104837Y17432D01*
X104826Y17424D01*
X104823Y17420D01*
X104786Y17398D01*
X104749Y17380D01*
X104708Y17361D01*
X104675Y17346D01*
X104641Y17335D01*
X104615Y17328D01*
X104601Y17321D01*
X104593D01*
X104538Y17306D01*
X104471Y17298D01*
X104404Y17291D01*
X104338Y17284D01*
X104279D01*
X104253Y17280D01*
X104231D01*
X104212D01*
X104197D01*
X104190D01*
X104186D01*
X102850D01*
Y17616D01*
X104186D01*
X104238D01*
X104282D01*
X104364Y17624D01*
X104430Y17631D01*
X104486Y17639D01*
X104527Y17646D01*
X104556Y17653D01*
X104571Y17657D01*
X104578Y17661D01*
X104619Y17679D01*
X104656Y17702D01*
X104689Y17728D01*
X104719Y17750D01*
X104741Y17772D01*
X104760Y17790D01*
X104771Y17801D01*
X104774Y17805D01*
X104826Y17879D01*
X104863Y17961D01*
X104893Y18042D01*
X104911Y18120D01*
X104922Y18190D01*
X104926Y18220D01*
Y18246D01*
X104930Y18264D01*
Y18294D01*
X104926Y18371D01*
X104919Y18438D01*
X104904Y18501D01*
X104889Y18556D01*
X104878Y18601D01*
X104863Y18634D01*
X104856Y18653D01*
X104852Y18660D01*
X104823Y18715D01*
X104786Y18760D01*
X104752Y18801D01*
X104719Y18834D01*
X104689Y18856D01*
X104667Y18875D01*
X104652Y18886D01*
X104645Y18889D01*
X104619Y18900D01*
X104589Y18915D01*
X104519Y18934D01*
X104441Y18945D01*
X104367Y18952D01*
X104297Y18960D01*
X104268D01*
X104238Y18963D01*
X104216D01*
X104201D01*
X104190D01*
X104186D01*
X102850D01*
Y19300D01*
X104183D01*
X104282D01*
X104367Y19293D01*
D02*
G37*
G36*
X105200Y16040D02*
X102850D01*
Y16377D01*
X105200D01*
Y16040D01*
D02*
G37*
G36*
X104127Y15237D02*
X104219Y15234D01*
X104308Y15223D01*
X104390Y15208D01*
X104467Y15193D01*
X104538Y15178D01*
X104604Y15160D01*
X104664Y15137D01*
X104719Y15119D01*
X104763Y15100D01*
X104804Y15086D01*
X104837Y15071D01*
X104863Y15056D01*
X104882Y15045D01*
X104893Y15041D01*
X104897Y15038D01*
X104952Y14997D01*
X105004Y14953D01*
X105048Y14908D01*
X105085Y14864D01*
X105115Y14819D01*
X105141Y14771D01*
X105163Y14727D01*
X105182Y14682D01*
X105196Y14642D01*
X105204Y14605D01*
X105211Y14571D01*
X105219Y14542D01*
Y14520D01*
X105222Y14501D01*
Y14486D01*
X105219Y14423D01*
X105207Y14368D01*
X105193Y14312D01*
X105170Y14261D01*
X105145Y14212D01*
X105115Y14168D01*
X105085Y14127D01*
X105056Y14090D01*
X105026Y14057D01*
X104993Y14028D01*
X104967Y14002D01*
X104941Y13979D01*
X104919Y13965D01*
X104904Y13953D01*
X104893Y13946D01*
X104889Y13942D01*
X104823Y13905D01*
X104756Y13872D01*
X104682Y13842D01*
X104612Y13817D01*
X104538Y13798D01*
X104467Y13780D01*
X104397Y13765D01*
X104327Y13754D01*
X104264Y13746D01*
X104205Y13739D01*
X104153Y13735D01*
X104109Y13732D01*
X104071Y13728D01*
X104042D01*
X104027D01*
X104020D01*
X103923Y13732D01*
X103831Y13735D01*
X103746Y13746D01*
X103665Y13761D01*
X103587Y13776D01*
X103516Y13794D01*
X103454Y13817D01*
X103394Y13835D01*
X103339Y13854D01*
X103295Y13876D01*
X103254Y13894D01*
X103220Y13909D01*
X103191Y13924D01*
X103172Y13931D01*
X103161Y13939D01*
X103158Y13942D01*
X103098Y13983D01*
X103047Y14028D01*
X102998Y14068D01*
X102962Y14116D01*
X102928Y14161D01*
X102899Y14205D01*
X102876Y14246D01*
X102858Y14287D01*
X102847Y14327D01*
X102836Y14360D01*
X102828Y14394D01*
X102821Y14420D01*
Y14446D01*
X102817Y14460D01*
Y14475D01*
X102821Y14538D01*
X102832Y14597D01*
X102847Y14653D01*
X102869Y14705D01*
X102895Y14756D01*
X102925Y14801D01*
X102954Y14841D01*
X102984Y14878D01*
X103017Y14916D01*
X103047Y14945D01*
X103076Y14971D01*
X103102Y14989D01*
X103124Y15008D01*
X103139Y15019D01*
X103150Y15026D01*
X103154Y15030D01*
X103220Y15067D01*
X103287Y15100D01*
X103361Y15126D01*
X103431Y15152D01*
X103505Y15171D01*
X103579Y15189D01*
X103650Y15204D01*
X103716Y15215D01*
X103779Y15223D01*
X103838Y15230D01*
X103894Y15234D01*
X103938Y15237D01*
X103975Y15241D01*
X104005D01*
X104020D01*
X104027D01*
X104127Y15237D01*
D02*
G37*
G36*
X105200Y12592D02*
X102850D01*
Y12929D01*
X105200D01*
Y12592D01*
D02*
G37*
%LPC*%
G36*
X104060Y14908D02*
X104038D01*
X104023D01*
X104020D01*
X103946D01*
X103875Y14904D01*
X103809Y14897D01*
X103746Y14890D01*
X103690Y14882D01*
X103639Y14871D01*
X103591Y14864D01*
X103546Y14853D01*
X103505Y14841D01*
X103472Y14830D01*
X103443Y14823D01*
X103420Y14816D01*
X103402Y14808D01*
X103387Y14801D01*
X103380Y14797D01*
X103376D01*
X103335Y14775D01*
X103298Y14753D01*
X103265Y14727D01*
X103235Y14701D01*
X103213Y14675D01*
X103195Y14649D01*
X103165Y14601D01*
X103147Y14557D01*
X103139Y14523D01*
X103135Y14509D01*
Y14471D01*
X103139Y14438D01*
X103147Y14405D01*
X103158Y14375D01*
X103172Y14349D01*
X103213Y14298D01*
X103258Y14257D01*
X103302Y14224D01*
X103343Y14198D01*
X103357Y14190D01*
X103368Y14183D01*
X103376Y14179D01*
X103380D01*
X103428Y14161D01*
X103476Y14142D01*
X103583Y14116D01*
X103694Y14094D01*
X103798Y14083D01*
X103846Y14076D01*
X103890D01*
X103927Y14072D01*
X103964Y14068D01*
X103990D01*
X104012D01*
X104027D01*
X104031D01*
X104105D01*
X104175Y14072D01*
X104242Y14079D01*
X104305Y14087D01*
X104360Y14094D01*
X104412Y14105D01*
X104460Y14116D01*
X104504Y14124D01*
X104545Y14135D01*
X104578Y14146D01*
X104608Y14157D01*
X104630Y14164D01*
X104649Y14172D01*
X104664Y14179D01*
X104671Y14183D01*
X104675D01*
X104715Y14205D01*
X104752Y14227D01*
X104786Y14253D01*
X104812Y14279D01*
X104834Y14305D01*
X104852Y14331D01*
X104882Y14379D01*
X104900Y14423D01*
X104908Y14457D01*
X104911Y14471D01*
Y14490D01*
X104908Y14527D01*
X104900Y14560D01*
X104889Y14590D01*
X104874Y14619D01*
X104837Y14675D01*
X104793Y14716D01*
X104749Y14753D01*
X104712Y14775D01*
X104697Y14786D01*
X104686Y14793D01*
X104678Y14797D01*
X104675D01*
X104627Y14816D01*
X104578Y14834D01*
X104471Y14860D01*
X104364Y14882D01*
X104256Y14893D01*
X104208Y14897D01*
X104164Y14901D01*
X104123Y14904D01*
X104090D01*
X104060Y14908D01*
D02*
G37*
%LPD*%
M02*
