G04*
G04 #@! TF.GenerationSoftware,Altium Limited,Altium Designer,22.4.2 (48)*
G04*
G04 Layer_Color=0*
%FSLAX25Y25*%
%MOIN*%
G70*
G04*
G04 #@! TF.SameCoordinates,FFA694D2-1829-43A5-BD7A-47FC6BC8C01B*
G04*
G04*
G04 #@! TF.FilePolarity,Positive*
G04*
G01*
G75*
%ADD108C,0.00394*%
D108*
X80100Y88032D02*
Y91969D01*
X78132Y90000D02*
X82069D01*
X85031Y90200D02*
X88968D01*
X87000Y88231D02*
Y92168D01*
X84732Y102400D02*
X88669D01*
X86700Y100432D02*
Y104368D01*
X78531Y102400D02*
X82468D01*
X80500Y100432D02*
Y104368D01*
X109700Y28131D02*
Y32068D01*
X107731Y30100D02*
X111669D01*
X98700Y-71169D02*
Y-67232D01*
X96732Y-69200D02*
X100669D01*
X75032Y-69000D02*
X78969D01*
X77000Y-70969D02*
Y-67032D01*
X-75468Y-102500D02*
X-71531D01*
X-73500Y-104469D02*
Y-100531D01*
X-66069Y-102400D02*
X-62132D01*
X-64100Y-104368D02*
Y-100432D01*
X-124100Y3331D02*
Y7269D01*
X-126068Y5300D02*
X-122132D01*
X-103700Y46832D02*
Y50769D01*
X-105668Y48800D02*
X-101732D01*
X-112300Y46865D02*
Y50802D01*
X-114269Y48834D02*
X-110331D01*
X-103800Y58165D02*
Y62102D01*
X-105769Y60133D02*
X-101831D01*
X-112300Y58165D02*
Y62102D01*
X-114269Y60133D02*
X-110331D01*
X-120900Y58165D02*
Y62102D01*
X-122869Y60133D02*
X-118931D01*
X-120900Y46765D02*
Y50702D01*
X-122869Y48733D02*
X-118931D01*
X-114038Y-6069D02*
Y-2131D01*
X-116006Y-4100D02*
X-112069D01*
X-111000Y-14769D02*
Y-10831D01*
X-112969Y-12800D02*
X-109031D01*
X-17968Y-83000D02*
X-14031D01*
X-16000Y-84969D02*
Y-81032D01*
X-26969Y-82867D02*
X-23031D01*
X-25000Y-84835D02*
Y-80898D01*
X-35469Y-83000D02*
X-31532D01*
X-33500Y-84969D02*
Y-81032D01*
X91300Y-62068D02*
Y-58131D01*
X89332Y-60100D02*
X93269D01*
X105500Y-61968D02*
Y-58031D01*
X103532Y-60000D02*
X107468D01*
X126100Y3531D02*
Y7468D01*
X124132Y5500D02*
X128068D01*
X112400Y89332D02*
Y93269D01*
X110432Y91300D02*
X114368D01*
X124600Y89332D02*
Y93269D01*
X122632Y91300D02*
X126568D01*
X129400Y-37969D02*
Y-34032D01*
X127431Y-36000D02*
X131369D01*
X120832Y-46500D02*
X124768D01*
X122800Y-48469D02*
Y-44532D01*
X116400Y-37969D02*
Y-34032D01*
X114432Y-36000D02*
X118368D01*
X105900Y19632D02*
Y23569D01*
X103931Y21600D02*
X107869D01*
X-108662Y-66262D02*
X-105878Y-63478D01*
X-108662D02*
X-105878Y-66262D01*
X-97592Y-85108D02*
X-94808Y-87892D01*
X-97592D02*
X-94808Y-85108D01*
X-94292Y-77108D02*
X-91508Y-79892D01*
X-94292D02*
X-91508Y-77108D01*
X-111392Y-78092D02*
X-108608Y-75308D01*
X-111392D02*
X-108608Y-78092D01*
X-103992Y-70792D02*
X-101208Y-68008D01*
X-103992D02*
X-101208Y-70792D01*
X-118722Y-85422D02*
X-115938Y-82638D01*
X-118722D02*
X-115938Y-85422D01*
X-87392Y-70708D02*
X-84608Y-73492D01*
X-87392D02*
X-84608Y-70708D01*
X-89792Y-92692D02*
X-87008Y-89908D01*
X-89792D02*
X-87008Y-92692D01*
X108031Y5400D02*
X111969D01*
X110000Y3432D02*
Y7368D01*
X107931Y13200D02*
X111869D01*
X109900Y11231D02*
Y15168D01*
X96431Y-21000D02*
X100368D01*
X98400Y-22968D02*
Y-19031D01*
X96369Y-14700D02*
X100306D01*
X98338Y-16669D02*
Y-12731D01*
X96294Y-7700D02*
X100231D01*
X98262Y-9668D02*
Y-5731D01*
X124069Y13100D02*
X128006D01*
X126038Y11131D02*
Y15068D01*
M02*
