G04*
G04 #@! TF.GenerationSoftware,Altium Limited,Altium Designer,22.4.2 (48)*
G04*
G04 Layer_Color=128*
%FSLAX25Y25*%
%MOIN*%
G70*
G04*
G04 #@! TF.SameCoordinates,FFA694D2-1829-43A5-BD7A-47FC6BC8C01B*
G04*
G04*
G04 #@! TF.FilePolarity,Positive*
G04*
G01*
G75*
%ADD107C,0.00500*%
D107*
X115334Y102500D02*
X116909D01*
X116121Y101713D02*
Y103287D01*
X120255Y102500D02*
X121830D01*
X121043Y101713D02*
Y103287D01*
X110413Y102500D02*
X111987D01*
X111200Y101713D02*
Y103287D01*
X105491Y102500D02*
X107066D01*
X106279Y101713D02*
Y103287D01*
X-63279Y-81000D02*
X-60720D01*
X-62000Y-82279D02*
Y-79720D01*
X-58280Y-81000D02*
X-55721D01*
X-57000Y-82279D02*
Y-79720D01*
X-53280Y-81000D02*
X-50721D01*
X-52000Y-82279D02*
Y-79720D01*
X-48280Y-81000D02*
X-45720D01*
X-47000Y-82279D02*
Y-79720D01*
X-43279Y-81000D02*
X-40720D01*
X-42000Y-82279D02*
Y-79720D01*
X-63279Y-86000D02*
X-60720D01*
X-62000Y-87279D02*
Y-84720D01*
X-58280Y-86000D02*
X-55721D01*
X-57000Y-87279D02*
Y-84720D01*
X-53280Y-86000D02*
X-50721D01*
X-52000Y-87279D02*
Y-84720D01*
X-48280Y-86000D02*
X-45720D01*
X-47000Y-87279D02*
Y-84720D01*
X-43279Y-86000D02*
X-40720D01*
X-42000Y-87279D02*
Y-84720D01*
X82114Y-47244D02*
X91114D01*
X86614Y-51744D02*
Y-42744D01*
X-91114Y-47244D02*
X-82114D01*
X-86614Y-51744D02*
Y-42744D01*
X-91114Y47244D02*
X-82114D01*
X-86614Y42744D02*
Y51744D01*
X82114Y47244D02*
X91114D01*
X86614Y42744D02*
Y51744D01*
X-133783Y57106D02*
X-131617D01*
X-132700Y56024D02*
Y58189D01*
X-133783Y52185D02*
X-131617D01*
X-132700Y51102D02*
Y53268D01*
X-133783Y47264D02*
X-131617D01*
X-132700Y46181D02*
Y48346D01*
X-133783Y42342D02*
X-131617D01*
X-132700Y41260D02*
Y43425D01*
X-133783Y37421D02*
X-131617D01*
X-132700Y36339D02*
Y38504D01*
X-133783Y32500D02*
X-131617D01*
X-132700Y31417D02*
Y33583D01*
X-133783Y27579D02*
X-131617D01*
X-132700Y26496D02*
Y28661D01*
X-133783Y22658D02*
X-131617D01*
X-132700Y21575D02*
Y23740D01*
X-133783Y17736D02*
X-131617D01*
X-132700Y16654D02*
Y18819D01*
X-133783Y12815D02*
X-131617D01*
X-132700Y11732D02*
Y13898D01*
X-133783Y7894D02*
X-131617D01*
X-132700Y6811D02*
Y8976D01*
X-133783Y2972D02*
X-131617D01*
X-132700Y1890D02*
Y4055D01*
X-110600Y25400D02*
X-109600D01*
X-110100Y24900D02*
Y25900D01*
X4000Y-85900D02*
X5000D01*
X4500Y-86400D02*
Y-85400D01*
X36500Y-90900D02*
X37500D01*
X37000Y-91400D02*
Y-90400D01*
X59000Y-95900D02*
X60000D01*
X59500Y-96400D02*
Y-95400D01*
X59000Y-75900D02*
X60000D01*
X59500Y-76400D02*
Y-75400D01*
X129000Y-75900D02*
X130000D01*
X129500Y-76400D02*
Y-75400D01*
X136500Y-40900D02*
X137500D01*
X137000Y-41400D02*
Y-40400D01*
X41500Y-90900D02*
X42500D01*
X42000Y-91400D02*
Y-90400D01*
X111500Y-20900D02*
X112500D01*
X112000Y-21400D02*
Y-20400D01*
X46500Y-80900D02*
X47500D01*
X47000Y-81400D02*
Y-80400D01*
X79000Y-5900D02*
X80000D01*
X79500Y-6400D02*
Y-5400D01*
X9000Y-105900D02*
X10000D01*
X9500Y-106400D02*
Y-105400D01*
X-1000Y-105900D02*
X0D01*
X-500Y-106400D02*
Y-105400D01*
X-6000Y-85900D02*
X-5000D01*
X-5500Y-86400D02*
Y-85400D01*
X-21000Y-95900D02*
X-20000D01*
X-20500Y-96400D02*
Y-95400D01*
X-31000Y-105900D02*
X-30000D01*
X-30500Y-106400D02*
Y-105400D01*
X-51000Y-105900D02*
X-50000D01*
X-50500Y-106400D02*
Y-105400D01*
X46500Y-90900D02*
X47500D01*
X47000Y-91400D02*
Y-90400D01*
X-63500Y-110900D02*
X-62500D01*
X-63000Y-111400D02*
Y-110400D01*
X124000Y-65900D02*
X125000D01*
X124500Y-66400D02*
Y-65400D01*
X-71000Y4100D02*
X-70000D01*
X-70500Y3600D02*
Y4600D01*
X-11000Y-105900D02*
X-10000D01*
X-10500Y-106400D02*
Y-105400D01*
X-138500Y-110900D02*
X-137500D01*
X-138000Y-111400D02*
Y-110400D01*
X134000Y-65900D02*
X135000D01*
X134500Y-66400D02*
Y-65400D01*
X-58500Y-110900D02*
X-57500D01*
X-58000Y-111400D02*
Y-110400D01*
X134000Y-25900D02*
X135000D01*
X134500Y-26400D02*
Y-25400D01*
X106500Y-20900D02*
X107500D01*
X107000Y-21400D02*
Y-20400D01*
X116500Y-20900D02*
X117500D01*
X117000Y-21400D02*
Y-20400D01*
X-1000Y-85900D02*
X0D01*
X-500Y-86400D02*
Y-85400D01*
X81500Y-70900D02*
X82500D01*
X82000Y-71400D02*
Y-70400D01*
X44000Y-85900D02*
X45000D01*
X44500Y-86400D02*
Y-85400D01*
X-16000Y-105900D02*
X-15000D01*
X-15500Y-106400D02*
Y-105400D01*
X136500Y-10900D02*
X137500D01*
X137000Y-11400D02*
Y-10400D01*
X-36000Y-95900D02*
X-35000D01*
X-35500Y-96400D02*
Y-95400D01*
X-138500Y-900D02*
X-137500D01*
X-138000Y-1400D02*
Y-400D01*
X136500Y-20900D02*
X137500D01*
X137000Y-21400D02*
Y-20400D01*
X131500Y-70900D02*
X132500D01*
X132000Y-71400D02*
Y-70400D01*
X-123500Y-120900D02*
X-122500D01*
X-123000Y-121400D02*
Y-120400D01*
X124000Y-55900D02*
X125000D01*
X124500Y-56400D02*
Y-55400D01*
X29000Y-75900D02*
X30000D01*
X29500Y-76400D02*
Y-75400D01*
X-58500Y-90900D02*
X-57500D01*
X-58000Y-91400D02*
Y-90400D01*
X-28500Y-90900D02*
X-27500D01*
X-28000Y-91400D02*
Y-90400D01*
X-93500Y-30900D02*
X-92500D01*
X-93000Y-31400D02*
Y-30400D01*
X76500Y-50900D02*
X77500D01*
X77000Y-51400D02*
Y-50400D01*
X24000Y-75900D02*
X25000D01*
X24500Y-76400D02*
Y-75400D01*
X56500Y-100900D02*
X57500D01*
X57000Y-101400D02*
Y-100400D01*
X51500Y-80900D02*
X52500D01*
X52000Y-81400D02*
Y-80400D01*
X76500Y-70900D02*
X77500D01*
X77000Y-71400D02*
Y-70400D01*
X39000Y-85900D02*
X40000D01*
X39500Y-86400D02*
Y-85400D01*
X-8500Y-80900D02*
X-7500D01*
X-8000Y-81400D02*
Y-80400D01*
X56500Y-80900D02*
X57500D01*
X57000Y-81400D02*
Y-80400D01*
X-83500Y-60900D02*
X-82500D01*
X-83000Y-61400D02*
Y-60400D01*
X-36000Y-105900D02*
X-35000D01*
X-35500Y-106400D02*
Y-105400D01*
X136500Y-80900D02*
X137500D01*
X137000Y-81400D02*
Y-80400D01*
X114000Y-15900D02*
X115000D01*
X114500Y-16400D02*
Y-15400D01*
X-133500Y-120900D02*
X-132500D01*
X-133000Y-121400D02*
Y-120400D01*
X14000Y-105900D02*
X15000D01*
X14500Y-106400D02*
Y-105400D01*
X129000Y-65900D02*
X130000D01*
X129500Y-66400D02*
Y-65400D01*
X-86000Y-55900D02*
X-85000D01*
X-85500Y-56400D02*
Y-55400D01*
X-26000Y-105900D02*
X-25000D01*
X-25500Y-106400D02*
Y-105400D01*
X131500Y-80900D02*
X132500D01*
X132000Y-81400D02*
Y-80400D01*
X-11000Y-75900D02*
X-10000D01*
X-10500Y-76400D02*
Y-75400D01*
X-106000Y-115900D02*
X-105000D01*
X-105500Y-116400D02*
Y-115400D01*
X-88500Y29100D02*
X-87500D01*
X-88000Y28600D02*
Y29600D01*
X1500Y-80900D02*
X2500D01*
X2000Y-81400D02*
Y-80400D01*
X134000Y-55900D02*
X135000D01*
X134500Y-56400D02*
Y-55400D01*
X9000Y-95900D02*
X10000D01*
X9500Y-96400D02*
Y-95400D01*
X31500Y-90900D02*
X32500D01*
X32000Y-91400D02*
Y-90400D01*
X-131000Y-115900D02*
X-130000D01*
X-130500Y-116400D02*
Y-115400D01*
X-111000Y-115900D02*
X-110000D01*
X-110500Y-116400D02*
Y-115400D01*
X61500Y-100900D02*
X62500D01*
X62000Y-101400D02*
Y-100400D01*
X136500Y-30900D02*
X137500D01*
X137000Y-31400D02*
Y-30400D01*
X39000Y-95900D02*
X40000D01*
X39500Y-96400D02*
Y-95400D01*
X81500Y-20900D02*
X82500D01*
X82000Y-21400D02*
Y-20400D01*
X-91000Y-115900D02*
X-90000D01*
X-90500Y-116400D02*
Y-115400D01*
X49000Y-85900D02*
X50000D01*
X49500Y-86400D02*
Y-85400D01*
X71500Y-70900D02*
X72500D01*
X72000Y-71400D02*
Y-70400D01*
X-81000Y-115900D02*
X-80000D01*
X-80500Y-116400D02*
Y-115400D01*
X-138500Y19100D02*
X-137500D01*
X-138000Y18600D02*
Y19600D01*
X136500Y-90900D02*
X137500D01*
X137000Y-91400D02*
Y-90400D01*
X79000Y-65900D02*
X80000D01*
X79500Y-66400D02*
Y-65400D01*
X134000Y-85900D02*
X135000D01*
X134500Y-86400D02*
Y-85400D01*
X-41000Y-105900D02*
X-40000D01*
X-40500Y-106400D02*
Y-105400D01*
X-48500Y-110900D02*
X-47500D01*
X-48000Y-111400D02*
Y-110400D01*
X124000Y-75900D02*
X125000D01*
X124500Y-76400D02*
Y-75400D01*
X14000Y-95900D02*
X15000D01*
X14500Y-96400D02*
Y-95400D01*
X-43500Y-110900D02*
X-42500D01*
X-43000Y-111400D02*
Y-110400D01*
X-33500Y-90900D02*
X-32500D01*
X-33000Y-91400D02*
Y-90400D01*
X-53500Y-110900D02*
X-52500D01*
X-53000Y-111400D02*
Y-110400D01*
X-91000Y-35900D02*
X-90000D01*
X-90500Y-36400D02*
Y-35400D01*
X136500Y-60900D02*
X137500D01*
X137000Y-61400D02*
Y-60400D01*
X29000Y-85900D02*
X30000D01*
X29500Y-86400D02*
Y-85400D01*
X19000Y-105900D02*
X20000D01*
X19500Y-106400D02*
Y-105400D01*
X-73500Y29100D02*
X-72500D01*
X-73000Y28600D02*
Y29600D01*
X-91000Y-55900D02*
X-90000D01*
X-90500Y-56400D02*
Y-55400D01*
X-93500Y29100D02*
X-92500D01*
X-93000Y28600D02*
Y29600D01*
X-96000Y-35900D02*
X-95000D01*
X-95500Y-36400D02*
Y-35400D01*
X84000Y-55900D02*
X85000D01*
X84500Y-56400D02*
Y-55400D01*
X76500Y-10900D02*
X77500D01*
X77000Y-11400D02*
Y-10400D01*
X26500Y-80900D02*
X27500D01*
X27000Y-81400D02*
Y-80400D01*
X136500Y-50900D02*
X137500D01*
X137000Y-51400D02*
Y-50400D01*
X-81000Y-55900D02*
X-80000D01*
X-80500Y-56400D02*
Y-55400D01*
X134000Y-75900D02*
X135000D01*
X134500Y-76400D02*
Y-75400D01*
X-138500Y29100D02*
X-137500D01*
X-138000Y28600D02*
Y29600D01*
X64000Y-75900D02*
X65000D01*
X64500Y-76400D02*
Y-75400D01*
X126500Y-70900D02*
X127500D01*
X127000Y-71400D02*
Y-70400D01*
X29000Y-95900D02*
X30000D01*
X29500Y-96400D02*
Y-95400D01*
X-6000Y-75900D02*
X-5000D01*
X-5500Y-76400D02*
Y-75400D01*
X131500Y-20900D02*
X132500D01*
X132000Y-21400D02*
Y-20400D01*
X134000Y-5900D02*
X135000D01*
X134500Y-6400D02*
Y-5400D01*
X129000Y-55900D02*
X130000D01*
X129500Y-56400D02*
Y-55400D01*
X61500Y-90900D02*
X62500D01*
X62000Y-91400D02*
Y-90400D01*
X-33500Y-70900D02*
X-32500D01*
X-33000Y-71400D02*
Y-70400D01*
X-108500Y-120900D02*
X-107500D01*
X-108000Y-121400D02*
Y-120400D01*
X-118500Y-120900D02*
X-117500D01*
X-118000Y-121400D02*
Y-120400D01*
X79000Y-15900D02*
X80000D01*
X79500Y-16400D02*
Y-15400D01*
X-136000Y-5900D02*
X-135000D01*
X-135500Y-6400D02*
Y-5400D01*
X64000Y-95900D02*
X65000D01*
X64500Y-96400D02*
Y-95400D01*
X84000Y-35900D02*
X85000D01*
X84500Y-36400D02*
Y-35400D01*
X-101000Y-115900D02*
X-100000D01*
X-100500Y-116400D02*
Y-115400D01*
X34000Y-95900D02*
X35000D01*
X34500Y-96400D02*
Y-95400D01*
X54000Y-75900D02*
X55000D01*
X54500Y-76400D02*
Y-75400D01*
X-16000Y-95900D02*
X-15000D01*
X-15500Y-96400D02*
Y-95400D01*
X24000Y-85900D02*
X25000D01*
X24500Y-86400D02*
Y-85400D01*
X51500Y-100900D02*
X52500D01*
X52000Y-101400D02*
Y-100400D01*
X14000Y-75900D02*
X15000D01*
X14500Y-76400D02*
Y-75400D01*
X-88500Y-30900D02*
X-87500D01*
X-88000Y-31400D02*
Y-30400D01*
X-138500Y-10900D02*
X-137500D01*
X-138000Y-11400D02*
Y-10400D01*
X24000Y-95900D02*
X25000D01*
X24500Y-96400D02*
Y-95400D01*
X126500Y-80900D02*
X127500D01*
X127000Y-81400D02*
Y-80400D01*
X6500Y-80900D02*
X7500D01*
X7000Y-81400D02*
Y-80400D01*
X-136000Y-115900D02*
X-135000D01*
X-135500Y-116400D02*
Y-115400D01*
X129000Y-15900D02*
X130000D01*
X129500Y-16400D02*
Y-15400D01*
X39000Y-75900D02*
X40000D01*
X39500Y-76400D02*
Y-75400D01*
X131500Y-60900D02*
X132500D01*
X132000Y-61400D02*
Y-60400D01*
X36500Y-80900D02*
X37500D01*
X37000Y-81400D02*
Y-80400D01*
X-113500Y-120900D02*
X-112500D01*
X-113000Y-121400D02*
Y-120400D01*
X-128500Y-120900D02*
X-127500D01*
X-128000Y-121400D02*
Y-120400D01*
X-138500Y-120900D02*
X-137500D01*
X-138000Y-121400D02*
Y-120400D01*
X126500Y-60900D02*
X127500D01*
X127000Y-61400D02*
Y-60400D01*
X129000Y-25900D02*
X130000D01*
X129500Y-26400D02*
Y-25400D01*
X-96000Y-115900D02*
X-95000D01*
X-95500Y-116400D02*
Y-115400D01*
X41500Y-80900D02*
X42500D01*
X42000Y-81400D02*
Y-80400D01*
X74000Y4100D02*
X75000D01*
X74500Y3600D02*
Y4600D01*
X74000Y-65900D02*
X75000D01*
X74500Y-66400D02*
Y-65400D01*
X4000Y-75900D02*
X5000D01*
X4500Y-76400D02*
Y-75400D01*
X96500Y-50900D02*
X97500D01*
X97000Y-51400D02*
Y-50400D01*
X4000Y-105900D02*
X5000D01*
X4500Y-106400D02*
Y-105400D01*
X49000Y-75900D02*
X50000D01*
X49500Y-76400D02*
Y-75400D01*
X44000Y-75900D02*
X45000D01*
X44500Y-76400D02*
Y-75400D01*
X-46000Y-105900D02*
X-45000D01*
X-45500Y-106400D02*
Y-105400D01*
X19000Y-95900D02*
X20000D01*
X19500Y-96400D02*
Y-95400D01*
X-133500Y-110900D02*
X-132500D01*
X-133000Y-111400D02*
Y-110400D01*
X104000Y-15900D02*
X105000D01*
X104500Y-16400D02*
Y-15400D01*
X44000Y-95900D02*
X45000D01*
X44500Y-96400D02*
Y-95400D01*
X21500Y-90900D02*
X22500D01*
X22000Y-91400D02*
Y-90400D01*
X-21000Y-105900D02*
X-20000D01*
X-20500Y-106400D02*
Y-105400D01*
X-93500Y-40900D02*
X-92500D01*
X-93000Y-41400D02*
Y-40400D01*
X-11000Y-85900D02*
X-10000D01*
X-10500Y-86400D02*
Y-85400D01*
X81500Y-10900D02*
X82500D01*
X82000Y-11400D02*
Y-10400D01*
X9000Y-75900D02*
X10000D01*
X9500Y-76400D02*
Y-75400D01*
X134000Y-15900D02*
X135000D01*
X134500Y-16400D02*
Y-15400D01*
X109000Y-15900D02*
X110000D01*
X109500Y-16400D02*
Y-15400D01*
X-1000Y-75900D02*
X0D01*
X-500Y-76400D02*
Y-75400D01*
X34000Y-75900D02*
X35000D01*
X34500Y-76400D02*
Y-75400D01*
X-86000Y-115900D02*
X-85000D01*
X-85500Y-116400D02*
Y-115400D01*
X34000Y-85900D02*
X35000D01*
X34500Y-86400D02*
Y-85400D01*
X31500Y-80900D02*
X32500D01*
X32000Y-81400D02*
Y-80400D01*
X126500Y-20900D02*
X127500D01*
X127000Y-21400D02*
Y-20400D01*
X76500Y-20900D02*
X77500D01*
X77000Y-21400D02*
Y-20400D01*
X26500Y-90900D02*
X27500D01*
X27000Y-91400D02*
Y-90400D01*
X19000Y-75900D02*
X20000D01*
X19500Y-76400D02*
Y-75400D01*
X-68500Y-110900D02*
X-67500D01*
X-68000Y-111400D02*
Y-110400D01*
X-96000Y-45900D02*
X-95000D01*
X-95500Y-46400D02*
Y-45400D01*
X136500Y-70900D02*
X137500D01*
X137000Y-71400D02*
Y-70400D01*
X-3500Y-80900D02*
X-2500D01*
X-3000Y-81400D02*
Y-80400D01*
X54000Y-85900D02*
X55000D01*
X54500Y-86400D02*
Y-85400D01*
X-31000Y-95900D02*
X-30000D01*
X-30500Y-96400D02*
Y-95400D01*
X-6000Y-105900D02*
X-5000D01*
X-5500Y-106400D02*
Y-105400D01*
X-138500Y9100D02*
X-137500D01*
X-138000Y8600D02*
Y9600D01*
X-26000Y-95900D02*
X-25000D01*
X-25500Y-96400D02*
Y-95400D01*
X16100Y-90000D02*
X17100D01*
X16600Y-90500D02*
Y-89500D01*
X126650Y40300D02*
X128150D01*
X127400Y39550D02*
Y41050D01*
X126550Y50800D02*
X128050D01*
X127300Y50050D02*
Y51550D01*
X-20000Y-90000D02*
X-19000D01*
X-19500Y-90500D02*
Y-89500D01*
X132850Y56600D02*
X134350D01*
X133600Y55850D02*
Y57350D01*
X126550Y59300D02*
X128050D01*
X127300Y58550D02*
Y60050D01*
X-117300Y-31500D02*
X-116300D01*
X-116800Y-32000D02*
Y-31000D01*
X-100700Y-31700D02*
X-99700D01*
X-100200Y-32200D02*
Y-31200D01*
X109500Y-43100D02*
X110500D01*
X110000Y-43600D02*
Y-42600D01*
X101264Y-42114D02*
X102764D01*
X102014Y-42864D02*
Y-41364D01*
X-95460Y8961D02*
X-94460D01*
X-94960Y8461D02*
Y9460D01*
X-101700Y-12489D02*
X-100700D01*
X-101200Y-12989D02*
Y-11989D01*
X-71950Y-93100D02*
X-70450D01*
X-71200Y-93850D02*
Y-92350D01*
X-67150Y-93100D02*
X-65650D01*
X-66400Y-93850D02*
Y-92350D01*
X-62100Y-65700D02*
X-61100D01*
X-61600Y-66200D02*
Y-65200D01*
X-81650Y-39400D02*
X-80150D01*
X-80900Y-40150D02*
Y-38650D01*
X98750Y72400D02*
X100250D01*
X99500Y71650D02*
Y73150D01*
X79350Y82600D02*
X80850D01*
X80100Y81850D02*
Y83350D01*
X-77500Y-62300D02*
X-76500D01*
X-77000Y-62800D02*
Y-61800D01*
X-79018Y-94200D02*
X-78018D01*
X-78518Y-94700D02*
Y-93700D01*
X-84844Y-98413D02*
X-83845D01*
X-84345Y-98914D02*
Y-97913D01*
X-82500Y-95900D02*
X-81500D01*
X-82000Y-96400D02*
Y-95400D01*
X120500Y-41800D02*
X121500D01*
X121000Y-42300D02*
Y-41300D01*
X-101100Y-103500D02*
X-100100D01*
X-100600Y-104000D02*
Y-103000D01*
X124596Y-47879D02*
X125596D01*
X125096Y-48379D02*
Y-47379D01*
X125950Y17900D02*
X127450D01*
X126700Y17150D02*
Y18650D01*
X87843Y18224D02*
X89343D01*
X88593Y17474D02*
Y18974D01*
X124100Y-41800D02*
X125100D01*
X124600Y-42300D02*
Y-41300D01*
X-21300Y400D02*
X-20300D01*
X-20800Y-100D02*
Y900D01*
X11200Y400D02*
X12200D01*
X11700Y-100D02*
Y900D01*
X43700Y500D02*
X44700D01*
X44200Y0D02*
Y1000D01*
X-9791Y-95671D02*
X-8791D01*
X-9291Y-96171D02*
Y-95171D01*
X133450Y90800D02*
X134950D01*
X134200Y90050D02*
Y91550D01*
X101750Y91100D02*
X103250D01*
X102500Y90350D02*
Y91850D01*
X123413Y137D02*
X124913D01*
X124163Y-613D02*
Y887D01*
X-124746Y-104578D02*
X-123746D01*
X-124246Y-105078D02*
Y-104078D01*
X-122314Y-107205D02*
X-121314D01*
X-121814Y-107705D02*
Y-106705D01*
X-128400Y-96300D02*
X-127400D01*
X-127900Y-96800D02*
Y-95800D01*
X-130907Y-98803D02*
X-129907D01*
X-130407Y-99303D02*
Y-98303D01*
X-123922Y-91874D02*
X-122922D01*
X-123422Y-92374D02*
Y-91373D01*
X-126700Y-88828D02*
X-125700D01*
X-126200Y-89328D02*
Y-88328D01*
X-117210Y-111790D02*
X-116210D01*
X-116710Y-112290D02*
Y-111290D01*
X-119614Y-109386D02*
X-118614D01*
X-119114Y-109886D02*
Y-108886D01*
X-135900Y-103800D02*
X-134900D01*
X-135400Y-104300D02*
Y-103300D01*
X-133400Y-101300D02*
X-132400D01*
X-132900Y-101800D02*
Y-100800D01*
X-117852Y-50762D02*
X-116852D01*
X-117352Y-51262D02*
Y-50262D01*
X-100100Y-50600D02*
X-99100D01*
X-99600Y-51100D02*
Y-50100D01*
X-105100Y41700D02*
X-104100D01*
X-104600Y41200D02*
Y42200D01*
X-77900Y-20800D02*
X-76900D01*
X-77400Y-21300D02*
Y-20300D01*
X-117399Y25500D02*
X-116399D01*
X-116899Y25000D02*
Y26000D01*
X-71750Y39600D02*
X-70250D01*
X-71000Y38850D02*
Y40350D01*
X63500Y65400D02*
X64500D01*
X64000Y64900D02*
Y65900D01*
X-77000Y21900D02*
X-76000D01*
X-76500Y21400D02*
Y22400D01*
X-83150Y34500D02*
X-81650D01*
X-82400Y33750D02*
Y35250D01*
X83050Y19200D02*
X84550D01*
X83800Y18450D02*
Y19950D01*
X-118603Y-69015D02*
X-117603D01*
X-118103Y-69515D02*
Y-68515D01*
X-120063Y-65927D02*
X-119063D01*
X-119563Y-66427D02*
Y-65427D01*
X-116346Y-66352D02*
X-115346D01*
X-115846Y-66852D02*
Y-65852D01*
X-115650Y900D02*
X-114150D01*
X-114900Y150D02*
Y1650D01*
X-114975Y35519D02*
X-113975D01*
X-114475Y35019D02*
Y36019D01*
X65650Y-99600D02*
X67150D01*
X66400Y-100350D02*
Y-98850D01*
X120050Y-71000D02*
X121550D01*
X120800Y-71750D02*
Y-70250D01*
X-74650Y300D02*
X-73150D01*
X-73900Y-450D02*
Y1050D01*
X-106150Y-21500D02*
X-104650D01*
X-105400Y-22250D02*
Y-20750D01*
X-96100Y47600D02*
X-95100D01*
X-95600Y47100D02*
Y48100D01*
X-97500Y57800D02*
X-96500D01*
X-97000Y57300D02*
Y58300D01*
X94050Y14100D02*
X95550D01*
X94800Y13350D02*
Y14850D01*
X125850Y24400D02*
X127350D01*
X126600Y23650D02*
Y25150D01*
X125850Y32100D02*
X127350D01*
X126600Y31350D02*
Y32850D01*
X70650Y5200D02*
X71650D01*
X71150Y4700D02*
Y5700D01*
X70600Y-2600D02*
X71600D01*
X71100Y-3100D02*
Y-2100D01*
X70650Y9000D02*
X71650D01*
X71150Y8500D02*
Y9500D01*
X70650Y1400D02*
X71650D01*
X71150Y900D02*
Y1900D01*
X93250Y-1000D02*
X94750D01*
X94000Y-1750D02*
Y-250D01*
X93726Y9000D02*
X94726D01*
X94226Y8500D02*
Y9500D01*
X132985Y-49139D02*
X134485D01*
X133735Y-49889D02*
Y-48389D01*
X97450Y-26300D02*
X98950D01*
X98200Y-27050D02*
Y-25550D01*
X132750Y-44000D02*
X134250D01*
X133500Y-44750D02*
Y-43250D01*
X97477Y-57841D02*
X98477D01*
X97977Y-58341D02*
Y-57341D01*
X117950Y-78800D02*
X119450D01*
X118700Y-79550D02*
Y-78050D01*
X101825Y-82622D02*
X103325D01*
X102576Y-83372D02*
Y-81872D01*
X-112950Y67400D02*
X-111450D01*
X-112200Y66650D02*
Y68150D01*
X-114000Y25400D02*
X-113000D01*
X-113500Y24900D02*
Y25900D01*
X-97100Y53000D02*
X-96100D01*
X-96600Y52500D02*
Y53500D01*
X-112600Y-18000D02*
X-111600D01*
X-112100Y-18500D02*
Y-17500D01*
X-113605Y-63898D02*
X-112605D01*
X-113105Y-64398D02*
Y-63398D01*
X-88480Y-61980D02*
X-87480D01*
X-87980Y-62480D02*
Y-61480D01*
X-82184Y-66700D02*
X-81184D01*
X-81684Y-67200D02*
Y-66200D01*
X109300Y-25900D02*
X110300D01*
X109800Y-26400D02*
Y-25400D01*
X105550Y-700D02*
X107050D01*
X106300Y-1450D02*
Y50D01*
X129404Y249D02*
X130904D01*
X130154Y-501D02*
Y1000D01*
X2900Y-65700D02*
X3900D01*
X3400Y-66200D02*
Y-65200D01*
X19500Y-65700D02*
X20500D01*
X20000Y-66200D02*
Y-65200D01*
X101800Y-900D02*
X102800D01*
X102300Y-1400D02*
Y-400D01*
X71750Y96600D02*
X73250D01*
X72500Y95850D02*
Y97350D01*
X71750Y106900D02*
X73250D01*
X72500Y106150D02*
Y107650D01*
X-29600Y-65700D02*
X-28600D01*
X-29100Y-66200D02*
Y-65200D01*
X35400Y-65700D02*
X36400D01*
X35900Y-66200D02*
Y-65200D01*
X63400Y-6900D02*
X64400D01*
X63900Y-7400D02*
Y-6400D01*
X65209Y-69709D02*
X66209D01*
X65709Y-70209D02*
Y-69209D01*
X29000Y-3919D02*
X30000D01*
X29500Y-4419D02*
Y-3419D01*
X53400Y-65800D02*
X54400D01*
X53900Y-66300D02*
Y-65300D01*
X-9500Y65800D02*
X-8500D01*
X-9000Y65300D02*
Y66300D01*
X-17500Y65620D02*
X-16500D01*
X-17000Y65121D02*
Y66120D01*
X23000Y65400D02*
X24000D01*
X23500Y64900D02*
Y65900D01*
X-34015Y65700D02*
X-33015D01*
X-33515Y65200D02*
Y66200D01*
X-42000Y65700D02*
X-41000D01*
X-41500Y65200D02*
Y66200D01*
X-25500Y65720D02*
X-24500D01*
X-25000Y65220D02*
Y66220D01*
X-1517Y65800D02*
X-517D01*
X-1017Y65300D02*
Y66300D01*
X-50000Y65656D02*
X-49000D01*
X-49500Y65156D02*
Y66156D01*
X31000Y65400D02*
X32000D01*
X31500Y64900D02*
Y65900D01*
X55500Y-7200D02*
X56500D01*
X56000Y-7700D02*
Y-6700D01*
X55500Y65400D02*
X56500D01*
X56000Y64900D02*
Y65900D01*
X47500Y-7200D02*
X48500D01*
X48000Y-7700D02*
Y-6700D01*
X39500Y-7100D02*
X40500D01*
X40000Y-7600D02*
Y-6600D01*
X35400Y6900D02*
X36400D01*
X35900Y6400D02*
Y7400D01*
X11200Y6800D02*
X12200D01*
X11700Y6300D02*
Y7300D01*
X7000Y-7100D02*
X8000D01*
X7500Y-7600D02*
Y-6600D01*
X-25500Y-7100D02*
X-24500D01*
X-25000Y-7600D02*
Y-6600D01*
X-34000Y-7200D02*
X-33000D01*
X-33500Y-7700D02*
Y-6700D01*
X-29631Y7608D02*
X-28631D01*
X-29131Y7108D02*
Y8108D01*
X-45500Y7527D02*
X-44500D01*
X-45000Y7027D02*
Y8027D01*
X-80063Y-17263D02*
X-79063D01*
X-79563Y-17763D02*
Y-16763D01*
X-53800Y7527D02*
X-52800D01*
X-53300Y7027D02*
Y8027D01*
X-62100Y7556D02*
X-61100D01*
X-61600Y7056D02*
Y8056D01*
X-79700Y19200D02*
X-78700D01*
X-79200Y18700D02*
Y19700D01*
X-82000Y16600D02*
X-81000D01*
X-81500Y16100D02*
Y17100D01*
X-49750Y-26200D02*
X-48250D01*
X-49000Y-26950D02*
Y-25450D01*
X-75200Y-23100D02*
X-74200D01*
X-74700Y-23600D02*
Y-22600D01*
X-17250Y-26400D02*
X-15750D01*
X-16500Y-27150D02*
Y-25650D01*
X-1500Y-7200D02*
X-500D01*
X-1000Y-7700D02*
Y-6700D01*
X-9500Y-7200D02*
X-8500D01*
X-9000Y-7700D02*
Y-6700D01*
X-42000Y-7200D02*
X-41000D01*
X-41500Y-7700D02*
Y-6700D01*
X-17500Y-7200D02*
X-16500D01*
X-17000Y-7700D02*
Y-6700D01*
X-50000Y-7200D02*
X-49000D01*
X-49500Y-7700D02*
Y-6700D01*
X-72700Y-25800D02*
X-71700D01*
X-72200Y-26300D02*
Y-25300D01*
X-59083Y-7100D02*
X-58083D01*
X-58583Y-7600D02*
Y-6600D01*
X-21300Y-65800D02*
X-20300D01*
X-20800Y-66300D02*
Y-65300D01*
X-53800Y-65800D02*
X-52800D01*
X-53300Y-66300D02*
Y-65300D01*
X11200Y-65800D02*
X12200D01*
X11700Y-66300D02*
Y-65300D01*
X43700Y-65800D02*
X44700D01*
X44200Y-66300D02*
Y-65300D01*
X-13000Y-65700D02*
X-12000D01*
X-12500Y-66200D02*
Y-65200D01*
X-45500Y-65700D02*
X-44500D01*
X-45000Y-66200D02*
Y-65200D01*
X47750Y-26400D02*
X49250D01*
X48500Y-27150D02*
Y-25650D01*
X23000Y-7200D02*
X24000D01*
X23500Y-7700D02*
Y-6700D01*
X15250Y-26400D02*
X16750D01*
X16000Y-27150D02*
Y-25650D01*
X15000Y-7200D02*
X16000D01*
X15500Y-7700D02*
Y-6700D01*
X-58000Y65756D02*
X-57000D01*
X-57500Y65256D02*
Y66256D01*
X-21300Y7021D02*
X-20300D01*
X-20800Y6521D02*
Y7520D01*
X2900Y6900D02*
X3900D01*
X3400Y6400D02*
Y7400D01*
X19500Y6900D02*
X20500D01*
X20000Y6400D02*
Y7400D01*
X-17250Y24165D02*
X-15750D01*
X-16500Y23415D02*
Y24915D01*
X-13000Y7120D02*
X-12000D01*
X-12500Y6621D02*
Y7621D01*
X47750Y23944D02*
X49250D01*
X48500Y23194D02*
Y24694D01*
X7000Y65500D02*
X8000D01*
X7500Y65000D02*
Y66000D01*
X15000Y65400D02*
X16000D01*
X15500Y64900D02*
Y65900D01*
X47500Y65400D02*
X48500D01*
X48000Y64900D02*
Y65900D01*
X39500Y65500D02*
X40500D01*
X40000Y65000D02*
Y66000D01*
X15250Y24200D02*
X16750D01*
X16000Y23450D02*
Y24950D01*
X-49750Y24200D02*
X-48250D01*
X-49000Y23450D02*
Y24950D01*
X43700Y6800D02*
X44700D01*
X44200Y6300D02*
Y7300D01*
X52000Y6900D02*
X53000D01*
X52500Y6400D02*
Y7400D01*
M02*
