G04*
G04 #@! TF.GenerationSoftware,Altium Limited,Altium Designer,22.4.2 (48)*
G04*
G04 Layer_Color=16711935*
%FSLAX25Y25*%
%MOIN*%
G70*
G04*
G04 #@! TF.SameCoordinates,FFA694D2-1829-43A5-BD7A-47FC6BC8C01B*
G04*
G04*
G04 #@! TF.FilePolarity,Positive*
G04*
G01*
G75*
%ADD13C,0.00787*%
%ADD108C,0.00394*%
%ADD109C,0.00197*%
D13*
X110721Y47063D02*
X125879D01*
Y54937D01*
X110721D02*
X125879D01*
X110721Y47063D02*
Y54937D01*
X116988Y-52834D02*
Y-44566D01*
X103012Y-52834D02*
X116988D01*
X103012D02*
Y-44566D01*
X116988D01*
X-78665Y-41921D02*
X-74335D01*
X-78665D02*
Y-32079D01*
X-74335D01*
Y-41921D02*
Y-32079D01*
X-72364Y-32472D02*
X-67836D01*
Y-41528D02*
Y-32472D01*
X-72364Y-41528D02*
X-67836D01*
X-72364D02*
Y-32472D01*
X75732Y100537D02*
X92268D01*
X75732Y92663D02*
Y100537D01*
Y92663D02*
X92268D01*
Y100537D01*
X110721Y56463D02*
Y64337D01*
X125879D01*
Y56463D02*
Y64337D01*
X110721Y56463D02*
X125879D01*
X113876Y22238D02*
X123324D01*
Y26962D01*
X113876D02*
X123324D01*
X113876Y22238D02*
Y26962D01*
X-99575Y-52150D02*
X-96425D01*
Y-58450D02*
Y-52150D01*
X-99575Y-58450D02*
X-96425D01*
X-99575D02*
Y-52150D01*
X74501Y33702D02*
X87099D01*
Y21498D02*
Y33702D01*
X74501Y21498D02*
X87099D01*
X74501D02*
Y33702D01*
X-97773Y26634D02*
Y57367D01*
X-119427D02*
X-97773D01*
X-119427Y26634D02*
Y57367D01*
Y26634D02*
X-97773D01*
X-6224Y-97362D02*
Y-92638D01*
X3224D01*
Y-97362D02*
Y-92638D01*
X-6224Y-97362D02*
X3224D01*
X126738Y-41876D02*
X131462D01*
Y-51324D02*
Y-41876D01*
X126738Y-51324D02*
X131462D01*
X126738D02*
Y-41876D01*
X103995Y-68302D02*
X115805D01*
X103995Y-81098D02*
Y-68302D01*
Y-81098D02*
X115805D01*
Y-68302D01*
X-109724Y72462D02*
X-100276D01*
X-109724Y67738D02*
Y72462D01*
Y67738D02*
X-100276D01*
Y72462D01*
X-109824Y64662D02*
X-100376D01*
X-109824Y59938D02*
Y64662D01*
Y59938D02*
X-100376D01*
Y64662D01*
X-120375Y-58250D02*
Y-51950D01*
Y-58250D02*
X-117225D01*
Y-51950D01*
X-120375D02*
X-117225D01*
X90650Y-39712D02*
X134350D01*
X90650D02*
Y-3688D01*
X134350D01*
Y-39712D02*
Y-3688D01*
X113876Y29838D02*
X123324D01*
Y34562D01*
X113876D02*
X123324D01*
X113876Y29838D02*
Y34562D01*
X110032Y36563D02*
X126568D01*
Y44437D01*
X110032D02*
X126568D01*
X110032Y36563D02*
Y44437D01*
X84370Y-99125D02*
Y-87675D01*
X78629D02*
X84370D01*
X78629Y-99125D02*
Y-87675D01*
Y-99125D02*
X84370D01*
X75462Y-98424D02*
Y-88976D01*
X70738D02*
X75462D01*
X70738Y-98424D02*
Y-88976D01*
Y-98424D02*
X75462D01*
X113876Y14738D02*
X123324D01*
Y19462D01*
X113876D02*
X123324D01*
X113876Y14738D02*
Y19462D01*
X113838Y7138D02*
X123287D01*
Y11862D01*
X113838D02*
X123287D01*
X113838Y7138D02*
Y11862D01*
X99668Y36939D02*
X108132D01*
X99668D02*
Y54261D01*
X108132D01*
Y36939D02*
Y54261D01*
X120335Y79288D02*
Y90312D01*
Y79288D02*
X124665D01*
Y90312D01*
X120335D02*
X124665D01*
X92168Y102863D02*
Y110737D01*
X75632Y102863D02*
X92168D01*
X75632D02*
Y110737D01*
X92168D01*
X104876Y66238D02*
Y70962D01*
X114324D01*
Y66238D02*
Y70962D01*
X104876Y66238D02*
X114324D01*
X104876Y87838D02*
Y92562D01*
X114324D01*
Y87838D02*
Y92562D01*
X104876Y87838D02*
X114324D01*
D108*
X-102192Y-81708D02*
X-99408Y-84492D01*
X-102192D02*
X-99408Y-81708D01*
X-3469Y-83000D02*
X469D01*
X-1500Y-84969D02*
Y-81032D01*
X-97500Y-2768D02*
Y1168D01*
X-99468Y-800D02*
X-95531D01*
X131313Y-109950D02*
Y-77832D01*
X86038Y-109950D02*
X131313D01*
X86038D02*
Y-77832D01*
X131313D01*
X104200Y14831D02*
Y18768D01*
X102232Y16800D02*
X106168D01*
X122600Y70930D02*
Y74670D01*
X120730Y72800D02*
X124470D01*
D109*
X-100800Y-114279D02*
X-69621Y-83100D01*
X-131980D02*
X-100800Y-51920D01*
X-131980Y-83100D02*
X-100800Y-114279D01*
Y-51920D02*
X-69621Y-83100D01*
X-24315Y-90284D02*
X21276D01*
Y-75717D01*
X-24315Y-90284D02*
Y-75717D01*
X21276D01*
X-112264Y-19107D02*
X-82736D01*
X-112264Y17507D02*
X-82736D01*
X-112264Y-19107D02*
Y17507D01*
X-82736Y-19107D02*
Y17507D01*
X-116553Y-59334D02*
X-100411D01*
X-116553D02*
Y-24295D01*
X-100411D01*
Y-59334D02*
Y-24295D01*
X97113Y25068D02*
X111287D01*
X97113Y8532D02*
X111287D01*
X97113D02*
Y25068D01*
X111287Y8532D02*
Y25068D01*
X120238Y77131D02*
X124962D01*
X120238Y68469D02*
X124962D01*
X120238D02*
Y77131D01*
X124962Y68469D02*
Y77131D01*
X101014Y85186D02*
X105266D01*
Y85993D01*
X113534D01*
Y85186D02*
Y85993D01*
Y85186D02*
X117786D01*
Y73414D02*
Y85186D01*
X113534Y73414D02*
X117786D01*
X113534Y72607D02*
Y73414D01*
X105266Y72607D02*
X113534D01*
X105266D02*
Y73414D01*
X101014D02*
X105266D01*
X101014D02*
Y85186D01*
M02*
