M48
;Layer_Color=9474304
;FILE_FORMAT=2:4
INCH,TZ
;TYPE=PLATED
T1F00S00C0.0100
T2F00S00C0.0150
T4F00S00C0.0217
T5F00S00C0.0256
T6F00S00C0.0900
%
T01
X7200Y-7090
X7700
X8200
X7950Y-6590
X7450
X7700Y-5090
X8450Y-5590
X9798Y-5784
X9700Y-5090
X11000Y-4310
X12100Y-4180
X12460
X12510Y-4788
X12450Y-5590
X12950
X13450
X13700Y-6090
X13200
X12700
X12450Y-6590
X12950
X13450
X13200Y-7090
X12700
X12950Y-7590
X12450
X12700Y-8090
X13200
X13700
X13450Y-8590
X13700Y-9090
X13450Y-7590
X13700Y-7090
Y-5090
Y-4090
Y-3090
X13450Y-2590
X12950
X13200Y-2090
X13700
X13450Y-1590
X12950
X12700Y-2090
X11700
X11200
X10700
X10450Y-1590
X10950
X11450
X10980Y-2590
X10230Y-90
X9423Y900
X7115
Y520
Y140
X7110Y-260
X7450Y410
X7950Y-590
X7700Y-1090
X8200
X7950Y-1590
X8200Y-2090
X7700
X8450Y-3590
X13700Y-1090
X13450Y-590
X6390Y-690
X5600Y-720
X4800
X4000Y-710
X4420Y50
Y680
X3590Y690
X2000
X1170Y680
Y40
X1550Y-720
X2350
X2950Y-392
X750Y-710
X-100Y-720
X-900
X-1700
X-2500Y-710
X-3350Y-720
X-4150
X-4950
X-5858Y-710
X-6160Y756
X-5330Y753
X-4500
X-2913Y761
X-2080Y702
Y40
X-1250Y712
X340Y690
X5250
X5390Y-6580
X4420
X3590Y-6570
X3450Y-7590
X2950
X2450
X1950
X1450
X950
X450
X-50
X-550
X-1050
X-800Y-8090
X-300
X200
X700
X450Y-8590
X-50
X-550
X-1050
X-929Y-9567
X-1550Y-9590
X-2050
X-2550
X-3050
X-3550
X-3300Y-9090
X-2800
X-1950Y-9000
X-2050Y-10590
X-1550
X-1050
X-550
X-50
X450
X950
X1450
X1950
Y-9590
X1450
X950
X1660Y-9000
X2200Y-9090
X2700
X3200
X3700
X4200
X4700
X4450Y-8590
X3950
X3450
X2950
X2450
X2700Y-8090
X3200
X3700
X4200
X4700
X5200
X5700
X5950Y-7590
X6450
X6571Y-6971
X5450Y-7590
X4950
X4450
X3950
Y-9590
X3450
X2950
X2450
X4450
X5200Y-10090
X5700
X6200
X5950Y-9590
X6450
X6200Y-9090
X5450Y-8590
X4950
X2000Y-6570
X1170Y-6580
X340Y-6570
X-1250
X-2080Y-6580
X-2910Y-6570
X-3300Y-7090
X-4500Y-6570
X-5330Y-6580
X-6160Y-6570
X-7700Y-6230
X-8300Y-6090
X-8798Y-6198
X-8550Y-5590
X-8050
X-8168Y-6670
X-8200Y-9590
X-8434Y-9841
X-7852Y-9420
X-8050Y-11590
X-8550
X-6800Y-11090
X-6300
X-5800
X-5300
X-4800
X-4300
X-4050Y-10590
X-3550
X-3050
X-2550
X-4550
X-5050
X-5800Y-9090
X-7220Y-2580
X-7470Y-2310
X-7740Y-2080
X-7956Y-1726
X-8800Y-3090
X-7050Y410
X-9496Y896
X-10120Y-1249
X-11210Y-1800
X-11680Y-3150
X-10020Y-3170
X-9300Y-3090
X-9050Y-3590
X-9550
X-9300Y-4090
X-9550Y-4590
X-9960Y-5060
X-9050Y-5590
X-11310Y-6390
X-11585Y-6635
X-11956Y-6593
X-11810Y-6901
X-11735Y-5076
X-12620Y-8883
X-12342Y-9187
X-12790Y-9630
X-13041Y-9880
X-13290Y-10130
X-13540Y-10380
X-13300Y-11090
X-13800
X-13550Y-11590
X-13050
X-13300Y-12090
X-12800
X-12300
X-11800
X-11300
X-10800
X-10550Y-11590
X-11050
X-10050
X-9550
X-9050
X-10060Y-10350
X-11671Y-11179
X-11911Y-10939
X-12181Y-10720
X-12425Y-10458
X-13800Y-12090
Y-1090
X-13550Y-590
X-13800Y-90
Y910
Y1910
Y2910
X-11690Y2550
X-11350Y2540
X-11010
X-11447Y3552
X-10460Y4170
X-9560Y4760
X-9660Y5300
X-9700Y5780
X-9300Y2910
X-8800
X-7300
X-7650Y2190
X-7920Y1920
X-8150Y1660
X-5750Y6576
X-4950Y6566
X-4150Y6570
X-3352
X-2500Y6572
X-1700Y6562
X-900Y6580
X-102
X750Y6550
X1550Y6540
X2350
X3150
X4000Y6550
X4800Y6540
X5600
X6400
T02
X10258Y-8262
X11870Y-7880
X12080Y-7100
X13373Y-4914
X13350Y-4400
X10201Y-4211
X9820Y-2630
X9400Y-100
X10630Y-70
X12416Y14
X13015Y25
X9480Y1410
X4850Y-2640
X1600
X-1650
X-4900Y-2620
X-8090Y-3940
X-7390Y30
X-7120Y-9310
X-6640
X6640Y-9960
X-10540Y-2150
X-11490Y90
X-11220Y6740
X-8240Y3450
X-7100Y3960
X-4900Y2420
X-1650Y2416
X1600Y2420
X4850Y2394
X8380Y1920
X8859Y1822
X12670Y1790
X12660Y2440
Y3210
X12740Y4030
X12730Y5080
Y5930
X13360Y5660
X13420Y9080
X10250Y9110
X9950Y7240
X8010Y8260
X7250Y9660
Y10690
T04
X-13270Y297
Y789
Y1282
Y1774
Y2266
Y2758
Y3250
Y3742
Y4234
Y4726
Y5218
Y5711
T05
X-6200Y-8600
Y-8100
X-5700
X-5200
X-4700
X-4200
Y-8600
X-4700
X-5200
X-5700
T06
X8661Y-4724
X-8661
Y4724
X8661
M30
