G04*
G04 #@! TF.GenerationSoftware,Altium Limited,Altium Designer,22.4.2 (48)*
G04*
G04 Layer_Physical_Order=1*
G04 Layer_Color=255*
%FSLAX25Y25*%
%MOIN*%
G70*
G04*
G04 #@! TF.SameCoordinates,FFA694D2-1829-43A5-BD7A-47FC6BC8C01B*
G04*
G04*
G04 #@! TF.FilePolarity,Positive*
G04*
G01*
G75*
%ADD12C,0.01000*%
%ADD14R,0.03788X0.03596*%
%ADD15R,0.03543X0.02559*%
%ADD16R,0.03150X0.03150*%
%ADD17R,0.03174X0.03379*%
%ADD18R,0.06120X0.07111*%
%ADD19R,0.12598X0.05906*%
%ADD20R,0.05544X0.03963*%
%ADD21R,0.03379X0.03174*%
%ADD22R,0.03543X0.02953*%
%ADD23R,0.02362X0.03150*%
%ADD24R,0.02953X0.03543*%
%ADD25R,0.03740X0.06693*%
%ADD26R,0.04560X0.04182*%
%ADD27R,0.01929X0.01772*%
%ADD28R,0.01968X0.01575*%
%ADD29R,0.05276X0.07087*%
G04:AMPARAMS|DCode=30|XSize=29.53mil|YSize=35.43mil|CornerRadius=0mil|HoleSize=0mil|Usage=FLASHONLY|Rotation=45.000|XOffset=0mil|YOffset=0mil|HoleType=Round|Shape=Rectangle|*
%AMROTATEDRECTD30*
4,1,4,0.00209,-0.02297,-0.02297,0.00209,-0.00209,0.02297,0.02297,-0.00209,0.00209,-0.02297,0.0*
%
%ADD30ROTATEDRECTD30*%

G04:AMPARAMS|DCode=31|XSize=29.53mil|YSize=35.43mil|CornerRadius=0mil|HoleSize=0mil|Usage=FLASHONLY|Rotation=135.000|XOffset=0mil|YOffset=0mil|HoleType=Round|Shape=Rectangle|*
%AMROTATEDRECTD31*
4,1,4,0.02297,0.00209,-0.00209,-0.02297,-0.02297,-0.00209,0.00209,0.02297,0.02297,0.00209,0.0*
%
%ADD31ROTATEDRECTD31*%

G04:AMPARAMS|DCode=32|XSize=37.4mil|YSize=66.93mil|CornerRadius=0mil|HoleSize=0mil|Usage=FLASHONLY|Rotation=135.000|XOffset=0mil|YOffset=0mil|HoleType=Round|Shape=Rectangle|*
%AMROTATEDRECTD32*
4,1,4,0.03689,0.01044,-0.01044,-0.03689,-0.03689,-0.01044,0.01044,0.03689,0.03689,0.01044,0.0*
%
%ADD32ROTATEDRECTD32*%

G04:AMPARAMS|DCode=33|XSize=61.2mil|YSize=71.11mil|CornerRadius=0mil|HoleSize=0mil|Usage=FLASHONLY|Rotation=135.000|XOffset=0mil|YOffset=0mil|HoleType=Round|Shape=Rectangle|*
%AMROTATEDRECTD33*
4,1,4,0.04678,0.00351,-0.00351,-0.04678,-0.04678,-0.00351,0.00351,0.04678,0.04678,0.00351,0.0*
%
%ADD33ROTATEDRECTD33*%

%ADD34R,0.04724X0.03740*%
%ADD35R,0.03740X0.04724*%
%ADD36R,0.02165X0.02362*%
%ADD48C,0.02000*%
%ADD49C,0.01500*%
%ADD50C,0.00782*%
%ADD51C,0.02500*%
%ADD52C,0.03000*%
%ADD53C,0.04000*%
G04:AMPARAMS|DCode=54|XSize=31.5mil|YSize=62.99mil|CornerRadius=11.81mil|HoleSize=0mil|Usage=FLASHONLY|Rotation=0.000|XOffset=0mil|YOffset=0mil|HoleType=Round|Shape=RoundedRectangle|*
%AMROUNDEDRECTD54*
21,1,0.03150,0.03937,0,0,0.0*
21,1,0.00787,0.06299,0,0,0.0*
1,1,0.02362,0.00394,-0.01968*
1,1,0.02362,-0.00394,-0.01968*
1,1,0.02362,-0.00394,0.01968*
1,1,0.02362,0.00394,0.01968*
%
%ADD54ROUNDEDRECTD54*%
%ADD55C,0.04559*%
%ADD56C,0.04500*%
G04:AMPARAMS|DCode=57|XSize=31.5mil|YSize=62.99mil|CornerRadius=11.81mil|HoleSize=0mil|Usage=FLASHONLY|Rotation=90.000|XOffset=0mil|YOffset=0mil|HoleType=Round|Shape=RoundedRectangle|*
%AMROUNDEDRECTD57*
21,1,0.03150,0.03937,0,0,90.0*
21,1,0.00787,0.06299,0,0,90.0*
1,1,0.02362,0.01968,0.00394*
1,1,0.02362,0.01968,-0.00394*
1,1,0.02362,-0.01968,-0.00394*
1,1,0.02362,-0.01968,0.00394*
%
%ADD57ROUNDEDRECTD57*%
%ADD58R,0.06299X0.03150*%
%ADD59C,0.02400*%
%ADD60C,0.03600*%
G36*
X85137Y103790D02*
X85117Y103897D01*
X85057Y103993D01*
X84957Y104077D01*
X84817Y104150D01*
X84637Y104212D01*
X84417Y104263D01*
X84157Y104302D01*
X83857Y104330D01*
X83570Y104339D01*
X83043Y104302D01*
X82783Y104263D01*
X82563Y104212D01*
X82383Y104150D01*
X82243Y104077D01*
X82143Y103993D01*
X82083Y103897D01*
X82063Y103790D01*
Y106916D01*
X82083Y106809D01*
X82143Y106713D01*
X82243Y106629D01*
X82383Y106555D01*
X82563Y106493D01*
X82783Y106443D01*
X83043Y106403D01*
X83343Y106375D01*
X83630Y106366D01*
X84157Y106403D01*
X84417Y106443D01*
X84637Y106493D01*
X84817Y106555D01*
X84957Y106629D01*
X85057Y106713D01*
X85117Y106809D01*
X85137Y106916D01*
Y103790D01*
D02*
G37*
G36*
X78937D02*
X78917Y103897D01*
X78857Y103993D01*
X78757Y104077D01*
X78617Y104150D01*
X78437Y104212D01*
X78217Y104263D01*
X77957Y104302D01*
X77657Y104330D01*
X76937Y104353D01*
Y106353D01*
X77317Y106358D01*
X77957Y106403D01*
X78217Y106443D01*
X78437Y106493D01*
X78617Y106555D01*
X78757Y106629D01*
X78857Y106713D01*
X78917Y106809D01*
X78937Y106916D01*
Y103790D01*
D02*
G37*
G36*
X81918Y97864D02*
X81788Y97804D01*
X81674Y97704D01*
X81575Y97564D01*
X81491Y97384D01*
X81422Y97164D01*
X81369Y96904D01*
X81331Y96604D01*
X81308Y96264D01*
X81306Y96203D01*
X81307Y96180D01*
X81361Y95540D01*
X81409Y95280D01*
X81471Y95060D01*
X81546Y94880D01*
X81634Y94740D01*
X81736Y94640D01*
X81852Y94580D01*
X81982Y94560D01*
X78300Y94548D01*
X78490Y94569D01*
X78660Y94629D01*
X78810Y94730D01*
X78940Y94871D01*
X79050Y95052D01*
X79140Y95274D01*
X79210Y95535D01*
X79260Y95837D01*
X79290Y96178D01*
X79293Y96304D01*
X79209Y97384D01*
X79169Y97564D01*
X79122Y97704D01*
X79068Y97804D01*
X79006Y97864D01*
X78937Y97884D01*
X82063D01*
X81918Y97864D01*
D02*
G37*
G36*
X88165D02*
X88078Y97804D01*
X88001Y97704D01*
X87935Y97564D01*
X87878Y97384D01*
X87832Y97164D01*
X87796Y96904D01*
X87755Y96264D01*
X87754Y96173D01*
X87760Y95940D01*
X87790Y95599D01*
X87840Y95297D01*
X87910Y95036D01*
X88000Y94815D01*
X88110Y94633D01*
X88240Y94492D01*
X88390Y94391D01*
X88560Y94331D01*
X88750Y94310D01*
X85240Y94322D01*
X85337Y94342D01*
X85424Y94402D01*
X85500Y94502D01*
X85567Y94642D01*
X85623Y94822D01*
X85668Y95042D01*
X85704Y95302D01*
X85745Y95942D01*
X85747Y96083D01*
X85744Y96264D01*
X85695Y96904D01*
X85652Y97164D01*
X85597Y97384D01*
X85529Y97564D01*
X85450Y97704D01*
X85358Y97804D01*
X85254Y97864D01*
X85137Y97884D01*
X88263D01*
X88165Y97864D01*
D02*
G37*
G36*
X132686Y89826D02*
X132605Y89938D01*
X132512Y90038D01*
X132408Y90126D01*
X132293Y90202D01*
X132166Y90267D01*
X132028Y90320D01*
X131878Y90361D01*
X131718Y90391D01*
X131545Y90408D01*
X131362Y90414D01*
X131362Y90416D01*
X130041Y90426D01*
Y92174D01*
X130056Y92124D01*
X130101Y92080D01*
X130176Y92041D01*
X130281Y92008D01*
X130416Y91979D01*
X130581Y91956D01*
X131001Y91925D01*
X131541Y91914D01*
Y91193D01*
X131706Y91914D01*
X131888Y91918D01*
X132229Y91948D01*
X132388Y91975D01*
X132541Y92009D01*
X132686Y92051D01*
X132825Y92100D01*
X132956Y92157D01*
X133079Y92222D01*
X133196Y92294D01*
X132686Y89826D01*
D02*
G37*
G36*
X106959Y90426D02*
X106944Y90431D01*
X106899Y90435D01*
X106719Y90441D01*
X105459Y90450D01*
Y91950D01*
X105744Y91952D01*
X106584Y92006D01*
X106719Y92031D01*
X106824Y92060D01*
X106899Y92093D01*
X106944Y92131D01*
X106959Y92174D01*
Y90426D01*
D02*
G37*
G36*
X103823Y92338D02*
X103940Y92257D01*
X104065Y92185D01*
X104198Y92123D01*
X104339Y92070D01*
X104489Y92027D01*
X104646Y91993D01*
X104812Y91969D01*
X104985Y91955D01*
X105167Y91950D01*
X105259Y90450D01*
X105076Y90445D01*
X104903Y90429D01*
X104740Y90402D01*
X104585Y90364D01*
X104440Y90316D01*
X104304Y90257D01*
X104177Y90187D01*
X104060Y90107D01*
X103952Y90015D01*
X103853Y89913D01*
X103714Y92430D01*
X103823Y92338D01*
D02*
G37*
G36*
X88615Y86058D02*
X88486Y85998D01*
X88372Y85898D01*
X88274Y85758D01*
X88190Y85578D01*
X88121Y85358D01*
X88068Y85098D01*
X88030Y84798D01*
X88008Y84458D01*
X88000Y84078D01*
X86000D01*
X85992Y84458D01*
X85932Y85098D01*
X85878Y85358D01*
X85810Y85578D01*
X85726Y85758D01*
X85628Y85898D01*
X85514Y85998D01*
X85385Y86058D01*
X85240Y86078D01*
X88760D01*
X88615Y86058D01*
D02*
G37*
G36*
X81814Y85420D02*
X81664Y85360D01*
X81532Y85260D01*
X81418Y85120D01*
X81321Y84940D01*
X81241Y84720D01*
X81179Y84460D01*
X81163Y84348D01*
X81165Y84336D01*
X81194Y84214D01*
X81227Y84109D01*
X81266Y84019D01*
X81311Y83944D01*
X81360Y83886D01*
X81114D01*
X81109Y83820D01*
X81100Y83440D01*
X79100D01*
X79091Y83820D01*
X79086Y83886D01*
X78840D01*
X78889Y83944D01*
X78934Y84019D01*
X78973Y84109D01*
X79006Y84214D01*
X79035Y84336D01*
X79037Y84348D01*
X79021Y84460D01*
X78959Y84720D01*
X78879Y84940D01*
X78782Y85120D01*
X78668Y85260D01*
X78536Y85360D01*
X78386Y85420D01*
X78218Y85440D01*
X81982D01*
X81814Y85420D01*
D02*
G37*
G36*
X56503Y67090D02*
X56514Y66974D01*
X56531Y66864D01*
X56554Y66760D01*
X56585Y66662D01*
X56622Y66570D01*
X56667Y66483D01*
X56718Y66402D01*
X56775Y66326D01*
X56840Y66257D01*
X55783D01*
X54854Y65754D01*
X54875Y65842D01*
X54884Y65929D01*
X54882Y66017D01*
X54868Y66105D01*
X54842Y66193D01*
X54805Y66282D01*
X54756Y66371D01*
X54695Y66460D01*
X54623Y66550D01*
X54539Y66639D01*
X55483Y67109D01*
X55497Y67096D01*
X55500Y67211D01*
X56500D01*
X56503Y67090D01*
D02*
G37*
G36*
X48503D02*
X48514Y66974D01*
X48531Y66864D01*
X48554Y66760D01*
X48585Y66662D01*
X48622Y66570D01*
X48667Y66483D01*
X48718Y66402D01*
X48775Y66326D01*
X48840Y66257D01*
X47783D01*
X46854Y65754D01*
X46875Y65842D01*
X46884Y65929D01*
X46882Y66017D01*
X46868Y66105D01*
X46842Y66193D01*
X46805Y66282D01*
X46756Y66371D01*
X46695Y66460D01*
X46623Y66550D01*
X46539Y66639D01*
X47483Y67109D01*
X47497Y67096D01*
X47500Y67211D01*
X48500D01*
X48503Y67090D01*
D02*
G37*
G36*
X40503Y67190D02*
X40514Y67074D01*
X40531Y66964D01*
X40554Y66860D01*
X40585Y66762D01*
X40622Y66670D01*
X40667Y66583D01*
X40718Y66502D01*
X40775Y66426D01*
X40840Y66357D01*
X39645D01*
X38800Y65512D01*
X38797Y65607D01*
X38784Y65701D01*
X38763Y65794D01*
X38733Y65887D01*
X38694Y65979D01*
X38646Y66070D01*
X38589Y66160D01*
X38524Y66250D01*
X38449Y66339D01*
X38366Y66427D01*
X39073Y67134D01*
X39161Y67051D01*
X39250Y66976D01*
X39340Y66911D01*
X39430Y66854D01*
X39442Y66848D01*
X39446Y66860D01*
X39469Y66964D01*
X39486Y67074D01*
X39497Y67190D01*
X39500Y67311D01*
X40500D01*
X40503Y67190D01*
D02*
G37*
G36*
X-9596Y67413D02*
X-9421Y67267D01*
X-9332Y67205D01*
X-9244Y67150D01*
X-9155Y67102D01*
X-9066Y67062D01*
X-8976Y67028D01*
X-8886Y67002D01*
X-8796Y66983D01*
X-10178Y66028D01*
X-10166Y66120D01*
X-10164Y66211D01*
X-10173Y66302D01*
X-10193Y66393D01*
X-10223Y66484D01*
X-10264Y66574D01*
X-10315Y66664D01*
X-10378Y66754D01*
X-10451Y66844D01*
X-10534Y66933D01*
X-9684Y67496D01*
X-9596Y67413D01*
D02*
G37*
G36*
X-49930Y67281D02*
X-49757Y67131D01*
X-49671Y67066D01*
X-49501Y66955D01*
X-49417Y66909D01*
X-49334Y66869D01*
X-49251Y66836D01*
X-49169Y66809D01*
X-50646Y66010D01*
X-50625Y66098D01*
X-50616Y66185D01*
X-50618Y66273D01*
X-50632Y66361D01*
X-50658Y66449D01*
X-50695Y66538D01*
X-50744Y66627D01*
X-50805Y66716D01*
X-50877Y66805D01*
X-50961Y66895D01*
X-50017Y67365D01*
X-49930Y67281D01*
D02*
G37*
G36*
X-1659Y67405D02*
X-1483Y67261D01*
X-1394Y67199D01*
X-1304Y67146D01*
X-1214Y67099D01*
X-1124Y67061D01*
X-1033Y67029D01*
X-942Y67005D01*
X-850Y66988D01*
X-2202Y65990D01*
X-2192Y66083D01*
X-2193Y66176D01*
X-2204Y66267D01*
X-2225Y66359D01*
X-2257Y66450D01*
X-2299Y66541D01*
X-2351Y66631D01*
X-2414Y66721D01*
X-2487Y66810D01*
X-2571Y66899D01*
X-1746Y67489D01*
X-1659Y67405D01*
D02*
G37*
G36*
X-42031Y67320D02*
X-41856Y67173D01*
X-41769Y67110D01*
X-41682Y67053D01*
X-41594Y67003D01*
X-41507Y66960D01*
X-41419Y66924D01*
X-41331Y66895D01*
X-41244Y66872D01*
X-42667Y65980D01*
X-42651Y66070D01*
X-42646Y66160D01*
X-42652Y66250D01*
X-42669Y66340D01*
X-42698Y66430D01*
X-42737Y66519D01*
X-42788Y66609D01*
X-42849Y66699D01*
X-42922Y66788D01*
X-43006Y66878D01*
X-42118Y67404D01*
X-42031Y67320D01*
D02*
G37*
G36*
X-17430Y67245D02*
X-17257Y67096D01*
X-17171Y67031D01*
X-17001Y66919D01*
X-16917Y66873D01*
X-16834Y66834D01*
X-16751Y66801D01*
X-16669Y66774D01*
X-18146Y65975D01*
X-18125Y66062D01*
X-18116Y66150D01*
X-18118Y66237D01*
X-18132Y66325D01*
X-18158Y66414D01*
X-18195Y66502D01*
X-18244Y66591D01*
X-18305Y66681D01*
X-18377Y66770D01*
X-18461Y66860D01*
X-17517Y67330D01*
X-17430Y67245D01*
D02*
G37*
G36*
X-34079Y67317D02*
X-33904Y67171D01*
X-33816Y67108D01*
X-33728Y67052D01*
X-33640Y67003D01*
X-33551Y66961D01*
X-33463Y66926D01*
X-33374Y66899D01*
X-33285Y66878D01*
X-34688Y65954D01*
X-34674Y66045D01*
X-34670Y66136D01*
X-34678Y66226D01*
X-34696Y66317D01*
X-34725Y66407D01*
X-34766Y66497D01*
X-34817Y66587D01*
X-34879Y66677D01*
X-34951Y66766D01*
X-35035Y66855D01*
X-34166Y67401D01*
X-34079Y67317D01*
D02*
G37*
G36*
X-110666Y68361D02*
X-110596Y68305D01*
X-110510Y68255D01*
X-110408Y68212D01*
X-110290Y68176D01*
X-110156Y68147D01*
X-110006Y68124D01*
X-109840Y68107D01*
X-109459Y68094D01*
X-109881Y66094D01*
X-110083Y66092D01*
X-110842Y66038D01*
X-110944Y66018D01*
X-111029Y65995D01*
X-111096Y65969D01*
X-111148Y65940D01*
X-110719Y68423D01*
X-110666Y68361D01*
D02*
G37*
G36*
X-58339Y67307D02*
X-58250Y67232D01*
X-58160Y67167D01*
X-58070Y67110D01*
X-57979Y67062D01*
X-57887Y67023D01*
X-57794Y66993D01*
X-57701Y66972D01*
X-57607Y66959D01*
X-57512Y66956D01*
X-58700Y65768D01*
X-58703Y65863D01*
X-58716Y65957D01*
X-58737Y66050D01*
X-58767Y66143D01*
X-58806Y66235D01*
X-58854Y66326D01*
X-58911Y66416D01*
X-58976Y66506D01*
X-59051Y66595D01*
X-59134Y66683D01*
X-58427Y67390D01*
X-58339Y67307D01*
D02*
G37*
G36*
X63570Y67025D02*
X63743Y66875D01*
X63829Y66810D01*
X63999Y66699D01*
X64083Y66653D01*
X64166Y66613D01*
X64249Y66580D01*
X64332Y66553D01*
X62854Y65754D01*
X62875Y65842D01*
X62884Y65929D01*
X62882Y66017D01*
X62868Y66105D01*
X62842Y66193D01*
X62805Y66282D01*
X62756Y66371D01*
X62695Y66460D01*
X62623Y66550D01*
X62539Y66639D01*
X63483Y67109D01*
X63570Y67025D01*
D02*
G37*
G36*
X31070D02*
X31243Y66875D01*
X31329Y66810D01*
X31499Y66699D01*
X31583Y66653D01*
X31666Y66613D01*
X31749Y66580D01*
X31831Y66553D01*
X30354Y65754D01*
X30375Y65842D01*
X30384Y65929D01*
X30382Y66017D01*
X30368Y66105D01*
X30342Y66193D01*
X30305Y66282D01*
X30256Y66371D01*
X30195Y66460D01*
X30123Y66550D01*
X30039Y66639D01*
X30983Y67109D01*
X31070Y67025D01*
D02*
G37*
G36*
X23070D02*
X23243Y66875D01*
X23329Y66810D01*
X23499Y66699D01*
X23583Y66653D01*
X23666Y66613D01*
X23749Y66580D01*
X23832Y66553D01*
X22354Y65754D01*
X22375Y65842D01*
X22384Y65929D01*
X22382Y66017D01*
X22368Y66105D01*
X22342Y66193D01*
X22305Y66282D01*
X22256Y66371D01*
X22195Y66460D01*
X22123Y66550D01*
X22039Y66639D01*
X22983Y67109D01*
X23070Y67025D01*
D02*
G37*
G36*
X15070D02*
X15243Y66875D01*
X15329Y66810D01*
X15499Y66699D01*
X15583Y66653D01*
X15666Y66613D01*
X15749Y66580D01*
X15832Y66553D01*
X14354Y65754D01*
X14375Y65842D01*
X14384Y65929D01*
X14382Y66017D01*
X14368Y66105D01*
X14342Y66193D01*
X14305Y66282D01*
X14256Y66371D01*
X14195Y66460D01*
X14123Y66550D01*
X14039Y66639D01*
X14983Y67109D01*
X15070Y67025D01*
D02*
G37*
G36*
X-25839Y67271D02*
X-25750Y67197D01*
X-25660Y67131D01*
X-25570Y67074D01*
X-25479Y67027D01*
X-25387Y66988D01*
X-25294Y66957D01*
X-25201Y66936D01*
X-25107Y66924D01*
X-25012Y66920D01*
X-26200Y65733D01*
X-26203Y65827D01*
X-26216Y65921D01*
X-26237Y66015D01*
X-26267Y66107D01*
X-26306Y66199D01*
X-26354Y66290D01*
X-26411Y66381D01*
X-26476Y66470D01*
X-26551Y66559D01*
X-26634Y66647D01*
X-25927Y67355D01*
X-25839Y67271D01*
D02*
G37*
G36*
X6661Y67051D02*
X6750Y66976D01*
X6840Y66911D01*
X6930Y66854D01*
X7021Y66806D01*
X7113Y66767D01*
X7206Y66737D01*
X7299Y66716D01*
X7393Y66703D01*
X7488Y66700D01*
X6300Y65512D01*
X6297Y65607D01*
X6284Y65701D01*
X6263Y65794D01*
X6233Y65887D01*
X6194Y65979D01*
X6146Y66070D01*
X6089Y66160D01*
X6024Y66250D01*
X5949Y66339D01*
X5866Y66427D01*
X6573Y67134D01*
X6661Y67051D01*
D02*
G37*
G36*
X-117808Y64075D02*
X-118206Y63664D01*
X-118830Y62927D01*
X-119058Y62601D01*
X-119229Y62304D01*
X-119343Y62035D01*
X-119401Y61795D01*
X-119402Y61584D01*
X-119346Y61401D01*
X-119235Y61246D01*
X-122051Y64063D01*
X-121897Y63951D01*
X-121713Y63895D01*
X-121502Y63897D01*
X-121262Y63954D01*
X-120993Y64069D01*
X-120696Y64240D01*
X-120371Y64467D01*
X-120017Y64751D01*
X-119223Y65489D01*
X-117808Y64075D01*
D02*
G37*
G36*
X-60992Y66018D02*
X-61016Y65924D01*
X-61012Y65816D01*
X-60981Y65695D01*
X-60923Y65560D01*
X-60838Y65412D01*
X-60725Y65250D01*
X-60584Y65075D01*
X-60222Y64685D01*
X-60831Y63880D01*
X-61041Y64083D01*
X-61416Y64403D01*
X-61581Y64518D01*
X-61730Y64605D01*
X-61864Y64662D01*
X-61982Y64690D01*
X-62085Y64689D01*
X-62173Y64659D01*
X-62245Y64599D01*
X-60941Y66099D01*
X-60992Y66018D01*
D02*
G37*
G36*
X-28492Y65983D02*
X-28516Y65888D01*
X-28512Y65781D01*
X-28481Y65659D01*
X-28423Y65525D01*
X-28338Y65376D01*
X-28225Y65215D01*
X-28084Y65040D01*
X-27722Y64650D01*
X-28331Y63844D01*
X-28541Y64048D01*
X-28916Y64367D01*
X-29081Y64483D01*
X-29230Y64570D01*
X-29364Y64627D01*
X-29482Y64655D01*
X-29585Y64654D01*
X-29673Y64623D01*
X-29745Y64563D01*
X-28441Y66064D01*
X-28492Y65983D01*
D02*
G37*
G36*
X36508Y65763D02*
X36484Y65668D01*
X36488Y65560D01*
X36519Y65439D01*
X36577Y65304D01*
X36662Y65156D01*
X36775Y64994D01*
X36915Y64819D01*
X37278Y64429D01*
X36669Y63624D01*
X36459Y63827D01*
X36084Y64147D01*
X35919Y64263D01*
X35770Y64349D01*
X35636Y64406D01*
X35518Y64434D01*
X35415Y64433D01*
X35327Y64403D01*
X35255Y64343D01*
X36559Y65843D01*
X36508Y65763D01*
D02*
G37*
G36*
X4008D02*
X3984Y65668D01*
X3988Y65560D01*
X4019Y65439D01*
X4077Y65304D01*
X4162Y65156D01*
X4275Y64994D01*
X4416Y64819D01*
X4778Y64429D01*
X4169Y63624D01*
X3959Y63827D01*
X3584Y64147D01*
X3419Y64263D01*
X3270Y64349D01*
X3136Y64406D01*
X3018Y64434D01*
X2915Y64433D01*
X2827Y64403D01*
X2755Y64343D01*
X4059Y65843D01*
X4008Y65763D01*
D02*
G37*
G36*
X-36595Y64589D02*
X-36680Y64558D01*
X-36755Y64508D01*
X-36820Y64437D01*
X-36875Y64346D01*
X-36920Y64235D01*
X-36955Y64103D01*
X-36980Y63951D01*
X-36995Y63779D01*
X-37000Y63587D01*
X-38000D01*
X-38005Y63779D01*
X-38020Y63951D01*
X-38045Y64103D01*
X-38080Y64235D01*
X-38125Y64346D01*
X-38180Y64437D01*
X-38245Y64508D01*
X-38320Y64558D01*
X-38405Y64589D01*
X-38500Y64599D01*
X-36500D01*
X-36595Y64589D01*
D02*
G37*
G36*
X-44595D02*
X-44680Y64558D01*
X-44755Y64508D01*
X-44820Y64437D01*
X-44875Y64346D01*
X-44920Y64235D01*
X-44955Y64103D01*
X-44980Y63951D01*
X-44995Y63779D01*
X-45000Y63587D01*
X-46000D01*
X-46005Y63779D01*
X-46020Y63951D01*
X-46045Y64103D01*
X-46080Y64235D01*
X-46125Y64346D01*
X-46180Y64437D01*
X-46245Y64508D01*
X-46320Y64558D01*
X-46405Y64589D01*
X-46500Y64599D01*
X-44500D01*
X-44595Y64589D01*
D02*
G37*
G36*
X-52595D02*
X-52680Y64558D01*
X-52755Y64508D01*
X-52820Y64437D01*
X-52875Y64346D01*
X-52920Y64235D01*
X-52955Y64103D01*
X-52980Y63951D01*
X-52995Y63779D01*
X-53000Y63587D01*
X-54000D01*
X-54005Y63779D01*
X-54020Y63951D01*
X-54045Y64103D01*
X-54080Y64235D01*
X-54125Y64346D01*
X-54180Y64437D01*
X-54245Y64508D01*
X-54320Y64558D01*
X-54405Y64589D01*
X-54500Y64599D01*
X-52500D01*
X-52595Y64589D01*
D02*
G37*
G36*
X-4095Y64553D02*
X-4180Y64523D01*
X-4255Y64472D01*
X-4320Y64401D01*
X-4375Y64310D01*
X-4420Y64199D01*
X-4455Y64068D01*
X-4480Y63916D01*
X-4495Y63744D01*
X-4500Y63551D01*
X-5500D01*
X-5505Y63744D01*
X-5520Y63916D01*
X-5545Y64068D01*
X-5580Y64199D01*
X-5625Y64310D01*
X-5680Y64401D01*
X-5745Y64472D01*
X-5820Y64523D01*
X-5905Y64553D01*
X-6000Y64563D01*
X-4000D01*
X-4095Y64553D01*
D02*
G37*
G36*
X-12095D02*
X-12180Y64523D01*
X-12255Y64472D01*
X-12320Y64401D01*
X-12375Y64310D01*
X-12420Y64199D01*
X-12455Y64068D01*
X-12480Y63916D01*
X-12495Y63744D01*
X-12500Y63551D01*
X-13500D01*
X-13505Y63744D01*
X-13520Y63916D01*
X-13545Y64068D01*
X-13580Y64199D01*
X-13625Y64310D01*
X-13680Y64401D01*
X-13745Y64472D01*
X-13820Y64523D01*
X-13905Y64553D01*
X-14000Y64563D01*
X-12000D01*
X-12095Y64553D01*
D02*
G37*
G36*
X-20095D02*
X-20180Y64523D01*
X-20255Y64472D01*
X-20320Y64401D01*
X-20375Y64310D01*
X-20420Y64199D01*
X-20455Y64068D01*
X-20480Y63916D01*
X-20495Y63744D01*
X-20500Y63551D01*
X-21500D01*
X-21505Y63744D01*
X-21520Y63916D01*
X-21545Y64068D01*
X-21580Y64199D01*
X-21625Y64310D01*
X-21680Y64401D01*
X-21745Y64472D01*
X-21820Y64523D01*
X-21905Y64553D01*
X-22000Y64563D01*
X-20000D01*
X-20095Y64553D01*
D02*
G37*
G36*
X60905Y64333D02*
X60820Y64302D01*
X60745Y64252D01*
X60680Y64181D01*
X60625Y64090D01*
X60580Y63979D01*
X60545Y63847D01*
X60520Y63695D01*
X60505Y63523D01*
X60500Y63331D01*
X59500D01*
X59495Y63523D01*
X59480Y63695D01*
X59455Y63847D01*
X59420Y63979D01*
X59375Y64090D01*
X59320Y64181D01*
X59255Y64252D01*
X59180Y64302D01*
X59095Y64333D01*
X59000Y64343D01*
X61000D01*
X60905Y64333D01*
D02*
G37*
G36*
X52905D02*
X52820Y64302D01*
X52745Y64252D01*
X52680Y64181D01*
X52625Y64090D01*
X52580Y63979D01*
X52545Y63847D01*
X52520Y63695D01*
X52505Y63523D01*
X52500Y63331D01*
X51500D01*
X51495Y63523D01*
X51480Y63695D01*
X51455Y63847D01*
X51420Y63979D01*
X51375Y64090D01*
X51320Y64181D01*
X51255Y64252D01*
X51180Y64302D01*
X51095Y64333D01*
X51000Y64343D01*
X53000D01*
X52905Y64333D01*
D02*
G37*
G36*
X44905D02*
X44820Y64302D01*
X44745Y64252D01*
X44680Y64181D01*
X44625Y64090D01*
X44580Y63979D01*
X44545Y63847D01*
X44520Y63695D01*
X44505Y63523D01*
X44500Y63331D01*
X43500D01*
X43495Y63523D01*
X43480Y63695D01*
X43455Y63847D01*
X43420Y63979D01*
X43375Y64090D01*
X43320Y64181D01*
X43255Y64252D01*
X43180Y64302D01*
X43095Y64333D01*
X43000Y64343D01*
X45000D01*
X44905Y64333D01*
D02*
G37*
G36*
X28405D02*
X28320Y64302D01*
X28245Y64252D01*
X28180Y64181D01*
X28125Y64090D01*
X28080Y63979D01*
X28045Y63847D01*
X28020Y63695D01*
X28005Y63523D01*
X28000Y63331D01*
X27000D01*
X26995Y63523D01*
X26980Y63695D01*
X26955Y63847D01*
X26920Y63979D01*
X26875Y64090D01*
X26820Y64181D01*
X26755Y64252D01*
X26680Y64302D01*
X26595Y64333D01*
X26500Y64343D01*
X28500D01*
X28405Y64333D01*
D02*
G37*
G36*
X20405D02*
X20320Y64302D01*
X20245Y64252D01*
X20180Y64181D01*
X20125Y64090D01*
X20080Y63979D01*
X20045Y63847D01*
X20020Y63695D01*
X20005Y63523D01*
X20000Y63331D01*
X19000D01*
X18995Y63523D01*
X18980Y63695D01*
X18955Y63847D01*
X18920Y63979D01*
X18875Y64090D01*
X18820Y64181D01*
X18755Y64252D01*
X18680Y64302D01*
X18595Y64333D01*
X18500Y64343D01*
X20500D01*
X20405Y64333D01*
D02*
G37*
G36*
X12405D02*
X12320Y64302D01*
X12245Y64252D01*
X12180Y64181D01*
X12125Y64090D01*
X12080Y63979D01*
X12045Y63847D01*
X12020Y63695D01*
X12005Y63523D01*
X12000Y63331D01*
X11000D01*
X10995Y63523D01*
X10980Y63695D01*
X10955Y63847D01*
X10920Y63979D01*
X10875Y64090D01*
X10820Y64181D01*
X10755Y64252D01*
X10680Y64302D01*
X10595Y64333D01*
X10500Y64343D01*
X12500D01*
X12405Y64333D01*
D02*
G37*
G36*
X-105148Y64977D02*
X-104412Y64353D01*
X-104086Y64125D01*
X-103789Y63954D01*
X-103520Y63840D01*
X-103280Y63782D01*
X-103069Y63781D01*
X-102886Y63836D01*
X-102731Y63948D01*
X-105548Y61132D01*
X-105436Y61286D01*
X-105380Y61469D01*
X-105382Y61681D01*
X-105439Y61921D01*
X-105554Y62189D01*
X-105725Y62486D01*
X-105952Y62812D01*
X-106236Y63166D01*
X-106974Y63960D01*
X-105560Y65374D01*
X-105148Y64977D01*
D02*
G37*
G36*
X-110608Y63058D02*
X-110635Y62967D01*
X-110634Y62861D01*
X-110604Y62741D01*
X-110546Y62607D01*
X-110460Y62459D01*
X-110346Y62296D01*
X-110203Y62118D01*
X-109833Y61720D01*
X-110540Y61013D01*
X-110747Y61212D01*
X-111116Y61526D01*
X-111279Y61640D01*
X-111427Y61726D01*
X-111562Y61784D01*
X-111681Y61814D01*
X-111787Y61815D01*
X-111878Y61788D01*
X-111955Y61732D01*
X-110552Y63135D01*
X-110608Y63058D01*
D02*
G37*
G36*
X-52995Y59839D02*
X-52980Y59667D01*
X-52955Y59515D01*
X-52920Y59384D01*
X-52875Y59272D01*
X-52820Y59181D01*
X-52755Y59110D01*
X-52680Y59060D01*
X-52595Y59029D01*
X-52500Y59019D01*
X-54500D01*
X-54405Y59029D01*
X-54320Y59060D01*
X-54245Y59110D01*
X-54180Y59181D01*
X-54125Y59272D01*
X-54080Y59384D01*
X-54045Y59515D01*
X-54020Y59667D01*
X-54005Y59839D01*
X-54000Y60031D01*
X-53000D01*
X-52995Y59839D01*
D02*
G37*
G36*
X-20495Y59804D02*
X-20480Y59632D01*
X-20455Y59480D01*
X-20420Y59348D01*
X-20375Y59237D01*
X-20320Y59146D01*
X-20255Y59075D01*
X-20180Y59024D01*
X-20095Y58994D01*
X-20000Y58984D01*
X-22000D01*
X-21905Y58994D01*
X-21820Y59024D01*
X-21745Y59075D01*
X-21680Y59146D01*
X-21625Y59237D01*
X-21580Y59348D01*
X-21545Y59480D01*
X-21520Y59632D01*
X-21505Y59804D01*
X-21500Y59996D01*
X-20500D01*
X-20495Y59804D01*
D02*
G37*
G36*
X44505Y59583D02*
X44520Y59411D01*
X44545Y59259D01*
X44580Y59128D01*
X44625Y59016D01*
X44680Y58925D01*
X44745Y58855D01*
X44820Y58804D01*
X44905Y58773D01*
X45000Y58763D01*
X43000D01*
X43095Y58773D01*
X43180Y58804D01*
X43255Y58855D01*
X43320Y58925D01*
X43375Y59016D01*
X43420Y59128D01*
X43455Y59259D01*
X43480Y59411D01*
X43495Y59583D01*
X43500Y59775D01*
X44500D01*
X44505Y59583D01*
D02*
G37*
G36*
X12005D02*
X12020Y59411D01*
X12045Y59259D01*
X12080Y59128D01*
X12125Y59016D01*
X12180Y58925D01*
X12245Y58855D01*
X12320Y58804D01*
X12405Y58773D01*
X12500Y58763D01*
X10500D01*
X10595Y58773D01*
X10680Y58804D01*
X10755Y58855D01*
X10820Y58925D01*
X10875Y59016D01*
X10920Y59128D01*
X10955Y59259D01*
X10980Y59411D01*
X10995Y59583D01*
X11000Y59775D01*
X12000D01*
X12005Y59583D01*
D02*
G37*
G36*
X-97847Y56950D02*
X-97917Y57014D01*
X-97993Y57071D01*
X-98075Y57121D01*
X-98162Y57165D01*
X-98255Y57202D01*
X-98353Y57232D01*
X-98458Y57255D01*
X-98567Y57272D01*
X-98683Y57282D01*
X-98804Y57286D01*
X-98817Y58286D01*
X-98696Y58289D01*
X-98581Y58299D01*
X-98471Y58317D01*
X-98367Y58341D01*
X-98269Y58372D01*
X-98177Y58410D01*
X-98091Y58454D01*
X-98010Y58506D01*
X-97936Y58564D01*
X-97867Y58630D01*
X-97847Y56950D01*
D02*
G37*
G36*
X-102030Y58691D02*
X-102000Y58606D01*
X-101950Y58531D01*
X-101880Y58466D01*
X-101790Y58411D01*
X-101680Y58366D01*
X-101550Y58331D01*
X-101400Y58306D01*
X-101230Y58291D01*
X-101040Y58286D01*
Y57286D01*
X-101230Y57281D01*
X-101400Y57266D01*
X-101550Y57241D01*
X-101680Y57206D01*
X-101790Y57161D01*
X-101880Y57106D01*
X-101950Y57041D01*
X-102000Y56966D01*
X-102030Y56881D01*
X-102040Y56786D01*
Y58786D01*
X-102030Y58691D01*
D02*
G37*
G36*
X-105548Y56771D02*
X-105558Y56866D01*
X-105588Y56951D01*
X-105639Y57026D01*
X-105710Y57091D01*
X-105801Y57146D01*
X-105912Y57191D01*
X-106044Y57226D01*
X-106195Y57251D01*
X-106367Y57266D01*
X-106560Y57271D01*
Y58271D01*
X-106367Y58276D01*
X-106195Y58291D01*
X-106044Y58316D01*
X-105912Y58351D01*
X-105801Y58396D01*
X-105710Y58451D01*
X-105639Y58516D01*
X-105588Y58591D01*
X-105558Y58676D01*
X-105548Y58771D01*
Y56771D01*
D02*
G37*
G36*
X-114060Y56279D02*
X-114070Y56374D01*
X-114100Y56459D01*
X-114150Y56534D01*
X-114220Y56599D01*
X-114310Y56654D01*
X-114420Y56699D01*
X-114550Y56734D01*
X-114700Y56759D01*
X-114870Y56774D01*
X-115060Y56779D01*
Y57779D01*
X-114870Y57784D01*
X-114700Y57799D01*
X-114550Y57824D01*
X-114420Y57859D01*
X-114310Y57904D01*
X-114220Y57959D01*
X-114150Y58024D01*
X-114100Y58099D01*
X-114070Y58184D01*
X-114060Y58279D01*
Y56279D01*
D02*
G37*
G36*
X-119225Y58184D02*
X-119194Y58099D01*
X-119143Y58024D01*
X-119073Y57959D01*
X-118982Y57904D01*
X-118870Y57859D01*
X-118739Y57824D01*
X-118587Y57799D01*
X-118415Y57784D01*
X-118223Y57779D01*
Y56779D01*
X-118415Y56774D01*
X-118587Y56759D01*
X-118739Y56734D01*
X-118870Y56699D01*
X-118982Y56654D01*
X-119073Y56599D01*
X-119143Y56534D01*
X-119194Y56459D01*
X-119225Y56374D01*
X-119235Y56279D01*
Y58279D01*
X-119225Y58184D01*
D02*
G37*
G36*
X-122577Y56192D02*
X-122587Y56271D01*
X-122617Y56341D01*
X-122667Y56403D01*
X-122737Y56457D01*
X-122827Y56503D01*
X-122937Y56540D01*
X-123067Y56569D01*
X-123217Y56590D01*
X-123387Y56602D01*
X-123577Y56606D01*
Y57606D01*
X-123387Y57611D01*
X-123217Y57626D01*
X-123067Y57651D01*
X-122937Y57686D01*
X-122827Y57731D01*
X-122737Y57786D01*
X-122667Y57851D01*
X-122617Y57926D01*
X-122587Y58011D01*
X-122577Y58106D01*
Y56192D01*
D02*
G37*
G36*
X-129721Y58005D02*
X-129686Y57922D01*
X-129628Y57848D01*
X-129546Y57784D01*
X-129441Y57730D01*
X-129313Y57685D01*
X-129161Y57651D01*
X-128986Y57626D01*
X-128788Y57611D01*
X-128566Y57606D01*
Y56606D01*
X-128788Y56601D01*
X-129161Y56562D01*
X-129313Y56528D01*
X-129441Y56483D01*
X-129546Y56429D01*
X-129628Y56365D01*
X-129686Y56291D01*
X-129721Y56207D01*
X-129733Y56114D01*
Y58099D01*
X-129721Y58005D01*
D02*
G37*
G36*
X-59495Y53696D02*
X-59480Y53526D01*
X-59455Y53376D01*
X-59420Y53246D01*
X-59375Y53136D01*
X-59320Y53046D01*
X-59255Y52976D01*
X-59180Y52926D01*
X-59095Y52896D01*
X-59000Y52886D01*
X-61000D01*
X-60905Y52896D01*
X-60820Y52926D01*
X-60745Y52976D01*
X-60680Y53046D01*
X-60625Y53136D01*
X-60580Y53246D01*
X-60545Y53376D01*
X-60520Y53526D01*
X-60505Y53696D01*
X-60500Y53886D01*
X-59500D01*
X-59495Y53696D01*
D02*
G37*
G36*
X-26995Y53660D02*
X-26980Y53490D01*
X-26955Y53340D01*
X-26920Y53210D01*
X-26875Y53100D01*
X-26820Y53010D01*
X-26755Y52940D01*
X-26680Y52890D01*
X-26595Y52860D01*
X-26500Y52850D01*
X-28500D01*
X-28405Y52860D01*
X-28320Y52890D01*
X-28245Y52940D01*
X-28180Y53010D01*
X-28125Y53100D01*
X-28080Y53210D01*
X-28045Y53340D01*
X-28020Y53490D01*
X-28005Y53660D01*
X-28000Y53850D01*
X-27000D01*
X-26995Y53660D01*
D02*
G37*
G36*
X-36995D02*
X-36980Y53490D01*
X-36955Y53340D01*
X-36920Y53210D01*
X-36875Y53100D01*
X-36820Y53010D01*
X-36755Y52940D01*
X-36680Y52890D01*
X-36595Y52860D01*
X-36500Y52850D01*
X-38500D01*
X-38405Y52860D01*
X-38320Y52890D01*
X-38245Y52940D01*
X-38180Y53010D01*
X-38125Y53100D01*
X-38080Y53210D01*
X-38045Y53340D01*
X-38020Y53490D01*
X-38005Y53660D01*
X-38000Y53850D01*
X-37000D01*
X-36995Y53660D01*
D02*
G37*
G36*
X-4495Y53625D02*
X-4480Y53455D01*
X-4455Y53305D01*
X-4420Y53175D01*
X-4375Y53065D01*
X-4320Y52975D01*
X-4255Y52905D01*
X-4180Y52855D01*
X-4095Y52825D01*
X-4000Y52815D01*
X-6000D01*
X-5905Y52825D01*
X-5820Y52855D01*
X-5745Y52905D01*
X-5680Y52975D01*
X-5625Y53065D01*
X-5580Y53175D01*
X-5545Y53305D01*
X-5520Y53455D01*
X-5505Y53625D01*
X-5500Y53815D01*
X-4500D01*
X-4495Y53625D01*
D02*
G37*
G36*
X38005Y53440D02*
X38020Y53270D01*
X38045Y53120D01*
X38080Y52990D01*
X38125Y52880D01*
X38180Y52790D01*
X38245Y52720D01*
X38320Y52670D01*
X38405Y52640D01*
X38500Y52630D01*
X36500D01*
X36595Y52640D01*
X36680Y52670D01*
X36755Y52720D01*
X36820Y52790D01*
X36875Y52880D01*
X36920Y52990D01*
X36955Y53120D01*
X36980Y53270D01*
X36995Y53440D01*
X37000Y53630D01*
X38000D01*
X38005Y53440D01*
D02*
G37*
G36*
X5505D02*
X5520Y53270D01*
X5545Y53120D01*
X5580Y52990D01*
X5625Y52880D01*
X5680Y52790D01*
X5745Y52720D01*
X5820Y52670D01*
X5905Y52640D01*
X6000Y52630D01*
X4000D01*
X4095Y52640D01*
X4180Y52670D01*
X4255Y52720D01*
X4320Y52790D01*
X4375Y52880D01*
X4420Y52990D01*
X4455Y53120D01*
X4480Y53270D01*
X4495Y53440D01*
X4500Y53630D01*
X5500D01*
X5505Y53440D01*
D02*
G37*
G36*
X60505Y53404D02*
X60520Y53234D01*
X60545Y53084D01*
X60580Y52954D01*
X60625Y52844D01*
X60680Y52754D01*
X60745Y52684D01*
X60820Y52634D01*
X60905Y52604D01*
X61000Y52594D01*
X59000D01*
X59095Y52604D01*
X59180Y52634D01*
X59255Y52684D01*
X59320Y52754D01*
X59375Y52844D01*
X59420Y52954D01*
X59455Y53084D01*
X59480Y53234D01*
X59495Y53404D01*
X59500Y53594D01*
X60500D01*
X60505Y53404D01*
D02*
G37*
G36*
X28005D02*
X28020Y53234D01*
X28045Y53084D01*
X28080Y52954D01*
X28125Y52844D01*
X28180Y52754D01*
X28245Y52684D01*
X28320Y52634D01*
X28405Y52604D01*
X28500Y52594D01*
X26500D01*
X26595Y52604D01*
X26680Y52634D01*
X26755Y52684D01*
X26820Y52754D01*
X26875Y52844D01*
X26920Y52954D01*
X26955Y53084D01*
X26980Y53234D01*
X26995Y53404D01*
X27000Y53594D01*
X28000D01*
X28005Y53404D01*
D02*
G37*
G36*
X-129721Y53084D02*
X-129686Y53000D01*
X-129628Y52926D01*
X-129546Y52862D01*
X-129441Y52808D01*
X-129313Y52764D01*
X-129161Y52729D01*
X-128986Y52705D01*
X-128788Y52690D01*
X-128566Y52685D01*
Y51685D01*
X-128788Y51680D01*
X-129161Y51641D01*
X-129313Y51606D01*
X-129441Y51562D01*
X-129546Y51508D01*
X-129628Y51444D01*
X-129686Y51370D01*
X-129721Y51286D01*
X-129733Y51192D01*
Y53178D01*
X-129721Y53084D01*
D02*
G37*
G36*
X-122577Y52675D02*
X-122565Y51185D01*
X-122576Y51280D01*
X-122607Y51365D01*
X-122658Y51440D01*
X-122729Y51505D01*
X-122820Y51560D01*
X-122932Y51605D01*
X-123063Y51640D01*
X-123214Y51665D01*
X-123386Y51680D01*
X-123577Y51685D01*
Y52685D01*
X-122577Y52675D01*
D02*
G37*
G36*
X-114048Y50688D02*
X-114058Y50783D01*
X-114088Y50868D01*
X-114139Y50943D01*
X-114210Y51008D01*
X-114301Y51063D01*
X-114412Y51108D01*
X-114543Y51143D01*
X-114695Y51168D01*
X-114867Y51183D01*
X-115060Y51188D01*
Y52188D01*
X-114867Y52193D01*
X-114695Y52208D01*
X-114543Y52233D01*
X-114412Y52268D01*
X-114301Y52313D01*
X-114210Y52368D01*
X-114139Y52433D01*
X-114088Y52508D01*
X-114058Y52593D01*
X-114048Y52688D01*
Y50688D01*
D02*
G37*
G36*
X-119213Y52582D02*
X-119183Y52500D01*
X-119133Y52426D01*
X-119063Y52363D01*
X-118973Y52310D01*
X-118863Y52266D01*
X-118733Y52232D01*
X-118583Y52207D01*
X-118413Y52193D01*
X-118223Y52188D01*
Y51188D01*
X-118413Y51183D01*
X-118583Y51168D01*
X-118733Y51143D01*
X-118863Y51108D01*
X-118973Y51063D01*
X-119063Y51008D01*
X-119133Y50943D01*
X-119183Y50868D01*
X-119213Y50783D01*
X-119223Y50688D01*
Y52675D01*
X-119213Y52582D01*
D02*
G37*
G36*
X-101942Y52067D02*
X-101912Y51982D01*
X-101861Y51907D01*
X-101790Y51842D01*
X-101699Y51787D01*
X-101588Y51742D01*
X-101456Y51707D01*
X-101305Y51682D01*
X-101133Y51667D01*
X-100940Y51662D01*
Y50662D01*
X-101133Y50657D01*
X-101305Y50642D01*
X-101456Y50617D01*
X-101588Y50582D01*
X-101699Y50537D01*
X-101790Y50482D01*
X-101861Y50417D01*
X-101912Y50342D01*
X-101942Y50257D01*
X-101952Y50162D01*
Y52162D01*
X-101942Y52067D01*
D02*
G37*
G36*
X-104112Y49698D02*
X-104187Y49757D01*
X-104277Y49788D01*
X-104381Y49790D01*
X-104500Y49762D01*
X-104634Y49706D01*
X-104783Y49621D01*
X-104947Y49507D01*
X-105125Y49364D01*
X-105526Y48991D01*
X-106167Y49765D01*
X-105972Y49967D01*
X-105665Y50330D01*
X-105552Y50492D01*
X-105468Y50640D01*
X-105411Y50775D01*
X-105382Y50896D01*
X-105380Y51004D01*
X-105406Y51098D01*
X-105460Y51179D01*
X-104112Y49698D01*
D02*
G37*
G36*
X-96327Y49186D02*
X-96239Y49111D01*
X-96150Y49044D01*
X-96060Y48984D01*
X-95969Y48933D01*
X-95878Y48890D01*
X-95787Y48854D01*
X-95694Y48827D01*
X-95601Y48808D01*
X-95508Y48796D01*
X-96794Y47716D01*
X-96790Y47811D01*
X-96795Y47904D01*
X-96811Y47997D01*
X-96836Y48090D01*
X-96870Y48181D01*
X-96915Y48272D01*
X-96969Y48363D01*
X-97033Y48453D01*
X-97106Y48542D01*
X-97190Y48631D01*
X-96415Y49270D01*
X-96327Y49186D01*
D02*
G37*
G36*
X-33500Y10000D02*
X-38471D01*
Y17067D01*
X-35130D01*
Y23791D01*
X-40870D01*
Y19230D01*
X-41081Y19018D01*
X-41413Y18522D01*
X-41529Y17937D01*
Y10000D01*
X-47471D01*
Y10386D01*
X-47587Y10971D01*
X-47919Y11467D01*
X-49673Y13222D01*
Y16799D01*
X-55168D01*
Y23198D01*
X-55265Y23686D01*
X-55285Y23783D01*
X-55616Y24279D01*
X-56510Y25173D01*
X-57006Y25504D01*
X-57591Y25621D01*
X-64000D01*
Y62500D01*
X-61529D01*
Y53898D01*
X-62870D01*
Y47173D01*
X-57130D01*
Y53898D01*
X-58471D01*
Y62500D01*
X-55029D01*
Y60043D01*
X-56433D01*
Y54303D01*
X-50629D01*
Y39577D01*
X-51836Y38370D01*
X-56398D01*
Y32630D01*
X-49673D01*
Y36207D01*
X-48019Y37862D01*
X-47687Y38358D01*
X-47571Y38943D01*
Y58511D01*
X-44419Y61663D01*
X-44087Y62159D01*
X-44019Y62500D01*
X-39029D01*
Y53862D01*
X-40870D01*
Y47138D01*
X-35130D01*
Y53862D01*
X-35971D01*
Y62500D01*
X-33500D01*
Y10000D01*
D02*
G37*
G36*
X-1000Y9965D02*
X-5971D01*
Y17031D01*
X-2630D01*
Y23756D01*
X-8370D01*
Y19194D01*
X-8581Y18983D01*
X-8913Y18487D01*
X-9029Y17902D01*
Y9965D01*
X-14971D01*
Y10350D01*
X-15087Y10936D01*
X-15419Y11432D01*
X-17173Y13186D01*
Y16764D01*
X-23471D01*
Y17402D01*
X-23568Y17890D01*
X-23587Y17987D01*
X-23919Y18483D01*
X-24630Y19194D01*
Y23756D01*
X-30370D01*
Y17031D01*
X-26793D01*
X-26529Y16768D01*
Y9965D01*
X-31500D01*
Y62465D01*
X-29029D01*
Y53862D01*
X-30370D01*
Y47138D01*
X-24630D01*
Y53862D01*
X-25971D01*
Y62465D01*
X-22529D01*
Y60008D01*
X-23933D01*
Y54268D01*
X-18129D01*
Y39541D01*
X-19336Y38335D01*
X-23898D01*
Y32594D01*
X-17173D01*
Y36172D01*
X-15518Y37826D01*
X-15187Y38323D01*
X-15071Y38908D01*
Y58475D01*
X-11919Y61627D01*
X-11587Y62123D01*
X-11519Y62465D01*
X-6529D01*
Y53827D01*
X-8370D01*
Y47102D01*
X-2630D01*
Y53827D01*
X-3471D01*
Y62465D01*
X-1000D01*
Y9965D01*
D02*
G37*
G36*
X63471Y9744D02*
X59029D01*
Y16811D01*
X62370D01*
Y23535D01*
X56630D01*
Y18974D01*
X56419Y18763D01*
X56087Y18266D01*
X55971Y17681D01*
Y9744D01*
X50029D01*
Y10130D01*
X49913Y10715D01*
X49581Y11211D01*
X47827Y12966D01*
Y16543D01*
X41529D01*
Y17181D01*
X41432Y17669D01*
X41413Y17766D01*
X41081Y18262D01*
X40370Y18974D01*
Y23535D01*
X34630D01*
Y16811D01*
X38207D01*
X38471Y16548D01*
Y9744D01*
X33500D01*
Y62244D01*
X35971D01*
Y53642D01*
X34630D01*
Y46917D01*
X40370D01*
Y53642D01*
X39029D01*
Y62244D01*
X42471D01*
Y59787D01*
X41067D01*
Y54047D01*
X46871D01*
Y39321D01*
X45664Y38114D01*
X41102D01*
Y32374D01*
X47827D01*
Y35951D01*
X49481Y37606D01*
X49813Y38102D01*
X49929Y38687D01*
Y58255D01*
X53081Y61407D01*
X53413Y61903D01*
X53481Y62244D01*
X58471D01*
Y53606D01*
X56630D01*
Y46882D01*
X62370D01*
Y53606D01*
X61529D01*
Y62244D01*
X63471D01*
Y9744D01*
D02*
G37*
G36*
X31500D02*
X26529D01*
Y16811D01*
X29870D01*
Y23535D01*
X24130D01*
Y18974D01*
X23919Y18763D01*
X23587Y18266D01*
X23471Y17681D01*
Y9744D01*
X17529D01*
Y10130D01*
X17413Y10715D01*
X17081Y11211D01*
X15327Y12966D01*
Y16543D01*
X9029D01*
Y17181D01*
X8932Y17669D01*
X8913Y17766D01*
X8581Y18262D01*
X7870Y18974D01*
Y23535D01*
X2130D01*
Y16811D01*
X5707D01*
X5971Y16548D01*
Y9744D01*
X1000D01*
Y62244D01*
X3471D01*
Y53642D01*
X2130D01*
Y46917D01*
X7870D01*
Y53642D01*
X6529D01*
Y62244D01*
X9971D01*
Y59787D01*
X8567D01*
Y54047D01*
X14371D01*
Y39321D01*
X13164Y38114D01*
X8602D01*
Y32374D01*
X15327D01*
Y35951D01*
X16982Y37606D01*
X17313Y38102D01*
X17429Y38687D01*
Y58255D01*
X20581Y61407D01*
X20913Y61903D01*
X20981Y62244D01*
X25971D01*
Y53606D01*
X24130D01*
Y46882D01*
X29870D01*
Y53606D01*
X29029D01*
Y62244D01*
X31500D01*
Y9744D01*
D02*
G37*
G36*
X-129608Y47279D02*
X-129627Y47179D01*
X-129621Y47069D01*
X-129589Y46947D01*
X-129533Y46813D01*
X-129451Y46669D01*
X-129343Y46513D01*
X-129211Y46345D01*
X-129053Y46167D01*
X-128870Y45977D01*
X-129445Y45138D01*
X-129634Y45320D01*
X-129970Y45601D01*
X-130118Y45699D01*
X-130251Y45770D01*
X-130371Y45813D01*
X-130476Y45828D01*
X-130568Y45815D01*
X-130646Y45774D01*
X-130710Y45706D01*
X-129564Y47366D01*
X-129608Y47279D01*
D02*
G37*
G36*
X-110530Y46884D02*
X-110500Y46799D01*
X-110450Y46724D01*
X-110380Y46659D01*
X-110290Y46604D01*
X-110180Y46559D01*
X-110050Y46524D01*
X-109900Y46499D01*
X-109730Y46484D01*
X-109540Y46479D01*
Y45479D01*
X-109730Y45474D01*
X-109900Y45459D01*
X-110050Y45434D01*
X-110180Y45399D01*
X-110290Y45354D01*
X-110380Y45299D01*
X-110450Y45234D01*
X-110500Y45159D01*
X-110530Y45074D01*
X-110540Y44979D01*
Y46979D01*
X-110530Y46884D01*
D02*
G37*
G36*
X-119336Y47465D02*
X-119392Y47281D01*
Y47069D01*
X-119336Y46829D01*
X-119223Y46560D01*
X-119053Y46263D01*
X-118827Y45938D01*
X-118544Y45584D01*
X-117808Y44792D01*
X-119223Y43378D01*
X-119633Y43774D01*
X-120368Y44396D01*
X-120693Y44623D01*
X-120990Y44792D01*
X-121259Y44905D01*
X-121500Y44962D01*
X-121712D01*
X-121896Y44905D01*
X-122051Y44792D01*
X-119223Y47621D01*
X-119336Y47465D01*
D02*
G37*
G36*
X-102085Y44953D02*
X-102214Y44893D01*
X-102328Y44793D01*
X-102427Y44653D01*
X-102510Y44473D01*
X-102578Y44253D01*
X-102632Y43993D01*
X-102670Y43693D01*
X-102692Y43353D01*
X-102700Y42973D01*
X-104700D01*
X-104708Y43353D01*
X-104768Y43993D01*
X-104822Y44253D01*
X-104890Y44473D01*
X-104973Y44653D01*
X-105072Y44793D01*
X-105186Y44893D01*
X-105315Y44953D01*
X-105460Y44973D01*
X-101940D01*
X-102085Y44953D01*
D02*
G37*
G36*
X-115332Y34679D02*
X-115401Y34744D01*
X-115477Y34802D01*
X-115558Y34853D01*
X-115645Y34897D01*
X-115737Y34934D01*
X-115835Y34965D01*
X-115939Y34989D01*
X-116049Y35006D01*
X-116165Y35016D01*
X-116286Y35019D01*
Y36019D01*
X-116165Y36023D01*
X-116049Y36033D01*
X-115939Y36050D01*
X-115835Y36074D01*
X-115737Y36104D01*
X-115645Y36142D01*
X-115558Y36186D01*
X-115477Y36237D01*
X-115401Y36295D01*
X-115332Y36359D01*
Y34679D01*
D02*
G37*
G36*
X-79871Y35615D02*
X-80010Y35472D01*
X-80339Y35088D01*
X-80420Y34974D01*
X-80485Y34868D01*
X-80536Y34770D01*
X-80572Y34678D01*
X-80593Y34595D01*
X-80600Y34518D01*
X-82382Y36300D01*
X-82306Y36307D01*
X-82222Y36328D01*
X-82130Y36364D01*
X-82032Y36415D01*
X-81926Y36480D01*
X-81812Y36561D01*
X-81564Y36765D01*
X-81428Y36890D01*
X-81285Y37029D01*
X-79871Y35615D01*
D02*
G37*
G36*
X-83877Y33472D02*
X-83931Y33534D01*
X-84001Y33590D01*
X-84087Y33639D01*
X-84189Y33682D01*
X-84307Y33718D01*
X-84441Y33748D01*
X-84591Y33770D01*
X-84758Y33787D01*
X-85138Y33800D01*
X-84725Y35800D01*
X-84523Y35802D01*
X-83764Y35856D01*
X-83662Y35877D01*
X-83577Y35900D01*
X-83509Y35927D01*
X-83457Y35957D01*
X-83877Y33472D01*
D02*
G37*
G36*
X-104814Y33800D02*
X-105208Y33786D01*
X-105590Y33743D01*
X-105961Y33673D01*
X-106320Y33574D01*
X-106667Y33446D01*
X-107003Y33291D01*
X-107327Y33107D01*
X-107639Y32895D01*
X-107939Y32655D01*
X-108228Y32386D01*
X-107228Y34800D01*
Y35800D01*
X-104814Y33800D01*
D02*
G37*
G36*
X-75573Y22675D02*
X-75498Y22618D01*
X-75417Y22567D01*
X-75330Y22522D01*
X-75238Y22485D01*
X-75140Y22454D01*
X-75036Y22431D01*
X-74926Y22414D01*
X-74810Y22403D01*
X-74689Y22400D01*
Y21400D01*
X-74810Y21397D01*
X-74926Y21386D01*
X-75036Y21369D01*
X-75140Y21346D01*
X-75238Y21315D01*
X-75330Y21278D01*
X-75417Y21233D01*
X-75498Y21182D01*
X-75573Y21125D01*
X-75643Y21060D01*
Y22740D01*
X-75573Y22675D01*
D02*
G37*
G36*
X-78273Y19975D02*
X-78198Y19918D01*
X-78117Y19867D01*
X-78030Y19822D01*
X-77938Y19785D01*
X-77840Y19754D01*
X-77736Y19731D01*
X-77626Y19714D01*
X-77510Y19703D01*
X-77389Y19700D01*
Y18700D01*
X-77510Y18697D01*
X-77626Y18686D01*
X-77736Y18669D01*
X-77840Y18646D01*
X-77938Y18615D01*
X-78030Y18578D01*
X-78117Y18533D01*
X-78198Y18482D01*
X-78273Y18425D01*
X-78343Y18360D01*
Y20040D01*
X-78273Y19975D01*
D02*
G37*
G36*
X85011Y17856D02*
X84966Y17781D01*
X84927Y17691D01*
X84894Y17586D01*
X84865Y17464D01*
X84842Y17327D01*
X84810Y17007D01*
X84803Y16823D01*
X84800Y16623D01*
X82800D01*
X82797Y16823D01*
X82758Y17327D01*
X82735Y17464D01*
X82706Y17586D01*
X82673Y17691D01*
X82634Y17781D01*
X82589Y17856D01*
X82540Y17914D01*
X85060D01*
X85011Y17856D01*
D02*
G37*
G36*
X-80512Y17296D02*
X-80442Y17234D01*
X-80365Y17179D01*
X-80282Y17132D01*
X-80193Y17091D01*
X-80097Y17059D01*
X-79994Y17033D01*
X-79886Y17015D01*
X-79770Y17004D01*
X-79649Y17000D01*
X-79741Y16000D01*
X-79862Y15997D01*
X-79978Y15988D01*
X-80088Y15972D01*
X-80193Y15951D01*
X-80294Y15923D01*
X-80388Y15889D01*
X-80478Y15849D01*
X-80563Y15803D01*
X-80642Y15750D01*
X-80716Y15691D01*
X-80576Y17366D01*
X-80512Y17296D01*
D02*
G37*
G36*
X109480Y31820D02*
Y27411D01*
X109500D01*
Y26143D01*
X107892D01*
Y18992D01*
X101100Y12200D01*
X90900Y12200D01*
Y16619D01*
X91202Y17143D01*
X91393Y17855D01*
Y18592D01*
X91202Y19304D01*
X90900Y19828D01*
Y24900D01*
X99900Y33900D01*
X107400D01*
X109480Y31820D01*
D02*
G37*
G36*
X108607Y11452D02*
X108465Y11577D01*
X108293Y11643D01*
X108088Y11649D01*
X107853Y11596D01*
X107586Y11483D01*
X107287Y11311D01*
X106957Y11079D01*
X106596Y10787D01*
X105778Y10026D01*
X103952Y11028D01*
X104470Y11561D01*
X105619Y12919D01*
X105866Y13293D01*
X106045Y13627D01*
X106157Y13920D01*
X106201Y14175D01*
X106177Y14389D01*
X106085Y14564D01*
X108607Y11452D01*
D02*
G37*
G36*
X125058Y11320D02*
X124984Y11260D01*
X124919Y11160D01*
X124863Y11020D01*
X124815Y10840D01*
X124776Y10620D01*
X124746Y10360D01*
X124711Y9720D01*
X124707Y9340D01*
X122707D01*
X122702Y9720D01*
X122627Y10620D01*
X122583Y10840D01*
X122528Y11020D01*
X122464Y11160D01*
X122390Y11260D01*
X122305Y11320D01*
X122211Y11340D01*
X125140D01*
X125058Y11320D01*
D02*
G37*
G36*
X-48495Y9550D02*
X-48480Y9378D01*
X-48455Y9226D01*
X-48420Y9095D01*
X-48375Y8983D01*
X-48320Y8892D01*
X-48255Y8821D01*
X-48180Y8771D01*
X-48095Y8740D01*
X-48000Y8730D01*
X-50000D01*
X-49905Y8740D01*
X-49820Y8771D01*
X-49745Y8821D01*
X-49680Y8892D01*
X-49625Y8983D01*
X-49580Y9095D01*
X-49545Y9226D01*
X-49520Y9378D01*
X-49505Y9550D01*
X-49500Y9742D01*
X-48500D01*
X-48495Y9550D01*
D02*
G37*
G36*
X-39495Y9450D02*
X-39480Y9278D01*
X-39455Y9126D01*
X-39420Y8995D01*
X-39375Y8883D01*
X-39320Y8792D01*
X-39255Y8721D01*
X-39180Y8671D01*
X-39095Y8640D01*
X-39000Y8630D01*
X-41000D01*
X-40905Y8640D01*
X-40820Y8671D01*
X-40745Y8721D01*
X-40680Y8792D01*
X-40625Y8883D01*
X-40580Y8995D01*
X-40545Y9126D01*
X-40520Y9278D01*
X-40505Y9450D01*
X-40500Y9642D01*
X-39500D01*
X-39495Y9450D01*
D02*
G37*
G36*
X-24495Y9115D02*
X-24480Y8943D01*
X-24455Y8791D01*
X-24420Y8659D01*
X-24375Y8548D01*
X-24320Y8457D01*
X-24255Y8386D01*
X-24180Y8335D01*
X-24095Y8305D01*
X-24000Y8295D01*
X-26000D01*
X-25905Y8305D01*
X-25820Y8335D01*
X-25745Y8386D01*
X-25680Y8457D01*
X-25625Y8548D01*
X-25580Y8659D01*
X-25545Y8791D01*
X-25520Y8943D01*
X-25505Y9115D01*
X-25500Y9307D01*
X-24500D01*
X-24495Y9115D01*
D02*
G37*
G36*
X-6995Y9044D02*
X-6980Y8872D01*
X-6955Y8720D01*
X-6920Y8588D01*
X-6875Y8477D01*
X-6820Y8386D01*
X-6755Y8315D01*
X-6680Y8264D01*
X-6595Y8234D01*
X-6500Y8224D01*
X-8500D01*
X-8405Y8234D01*
X-8320Y8264D01*
X-8245Y8315D01*
X-8180Y8386D01*
X-8125Y8477D01*
X-8080Y8588D01*
X-8045Y8720D01*
X-8020Y8872D01*
X-8005Y9044D01*
X-8000Y9236D01*
X-7000D01*
X-6995Y9044D01*
D02*
G37*
G36*
X-15995D02*
X-15980Y8872D01*
X-15955Y8720D01*
X-15920Y8588D01*
X-15875Y8477D01*
X-15820Y8386D01*
X-15755Y8315D01*
X-15680Y8264D01*
X-15595Y8234D01*
X-15500Y8224D01*
X-17500D01*
X-17405Y8234D01*
X-17320Y8264D01*
X-17245Y8315D01*
X-17180Y8386D01*
X-17125Y8477D01*
X-17080Y8588D01*
X-17045Y8720D01*
X-17020Y8872D01*
X-17005Y9044D01*
X-17000Y9236D01*
X-16000D01*
X-15995Y9044D01*
D02*
G37*
G36*
X40505Y8894D02*
X40520Y8722D01*
X40545Y8570D01*
X40580Y8439D01*
X40625Y8327D01*
X40680Y8236D01*
X40745Y8166D01*
X40820Y8115D01*
X40905Y8085D01*
X41000Y8074D01*
X39000D01*
X39095Y8085D01*
X39180Y8115D01*
X39255Y8166D01*
X39320Y8236D01*
X39375Y8327D01*
X39420Y8439D01*
X39455Y8570D01*
X39480Y8722D01*
X39495Y8894D01*
X39500Y9086D01*
X40500D01*
X40505Y8894D01*
D02*
G37*
G36*
X8005D02*
X8020Y8722D01*
X8045Y8570D01*
X8080Y8439D01*
X8125Y8327D01*
X8180Y8236D01*
X8245Y8166D01*
X8320Y8115D01*
X8405Y8085D01*
X8500Y8074D01*
X6500D01*
X6595Y8085D01*
X6680Y8115D01*
X6755Y8166D01*
X6820Y8236D01*
X6875Y8327D01*
X6920Y8439D01*
X6955Y8570D01*
X6980Y8722D01*
X6995Y8894D01*
X7000Y9086D01*
X8000D01*
X8005Y8894D01*
D02*
G37*
G36*
X58005Y8823D02*
X58020Y8651D01*
X58045Y8499D01*
X58080Y8368D01*
X58125Y8257D01*
X58180Y8166D01*
X58245Y8095D01*
X58320Y8044D01*
X58405Y8014D01*
X58500Y8004D01*
X56500D01*
X56595Y8014D01*
X56680Y8044D01*
X56755Y8095D01*
X56820Y8166D01*
X56875Y8257D01*
X56920Y8368D01*
X56955Y8499D01*
X56980Y8651D01*
X56995Y8823D01*
X57000Y9016D01*
X58000D01*
X58005Y8823D01*
D02*
G37*
G36*
X49005D02*
X49020Y8651D01*
X49045Y8499D01*
X49080Y8368D01*
X49125Y8257D01*
X49180Y8166D01*
X49245Y8095D01*
X49320Y8044D01*
X49405Y8014D01*
X49500Y8004D01*
X47500D01*
X47595Y8014D01*
X47680Y8044D01*
X47755Y8095D01*
X47820Y8166D01*
X47875Y8257D01*
X47920Y8368D01*
X47955Y8499D01*
X47980Y8651D01*
X47995Y8823D01*
X48000Y9016D01*
X49000D01*
X49005Y8823D01*
D02*
G37*
G36*
X25505D02*
X25520Y8651D01*
X25545Y8499D01*
X25580Y8368D01*
X25625Y8257D01*
X25680Y8166D01*
X25745Y8095D01*
X25820Y8044D01*
X25905Y8014D01*
X26000Y8004D01*
X24000D01*
X24095Y8014D01*
X24180Y8044D01*
X24255Y8095D01*
X24320Y8166D01*
X24375Y8257D01*
X24420Y8368D01*
X24455Y8499D01*
X24480Y8651D01*
X24495Y8823D01*
X24500Y9016D01*
X25500D01*
X25505Y8823D01*
D02*
G37*
G36*
X16505D02*
X16520Y8651D01*
X16545Y8499D01*
X16580Y8368D01*
X16625Y8257D01*
X16680Y8166D01*
X16745Y8095D01*
X16820Y8044D01*
X16905Y8014D01*
X17000Y8004D01*
X15000D01*
X15095Y8014D01*
X15180Y8044D01*
X15255Y8095D01*
X15320Y8166D01*
X15375Y8257D01*
X15420Y8368D01*
X15455Y8499D01*
X15480Y8651D01*
X15495Y8823D01*
X15500Y9016D01*
X16500D01*
X16505Y8823D01*
D02*
G37*
G36*
X-62701Y8969D02*
X-62611Y8897D01*
X-62522Y8835D01*
X-62432Y8785D01*
X-62343Y8746D01*
X-62253Y8718D01*
X-62163Y8702D01*
X-62074Y8696D01*
X-61984Y8702D01*
X-61895Y8719D01*
X-62769Y7285D01*
X-62792Y7372D01*
X-62823Y7458D01*
X-62859Y7545D01*
X-62903Y7632D01*
X-62954Y7719D01*
X-63011Y7806D01*
X-63145Y7980D01*
X-63222Y8067D01*
X-63306Y8155D01*
X-62790Y9053D01*
X-62701Y8969D01*
D02*
G37*
G36*
X124712Y8880D02*
X124786Y7980D01*
X124831Y7760D01*
X124885Y7580D01*
X124950Y7440D01*
X125024Y7340D01*
X125108Y7280D01*
X125202Y7260D01*
X122273D01*
X122356Y7280D01*
X122429Y7340D01*
X122494Y7440D01*
X122551Y7580D01*
X122598Y7760D01*
X122637Y7980D01*
X122668Y8240D01*
X122702Y8880D01*
X122707Y9260D01*
X124707D01*
X124712Y8880D01*
D02*
G37*
G36*
X-94226Y8012D02*
X-94297Y7950D01*
X-94361Y7882D01*
X-94417Y7808D01*
X-94465Y7726D01*
X-94506Y7638D01*
X-94540Y7543D01*
X-94566Y7441D01*
X-94585Y7333D01*
X-94596Y7218D01*
X-94600Y7096D01*
X-95600Y7225D01*
X-95603Y7346D01*
X-95626Y7573D01*
X-95647Y7678D01*
X-95674Y7779D01*
X-95706Y7875D01*
X-95744Y7965D01*
X-95788Y8051D01*
X-95838Y8132D01*
X-95894Y8207D01*
X-94226Y8012D01*
D02*
G37*
G36*
X-129721Y8793D02*
X-129686Y8709D01*
X-129628Y8635D01*
X-129546Y8571D01*
X-129441Y8517D01*
X-129313Y8472D01*
X-129161Y8438D01*
X-128986Y8413D01*
X-128788Y8399D01*
X-128566Y8394D01*
Y7394D01*
X-128788Y7389D01*
X-129161Y7349D01*
X-129313Y7315D01*
X-129441Y7271D01*
X-129546Y7216D01*
X-129628Y7152D01*
X-129686Y7078D01*
X-129721Y6995D01*
X-129733Y6901D01*
Y8886D01*
X-129721Y8793D01*
D02*
G37*
G36*
X-125777Y6894D02*
X-125787Y6989D01*
X-125817Y7074D01*
X-125867Y7149D01*
X-125937Y7214D01*
X-126027Y7269D01*
X-126137Y7314D01*
X-126267Y7349D01*
X-126417Y7374D01*
X-126587Y7389D01*
X-126777Y7394D01*
Y8394D01*
X-126587Y8399D01*
X-126417Y8414D01*
X-126267Y8439D01*
X-126137Y8474D01*
X-126027Y8519D01*
X-125937Y8574D01*
X-125867Y8639D01*
X-125817Y8714D01*
X-125787Y8799D01*
X-125777Y8894D01*
Y6894D01*
D02*
G37*
G36*
X-27980Y7238D02*
X-27985Y7148D01*
X-27979Y7058D01*
X-27962Y6968D01*
X-27933Y6878D01*
X-27894Y6788D01*
X-27843Y6699D01*
X-27782Y6609D01*
X-27709Y6520D01*
X-27625Y6430D01*
X-28513Y5904D01*
X-28600Y5988D01*
X-28775Y6135D01*
X-28862Y6198D01*
X-28949Y6255D01*
X-29037Y6304D01*
X-29124Y6347D01*
X-29212Y6384D01*
X-29300Y6413D01*
X-29387Y6436D01*
X-27964Y7328D01*
X-27980Y7238D01*
D02*
G37*
G36*
X-43797Y7420D02*
X-43784Y7326D01*
X-43763Y7232D01*
X-43733Y7140D01*
X-43694Y7048D01*
X-43646Y6957D01*
X-43589Y6866D01*
X-43524Y6777D01*
X-43449Y6688D01*
X-43366Y6600D01*
X-44073Y5893D01*
X-44161Y5976D01*
X-44250Y6050D01*
X-44340Y6116D01*
X-44430Y6173D01*
X-44442Y6179D01*
X-44446Y6166D01*
X-44469Y6062D01*
X-44486Y5953D01*
X-44497Y5837D01*
X-44500Y5716D01*
X-45500D01*
X-45503Y5837D01*
X-45514Y5953D01*
X-45531Y6062D01*
X-45554Y6166D01*
X-45585Y6265D01*
X-45622Y6357D01*
X-45667Y6444D01*
X-45718Y6525D01*
X-45775Y6600D01*
X-45840Y6670D01*
X-44645D01*
X-43800Y7515D01*
X-43797Y7420D01*
D02*
G37*
G36*
X-60427Y7262D02*
X-60428Y7170D01*
X-60417Y7078D01*
X-60396Y6987D01*
X-60365Y6896D01*
X-60323Y6805D01*
X-60271Y6715D01*
X-60208Y6625D01*
X-60135Y6536D01*
X-60052Y6447D01*
X-60884Y5865D01*
X-60971Y5948D01*
X-61147Y6093D01*
X-61236Y6155D01*
X-61325Y6209D01*
X-61415Y6256D01*
X-61505Y6295D01*
X-61595Y6327D01*
X-61686Y6352D01*
X-61778Y6369D01*
X-60417Y7355D01*
X-60427Y7262D01*
D02*
G37*
G36*
X-52488Y6633D02*
X-52543Y6555D01*
X-52592Y6472D01*
X-52634Y6384D01*
X-52670Y6290D01*
X-52699Y6191D01*
X-52722Y6086D01*
X-52738Y5976D01*
X-52748Y5861D01*
X-52751Y5740D01*
X-53751Y5695D01*
X-53755Y5816D01*
X-53766Y5932D01*
X-53783Y6041D01*
X-53808Y6144D01*
X-53840Y6242D01*
X-53879Y6333D01*
X-53925Y6418D01*
X-53978Y6497D01*
X-54037Y6570D01*
X-54105Y6637D01*
X-52426Y6705D01*
X-52488Y6633D01*
D02*
G37*
G36*
X-11297Y7014D02*
X-11284Y6920D01*
X-11263Y6826D01*
X-11233Y6734D01*
X-11194Y6642D01*
X-11146Y6551D01*
X-11089Y6460D01*
X-11024Y6371D01*
X-10949Y6282D01*
X-10866Y6194D01*
X-11573Y5486D01*
X-11661Y5570D01*
X-11750Y5644D01*
X-11840Y5710D01*
X-11930Y5767D01*
X-12021Y5814D01*
X-12113Y5853D01*
X-12206Y5883D01*
X-12299Y5905D01*
X-12393Y5917D01*
X-12488Y5920D01*
X-11300Y7108D01*
X-11297Y7014D01*
D02*
G37*
G36*
X53703Y6793D02*
X53716Y6699D01*
X53737Y6606D01*
X53767Y6513D01*
X53806Y6421D01*
X53854Y6330D01*
X53911Y6240D01*
X53976Y6150D01*
X54051Y6061D01*
X54134Y5973D01*
X53427Y5266D01*
X53339Y5349D01*
X53250Y5424D01*
X53160Y5489D01*
X53070Y5546D01*
X52979Y5594D01*
X52887Y5633D01*
X52794Y5663D01*
X52701Y5684D01*
X52607Y5697D01*
X52512Y5700D01*
X53700Y6888D01*
X53703Y6793D01*
D02*
G37*
G36*
X21203D02*
X21216Y6699D01*
X21237Y6606D01*
X21267Y6513D01*
X21306Y6421D01*
X21354Y6330D01*
X21411Y6240D01*
X21476Y6150D01*
X21551Y6061D01*
X21634Y5973D01*
X20927Y5266D01*
X20839Y5349D01*
X20750Y5424D01*
X20660Y5489D01*
X20570Y5546D01*
X20479Y5594D01*
X20387Y5633D01*
X20294Y5663D01*
X20201Y5684D01*
X20107Y5697D01*
X20012Y5700D01*
X21200Y6888D01*
X21203Y6793D01*
D02*
G37*
G36*
X35811Y5777D02*
X37083Y6699D01*
X37073Y6606D01*
X37072Y6514D01*
X37083Y6422D01*
X37104Y6331D01*
X37135Y6240D01*
X37177Y6149D01*
X37229Y6059D01*
X37292Y5969D01*
X37365Y5880D01*
X37448Y5791D01*
X36616Y5209D01*
X36529Y5292D01*
X36353Y5437D01*
X36264Y5499D01*
X36175Y5553D01*
X36085Y5600D01*
X35995Y5639D01*
X35905Y5671D01*
X35814Y5696D01*
X35807Y5697D01*
X35793Y5697D01*
X35699Y5684D01*
X35606Y5663D01*
X35513Y5633D01*
X35421Y5594D01*
X35330Y5546D01*
X35240Y5489D01*
X35150Y5424D01*
X35061Y5349D01*
X34973Y5266D01*
X34266Y5973D01*
X34349Y6061D01*
X34424Y6150D01*
X34489Y6240D01*
X34546Y6330D01*
X34594Y6421D01*
X34633Y6513D01*
X34663Y6606D01*
X34684Y6699D01*
X34697Y6793D01*
X34700Y6888D01*
X35811Y5777D01*
D02*
G37*
G36*
X4572Y6606D02*
X4572Y6514D01*
X4583Y6422D01*
X4604Y6331D01*
X4635Y6240D01*
X4677Y6149D01*
X4729Y6059D01*
X4792Y5969D01*
X4865Y5880D01*
X4948Y5791D01*
X4116Y5209D01*
X4029Y5292D01*
X3853Y5437D01*
X3764Y5499D01*
X3675Y5553D01*
X3585Y5600D01*
X3495Y5639D01*
X3405Y5671D01*
X3314Y5696D01*
X3223Y5713D01*
X4583Y6699D01*
X4572Y6606D01*
D02*
G37*
G36*
X70298Y6746D02*
X70387Y6671D01*
X70477Y6606D01*
X70567Y6549D01*
X70658Y6502D01*
X70750Y6464D01*
X70843Y6434D01*
X70936Y6414D01*
X71030Y6402D01*
X71125Y6400D01*
X69950Y5199D01*
X69946Y5294D01*
X69932Y5388D01*
X69910Y5481D01*
X69880Y5574D01*
X69840Y5666D01*
X69792Y5757D01*
X69735Y5847D01*
X69669Y5937D01*
X69594Y6025D01*
X69511Y6114D01*
X70210Y6829D01*
X70298Y6746D01*
D02*
G37*
G36*
X-19988Y6126D02*
X-20043Y6049D01*
X-20092Y5966D01*
X-20134Y5878D01*
X-20170Y5784D01*
X-20199Y5685D01*
X-20222Y5580D01*
X-20238Y5470D01*
X-20248Y5354D01*
X-20252Y5233D01*
X-21251Y5189D01*
X-21255Y5310D01*
X-21266Y5425D01*
X-21283Y5535D01*
X-21308Y5638D01*
X-21340Y5735D01*
X-21379Y5826D01*
X-21425Y5911D01*
X-21477Y5990D01*
X-21538Y6063D01*
X-21605Y6130D01*
X-19926Y6198D01*
X-19988Y6126D01*
D02*
G37*
G36*
X45012Y5906D02*
X44957Y5828D01*
X44908Y5746D01*
X44866Y5657D01*
X44830Y5564D01*
X44801Y5464D01*
X44778Y5360D01*
X44762Y5249D01*
X44752Y5134D01*
X44748Y5013D01*
X43749Y4968D01*
X43745Y5090D01*
X43734Y5205D01*
X43717Y5314D01*
X43692Y5418D01*
X43660Y5515D01*
X43621Y5606D01*
X43576Y5691D01*
X43523Y5770D01*
X43462Y5843D01*
X43395Y5910D01*
X45074Y5978D01*
X45012Y5906D01*
D02*
G37*
G36*
X12512D02*
X12457Y5828D01*
X12408Y5746D01*
X12366Y5657D01*
X12330Y5564D01*
X12301Y5464D01*
X12278Y5360D01*
X12262Y5249D01*
X12252Y5134D01*
X12248Y5013D01*
X11248Y4968D01*
X11245Y5090D01*
X11234Y5205D01*
X11217Y5314D01*
X11192Y5418D01*
X11160Y5515D01*
X11121Y5606D01*
X11075Y5691D01*
X11022Y5770D01*
X10962Y5843D01*
X10895Y5910D01*
X12574Y5978D01*
X12512Y5906D01*
D02*
G37*
G36*
X108251Y3735D02*
X108123Y3873D01*
X107960Y3949D01*
X107763Y3962D01*
X107532Y3913D01*
X107266Y3802D01*
X106966Y3628D01*
X106632Y3391D01*
X106263Y3093D01*
X105423Y2308D01*
X103937Y3652D01*
X104341Y4068D01*
X105019Y4851D01*
X105295Y5218D01*
X105528Y5569D01*
X105719Y5903D01*
X105868Y6221D01*
X105974Y6523D01*
X106038Y6808D01*
X106059Y7077D01*
X108251Y3735D01*
D02*
G37*
G36*
X115400Y31800D02*
Y5200D01*
X113900Y3700D01*
X110800D01*
Y14900D01*
X110014Y15686D01*
Y15972D01*
X109728D01*
X108900Y16800D01*
Y18933D01*
X108912Y18992D01*
Y25012D01*
X109024Y25124D01*
X109500D01*
X109890Y25201D01*
X110221Y25422D01*
X110442Y25753D01*
X110520Y26143D01*
Y27411D01*
X110500Y27509D01*
Y31700D01*
Y31800D01*
X112100Y33400D01*
X113800D01*
X115400Y31800D01*
D02*
G37*
G36*
X-17559Y2720D02*
X-17569Y2816D01*
X-17599Y2901D01*
X-17650Y2976D01*
X-17721Y3040D01*
X-17812Y3095D01*
X-17923Y3140D01*
X-18055Y3176D01*
X-18206Y3201D01*
X-18378Y3215D01*
X-18571Y3221D01*
Y4220D01*
X-18378Y4225D01*
X-18206Y4241D01*
X-18055Y4265D01*
X-17923Y4301D01*
X-17812Y4346D01*
X-17721Y4400D01*
X-17650Y4465D01*
X-17599Y4541D01*
X-17569Y4625D01*
X-17559Y4721D01*
Y2720D01*
D02*
G37*
G36*
X47441Y2500D02*
X47431Y2595D01*
X47401Y2680D01*
X47350Y2755D01*
X47279Y2820D01*
X47188Y2875D01*
X47077Y2920D01*
X46945Y2955D01*
X46794Y2980D01*
X46622Y2995D01*
X46429Y3000D01*
Y4000D01*
X46622Y4005D01*
X46794Y4020D01*
X46945Y4045D01*
X47077Y4080D01*
X47188Y4125D01*
X47279Y4180D01*
X47350Y4245D01*
X47401Y4320D01*
X47431Y4405D01*
X47441Y4500D01*
Y2500D01*
D02*
G37*
G36*
X14941D02*
X14931Y2595D01*
X14901Y2680D01*
X14850Y2755D01*
X14779Y2820D01*
X14688Y2875D01*
X14577Y2920D01*
X14445Y2955D01*
X14294Y2980D01*
X14122Y2995D01*
X13929Y3000D01*
Y4000D01*
X14122Y4005D01*
X14294Y4020D01*
X14445Y4045D01*
X14577Y4080D01*
X14688Y4125D01*
X14779Y4180D01*
X14850Y4245D01*
X14901Y4320D01*
X14931Y4405D01*
X14941Y4500D01*
Y2500D01*
D02*
G37*
G36*
X58570Y3724D02*
X58600Y3639D01*
X58651Y3564D01*
X58723Y3499D01*
X58814Y3444D01*
X58925Y3399D01*
X59056Y3364D01*
X59208Y3339D01*
X59379Y3324D01*
X59571Y3319D01*
Y2319D01*
X58571Y2331D01*
X58559Y3819D01*
X58570Y3724D01*
D02*
G37*
G36*
X-125777Y1972D02*
X-125787Y2067D01*
X-125817Y2152D01*
X-125867Y2227D01*
X-125937Y2292D01*
X-126027Y2347D01*
X-126137Y2392D01*
X-126267Y2427D01*
X-126417Y2452D01*
X-126587Y2467D01*
X-126777Y2472D01*
Y3472D01*
X-126587Y3477D01*
X-126417Y3492D01*
X-126267Y3517D01*
X-126137Y3552D01*
X-126027Y3597D01*
X-125937Y3652D01*
X-125867Y3717D01*
X-125817Y3792D01*
X-125787Y3877D01*
X-125777Y3972D01*
Y1972D01*
D02*
G37*
G36*
X-129564Y3877D02*
X-129534Y3792D01*
X-129483Y3717D01*
X-129412Y3652D01*
X-129321Y3597D01*
X-129210Y3552D01*
X-129078Y3517D01*
X-128927Y3492D01*
X-128755Y3477D01*
X-128562Y3472D01*
Y2472D01*
X-128755Y2467D01*
X-128927Y2452D01*
X-129078Y2427D01*
X-129210Y2392D01*
X-129321Y2347D01*
X-129412Y2292D01*
X-129483Y2227D01*
X-129534Y2152D01*
X-129564Y2067D01*
X-129574Y1972D01*
Y3972D01*
X-129564Y3877D01*
D02*
G37*
G36*
X49514Y3667D02*
X49486Y3575D01*
Y3469D01*
X49514Y3349D01*
X49571Y3215D01*
X49656Y3066D01*
X49769Y2904D01*
X49910Y2727D01*
X50278Y2331D01*
X49571Y1624D01*
X49366Y1822D01*
X48998Y2133D01*
X48835Y2246D01*
X48687Y2331D01*
X48552Y2387D01*
X48432Y2416D01*
X48326D01*
X48234Y2387D01*
X48156Y2331D01*
X49571Y3745D01*
X49514Y3667D01*
D02*
G37*
G36*
X70298Y2946D02*
X70387Y2871D01*
X70477Y2806D01*
X70567Y2750D01*
X70658Y2702D01*
X70750Y2664D01*
X70843Y2634D01*
X70936Y2614D01*
X71030Y2602D01*
X71125Y2600D01*
X69950Y1399D01*
X69946Y1494D01*
X69932Y1588D01*
X69910Y1681D01*
X69880Y1774D01*
X69840Y1866D01*
X69792Y1957D01*
X69735Y2047D01*
X69669Y2137D01*
X69594Y2225D01*
X69511Y2314D01*
X70210Y3029D01*
X70298Y2946D01*
D02*
G37*
G36*
X125154Y3720D02*
X125111Y3660D01*
X125074Y3560D01*
X125041Y3420D01*
X125013Y3240D01*
X124973Y2760D01*
X124966Y2458D01*
X124978Y2287D01*
X125000Y2136D01*
X125028Y2001D01*
X125063Y1881D01*
X125103Y1778D01*
X125150Y1690D01*
X125203Y1618D01*
X125262Y1562D01*
X122760Y1265D01*
X122796Y1320D01*
X122828Y1392D01*
X122857Y1480D01*
X122882Y1584D01*
X122903Y1704D01*
X122933Y1993D01*
X122940Y2158D01*
X122889Y2760D01*
X122842Y3020D01*
X122781Y3240D01*
X122707Y3420D01*
X122619Y3560D01*
X122517Y3660D01*
X122402Y3720D01*
X122273Y3740D01*
X125202D01*
X125154Y3720D01*
D02*
G37*
G36*
X103875Y1354D02*
X103842Y1343D01*
X103796Y1316D01*
X103736Y1273D01*
X103661Y1213D01*
X103354Y937D01*
X103069Y658D01*
X103069Y608D01*
X103100Y181D01*
X103115Y102D01*
X103132Y34D01*
X103151Y-23D01*
X103173Y-69D01*
X103198Y-104D01*
X101838Y207D01*
X101881Y231D01*
X101921Y264D01*
X101955Y307D01*
X101985Y359D01*
X102010Y421D01*
X102031Y491D01*
X102047Y571D01*
X102059Y661D01*
X102066Y760D01*
X102068Y868D01*
X102640Y796D01*
X102214Y1221D01*
X102372Y1380D01*
X103043Y2142D01*
X103054Y2175D01*
X103875Y1354D01*
D02*
G37*
G36*
X70147Y-1099D02*
X70236Y-1173D01*
X70326Y-1236D01*
X70417Y-1290D01*
X70508Y-1334D01*
X70599Y-1369D01*
X70692Y-1393D01*
X70784Y-1407D01*
X70878Y-1412D01*
X70972Y-1407D01*
X69905Y-2704D01*
X69892Y-2611D01*
X69872Y-2518D01*
X69844Y-2426D01*
X69809Y-2334D01*
X69765Y-2243D01*
X69713Y-2153D01*
X69653Y-2063D01*
X69586Y-1974D01*
X69510Y-1886D01*
X69427Y-1798D01*
X70058Y-1015D01*
X70147Y-1099D01*
D02*
G37*
G36*
X138800Y57200D02*
Y-200D01*
X136000Y-3000D01*
X130500D01*
X126952Y549D01*
X126772Y1218D01*
X126500Y1689D01*
Y14400D01*
X127248Y15148D01*
X127781Y15291D01*
X128419Y15659D01*
X128941Y16181D01*
X129309Y16819D01*
X129452Y17352D01*
X130500Y18400D01*
Y57279D01*
X132892Y59500D01*
X136500D01*
X138800Y57200D01*
D02*
G37*
G36*
X95780Y-1323D02*
X95801Y-1359D01*
X95837Y-1408D01*
X95889Y-1471D01*
X96137Y-1743D01*
X96524Y-2138D01*
X95091Y-3534D01*
X94261Y-2781D01*
X95775Y-1301D01*
X95780Y-1323D01*
D02*
G37*
G36*
X107003Y-2357D02*
X106903Y-2406D01*
X106789Y-2473D01*
X106663Y-2559D01*
X106372Y-2786D01*
X106029Y-3085D01*
X105417Y-3673D01*
X104248Y-2721D01*
X104375Y-2585D01*
X104483Y-2451D01*
X104572Y-2319D01*
X104642Y-2189D01*
X104692Y-2060D01*
X104724Y-1933D01*
X104737Y-1808D01*
X104731Y-1685D01*
X104705Y-1564D01*
X104661Y-1444D01*
X107003Y-2357D01*
D02*
G37*
G36*
X-38538Y-2085D02*
X-38158Y-2409D01*
X-37992Y-2526D01*
X-37843Y-2613D01*
X-37709Y-2670D01*
X-37592Y-2696D01*
X-37491Y-2693D01*
X-37406Y-2660D01*
X-37338Y-2596D01*
X-38559Y-4180D01*
X-38515Y-4091D01*
X-38505Y-3983D01*
X-38528Y-3856D01*
X-38585Y-3709D01*
X-38675Y-3542D01*
X-38800Y-3355D01*
X-38957Y-3149D01*
X-39373Y-2677D01*
X-39631Y-2412D01*
X-38752Y-1877D01*
X-38538Y-2085D01*
D02*
G37*
G36*
X-46538D02*
X-46158Y-2409D01*
X-45992Y-2526D01*
X-45842Y-2613D01*
X-45709Y-2670D01*
X-45592Y-2696D01*
X-45491Y-2693D01*
X-45406Y-2660D01*
X-45338Y-2596D01*
X-46559Y-4180D01*
X-46515Y-4092D01*
X-46505Y-3983D01*
X-46528Y-3856D01*
X-46585Y-3709D01*
X-46676Y-3542D01*
X-46799Y-3355D01*
X-46957Y-3149D01*
X-47373Y-2677D01*
X-47631Y-2412D01*
X-46752Y-1877D01*
X-46538Y-2085D01*
D02*
G37*
G36*
X28567Y-3056D02*
X28590Y-3108D01*
X28630Y-3082D01*
X28703Y-3022D01*
X28690Y-3207D01*
X28696Y-3212D01*
X28773Y-3250D01*
X28868Y-3281D01*
X28979Y-3305D01*
X29108Y-3322D01*
X29254Y-3333D01*
X29417Y-3336D01*
Y-4336D01*
X29254Y-4340D01*
X28979Y-4368D01*
X28868Y-4392D01*
X28773Y-4423D01*
X28696Y-4461D01*
X28636Y-4506D01*
X28597Y-4553D01*
X28587Y-4698D01*
X28560Y-4670D01*
X28559Y-4683D01*
Y-4668D01*
X28522Y-4629D01*
X28451Y-4568D01*
X28374Y-4514D01*
X28290Y-4467D01*
X28200Y-4427D01*
X28103Y-4394D01*
X28001Y-4369D01*
X27892Y-4351D01*
X27776Y-4340D01*
X27655Y-4336D01*
X27731Y-3336D01*
X27852Y-3333D01*
X27968Y-3324D01*
X28078Y-3308D01*
X28183Y-3286D01*
X28283Y-3258D01*
X28378Y-3223D01*
X28467Y-3182D01*
X28551Y-3135D01*
X28559Y-3130D01*
Y-2990D01*
X28567Y-3056D01*
D02*
G37*
G36*
X-63059Y-4829D02*
X-63069Y-4735D01*
X-63099Y-4652D01*
X-63149Y-4578D01*
X-63219Y-4514D01*
X-63310Y-4459D01*
X-63420Y-4415D01*
X-63551Y-4381D01*
X-63702Y-4356D01*
X-63873Y-4341D01*
X-64064Y-4336D01*
Y-3336D01*
X-63873Y-3331D01*
X-63702Y-3317D01*
X-63551Y-3292D01*
X-63420Y-3257D01*
X-63310Y-3213D01*
X-63219Y-3159D01*
X-63149Y-3095D01*
X-63099Y-3021D01*
X-63069Y-2937D01*
X-63059Y-2843D01*
Y-4829D01*
D02*
G37*
G36*
X96905Y-4320D02*
X96974Y-5220D01*
X97016Y-5440D01*
X97067Y-5620D01*
X97127Y-5760D01*
X97197Y-5860D01*
X97276Y-5920D01*
X97364Y-5940D01*
X94436D01*
X94524Y-5920D01*
X94603Y-5860D01*
X94673Y-5760D01*
X94733Y-5620D01*
X94784Y-5440D01*
X94826Y-5220D01*
X94858Y-4960D01*
X94895Y-4320D01*
X94900Y-3940D01*
X96900D01*
X96905Y-4320D01*
D02*
G37*
G36*
X103149Y-5940D02*
X102852Y-6248D01*
X102386Y-6799D01*
X102216Y-7043D01*
X102089Y-7266D01*
X102004Y-7468D01*
X101962Y-7648D01*
Y-7807D01*
X102004Y-7945D01*
X102089Y-8062D01*
X99967Y-5940D01*
X100084Y-6025D01*
X100222Y-6068D01*
X100381D01*
X100561Y-6025D01*
X100763Y-5940D01*
X100986Y-5813D01*
X101230Y-5643D01*
X101495Y-5431D01*
X102089Y-4880D01*
X103149Y-5940D01*
D02*
G37*
G36*
X63286Y-5290D02*
X63462Y-5435D01*
X63550Y-5497D01*
X63639Y-5551D01*
X63729Y-5599D01*
X63818Y-5639D01*
X63908Y-5671D01*
X63999Y-5697D01*
X64090Y-5715D01*
X62719Y-6687D01*
X62731Y-6594D01*
X62731Y-6503D01*
X62722Y-6411D01*
X62701Y-6320D01*
X62671Y-6229D01*
X62629Y-6138D01*
X62577Y-6048D01*
X62515Y-5959D01*
X62442Y-5869D01*
X62358Y-5780D01*
X63199Y-5206D01*
X63286Y-5290D01*
D02*
G37*
G36*
X55570Y-5575D02*
X55743Y-5725D01*
X55829Y-5790D01*
X55999Y-5901D01*
X56083Y-5947D01*
X56166Y-5987D01*
X56249Y-6020D01*
X56331Y-6047D01*
X54854Y-6846D01*
X54875Y-6758D01*
X54884Y-6671D01*
X54882Y-6583D01*
X54868Y-6495D01*
X54842Y-6407D01*
X54805Y-6318D01*
X54756Y-6229D01*
X54695Y-6140D01*
X54623Y-6050D01*
X54539Y-5961D01*
X55483Y-5491D01*
X55570Y-5575D01*
D02*
G37*
G36*
X47570D02*
X47743Y-5725D01*
X47829Y-5790D01*
X47999Y-5901D01*
X48083Y-5947D01*
X48166Y-5987D01*
X48249Y-6020D01*
X48331Y-6047D01*
X46854Y-6846D01*
X46875Y-6758D01*
X46884Y-6671D01*
X46882Y-6583D01*
X46868Y-6495D01*
X46842Y-6407D01*
X46805Y-6318D01*
X46756Y-6229D01*
X46695Y-6140D01*
X46623Y-6050D01*
X46539Y-5961D01*
X47483Y-5491D01*
X47570Y-5575D01*
D02*
G37*
G36*
X23070D02*
X23243Y-5725D01*
X23329Y-5790D01*
X23499Y-5901D01*
X23583Y-5947D01*
X23666Y-5987D01*
X23749Y-6020D01*
X23832Y-6047D01*
X22354Y-6846D01*
X22375Y-6758D01*
X22384Y-6671D01*
X22382Y-6583D01*
X22368Y-6495D01*
X22342Y-6407D01*
X22305Y-6318D01*
X22256Y-6229D01*
X22195Y-6140D01*
X22123Y-6050D01*
X22039Y-5961D01*
X22983Y-5491D01*
X23070Y-5575D01*
D02*
G37*
G36*
X15070D02*
X15243Y-5725D01*
X15329Y-5790D01*
X15499Y-5901D01*
X15583Y-5947D01*
X15666Y-5987D01*
X15749Y-6020D01*
X15832Y-6047D01*
X14354Y-6846D01*
X14375Y-6758D01*
X14384Y-6671D01*
X14382Y-6583D01*
X14368Y-6495D01*
X14342Y-6407D01*
X14305Y-6318D01*
X14256Y-6229D01*
X14195Y-6140D01*
X14123Y-6050D01*
X14039Y-5961D01*
X14983Y-5491D01*
X15070Y-5575D01*
D02*
G37*
G36*
X-1430D02*
X-1257Y-5725D01*
X-1171Y-5790D01*
X-1001Y-5901D01*
X-917Y-5947D01*
X-834Y-5987D01*
X-751Y-6020D01*
X-668Y-6047D01*
X-2146Y-6846D01*
X-2125Y-6758D01*
X-2116Y-6671D01*
X-2118Y-6583D01*
X-2132Y-6495D01*
X-2158Y-6407D01*
X-2195Y-6318D01*
X-2244Y-6229D01*
X-2305Y-6140D01*
X-2377Y-6050D01*
X-2461Y-5961D01*
X-1517Y-5491D01*
X-1430Y-5575D01*
D02*
G37*
G36*
X-9430D02*
X-9257Y-5725D01*
X-9171Y-5790D01*
X-9001Y-5901D01*
X-8917Y-5947D01*
X-8834Y-5987D01*
X-8751Y-6020D01*
X-8669Y-6047D01*
X-10146Y-6846D01*
X-10125Y-6758D01*
X-10116Y-6671D01*
X-10118Y-6583D01*
X-10132Y-6495D01*
X-10158Y-6407D01*
X-10195Y-6318D01*
X-10244Y-6229D01*
X-10305Y-6140D01*
X-10377Y-6050D01*
X-10461Y-5961D01*
X-9517Y-5491D01*
X-9430Y-5575D01*
D02*
G37*
G36*
X-17430D02*
X-17257Y-5725D01*
X-17171Y-5790D01*
X-17001Y-5901D01*
X-16917Y-5947D01*
X-16834Y-5987D01*
X-16751Y-6020D01*
X-16669Y-6047D01*
X-18146Y-6846D01*
X-18125Y-6758D01*
X-18116Y-6671D01*
X-18118Y-6583D01*
X-18132Y-6495D01*
X-18158Y-6407D01*
X-18195Y-6318D01*
X-18244Y-6229D01*
X-18305Y-6140D01*
X-18377Y-6050D01*
X-18461Y-5961D01*
X-17517Y-5491D01*
X-17430Y-5575D01*
D02*
G37*
G36*
X-33930D02*
X-33757Y-5725D01*
X-33671Y-5790D01*
X-33501Y-5901D01*
X-33417Y-5947D01*
X-33334Y-5987D01*
X-33251Y-6020D01*
X-33169Y-6047D01*
X-34646Y-6846D01*
X-34625Y-6758D01*
X-34616Y-6671D01*
X-34618Y-6583D01*
X-34632Y-6495D01*
X-34658Y-6407D01*
X-34695Y-6318D01*
X-34744Y-6229D01*
X-34805Y-6140D01*
X-34877Y-6050D01*
X-34961Y-5961D01*
X-34017Y-5491D01*
X-33930Y-5575D01*
D02*
G37*
G36*
X-41930D02*
X-41757Y-5725D01*
X-41671Y-5790D01*
X-41501Y-5901D01*
X-41417Y-5947D01*
X-41334Y-5987D01*
X-41251Y-6020D01*
X-41168Y-6047D01*
X-42646Y-6846D01*
X-42625Y-6758D01*
X-42616Y-6671D01*
X-42618Y-6583D01*
X-42632Y-6495D01*
X-42658Y-6407D01*
X-42695Y-6318D01*
X-42744Y-6229D01*
X-42805Y-6140D01*
X-42877Y-6050D01*
X-42961Y-5961D01*
X-42017Y-5491D01*
X-41930Y-5575D01*
D02*
G37*
G36*
X-49930D02*
X-49757Y-5725D01*
X-49671Y-5790D01*
X-49501Y-5901D01*
X-49417Y-5947D01*
X-49334Y-5987D01*
X-49251Y-6020D01*
X-49169Y-6047D01*
X-50646Y-6846D01*
X-50625Y-6758D01*
X-50616Y-6671D01*
X-50618Y-6583D01*
X-50632Y-6495D01*
X-50658Y-6407D01*
X-50695Y-6318D01*
X-50744Y-6229D01*
X-50805Y-6140D01*
X-50877Y-6050D01*
X-50961Y-5961D01*
X-50017Y-5491D01*
X-49930Y-5575D01*
D02*
G37*
G36*
X39161Y-5549D02*
X39250Y-5624D01*
X39340Y-5689D01*
X39430Y-5746D01*
X39521Y-5794D01*
X39613Y-5833D01*
X39706Y-5863D01*
X39799Y-5884D01*
X39893Y-5897D01*
X39988Y-5900D01*
X38800Y-7088D01*
X38797Y-6993D01*
X38784Y-6899D01*
X38763Y-6806D01*
X38733Y-6713D01*
X38694Y-6621D01*
X38646Y-6530D01*
X38589Y-6440D01*
X38524Y-6350D01*
X38449Y-6261D01*
X38366Y-6173D01*
X39073Y-5466D01*
X39161Y-5549D01*
D02*
G37*
G36*
X6661D02*
X6750Y-5624D01*
X6840Y-5689D01*
X6930Y-5746D01*
X7021Y-5794D01*
X7113Y-5833D01*
X7206Y-5863D01*
X7299Y-5884D01*
X7393Y-5897D01*
X7488Y-5900D01*
X6300Y-7088D01*
X6297Y-6993D01*
X6284Y-6899D01*
X6263Y-6806D01*
X6233Y-6713D01*
X6194Y-6621D01*
X6146Y-6530D01*
X6089Y-6440D01*
X6024Y-6350D01*
X5949Y-6261D01*
X5866Y-6173D01*
X6573Y-5466D01*
X6661Y-5549D01*
D02*
G37*
G36*
X-25839D02*
X-25750Y-5624D01*
X-25660Y-5689D01*
X-25570Y-5746D01*
X-25479Y-5794D01*
X-25387Y-5833D01*
X-25294Y-5863D01*
X-25201Y-5884D01*
X-25107Y-5897D01*
X-25012Y-5900D01*
X-26200Y-7088D01*
X-26203Y-6993D01*
X-26216Y-6899D01*
X-26237Y-6806D01*
X-26267Y-6713D01*
X-26306Y-6621D01*
X-26354Y-6530D01*
X-26411Y-6440D01*
X-26476Y-6350D01*
X-26551Y-6261D01*
X-26634Y-6173D01*
X-25927Y-5466D01*
X-25839Y-5549D01*
D02*
G37*
G36*
X-110194Y-2691D02*
X-110141Y-3042D01*
X-110052Y-3393D01*
X-109928Y-3744D01*
X-109769Y-4096D01*
X-109575Y-4448D01*
X-109345Y-4800D01*
X-109080Y-5153D01*
X-108779Y-5506D01*
X-108443Y-5860D01*
X-110211Y-7627D01*
X-110559Y-7292D01*
X-111217Y-6726D01*
X-111528Y-6496D01*
X-111827Y-6302D01*
X-112114Y-6143D01*
X-112389Y-6019D01*
X-112651Y-5930D01*
X-112902Y-5877D01*
X-113140Y-5860D01*
X-110211Y-2340D01*
X-110194Y-2691D01*
D02*
G37*
G36*
X53008Y-6838D02*
X52984Y-6932D01*
X52988Y-7040D01*
X53019Y-7161D01*
X53077Y-7296D01*
X53162Y-7444D01*
X53275Y-7606D01*
X53416Y-7781D01*
X53778Y-8171D01*
X53169Y-8976D01*
X52959Y-8773D01*
X52584Y-8453D01*
X52419Y-8337D01*
X52270Y-8251D01*
X52136Y-8194D01*
X52018Y-8166D01*
X51915Y-8167D01*
X51827Y-8197D01*
X51755Y-8257D01*
X53059Y-6757D01*
X53008Y-6838D01*
D02*
G37*
G36*
X36508D02*
X36484Y-6932D01*
X36488Y-7040D01*
X36519Y-7161D01*
X36577Y-7296D01*
X36662Y-7444D01*
X36775Y-7606D01*
X36915Y-7781D01*
X37278Y-8171D01*
X36669Y-8976D01*
X36459Y-8773D01*
X36084Y-8453D01*
X35919Y-8337D01*
X35770Y-8251D01*
X35636Y-8194D01*
X35518Y-8166D01*
X35415Y-8167D01*
X35327Y-8197D01*
X35255Y-8257D01*
X36559Y-6757D01*
X36508Y-6838D01*
D02*
G37*
G36*
X20508D02*
X20484Y-6932D01*
X20488Y-7040D01*
X20519Y-7161D01*
X20577Y-7296D01*
X20662Y-7444D01*
X20775Y-7606D01*
X20915Y-7781D01*
X21278Y-8171D01*
X20669Y-8976D01*
X20459Y-8773D01*
X20084Y-8453D01*
X19919Y-8337D01*
X19770Y-8251D01*
X19636Y-8194D01*
X19518Y-8166D01*
X19415Y-8167D01*
X19327Y-8197D01*
X19255Y-8257D01*
X20559Y-6757D01*
X20508Y-6838D01*
D02*
G37*
G36*
X4008D02*
X3984Y-6932D01*
X3988Y-7040D01*
X4019Y-7161D01*
X4077Y-7296D01*
X4162Y-7444D01*
X4275Y-7606D01*
X4416Y-7781D01*
X4778Y-8171D01*
X4169Y-8976D01*
X3959Y-8773D01*
X3584Y-8453D01*
X3419Y-8337D01*
X3270Y-8251D01*
X3136Y-8194D01*
X3018Y-8166D01*
X2915Y-8167D01*
X2827Y-8197D01*
X2755Y-8257D01*
X4059Y-6757D01*
X4008Y-6838D01*
D02*
G37*
G36*
X-11992D02*
X-12016Y-6932D01*
X-12012Y-7040D01*
X-11981Y-7161D01*
X-11923Y-7296D01*
X-11838Y-7444D01*
X-11725Y-7606D01*
X-11585Y-7781D01*
X-11222Y-8171D01*
X-11831Y-8976D01*
X-12041Y-8773D01*
X-12416Y-8453D01*
X-12581Y-8337D01*
X-12730Y-8251D01*
X-12864Y-8194D01*
X-12982Y-8166D01*
X-13085Y-8167D01*
X-13173Y-8197D01*
X-13245Y-8257D01*
X-11941Y-6757D01*
X-11992Y-6838D01*
D02*
G37*
G36*
X-28492D02*
X-28516Y-6932D01*
X-28512Y-7040D01*
X-28481Y-7161D01*
X-28423Y-7296D01*
X-28338Y-7444D01*
X-28225Y-7606D01*
X-28084Y-7781D01*
X-27722Y-8171D01*
X-28331Y-8976D01*
X-28541Y-8773D01*
X-28916Y-8453D01*
X-29081Y-8337D01*
X-29230Y-8251D01*
X-29364Y-8194D01*
X-29482Y-8166D01*
X-29585Y-8167D01*
X-29673Y-8197D01*
X-29745Y-8257D01*
X-28441Y-6757D01*
X-28492Y-6838D01*
D02*
G37*
G36*
X-44492D02*
X-44516Y-6932D01*
X-44512Y-7040D01*
X-44481Y-7161D01*
X-44423Y-7296D01*
X-44338Y-7444D01*
X-44225Y-7606D01*
X-44085Y-7781D01*
X-43722Y-8171D01*
X-44331Y-8976D01*
X-44541Y-8773D01*
X-44916Y-8453D01*
X-45081Y-8337D01*
X-45230Y-8251D01*
X-45364Y-8194D01*
X-45482Y-8166D01*
X-45585Y-8167D01*
X-45673Y-8197D01*
X-45745Y-8257D01*
X-44441Y-6757D01*
X-44492Y-6838D01*
D02*
G37*
G36*
X60905Y-8267D02*
X60820Y-8298D01*
X60745Y-8348D01*
X60680Y-8419D01*
X60625Y-8510D01*
X60580Y-8621D01*
X60545Y-8753D01*
X60520Y-8905D01*
X60505Y-9077D01*
X60500Y-9269D01*
X59500D01*
X59495Y-9077D01*
X59480Y-8905D01*
X59455Y-8753D01*
X59420Y-8621D01*
X59375Y-8510D01*
X59320Y-8419D01*
X59255Y-8348D01*
X59180Y-8298D01*
X59095Y-8267D01*
X59000Y-8257D01*
X61000D01*
X60905Y-8267D01*
D02*
G37*
G36*
X44905D02*
X44820Y-8298D01*
X44745Y-8348D01*
X44680Y-8419D01*
X44625Y-8510D01*
X44580Y-8621D01*
X44545Y-8753D01*
X44520Y-8905D01*
X44505Y-9077D01*
X44500Y-9269D01*
X43500D01*
X43495Y-9077D01*
X43480Y-8905D01*
X43455Y-8753D01*
X43420Y-8621D01*
X43375Y-8510D01*
X43320Y-8419D01*
X43255Y-8348D01*
X43180Y-8298D01*
X43095Y-8267D01*
X43000Y-8257D01*
X45000D01*
X44905Y-8267D01*
D02*
G37*
G36*
X28405D02*
X28320Y-8298D01*
X28245Y-8348D01*
X28180Y-8419D01*
X28125Y-8510D01*
X28080Y-8621D01*
X28045Y-8753D01*
X28020Y-8905D01*
X28005Y-9077D01*
X28000Y-9269D01*
X27000D01*
X26995Y-9077D01*
X26980Y-8905D01*
X26955Y-8753D01*
X26920Y-8621D01*
X26875Y-8510D01*
X26820Y-8419D01*
X26755Y-8348D01*
X26680Y-8298D01*
X26595Y-8267D01*
X26500Y-8257D01*
X28500D01*
X28405Y-8267D01*
D02*
G37*
G36*
X12405D02*
X12320Y-8298D01*
X12245Y-8348D01*
X12180Y-8419D01*
X12125Y-8510D01*
X12080Y-8621D01*
X12045Y-8753D01*
X12020Y-8905D01*
X12005Y-9077D01*
X12000Y-9269D01*
X11000D01*
X10995Y-9077D01*
X10980Y-8905D01*
X10955Y-8753D01*
X10920Y-8621D01*
X10875Y-8510D01*
X10820Y-8419D01*
X10755Y-8348D01*
X10680Y-8298D01*
X10595Y-8267D01*
X10500Y-8257D01*
X12500D01*
X12405Y-8267D01*
D02*
G37*
G36*
X-4095D02*
X-4180Y-8298D01*
X-4255Y-8348D01*
X-4320Y-8419D01*
X-4375Y-8510D01*
X-4420Y-8621D01*
X-4455Y-8753D01*
X-4480Y-8905D01*
X-4495Y-9077D01*
X-4500Y-9269D01*
X-5500D01*
X-5505Y-9077D01*
X-5520Y-8905D01*
X-5545Y-8753D01*
X-5580Y-8621D01*
X-5625Y-8510D01*
X-5680Y-8419D01*
X-5745Y-8348D01*
X-5820Y-8298D01*
X-5905Y-8267D01*
X-6000Y-8257D01*
X-4000D01*
X-4095Y-8267D01*
D02*
G37*
G36*
X-20095D02*
X-20180Y-8298D01*
X-20255Y-8348D01*
X-20320Y-8419D01*
X-20375Y-8510D01*
X-20420Y-8621D01*
X-20455Y-8753D01*
X-20480Y-8905D01*
X-20495Y-9077D01*
X-20500Y-9269D01*
X-21500D01*
X-21505Y-9077D01*
X-21520Y-8905D01*
X-21545Y-8753D01*
X-21580Y-8621D01*
X-21625Y-8510D01*
X-21680Y-8419D01*
X-21745Y-8348D01*
X-21820Y-8298D01*
X-21905Y-8267D01*
X-22000Y-8257D01*
X-20000D01*
X-20095Y-8267D01*
D02*
G37*
G36*
X-36595D02*
X-36680Y-8298D01*
X-36755Y-8348D01*
X-36820Y-8419D01*
X-36875Y-8510D01*
X-36920Y-8621D01*
X-36955Y-8753D01*
X-36980Y-8905D01*
X-36995Y-9077D01*
X-37000Y-9269D01*
X-38000D01*
X-38005Y-9077D01*
X-38020Y-8905D01*
X-38045Y-8753D01*
X-38080Y-8621D01*
X-38125Y-8510D01*
X-38180Y-8419D01*
X-38245Y-8348D01*
X-38320Y-8298D01*
X-38405Y-8267D01*
X-38500Y-8257D01*
X-36500D01*
X-36595Y-8267D01*
D02*
G37*
G36*
X-61095D02*
X-61180Y-8298D01*
X-61255Y-8348D01*
X-61320Y-8419D01*
X-61375Y-8510D01*
X-61420Y-8621D01*
X-61455Y-8753D01*
X-61480Y-8905D01*
X-61495Y-9077D01*
X-61500Y-9269D01*
X-62500D01*
X-62505Y-9077D01*
X-62520Y-8905D01*
X-62545Y-8753D01*
X-62580Y-8621D01*
X-62625Y-8510D01*
X-62680Y-8419D01*
X-62745Y-8348D01*
X-62820Y-8298D01*
X-62905Y-8267D01*
X-63000Y-8257D01*
X-61000D01*
X-61095Y-8267D01*
D02*
G37*
G36*
X-114921Y-7036D02*
X-114791Y-9196D01*
X-114751Y-9346D01*
X-114705Y-9436D01*
X-114654Y-9466D01*
X-118370D01*
X-118285Y-9436D01*
X-118209Y-9346D01*
X-118142Y-9196D01*
X-118084Y-8986D01*
X-118035Y-8716D01*
X-117995Y-8386D01*
X-117941Y-7546D01*
X-117924Y-6466D01*
X-114924D01*
X-114921Y-7036D01*
D02*
G37*
G36*
X102089Y-9460D02*
X101960Y-9475D01*
X101845Y-9520D01*
X101744Y-9595D01*
X101656Y-9700D01*
X101581Y-9835D01*
X101521Y-10000D01*
X101473Y-10195D01*
X101439Y-10420D01*
X101419Y-10675D01*
X101412Y-10960D01*
X99912D01*
X99905Y-10673D01*
X99882Y-10416D01*
X99845Y-10190D01*
X99792Y-9993D01*
X99725Y-9827D01*
X99642Y-9691D01*
X99545Y-9585D01*
X99432Y-9509D01*
X99305Y-9463D01*
X99162Y-9448D01*
X102089Y-9460D01*
D02*
G37*
G36*
X-106973Y-7318D02*
X-105599Y-8511D01*
X-105199Y-8803D01*
X-104827Y-9041D01*
X-104485Y-9227D01*
X-104171Y-9359D01*
X-103886Y-9439D01*
X-103630Y-9466D01*
X-107334Y-12260D01*
X-107172Y-12089D01*
X-107085Y-11877D01*
X-107074Y-11625D01*
X-107139Y-11332D01*
X-107279Y-10999D01*
X-107495Y-10625D01*
X-107786Y-10211D01*
X-108153Y-9756D01*
X-109114Y-8725D01*
X-107489Y-6814D01*
X-106973Y-7318D01*
D02*
G37*
G36*
X101420Y-11725D02*
X101442Y-11980D01*
X101480Y-12205D01*
X101532Y-12400D01*
X101600Y-12565D01*
X101682Y-12700D01*
X101780Y-12805D01*
X101892Y-12880D01*
X102020Y-12925D01*
X102162Y-12940D01*
X99236D01*
X99364Y-12925D01*
X99479Y-12880D01*
X99581Y-12805D01*
X99669Y-12700D01*
X99743Y-12565D01*
X99804Y-12400D01*
X99851Y-12205D01*
X99885Y-11980D01*
X99905Y-11725D01*
X99912Y-11440D01*
X101412D01*
X101420Y-11725D01*
D02*
G37*
G36*
X97283Y-9480D02*
X97211Y-9540D01*
X97147Y-9640D01*
X97091Y-9780D01*
X97044Y-9960D01*
X97006Y-10180D01*
X96976Y-10440D01*
X96942Y-11080D01*
X96941Y-11179D01*
X96943Y-11320D01*
X97018Y-12220D01*
X97063Y-12440D01*
X97119Y-12620D01*
X97184Y-12760D01*
X97259Y-12860D01*
X97345Y-12920D01*
X97440Y-12940D01*
X94511D01*
X94592Y-12920D01*
X94665Y-12860D01*
X94729Y-12760D01*
X94784Y-12620D01*
X94831Y-12440D01*
X94870Y-12220D01*
X94899Y-11960D01*
X94933Y-11320D01*
X94935Y-11221D01*
X94933Y-11080D01*
X94857Y-10180D01*
X94812Y-9960D01*
X94757Y-9780D01*
X94692Y-9640D01*
X94616Y-9540D01*
X94531Y-9480D01*
X94436Y-9460D01*
X97364D01*
X97283Y-9480D01*
D02*
G37*
G36*
X44505Y-13017D02*
X44520Y-13189D01*
X44545Y-13341D01*
X44580Y-13472D01*
X44625Y-13584D01*
X44680Y-13675D01*
X44745Y-13746D01*
X44820Y-13796D01*
X44905Y-13826D01*
X45000Y-13837D01*
X43000D01*
X43095Y-13826D01*
X43180Y-13796D01*
X43255Y-13746D01*
X43320Y-13675D01*
X43375Y-13584D01*
X43420Y-13472D01*
X43455Y-13341D01*
X43480Y-13189D01*
X43495Y-13017D01*
X43500Y-12825D01*
X44500D01*
X44505Y-13017D01*
D02*
G37*
G36*
X12005D02*
X12020Y-13189D01*
X12045Y-13341D01*
X12080Y-13472D01*
X12125Y-13584D01*
X12180Y-13675D01*
X12245Y-13746D01*
X12320Y-13796D01*
X12405Y-13826D01*
X12500Y-13837D01*
X10500D01*
X10595Y-13826D01*
X10680Y-13796D01*
X10755Y-13746D01*
X10820Y-13675D01*
X10875Y-13584D01*
X10920Y-13472D01*
X10955Y-13341D01*
X10980Y-13189D01*
X10995Y-13017D01*
X11000Y-12825D01*
X12000D01*
X12005Y-13017D01*
D02*
G37*
G36*
X-20495D02*
X-20480Y-13189D01*
X-20455Y-13341D01*
X-20420Y-13472D01*
X-20375Y-13584D01*
X-20320Y-13675D01*
X-20255Y-13746D01*
X-20180Y-13796D01*
X-20095Y-13826D01*
X-20000Y-13837D01*
X-22000D01*
X-21905Y-13826D01*
X-21820Y-13796D01*
X-21745Y-13746D01*
X-21680Y-13675D01*
X-21625Y-13584D01*
X-21580Y-13472D01*
X-21545Y-13341D01*
X-21520Y-13189D01*
X-21505Y-13017D01*
X-21500Y-12825D01*
X-20500D01*
X-20495Y-13017D01*
D02*
G37*
G36*
X-52995D02*
X-52980Y-13189D01*
X-52955Y-13341D01*
X-52920Y-13472D01*
X-52875Y-13584D01*
X-52820Y-13675D01*
X-52755Y-13746D01*
X-52680Y-13796D01*
X-52595Y-13826D01*
X-52500Y-13837D01*
X-54500D01*
X-54405Y-13826D01*
X-54320Y-13796D01*
X-54245Y-13746D01*
X-54180Y-13675D01*
X-54125Y-13584D01*
X-54080Y-13472D01*
X-54045Y-13341D01*
X-54020Y-13189D01*
X-54005Y-13017D01*
X-54000Y-12825D01*
X-53000D01*
X-52995Y-13017D01*
D02*
G37*
G36*
X-99997Y-12595D02*
X-99984Y-12689D01*
X-99963Y-12783D01*
X-99933Y-12876D01*
X-99894Y-12967D01*
X-99846Y-13058D01*
X-99789Y-13149D01*
X-99724Y-13239D01*
X-99649Y-13327D01*
X-99566Y-13416D01*
X-100273Y-14123D01*
X-100361Y-14039D01*
X-100450Y-13965D01*
X-100540Y-13899D01*
X-100630Y-13842D01*
X-100721Y-13795D01*
X-100813Y-13756D01*
X-100906Y-13726D01*
X-100999Y-13704D01*
X-101093Y-13692D01*
X-101188Y-13689D01*
X-100000Y-12501D01*
X-99997Y-12595D01*
D02*
G37*
G36*
X-103737Y-16160D02*
X-103833Y-16235D01*
X-103918Y-16360D01*
X-103991Y-16534D01*
X-104053Y-16759D01*
X-104104Y-17034D01*
X-104143Y-17359D01*
X-104188Y-18159D01*
X-104194Y-18634D01*
X-106694D01*
X-106701Y-18159D01*
X-106798Y-17034D01*
X-106857Y-16759D01*
X-106929Y-16534D01*
X-107014Y-16360D01*
X-107112Y-16235D01*
X-107222Y-16160D01*
X-107346Y-16135D01*
X-103630D01*
X-103737Y-16160D01*
D02*
G37*
G36*
X-114769D02*
X-114873Y-16235D01*
X-114964Y-16360D01*
X-115043Y-16534D01*
X-115110Y-16759D01*
X-115164Y-17034D01*
X-115207Y-17359D01*
X-115256Y-18159D01*
X-115262Y-18634D01*
X-117762D01*
X-117768Y-18159D01*
X-117859Y-17034D01*
X-117914Y-16759D01*
X-117981Y-16534D01*
X-118060Y-16360D01*
X-118151Y-16235D01*
X-118254Y-16160D01*
X-118370Y-16135D01*
X-114654D01*
X-114769Y-16160D01*
D02*
G37*
G36*
X97357Y-16480D02*
X97283Y-16540D01*
X97218Y-16640D01*
X97161Y-16780D01*
X97113Y-16960D01*
X97074Y-17180D01*
X97044Y-17440D01*
X97022Y-17848D01*
X97059Y-18343D01*
X97101Y-18603D01*
X97155Y-18823D01*
X97222Y-19003D01*
X97300Y-19143D01*
X97391Y-19243D01*
X97494Y-19303D01*
X97608Y-19323D01*
X94459D01*
X94563Y-19303D01*
X94655Y-19243D01*
X94737Y-19143D01*
X94808Y-19003D01*
X94868Y-18823D01*
X94917Y-18603D01*
X94955Y-18343D01*
X94983Y-18043D01*
X94986Y-17920D01*
X94926Y-17180D01*
X94881Y-16960D01*
X94827Y-16780D01*
X94763Y-16640D01*
X94689Y-16540D01*
X94605Y-16480D01*
X94511Y-16460D01*
X97440D01*
X97357Y-16480D01*
D02*
G37*
G36*
X-111568Y-18844D02*
X-111239Y-18836D01*
X-111302Y-18907D01*
X-111358Y-18984D01*
X-111408Y-19066D01*
X-111451Y-19153D01*
X-111488Y-19247D01*
X-111509Y-19317D01*
X-111490Y-19385D01*
X-111445Y-19496D01*
X-111390Y-19587D01*
X-111326Y-19658D01*
X-111250Y-19709D01*
X-111165Y-19739D01*
X-111071Y-19749D01*
X-111569D01*
X-111571Y-19797D01*
X-112571Y-19824D01*
X-112573Y-19749D01*
X-113070D01*
X-112976Y-19739D01*
X-112891Y-19709D01*
X-112815Y-19658D01*
X-112750Y-19587D01*
X-112696Y-19496D01*
X-112651Y-19385D01*
X-112638Y-19338D01*
X-112657Y-19276D01*
X-112696Y-19185D01*
X-112741Y-19099D01*
X-112793Y-19019D01*
X-112853Y-18945D01*
X-112919Y-18877D01*
X-112574Y-18869D01*
X-112571Y-18737D01*
X-111571D01*
X-111568Y-18844D01*
D02*
G37*
G36*
X38005Y-19160D02*
X38020Y-19330D01*
X38045Y-19480D01*
X38080Y-19610D01*
X38125Y-19720D01*
X38180Y-19810D01*
X38245Y-19880D01*
X38320Y-19930D01*
X38405Y-19960D01*
X38500Y-19970D01*
X36500D01*
X36595Y-19960D01*
X36680Y-19930D01*
X36755Y-19880D01*
X36820Y-19810D01*
X36875Y-19720D01*
X36920Y-19610D01*
X36955Y-19480D01*
X36980Y-19330D01*
X36995Y-19160D01*
X37000Y-18970D01*
X38000D01*
X38005Y-19160D01*
D02*
G37*
G36*
X5505D02*
X5520Y-19330D01*
X5545Y-19480D01*
X5580Y-19610D01*
X5625Y-19720D01*
X5680Y-19810D01*
X5745Y-19880D01*
X5820Y-19930D01*
X5905Y-19960D01*
X6000Y-19970D01*
X4000D01*
X4095Y-19960D01*
X4180Y-19930D01*
X4255Y-19880D01*
X4320Y-19810D01*
X4375Y-19720D01*
X4420Y-19610D01*
X4455Y-19480D01*
X4480Y-19330D01*
X4495Y-19160D01*
X4500Y-18970D01*
X5500D01*
X5505Y-19160D01*
D02*
G37*
G36*
X-26995D02*
X-26980Y-19330D01*
X-26955Y-19480D01*
X-26920Y-19610D01*
X-26875Y-19720D01*
X-26820Y-19810D01*
X-26755Y-19880D01*
X-26680Y-19930D01*
X-26595Y-19960D01*
X-26500Y-19970D01*
X-28500D01*
X-28405Y-19960D01*
X-28320Y-19930D01*
X-28245Y-19880D01*
X-28180Y-19810D01*
X-28125Y-19720D01*
X-28080Y-19610D01*
X-28045Y-19480D01*
X-28020Y-19330D01*
X-28005Y-19160D01*
X-28000Y-18970D01*
X-27000D01*
X-26995Y-19160D01*
D02*
G37*
G36*
X-59495D02*
X-59480Y-19330D01*
X-59455Y-19480D01*
X-59420Y-19610D01*
X-59375Y-19720D01*
X-59320Y-19810D01*
X-59255Y-19880D01*
X-59180Y-19930D01*
X-59095Y-19960D01*
X-59000Y-19970D01*
X-61000D01*
X-60905Y-19960D01*
X-60820Y-19930D01*
X-60745Y-19880D01*
X-60680Y-19810D01*
X-60625Y-19720D01*
X-60580Y-19610D01*
X-60545Y-19480D01*
X-60520Y-19330D01*
X-60505Y-19160D01*
X-60500Y-18970D01*
X-59500D01*
X-59495Y-19160D01*
D02*
G37*
G36*
X60505Y-19196D02*
X60520Y-19366D01*
X60545Y-19516D01*
X60580Y-19646D01*
X60625Y-19756D01*
X60680Y-19846D01*
X60745Y-19916D01*
X60820Y-19966D01*
X60905Y-19996D01*
X61000Y-20006D01*
X59000D01*
X59095Y-19996D01*
X59180Y-19966D01*
X59255Y-19916D01*
X59320Y-19846D01*
X59375Y-19756D01*
X59420Y-19646D01*
X59455Y-19516D01*
X59480Y-19366D01*
X59495Y-19196D01*
X59500Y-19006D01*
X60500D01*
X60505Y-19196D01*
D02*
G37*
G36*
X28005D02*
X28020Y-19366D01*
X28045Y-19516D01*
X28080Y-19646D01*
X28125Y-19756D01*
X28180Y-19846D01*
X28245Y-19916D01*
X28320Y-19966D01*
X28405Y-19996D01*
X28500Y-20006D01*
X26500D01*
X26595Y-19996D01*
X26680Y-19966D01*
X26755Y-19916D01*
X26820Y-19846D01*
X26875Y-19756D01*
X26920Y-19646D01*
X26955Y-19516D01*
X26980Y-19366D01*
X26995Y-19196D01*
X27000Y-19006D01*
X28000D01*
X28005Y-19196D01*
D02*
G37*
G36*
X-4495D02*
X-4480Y-19366D01*
X-4455Y-19516D01*
X-4420Y-19646D01*
X-4375Y-19756D01*
X-4320Y-19846D01*
X-4255Y-19916D01*
X-4180Y-19966D01*
X-4095Y-19996D01*
X-4000Y-20006D01*
X-6000D01*
X-5905Y-19996D01*
X-5820Y-19966D01*
X-5745Y-19916D01*
X-5680Y-19846D01*
X-5625Y-19756D01*
X-5580Y-19646D01*
X-5545Y-19516D01*
X-5520Y-19366D01*
X-5505Y-19196D01*
X-5500Y-19006D01*
X-4500D01*
X-4495Y-19196D01*
D02*
G37*
G36*
X-36995D02*
X-36980Y-19366D01*
X-36955Y-19516D01*
X-36920Y-19646D01*
X-36875Y-19756D01*
X-36820Y-19846D01*
X-36755Y-19916D01*
X-36680Y-19966D01*
X-36595Y-19996D01*
X-36500Y-20006D01*
X-38500D01*
X-38405Y-19996D01*
X-38320Y-19966D01*
X-38245Y-19916D01*
X-38180Y-19846D01*
X-38125Y-19756D01*
X-38080Y-19646D01*
X-38045Y-19516D01*
X-38020Y-19366D01*
X-38005Y-19196D01*
X-38000Y-19006D01*
X-37000D01*
X-36995Y-19196D01*
D02*
G37*
G36*
X-104172Y-20184D02*
X-106691Y-20246D01*
X-106694Y-19169D01*
X-104194Y-19084D01*
X-104172Y-20184D01*
D02*
G37*
G36*
X-78257Y-21640D02*
X-78326Y-21575D01*
X-78402Y-21518D01*
X-78483Y-21467D01*
X-78570Y-21422D01*
X-78662Y-21385D01*
X-78760Y-21354D01*
X-78864Y-21331D01*
X-78974Y-21314D01*
X-79090Y-21303D01*
X-79211Y-21300D01*
Y-20300D01*
X-79090Y-20297D01*
X-78974Y-20286D01*
X-78864Y-20269D01*
X-78760Y-20246D01*
X-78662Y-20215D01*
X-78570Y-20178D01*
X-78483Y-20133D01*
X-78402Y-20082D01*
X-78326Y-20025D01*
X-78257Y-19960D01*
Y-21640D01*
D02*
G37*
G36*
X-74197Y-21410D02*
X-74186Y-21526D01*
X-74169Y-21636D01*
X-74146Y-21740D01*
X-74115Y-21838D01*
X-74078Y-21930D01*
X-74033Y-22017D01*
X-73982Y-22098D01*
X-73925Y-22174D01*
X-73860Y-22243D01*
X-75540D01*
X-75475Y-22174D01*
X-75418Y-22098D01*
X-75367Y-22017D01*
X-75322Y-21930D01*
X-75285Y-21838D01*
X-75254Y-21740D01*
X-75231Y-21636D01*
X-75214Y-21526D01*
X-75203Y-21410D01*
X-75200Y-21289D01*
X-74200D01*
X-74197Y-21410D01*
D02*
G37*
G36*
X102278Y-21242D02*
X102255Y-21336D01*
X102259Y-21444D01*
X102290Y-21566D01*
X102348Y-21701D01*
X102433Y-21849D01*
X102546Y-22010D01*
X102686Y-22185D01*
X103048Y-22575D01*
X102444Y-23384D01*
X102233Y-23181D01*
X101858Y-22861D01*
X101693Y-22745D01*
X101544Y-22659D01*
X101410Y-22601D01*
X101292Y-22573D01*
X101189Y-22575D01*
X101102Y-22605D01*
X101030Y-22665D01*
X102329Y-21160D01*
X102278Y-21242D01*
D02*
G37*
G36*
X97180Y-22678D02*
X97142Y-22715D01*
X97109Y-22776D01*
X97080Y-22863D01*
X97056Y-22974D01*
X97036Y-23110D01*
X97009Y-23456D01*
X97000Y-23900D01*
X95000D01*
X94998Y-23665D01*
X94944Y-22974D01*
X94920Y-22863D01*
X94891Y-22776D01*
X94858Y-22715D01*
X94820Y-22678D01*
X94777Y-22665D01*
X97223D01*
X97180Y-22678D01*
D02*
G37*
G36*
X97403Y-23885D02*
X97783Y-24220D01*
X97894Y-24303D01*
X97996Y-24372D01*
X98090Y-24426D01*
X98176Y-24467D01*
X98254Y-24493D01*
X98324Y-24504D01*
X96407Y-26141D01*
X96406Y-26060D01*
X96390Y-25973D01*
X96359Y-25879D01*
X96312Y-25777D01*
X96250Y-25669D01*
X96173Y-25554D01*
X96080Y-25432D01*
X95849Y-25168D01*
X95711Y-25025D01*
X97259Y-23745D01*
X97403Y-23885D01*
D02*
G37*
G36*
X108943Y-26740D02*
X108873Y-26675D01*
X108798Y-26618D01*
X108717Y-26567D01*
X108630Y-26522D01*
X108538Y-26485D01*
X108440Y-26454D01*
X108336Y-26431D01*
X108226Y-26414D01*
X108110Y-26403D01*
X107989Y-26400D01*
Y-25400D01*
X108110Y-25397D01*
X108226Y-25386D01*
X108336Y-25369D01*
X108440Y-25346D01*
X108538Y-25315D01*
X108630Y-25278D01*
X108717Y-25233D01*
X108798Y-25182D01*
X108873Y-25125D01*
X108943Y-25060D01*
Y-26740D01*
D02*
G37*
G36*
X-71167Y-25173D02*
X-71101Y-25238D01*
X-71029Y-25295D01*
X-70949Y-25345D01*
X-70862Y-25387D01*
X-70768Y-25422D01*
X-70668Y-25448D01*
X-70560Y-25467D01*
X-70445Y-25479D01*
X-70323Y-25483D01*
X-70294Y-26483D01*
X-70453Y-26485D01*
X-70743Y-26508D01*
X-70875Y-26527D01*
X-70999Y-26552D01*
X-71113Y-26583D01*
X-71218Y-26619D01*
X-71315Y-26661D01*
X-71402Y-26708D01*
X-71481Y-26761D01*
X-71225Y-25100D01*
X-71167Y-25173D01*
D02*
G37*
G36*
X132484Y-38094D02*
X132356Y-38139D01*
X132244Y-38214D01*
X132146Y-38319D01*
X132064Y-38454D01*
X131996Y-38619D01*
X131944Y-38814D01*
X131906Y-39039D01*
X131884Y-39294D01*
X131876Y-39579D01*
X130376D01*
X130388Y-38079D01*
X132626D01*
X132484Y-38094D01*
D02*
G37*
G36*
X115412Y-38079D02*
X115414Y-38094D01*
X115416Y-38139D01*
X115424Y-39579D01*
X113924D01*
X113916Y-39292D01*
X113894Y-39036D01*
X113856Y-38809D01*
X113804Y-38613D01*
X113736Y-38447D01*
X113654Y-38311D01*
X113556Y-38205D01*
X113444Y-38129D01*
X113316Y-38083D01*
X113174Y-38067D01*
X115412Y-38079D01*
D02*
G37*
G36*
X64000Y-62856D02*
X59029D01*
Y-55789D01*
X62370D01*
Y-49065D01*
X56630D01*
Y-53626D01*
X56419Y-53838D01*
X56087Y-54334D01*
X55971Y-54919D01*
Y-62856D01*
X50029D01*
Y-62470D01*
X49913Y-61885D01*
X49581Y-61389D01*
X47827Y-59634D01*
Y-56057D01*
X41529D01*
Y-55419D01*
X41432Y-54931D01*
X41413Y-54834D01*
X41081Y-54338D01*
X40370Y-53626D01*
Y-49065D01*
X34630D01*
Y-55789D01*
X38207D01*
X38471Y-56052D01*
Y-62856D01*
X35219D01*
X33729Y-61366D01*
Y-10356D01*
X35971D01*
Y-18958D01*
X34630D01*
Y-25683D01*
X40370D01*
Y-18958D01*
X39029D01*
Y-10356D01*
X42471D01*
Y-12813D01*
X41067D01*
Y-18553D01*
X47791D01*
Y-12813D01*
X45529D01*
Y-10356D01*
X53093D01*
X54633Y-11896D01*
Y-25025D01*
X45245Y-34412D01*
X45196Y-34486D01*
X41102D01*
Y-40226D01*
X47827D01*
Y-36157D01*
X57244Y-26740D01*
X57575Y-26243D01*
X57680Y-25718D01*
X62370D01*
Y-18994D01*
X61529D01*
Y-10356D01*
X64000D01*
Y-62856D01*
D02*
G37*
G36*
X30671Y-62000D02*
X30741Y-62356D01*
X30412Y-62856D01*
X26529D01*
Y-55789D01*
X29870D01*
Y-49065D01*
X24130D01*
Y-53626D01*
X23919Y-53838D01*
X23587Y-54334D01*
X23471Y-54919D01*
Y-62856D01*
X17529D01*
Y-62470D01*
X17413Y-61885D01*
X17081Y-61389D01*
X15327Y-59634D01*
Y-56057D01*
X9029D01*
Y-55419D01*
X8913Y-54834D01*
X8581Y-54338D01*
X7870Y-53626D01*
Y-49065D01*
X2130D01*
Y-55789D01*
X5707D01*
X5971Y-56052D01*
Y-62856D01*
X1000D01*
Y-10356D01*
X3471D01*
Y-18958D01*
X2130D01*
Y-25683D01*
X7870D01*
Y-18958D01*
X6529D01*
Y-10356D01*
X9971D01*
Y-12813D01*
X8567D01*
Y-18553D01*
X15291D01*
Y-12813D01*
X13029D01*
Y-10356D01*
X20593D01*
X22133Y-11896D01*
Y-25025D01*
X12745Y-34412D01*
X12696Y-34486D01*
X8602D01*
Y-40226D01*
X15327D01*
Y-36157D01*
X24744Y-26740D01*
X25075Y-26243D01*
X25180Y-25718D01*
X29870D01*
Y-18994D01*
X29029D01*
Y-10356D01*
X30671D01*
Y-62000D01*
D02*
G37*
G36*
X-1000Y-62856D02*
X-5971D01*
Y-55789D01*
X-2630D01*
Y-49065D01*
X-8370D01*
Y-53626D01*
X-8581Y-53838D01*
X-8913Y-54334D01*
X-9029Y-54919D01*
Y-62856D01*
X-14971D01*
Y-62470D01*
X-15087Y-61885D01*
X-15419Y-61389D01*
X-17173Y-59634D01*
Y-56057D01*
X-23471D01*
Y-55419D01*
X-23568Y-54931D01*
X-23587Y-54834D01*
X-23919Y-54338D01*
X-24630Y-53626D01*
Y-49065D01*
X-30370D01*
Y-55789D01*
X-26793D01*
X-26529Y-56052D01*
Y-62856D01*
X-31500D01*
Y-10356D01*
X-29029D01*
Y-18958D01*
X-30370D01*
Y-25683D01*
X-24630D01*
Y-18958D01*
X-25971D01*
Y-10356D01*
X-22529D01*
Y-12813D01*
X-23933D01*
Y-18553D01*
X-17209D01*
Y-12813D01*
X-19471D01*
Y-10356D01*
X-11907D01*
X-10367Y-11896D01*
Y-25025D01*
X-19755Y-34412D01*
X-19804Y-34486D01*
X-23898D01*
Y-40226D01*
X-17173D01*
Y-36157D01*
X-7756Y-26740D01*
X-7425Y-26243D01*
X-7320Y-25718D01*
X-2630D01*
Y-18994D01*
X-3471D01*
Y-10356D01*
X-1000D01*
Y-62856D01*
D02*
G37*
G36*
X-33500D02*
X-38471D01*
Y-55789D01*
X-35130D01*
Y-49065D01*
X-40870D01*
Y-53626D01*
X-41081Y-53838D01*
X-41413Y-54334D01*
X-41529Y-54919D01*
Y-62856D01*
X-47471D01*
Y-62470D01*
X-47587Y-61885D01*
X-47919Y-61389D01*
X-49673Y-59634D01*
Y-56057D01*
X-55971D01*
Y-55419D01*
X-56068Y-54931D01*
X-56087Y-54834D01*
X-56419Y-54338D01*
X-57130Y-53626D01*
Y-49065D01*
X-62870D01*
Y-55789D01*
X-59293D01*
X-59029Y-56052D01*
Y-62856D01*
X-64000D01*
Y-27512D01*
X-57591D01*
X-57006Y-27396D01*
X-56510Y-27064D01*
X-55652Y-26206D01*
X-55320Y-25710D01*
X-55204Y-25124D01*
Y-18553D01*
X-49709D01*
Y-12813D01*
X-51971D01*
Y-10356D01*
X-44407D01*
X-42867Y-11896D01*
Y-25025D01*
X-52255Y-34412D01*
X-52304Y-34486D01*
X-56398D01*
Y-40226D01*
X-49673D01*
Y-36157D01*
X-40256Y-26740D01*
X-39925Y-26243D01*
X-39820Y-25718D01*
X-35130D01*
Y-18994D01*
X-35971D01*
Y-10356D01*
X-33500D01*
Y-62856D01*
D02*
G37*
G36*
X123787Y-44155D02*
X123832Y-44159D01*
X124012Y-44166D01*
X125272Y-44175D01*
Y-45675D01*
X123772Y-45701D01*
Y-44150D01*
X123787Y-44155D01*
D02*
G37*
G36*
X121828Y-45701D02*
X121813Y-45696D01*
X121768Y-45691D01*
X121588Y-45684D01*
X120328Y-45675D01*
Y-44175D01*
X121828Y-44150D01*
Y-45701D01*
D02*
G37*
G36*
X133482Y-45800D02*
X133405Y-45807D01*
X133322Y-45828D01*
X133230Y-45864D01*
X133132Y-45915D01*
X133026Y-45980D01*
X132912Y-46061D01*
X132664Y-46265D01*
X132528Y-46390D01*
X132385Y-46529D01*
X130971Y-45115D01*
X131110Y-44972D01*
X131439Y-44588D01*
X131520Y-44474D01*
X131585Y-44368D01*
X131636Y-44270D01*
X131672Y-44178D01*
X131693Y-44094D01*
X131700Y-44018D01*
X133482Y-45800D01*
D02*
G37*
G36*
X124201Y-47453D02*
X124412Y-47470D01*
X124772Y-47477D01*
Y-48477D01*
X124582Y-48480D01*
X124288Y-48508D01*
X124311Y-48786D01*
X124237Y-48727D01*
X124157Y-48674D01*
X124073Y-48628D01*
X123983Y-48588D01*
X123983Y-48588D01*
X123932Y-48611D01*
X123862Y-48660D01*
X123812Y-48716D01*
X123782Y-48779D01*
X123772Y-48850D01*
Y-48523D01*
X123683Y-48504D01*
X123572Y-48489D01*
X123457Y-48480D01*
X123336Y-48477D01*
X123245Y-47477D01*
X123367Y-47473D01*
X123482Y-47462D01*
X123591Y-47444D01*
X123693Y-47418D01*
X123772Y-47391D01*
Y-47299D01*
X123782Y-47333D01*
X123812Y-47363D01*
X123824Y-47370D01*
X123879Y-47345D01*
X123962Y-47298D01*
X124039Y-47243D01*
X124109Y-47181D01*
X124173Y-47111D01*
X124201Y-47453D01*
D02*
G37*
G36*
X72910Y-56173D02*
X72940Y-56515D01*
X72990Y-56816D01*
X73060Y-57077D01*
X73150Y-57299D01*
X73260Y-57480D01*
X73390Y-57621D01*
X73540Y-57722D01*
X73710Y-57783D01*
X73900Y-57803D01*
X70713Y-57792D01*
X70748Y-57771D01*
X70780Y-57711D01*
X70808Y-57612D01*
X70833Y-57472D01*
X70853Y-57292D01*
X70893Y-56511D01*
X70900Y-55791D01*
X72900D01*
X72910Y-56173D01*
D02*
G37*
G36*
X-121789Y-52180D02*
X-121747Y-52562D01*
X-121676Y-52933D01*
X-121577Y-53292D01*
X-121450Y-53639D01*
X-121294Y-53975D01*
X-121110Y-54299D01*
X-120898Y-54611D01*
X-120658Y-54911D01*
X-120389Y-55200D01*
Y-58028D01*
X-120658Y-57780D01*
X-120898Y-57599D01*
X-121110Y-57487D01*
X-121294Y-57443D01*
X-121450Y-57468D01*
X-121577Y-57560D01*
X-121676Y-57722D01*
X-121747Y-57951D01*
X-121789Y-58248D01*
X-121803Y-58614D01*
X-123803Y-54200D01*
X-121803Y-51786D01*
X-121789Y-52180D01*
D02*
G37*
G36*
X97793Y-59027D02*
X97757Y-59027D01*
X97715Y-59038D01*
X97666Y-59059D01*
X97610Y-59091D01*
X97548Y-59133D01*
X97478Y-59186D01*
X97319Y-59323D01*
X97132Y-59502D01*
X96273Y-58241D01*
X96788Y-57680D01*
X97793Y-59027D01*
D02*
G37*
G36*
X99181Y-57882D02*
X99196Y-57918D01*
X99221Y-57962D01*
X99256Y-58014D01*
X99301Y-58073D01*
X99422Y-58214D01*
X99678Y-58482D01*
X98618Y-59543D01*
X98521Y-59447D01*
X98150Y-59120D01*
X98098Y-59085D01*
X98054Y-59060D01*
X98018Y-59045D01*
X97989Y-59041D01*
X99177Y-57853D01*
X99181Y-57882D01*
D02*
G37*
G36*
X95138Y-58378D02*
X95173Y-58412D01*
X95231Y-58443D01*
X95312Y-58469D01*
X95416Y-58491D01*
X95543Y-58509D01*
X95867Y-58533D01*
X96283Y-58541D01*
Y-60041D01*
X96061Y-60045D01*
X95688Y-60078D01*
X95536Y-60106D01*
X95408Y-60142D01*
X95303Y-60187D01*
X95221Y-60240D01*
X95162Y-60301D01*
X95127Y-60370D01*
X95115Y-60447D01*
X95127Y-58340D01*
X95138Y-58378D01*
D02*
G37*
G36*
X101685Y-61500D02*
X101670Y-61357D01*
X101625Y-61230D01*
X101549Y-61118D01*
X101444Y-61020D01*
X101307Y-60938D01*
X101141Y-60870D01*
X100944Y-60817D01*
X100718Y-60780D01*
X100461Y-60757D01*
X100173Y-60750D01*
Y-59250D01*
X100461Y-59242D01*
X100718Y-59220D01*
X100944Y-59183D01*
X101141Y-59130D01*
X101307Y-59062D01*
X101444Y-58980D01*
X101549Y-58882D01*
X101625Y-58770D01*
X101670Y-58643D01*
X101685Y-58500D01*
Y-61500D01*
D02*
G37*
G36*
X-75795Y-62341D02*
X-75780Y-62378D01*
X-75755Y-62422D01*
X-75720Y-62473D01*
X-75675Y-62532D01*
X-75555Y-62673D01*
X-75298Y-62941D01*
X-76359Y-64002D01*
X-76456Y-63906D01*
X-76827Y-63580D01*
X-76878Y-63545D01*
X-76923Y-63520D01*
X-76959Y-63505D01*
X-76988Y-63500D01*
X-75800Y-62312D01*
X-75795Y-62341D01*
D02*
G37*
G36*
X40505Y-63706D02*
X40520Y-63878D01*
X40545Y-64030D01*
X40580Y-64161D01*
X40625Y-64273D01*
X40680Y-64364D01*
X40745Y-64434D01*
X40820Y-64485D01*
X40905Y-64515D01*
X41000Y-64526D01*
X39000D01*
X39095Y-64515D01*
X39180Y-64485D01*
X39255Y-64434D01*
X39320Y-64364D01*
X39375Y-64273D01*
X39420Y-64161D01*
X39455Y-64030D01*
X39480Y-63878D01*
X39495Y-63706D01*
X39500Y-63514D01*
X40500D01*
X40505Y-63706D01*
D02*
G37*
G36*
X8005D02*
X8020Y-63878D01*
X8045Y-64030D01*
X8080Y-64161D01*
X8125Y-64273D01*
X8180Y-64364D01*
X8245Y-64434D01*
X8320Y-64485D01*
X8405Y-64515D01*
X8500Y-64526D01*
X6500D01*
X6595Y-64515D01*
X6680Y-64485D01*
X6755Y-64434D01*
X6820Y-64364D01*
X6875Y-64273D01*
X6920Y-64161D01*
X6955Y-64030D01*
X6980Y-63878D01*
X6995Y-63706D01*
X7000Y-63514D01*
X8000D01*
X8005Y-63706D01*
D02*
G37*
G36*
X-24495D02*
X-24480Y-63878D01*
X-24455Y-64030D01*
X-24420Y-64161D01*
X-24375Y-64273D01*
X-24320Y-64364D01*
X-24255Y-64434D01*
X-24180Y-64485D01*
X-24095Y-64515D01*
X-24000Y-64526D01*
X-26000D01*
X-25905Y-64515D01*
X-25820Y-64485D01*
X-25745Y-64434D01*
X-25680Y-64364D01*
X-25625Y-64273D01*
X-25580Y-64161D01*
X-25545Y-64030D01*
X-25520Y-63878D01*
X-25505Y-63706D01*
X-25500Y-63514D01*
X-24500D01*
X-24495Y-63706D01*
D02*
G37*
G36*
X-56995D02*
X-56980Y-63878D01*
X-56955Y-64030D01*
X-56920Y-64161D01*
X-56875Y-64273D01*
X-56820Y-64364D01*
X-56755Y-64434D01*
X-56680Y-64485D01*
X-56595Y-64515D01*
X-56500Y-64526D01*
X-58500D01*
X-58405Y-64515D01*
X-58320Y-64485D01*
X-58245Y-64434D01*
X-58180Y-64364D01*
X-58125Y-64273D01*
X-58080Y-64161D01*
X-58045Y-64030D01*
X-58020Y-63878D01*
X-58005Y-63706D01*
X-58000Y-63514D01*
X-57000D01*
X-56995Y-63706D01*
D02*
G37*
G36*
X58005Y-63777D02*
X58020Y-63949D01*
X58045Y-64101D01*
X58080Y-64232D01*
X58125Y-64343D01*
X58180Y-64434D01*
X58245Y-64505D01*
X58320Y-64556D01*
X58405Y-64586D01*
X58500Y-64596D01*
X56500D01*
X56595Y-64586D01*
X56680Y-64556D01*
X56755Y-64505D01*
X56820Y-64434D01*
X56875Y-64343D01*
X56920Y-64232D01*
X56955Y-64101D01*
X56980Y-63949D01*
X56995Y-63777D01*
X57000Y-63584D01*
X58000D01*
X58005Y-63777D01*
D02*
G37*
G36*
X49005D02*
X49020Y-63949D01*
X49045Y-64101D01*
X49080Y-64232D01*
X49125Y-64343D01*
X49180Y-64434D01*
X49245Y-64505D01*
X49320Y-64556D01*
X49405Y-64586D01*
X49500Y-64596D01*
X47500D01*
X47595Y-64586D01*
X47680Y-64556D01*
X47755Y-64505D01*
X47820Y-64434D01*
X47875Y-64343D01*
X47920Y-64232D01*
X47955Y-64101D01*
X47980Y-63949D01*
X47995Y-63777D01*
X48000Y-63584D01*
X49000D01*
X49005Y-63777D01*
D02*
G37*
G36*
X25505D02*
X25520Y-63949D01*
X25545Y-64101D01*
X25580Y-64232D01*
X25625Y-64343D01*
X25680Y-64434D01*
X25745Y-64505D01*
X25820Y-64556D01*
X25905Y-64586D01*
X26000Y-64596D01*
X24000D01*
X24095Y-64586D01*
X24180Y-64556D01*
X24255Y-64505D01*
X24320Y-64434D01*
X24375Y-64343D01*
X24420Y-64232D01*
X24455Y-64101D01*
X24480Y-63949D01*
X24495Y-63777D01*
X24500Y-63584D01*
X25500D01*
X25505Y-63777D01*
D02*
G37*
G36*
X16505D02*
X16520Y-63949D01*
X16545Y-64101D01*
X16580Y-64232D01*
X16625Y-64343D01*
X16680Y-64434D01*
X16745Y-64505D01*
X16820Y-64556D01*
X16905Y-64586D01*
X17000Y-64596D01*
X15000D01*
X15095Y-64586D01*
X15180Y-64556D01*
X15255Y-64505D01*
X15320Y-64434D01*
X15375Y-64343D01*
X15420Y-64232D01*
X15455Y-64101D01*
X15480Y-63949D01*
X15495Y-63777D01*
X15500Y-63584D01*
X16500D01*
X16505Y-63777D01*
D02*
G37*
G36*
X-6995D02*
X-6980Y-63949D01*
X-6955Y-64101D01*
X-6920Y-64232D01*
X-6875Y-64343D01*
X-6820Y-64434D01*
X-6755Y-64505D01*
X-6680Y-64556D01*
X-6595Y-64586D01*
X-6500Y-64596D01*
X-8500D01*
X-8405Y-64586D01*
X-8320Y-64556D01*
X-8245Y-64505D01*
X-8180Y-64434D01*
X-8125Y-64343D01*
X-8080Y-64232D01*
X-8045Y-64101D01*
X-8020Y-63949D01*
X-8005Y-63777D01*
X-8000Y-63584D01*
X-7000D01*
X-6995Y-63777D01*
D02*
G37*
G36*
X-15995D02*
X-15980Y-63949D01*
X-15955Y-64101D01*
X-15920Y-64232D01*
X-15875Y-64343D01*
X-15820Y-64434D01*
X-15755Y-64505D01*
X-15680Y-64556D01*
X-15595Y-64586D01*
X-15500Y-64596D01*
X-17500D01*
X-17405Y-64586D01*
X-17320Y-64556D01*
X-17245Y-64505D01*
X-17180Y-64434D01*
X-17125Y-64343D01*
X-17080Y-64232D01*
X-17045Y-64101D01*
X-17020Y-63949D01*
X-17005Y-63777D01*
X-17000Y-63584D01*
X-16000D01*
X-15995Y-63777D01*
D02*
G37*
G36*
X-39495D02*
X-39480Y-63949D01*
X-39455Y-64101D01*
X-39420Y-64232D01*
X-39375Y-64343D01*
X-39320Y-64434D01*
X-39255Y-64505D01*
X-39180Y-64556D01*
X-39095Y-64586D01*
X-39000Y-64596D01*
X-41000D01*
X-40905Y-64586D01*
X-40820Y-64556D01*
X-40745Y-64505D01*
X-40680Y-64434D01*
X-40625Y-64343D01*
X-40580Y-64232D01*
X-40545Y-64101D01*
X-40520Y-63949D01*
X-40505Y-63777D01*
X-40500Y-63584D01*
X-39500D01*
X-39495Y-63777D01*
D02*
G37*
G36*
X-48495D02*
X-48480Y-63949D01*
X-48455Y-64101D01*
X-48420Y-64232D01*
X-48375Y-64343D01*
X-48320Y-64434D01*
X-48255Y-64505D01*
X-48180Y-64556D01*
X-48095Y-64586D01*
X-48000Y-64596D01*
X-50000D01*
X-49905Y-64586D01*
X-49820Y-64556D01*
X-49745Y-64505D01*
X-49680Y-64434D01*
X-49625Y-64343D01*
X-49580Y-64232D01*
X-49545Y-64101D01*
X-49520Y-63949D01*
X-49505Y-63777D01*
X-49500Y-63584D01*
X-48500D01*
X-48495Y-63777D01*
D02*
G37*
G36*
X109243Y-61785D02*
X109168Y-61860D01*
X109102Y-61985D01*
X109045Y-62160D01*
X108996Y-62385D01*
X108956Y-62660D01*
X108903Y-63360D01*
X108897Y-63714D01*
X108997Y-65031D01*
X109046Y-65257D01*
X109104Y-65431D01*
X109170Y-65557D01*
X109246Y-65632D01*
X109330Y-65657D01*
X105136Y-65668D01*
X105373Y-65643D01*
X105586Y-65567D01*
X105773Y-65441D01*
X105936Y-65265D01*
X106073Y-65039D01*
X106186Y-64763D01*
X106273Y-64436D01*
X106336Y-64060D01*
X106373Y-63633D01*
X106386Y-63156D01*
X106391D01*
X106398Y-61760D01*
X109327D01*
X109243Y-61785D01*
D02*
G37*
G36*
X90337Y-61880D02*
X90278Y-61940D01*
X90227Y-62040D01*
X90182Y-62180D01*
X90144Y-62360D01*
X90113Y-62580D01*
X90072Y-63140D01*
X90060Y-63742D01*
X90068Y-64038D01*
X90098Y-64380D01*
X90148Y-64681D01*
X90218Y-64942D01*
X90308Y-65163D01*
X90418Y-65345D01*
X90548Y-65486D01*
X90698Y-65587D01*
X90868Y-65648D01*
X91058Y-65668D01*
X88070Y-65657D01*
X88068Y-65636D01*
X88066Y-65576D01*
X88059Y-63860D01*
X88058D01*
X88052Y-63480D01*
X88005Y-62840D01*
X87964Y-62580D01*
X87912Y-62360D01*
X87848Y-62180D01*
X87771Y-62040D01*
X87684Y-61940D01*
X87585Y-61880D01*
X87473Y-61860D01*
X90402D01*
X90337Y-61880D01*
D02*
G37*
G36*
X35061Y-64149D02*
X35150Y-64224D01*
X35240Y-64289D01*
X35330Y-64346D01*
X35421Y-64394D01*
X35513Y-64433D01*
X35606Y-64463D01*
X35699Y-64484D01*
X35793Y-64497D01*
X35888Y-64500D01*
X34700Y-65688D01*
X34697Y-65593D01*
X34684Y-65499D01*
X34663Y-65406D01*
X34633Y-65313D01*
X34594Y-65221D01*
X34546Y-65130D01*
X34489Y-65040D01*
X34424Y-64950D01*
X34349Y-64861D01*
X34266Y-64773D01*
X34973Y-64066D01*
X35061Y-64149D01*
D02*
G37*
G36*
X-110953Y-63774D02*
X-110693Y-63994D01*
X-110448Y-64173D01*
X-110217Y-64311D01*
X-110002Y-64406D01*
X-109801Y-64460D01*
X-109616Y-64473D01*
X-109446Y-64444D01*
X-109290Y-64373D01*
X-109150Y-64261D01*
X-111220Y-66332D01*
X-111236Y-66319D01*
X-111280Y-66278D01*
X-112643Y-64926D01*
X-111229Y-63512D01*
X-110953Y-63774D01*
D02*
G37*
G36*
X-95754Y-64532D02*
X-95491Y-64752D01*
X-95243Y-64930D01*
X-95008Y-65065D01*
X-94788Y-65158D01*
X-94582Y-65208D01*
X-94391Y-65216D01*
X-94213Y-65181D01*
X-94050Y-65104D01*
X-93901Y-64985D01*
X-96022Y-67089D01*
X-96038Y-67076D01*
X-96082Y-67036D01*
X-97445Y-65683D01*
X-96031Y-64269D01*
X-95754Y-64532D01*
D02*
G37*
G36*
X21203Y-65807D02*
X21216Y-65901D01*
X21237Y-65994D01*
X21267Y-66087D01*
X21306Y-66179D01*
X21354Y-66270D01*
X21411Y-66360D01*
X21476Y-66450D01*
X21551Y-66539D01*
X21634Y-66627D01*
X20927Y-67334D01*
X20839Y-67251D01*
X20750Y-67176D01*
X20660Y-67111D01*
X20570Y-67054D01*
X20479Y-67006D01*
X20387Y-66967D01*
X20294Y-66937D01*
X20201Y-66916D01*
X20107Y-66903D01*
X20012Y-66900D01*
X21200Y-65712D01*
X21203Y-65807D01*
D02*
G37*
G36*
X-11297D02*
X-11284Y-65901D01*
X-11263Y-65994D01*
X-11233Y-66087D01*
X-11194Y-66179D01*
X-11146Y-66270D01*
X-11089Y-66360D01*
X-11024Y-66450D01*
X-10949Y-66539D01*
X-10866Y-66627D01*
X-11573Y-67334D01*
X-11661Y-67251D01*
X-11750Y-67176D01*
X-11840Y-67111D01*
X-11930Y-67054D01*
X-12021Y-67006D01*
X-12113Y-66967D01*
X-12206Y-66937D01*
X-12299Y-66916D01*
X-12393Y-66903D01*
X-12488Y-66900D01*
X-11300Y-65712D01*
X-11297Y-65807D01*
D02*
G37*
G36*
X-43797D02*
X-43784Y-65901D01*
X-43763Y-65994D01*
X-43733Y-66087D01*
X-43694Y-66179D01*
X-43646Y-66270D01*
X-43589Y-66360D01*
X-43524Y-66450D01*
X-43449Y-66539D01*
X-43366Y-66627D01*
X-44073Y-67334D01*
X-44161Y-67251D01*
X-44250Y-67176D01*
X-44340Y-67111D01*
X-44430Y-67054D01*
X-44521Y-67006D01*
X-44613Y-66967D01*
X-44706Y-66937D01*
X-44799Y-66916D01*
X-44893Y-66903D01*
X-44988Y-66900D01*
X-43800Y-65712D01*
X-43797Y-65807D01*
D02*
G37*
G36*
X37073Y-65994D02*
X37072Y-66086D01*
X37083Y-66178D01*
X37104Y-66269D01*
X37135Y-66360D01*
X37177Y-66451D01*
X37229Y-66541D01*
X37292Y-66631D01*
X37365Y-66720D01*
X37448Y-66809D01*
X36616Y-67391D01*
X36529Y-67308D01*
X36353Y-67163D01*
X36264Y-67101D01*
X36175Y-67047D01*
X36085Y-67000D01*
X35995Y-66961D01*
X35905Y-66929D01*
X35814Y-66904D01*
X35723Y-66887D01*
X37083Y-65901D01*
X37073Y-65994D01*
D02*
G37*
G36*
X4572D02*
X4572Y-66086D01*
X4583Y-66178D01*
X4604Y-66269D01*
X4635Y-66360D01*
X4677Y-66451D01*
X4729Y-66541D01*
X4792Y-66631D01*
X4865Y-66720D01*
X4948Y-66809D01*
X4116Y-67391D01*
X4029Y-67308D01*
X3853Y-67163D01*
X3764Y-67101D01*
X3675Y-67047D01*
X3585Y-67000D01*
X3495Y-66961D01*
X3405Y-66929D01*
X3314Y-66904D01*
X3223Y-66887D01*
X4583Y-65901D01*
X4572Y-65994D01*
D02*
G37*
G36*
X-27928D02*
X-27928Y-66086D01*
X-27917Y-66178D01*
X-27896Y-66269D01*
X-27865Y-66360D01*
X-27823Y-66451D01*
X-27771Y-66541D01*
X-27708Y-66631D01*
X-27635Y-66720D01*
X-27552Y-66809D01*
X-28384Y-67391D01*
X-28471Y-67308D01*
X-28647Y-67163D01*
X-28736Y-67101D01*
X-28825Y-67047D01*
X-28915Y-67000D01*
X-29005Y-66961D01*
X-29095Y-66929D01*
X-29186Y-66904D01*
X-29278Y-66887D01*
X-27917Y-65901D01*
X-27928Y-65994D01*
D02*
G37*
G36*
X-60427D02*
X-60428Y-66086D01*
X-60417Y-66178D01*
X-60396Y-66269D01*
X-60365Y-66360D01*
X-60323Y-66451D01*
X-60271Y-66541D01*
X-60208Y-66631D01*
X-60135Y-66720D01*
X-60052Y-66809D01*
X-60884Y-67391D01*
X-60971Y-67308D01*
X-61147Y-67163D01*
X-61236Y-67101D01*
X-61325Y-67047D01*
X-61415Y-67000D01*
X-61505Y-66961D01*
X-61595Y-66929D01*
X-61686Y-66904D01*
X-61778Y-66887D01*
X-60417Y-65901D01*
X-60427Y-65994D01*
D02*
G37*
G36*
X55033Y-66222D02*
X55025Y-66310D01*
X55028Y-66399D01*
X55043Y-66487D01*
X55069Y-66576D01*
X55107Y-66665D01*
X55157Y-66754D01*
X55217Y-66843D01*
X55290Y-66933D01*
X55374Y-67023D01*
X54446Y-67509D01*
X54358Y-67424D01*
X54185Y-67276D01*
X54099Y-67211D01*
X53928Y-67101D01*
X53843Y-67056D01*
X53758Y-67017D01*
X53673Y-66985D01*
X53589Y-66959D01*
X55053Y-66134D01*
X55033Y-66222D01*
D02*
G37*
G36*
X-103362Y-63479D02*
X-103369Y-63571D01*
X-103342Y-63686D01*
X-103282Y-63823D01*
X-103187Y-63982D01*
X-103057Y-64164D01*
X-102894Y-64369D01*
X-102576Y-64722D01*
X-101953Y-65246D01*
X-101765Y-65369D01*
X-101597Y-65456D01*
X-101451Y-65508D01*
X-101326Y-65524D01*
X-101222Y-65505D01*
X-101138Y-65450D01*
X-103209Y-67521D01*
X-103168Y-67451D01*
X-103160Y-67359D01*
X-103187Y-67244D01*
X-103248Y-67107D01*
X-103343Y-66947D01*
X-103472Y-66765D01*
X-103636Y-66561D01*
X-103954Y-66208D01*
X-104577Y-65684D01*
X-104765Y-65561D01*
X-104932Y-65473D01*
X-105078Y-65422D01*
X-105204Y-65405D01*
X-105308Y-65425D01*
X-105391Y-65480D01*
X-103320Y-63409D01*
X-103362Y-63479D01*
D02*
G37*
G36*
X89899Y-66558D02*
X90039Y-66674D01*
X90185Y-66778D01*
X90338Y-66872D01*
X90497Y-66956D01*
X90663Y-67029D01*
X90834Y-67092D01*
X91012Y-67145D01*
X91197Y-67187D01*
X91387Y-67218D01*
X89794Y-68811D01*
X93727Y-72743D01*
X93416Y-72517D01*
X93048Y-72404D01*
X92624D01*
X92143Y-72517D01*
X91605Y-72743D01*
X91011Y-73083D01*
X90361Y-73536D01*
X89654Y-74101D01*
X88070Y-75572D01*
X85241Y-72743D01*
X86033Y-71923D01*
X87278Y-70452D01*
X87730Y-69802D01*
X88070Y-69208D01*
X88296Y-68671D01*
X88409Y-68190D01*
Y-67910D01*
X88351Y-67847D01*
X88409Y-67789D01*
Y-67765D01*
X88296Y-67398D01*
X88070Y-67087D01*
X88591Y-67607D01*
X89765Y-66433D01*
X89899Y-66558D01*
D02*
G37*
G36*
X45012Y-66694D02*
X44957Y-66772D01*
X44908Y-66854D01*
X44866Y-66943D01*
X44830Y-67036D01*
X44801Y-67136D01*
X44778Y-67240D01*
X44762Y-67351D01*
X44752Y-67466D01*
X44748Y-67587D01*
X43749Y-67632D01*
X43745Y-67510D01*
X43734Y-67395D01*
X43717Y-67286D01*
X43692Y-67182D01*
X43660Y-67085D01*
X43621Y-66994D01*
X43576Y-66909D01*
X43523Y-66830D01*
X43462Y-66757D01*
X43395Y-66690D01*
X45074Y-66622D01*
X45012Y-66694D01*
D02*
G37*
G36*
X12512D02*
X12457Y-66772D01*
X12408Y-66854D01*
X12366Y-66943D01*
X12330Y-67036D01*
X12301Y-67136D01*
X12278Y-67240D01*
X12262Y-67351D01*
X12252Y-67466D01*
X12248Y-67587D01*
X11248Y-67632D01*
X11245Y-67510D01*
X11234Y-67395D01*
X11217Y-67286D01*
X11192Y-67182D01*
X11160Y-67085D01*
X11121Y-66994D01*
X11075Y-66909D01*
X11022Y-66830D01*
X10962Y-66757D01*
X10895Y-66690D01*
X12574Y-66622D01*
X12512Y-66694D01*
D02*
G37*
G36*
X-19988D02*
X-20043Y-66772D01*
X-20092Y-66854D01*
X-20134Y-66943D01*
X-20170Y-67036D01*
X-20199Y-67136D01*
X-20222Y-67240D01*
X-20238Y-67351D01*
X-20248Y-67466D01*
X-20252Y-67587D01*
X-21251Y-67632D01*
X-21255Y-67510D01*
X-21266Y-67395D01*
X-21283Y-67286D01*
X-21308Y-67182D01*
X-21340Y-67085D01*
X-21379Y-66994D01*
X-21425Y-66909D01*
X-21477Y-66830D01*
X-21538Y-66757D01*
X-21605Y-66690D01*
X-19926Y-66622D01*
X-19988Y-66694D01*
D02*
G37*
G36*
X-52488D02*
X-52543Y-66772D01*
X-52592Y-66854D01*
X-52634Y-66943D01*
X-52670Y-67036D01*
X-52699Y-67136D01*
X-52722Y-67240D01*
X-52738Y-67351D01*
X-52748Y-67466D01*
X-52751Y-67587D01*
X-53751Y-67632D01*
X-53755Y-67510D01*
X-53766Y-67395D01*
X-53783Y-67286D01*
X-53808Y-67182D01*
X-53840Y-67085D01*
X-53879Y-66994D01*
X-53925Y-66909D01*
X-53978Y-66830D01*
X-54037Y-66757D01*
X-54105Y-66690D01*
X-52426Y-66622D01*
X-52488Y-66694D01*
D02*
G37*
G36*
X67343Y-68782D02*
X67260Y-68870D01*
X67185Y-68959D01*
X67120Y-69049D01*
X67063Y-69139D01*
X67015Y-69230D01*
X66976Y-69322D01*
X66946Y-69415D01*
X66925Y-69508D01*
X66913Y-69602D01*
X66909Y-69697D01*
X65721Y-68509D01*
X65816Y-68506D01*
X65910Y-68493D01*
X66004Y-68472D01*
X66096Y-68442D01*
X66188Y-68403D01*
X66279Y-68355D01*
X66369Y-68299D01*
X66459Y-68233D01*
X66548Y-68159D01*
X66636Y-68075D01*
X67343Y-68782D01*
D02*
G37*
G36*
X47441Y-70100D02*
X47431Y-70005D01*
X47401Y-69920D01*
X47350Y-69845D01*
X47279Y-69780D01*
X47188Y-69725D01*
X47077Y-69680D01*
X46945Y-69645D01*
X46794Y-69620D01*
X46622Y-69605D01*
X46429Y-69600D01*
Y-68600D01*
X46622Y-68595D01*
X46794Y-68580D01*
X46945Y-68555D01*
X47077Y-68520D01*
X47188Y-68475D01*
X47279Y-68420D01*
X47350Y-68355D01*
X47401Y-68280D01*
X47431Y-68195D01*
X47441Y-68100D01*
Y-70100D01*
D02*
G37*
G36*
X14941D02*
X14931Y-70005D01*
X14901Y-69920D01*
X14850Y-69845D01*
X14779Y-69780D01*
X14688Y-69725D01*
X14577Y-69680D01*
X14445Y-69645D01*
X14294Y-69620D01*
X14122Y-69605D01*
X13929Y-69600D01*
Y-68600D01*
X14122Y-68595D01*
X14294Y-68580D01*
X14445Y-68555D01*
X14577Y-68520D01*
X14688Y-68475D01*
X14779Y-68420D01*
X14850Y-68355D01*
X14901Y-68280D01*
X14931Y-68195D01*
X14941Y-68100D01*
Y-70100D01*
D02*
G37*
G36*
X-17559D02*
X-17569Y-70005D01*
X-17599Y-69920D01*
X-17650Y-69845D01*
X-17721Y-69780D01*
X-17812Y-69725D01*
X-17923Y-69680D01*
X-18055Y-69645D01*
X-18206Y-69620D01*
X-18378Y-69605D01*
X-18571Y-69600D01*
Y-68600D01*
X-18378Y-68595D01*
X-18206Y-68580D01*
X-18055Y-68555D01*
X-17923Y-68520D01*
X-17812Y-68475D01*
X-17721Y-68420D01*
X-17650Y-68355D01*
X-17599Y-68280D01*
X-17569Y-68195D01*
X-17559Y-68100D01*
Y-70100D01*
D02*
G37*
G36*
X-50059D02*
X-50069Y-70005D01*
X-50099Y-69920D01*
X-50150Y-69845D01*
X-50221Y-69780D01*
X-50312Y-69725D01*
X-50423Y-69680D01*
X-50555Y-69645D01*
X-50706Y-69620D01*
X-50878Y-69605D01*
X-51071Y-69600D01*
Y-68600D01*
X-50878Y-68595D01*
X-50706Y-68580D01*
X-50555Y-68555D01*
X-50423Y-68520D01*
X-50312Y-68475D01*
X-50221Y-68420D01*
X-50150Y-68355D01*
X-50099Y-68280D01*
X-50069Y-68195D01*
X-50059Y-68100D01*
Y-70100D01*
D02*
G37*
G36*
X49508Y-68837D02*
X49484Y-68932D01*
X49488Y-69040D01*
X49519Y-69161D01*
X49577Y-69296D01*
X49662Y-69444D01*
X49775Y-69606D01*
X49916Y-69781D01*
X50278Y-70171D01*
X49669Y-70976D01*
X49459Y-70773D01*
X49084Y-70453D01*
X48919Y-70337D01*
X48770Y-70251D01*
X48636Y-70194D01*
X48518Y-70166D01*
X48415Y-70167D01*
X48327Y-70197D01*
X48255Y-70257D01*
X49559Y-68756D01*
X49508Y-68837D01*
D02*
G37*
G36*
X-98698Y-68015D02*
X-98712Y-68113D01*
X-98690Y-68233D01*
X-98634Y-68375D01*
X-98543Y-68538D01*
X-98417Y-68723D01*
X-98256Y-68930D01*
X-97830Y-69409D01*
X-97564Y-69681D01*
X-98978Y-71095D01*
X-99250Y-70830D01*
X-99936Y-70243D01*
X-100121Y-70117D01*
X-100285Y-70025D01*
X-100426Y-69969D01*
X-100546Y-69948D01*
X-100644Y-69961D01*
X-100721Y-70009D01*
X-98650Y-67939D01*
X-98698Y-68015D01*
D02*
G37*
G36*
X-104061Y-73350D02*
X-104183Y-73257D01*
X-104321Y-73204D01*
X-104475Y-73191D01*
X-104648Y-73217D01*
X-104837Y-73282D01*
X-105043Y-73387D01*
X-105266Y-73532D01*
X-105506Y-73716D01*
X-105554Y-73757D01*
X-105823Y-74079D01*
X-105971Y-74299D01*
X-106080Y-74501D01*
X-106151Y-74684D01*
X-106184Y-74850D01*
X-106178Y-74998D01*
X-106133Y-75127D01*
X-106050Y-75239D01*
X-108538Y-72750D01*
X-108417Y-72843D01*
X-108280Y-72896D01*
X-108124Y-72909D01*
X-107952Y-72883D01*
X-107763Y-72818D01*
X-107557Y-72713D01*
X-107334Y-72569D01*
X-107094Y-72385D01*
X-107046Y-72343D01*
X-106777Y-72021D01*
X-106629Y-71801D01*
X-106519Y-71599D01*
X-106449Y-71416D01*
X-106416Y-71250D01*
X-106422Y-71102D01*
X-106467Y-70973D01*
X-106550Y-70862D01*
X-104061Y-73350D01*
D02*
G37*
G36*
X-97177Y-70063D02*
X-96498Y-70657D01*
X-96317Y-70788D01*
X-96159Y-70884D01*
X-96024Y-70947D01*
X-95911Y-70975D01*
X-95821Y-70970D01*
X-95754Y-70931D01*
X-98147Y-73341D01*
X-98027Y-73192D01*
X-97950Y-73029D01*
X-97915Y-72851D01*
X-97923Y-72660D01*
X-97973Y-72454D01*
X-98066Y-72234D01*
X-98201Y-71999D01*
X-98379Y-71751D01*
X-98599Y-71488D01*
X-98862Y-71211D01*
X-97448Y-69797D01*
X-97177Y-70063D01*
D02*
G37*
G36*
X109189Y-69402D02*
X109118Y-69632D01*
Y-69897D01*
X109189Y-70198D01*
X109330Y-70534D01*
X109542Y-70905D01*
X109825Y-71312D01*
X110179Y-71754D01*
X111098Y-72743D01*
X109330Y-74511D01*
X108818Y-74016D01*
X107898Y-73238D01*
X107492Y-72956D01*
X107120Y-72743D01*
X106784Y-72602D01*
X106484Y-72531D01*
X106219D01*
X105989Y-72602D01*
X105795Y-72743D01*
X109330Y-69208D01*
X109189Y-69402D01*
D02*
G37*
G36*
X-110009Y-71930D02*
X-109323Y-72517D01*
X-109138Y-72643D01*
X-108975Y-72734D01*
X-108833Y-72790D01*
X-108713Y-72812D01*
X-108615Y-72798D01*
X-108538Y-72750D01*
X-110609Y-74821D01*
X-110561Y-74744D01*
X-110548Y-74646D01*
X-110569Y-74526D01*
X-110626Y-74384D01*
X-110717Y-74221D01*
X-110843Y-74036D01*
X-111003Y-73829D01*
X-111430Y-73350D01*
X-111695Y-73078D01*
X-110281Y-71664D01*
X-110009Y-71930D01*
D02*
G37*
G36*
X-79026Y-72263D02*
X-78926Y-73463D01*
X-78838Y-73951D01*
X-78726Y-74363D01*
X-78588Y-74701D01*
X-78426Y-74963D01*
X-78238Y-75151D01*
X-78026Y-75263D01*
X-77788Y-75301D01*
X-82788D01*
X-82551Y-75263D01*
X-82338Y-75151D01*
X-82151Y-74963D01*
X-81988Y-74701D01*
X-81851Y-74363D01*
X-81738Y-73951D01*
X-81651Y-73463D01*
X-81588Y-72901D01*
X-81538Y-71551D01*
X-79038D01*
X-79026Y-72263D01*
D02*
G37*
G36*
X-85323Y-77826D02*
X-85299Y-77812D01*
X-83082Y-80012D01*
X-83268Y-79863D01*
X-83472Y-79766D01*
X-83694Y-79723D01*
X-83934Y-79733D01*
X-84191Y-79795D01*
X-84465Y-79911D01*
X-84758Y-80080D01*
X-84918Y-80195D01*
X-85056Y-80356D01*
X-85211Y-80589D01*
X-85323Y-80796D01*
X-85391Y-80975D01*
X-85415Y-81128D01*
X-85395Y-81254D01*
X-85331Y-81353D01*
X-87959Y-78726D01*
X-87859Y-78790D01*
X-87733Y-78810D01*
X-87580Y-78786D01*
X-87401Y-78718D01*
X-87194Y-78606D01*
X-86961Y-78451D01*
X-86701Y-78251D01*
X-86101Y-77720D01*
X-85761Y-77388D01*
X-85323Y-77826D01*
D02*
G37*
G36*
X117571Y-77398D02*
X117276Y-79901D01*
X117256Y-79889D01*
X117216Y-79879D01*
X117155Y-79870D01*
X117073Y-79862D01*
X116704Y-79845D01*
X116150Y-79839D01*
X116568Y-77340D01*
X117571Y-77398D01*
D02*
G37*
G36*
X-17760Y-81413D02*
X-17780Y-81396D01*
X-17840Y-81381D01*
X-17940Y-81367D01*
X-18260Y-81345D01*
X-19760Y-81323D01*
Y-79323D01*
X-19380Y-79318D01*
X-18480Y-79252D01*
X-18260Y-79212D01*
X-18080Y-79163D01*
X-17940Y-79105D01*
X-17840Y-79038D01*
X-17780Y-78963D01*
X-17760Y-78878D01*
Y-81413D01*
D02*
G37*
G36*
X-34767Y-78041D02*
X-34032Y-78663D01*
X-33707Y-78889D01*
X-33410Y-79059D01*
X-33141Y-79172D01*
X-32901Y-79229D01*
X-32688D01*
X-32505Y-79172D01*
X-32349Y-79059D01*
X-35177Y-81887D01*
X-35064Y-81732D01*
X-35008Y-81548D01*
Y-81336D01*
X-35064Y-81095D01*
X-35177Y-80827D01*
X-35347Y-80530D01*
X-35573Y-80204D01*
X-35856Y-79851D01*
X-36592Y-79059D01*
X-35177Y-77645D01*
X-34767Y-78041D01*
D02*
G37*
G36*
X-23303Y-79001D02*
X-23243Y-79068D01*
X-23143Y-79128D01*
X-23003Y-79180D01*
X-22823Y-79224D01*
X-22603Y-79259D01*
X-22343Y-79287D01*
X-21703Y-79319D01*
X-21323Y-79323D01*
Y-81323D01*
X-21703Y-81330D01*
X-22343Y-81391D01*
X-22603Y-81443D01*
X-22823Y-81511D01*
X-23003Y-81594D01*
X-23143Y-81691D01*
X-23243Y-81804D01*
X-23303Y-81932D01*
X-23323Y-82075D01*
Y-78925D01*
X-23303Y-79001D01*
D02*
G37*
G36*
X-26677Y-82075D02*
X-26697Y-81966D01*
X-26757Y-81868D01*
X-26857Y-81782D01*
X-26997Y-81707D01*
X-27177Y-81644D01*
X-27397Y-81592D01*
X-27657Y-81552D01*
X-27957Y-81523D01*
X-28677Y-81500D01*
Y-79500D01*
X-28297Y-79494D01*
X-27657Y-79448D01*
X-27397Y-79408D01*
X-27177Y-79356D01*
X-26997Y-79293D01*
X-26857Y-79218D01*
X-26757Y-79132D01*
X-26697Y-79035D01*
X-26677Y-78925D01*
Y-82075D01*
D02*
G37*
G36*
X-120679Y-82600D02*
X-119994Y-83187D01*
X-119809Y-83313D01*
X-119645Y-83404D01*
X-119503Y-83460D01*
X-119384Y-83482D01*
X-119285Y-83469D01*
X-119209Y-83420D01*
X-121280Y-85491D01*
X-121231Y-85415D01*
X-121218Y-85316D01*
X-121239Y-85197D01*
X-121296Y-85055D01*
X-121387Y-84891D01*
X-121513Y-84706D01*
X-121674Y-84499D01*
X-122100Y-84021D01*
X-122366Y-83749D01*
X-120951Y-82334D01*
X-120679Y-82600D01*
D02*
G37*
G36*
X-90047Y-86069D02*
X-90134Y-86017D01*
X-90250Y-86007D01*
X-90394Y-86040D01*
X-90565Y-86116D01*
X-90765Y-86235D01*
X-90992Y-86396D01*
X-91248Y-86600D01*
X-91381Y-86720D01*
X-92103Y-87542D01*
X-92199Y-87694D01*
X-92256Y-87814D01*
X-92273Y-87903D01*
X-92250Y-87962D01*
X-94321Y-85891D01*
X-94286Y-85890D01*
X-94218Y-85852D01*
X-94116Y-85777D01*
X-93980Y-85665D01*
X-93506Y-85229D01*
X-93093Y-84755D01*
X-92898Y-84491D01*
X-92748Y-84252D01*
X-92643Y-84039D01*
X-92583Y-83851D01*
X-92568Y-83689D01*
X-92598Y-83552D01*
X-92674Y-83441D01*
X-90047Y-86069D01*
D02*
G37*
G36*
X-26677Y-86808D02*
X-26697Y-86711D01*
X-26757Y-86625D01*
X-26857Y-86549D01*
X-26997Y-86483D01*
X-27177Y-86427D01*
X-27397Y-86381D01*
X-27657Y-86345D01*
X-28297Y-86305D01*
X-28677Y-86300D01*
Y-84300D01*
X-28297Y-84293D01*
X-27657Y-84242D01*
X-27397Y-84197D01*
X-27177Y-84139D01*
X-26997Y-84069D01*
X-26857Y-83985D01*
X-26757Y-83889D01*
X-26697Y-83780D01*
X-26677Y-83658D01*
Y-86808D01*
D02*
G37*
G36*
X-31803Y-83888D02*
X-31743Y-83975D01*
X-31643Y-84051D01*
X-31503Y-84117D01*
X-31323Y-84173D01*
X-31103Y-84218D01*
X-30843Y-84254D01*
X-30203Y-84295D01*
X-29823Y-84300D01*
Y-86300D01*
X-30203Y-86306D01*
X-30843Y-86357D01*
X-31103Y-86402D01*
X-31323Y-86460D01*
X-31503Y-86531D01*
X-31643Y-86614D01*
X-31743Y-86710D01*
X-31803Y-86819D01*
X-31823Y-86941D01*
Y-83792D01*
X-31803Y-83888D01*
D02*
G37*
G36*
X-35177Y-86941D02*
X-35192Y-86944D01*
X-35237Y-86945D01*
X-36674Y-86953D01*
Y-84953D01*
X-36389Y-84948D01*
X-35911Y-84908D01*
X-35716Y-84874D01*
X-35552Y-84829D01*
X-35417Y-84775D01*
X-35312Y-84710D01*
X-35237Y-84636D01*
X-35192Y-84551D01*
X-35177Y-84457D01*
Y-86941D01*
D02*
G37*
G36*
X-119192Y-87562D02*
X-119304Y-87473D01*
X-119426Y-87415D01*
X-119559Y-87389D01*
X-119703Y-87395D01*
X-119858Y-87433D01*
X-120023Y-87503D01*
X-120199Y-87604D01*
X-120386Y-87738D01*
X-120583Y-87904D01*
X-120791Y-88101D01*
X-121852Y-87041D01*
X-121655Y-86834D01*
X-121490Y-86639D01*
X-121355Y-86456D01*
X-121251Y-86283D01*
X-121178Y-86123D01*
X-121137Y-85974D01*
X-121126Y-85836D01*
X-121146Y-85710D01*
X-121197Y-85595D01*
X-121280Y-85491D01*
X-119192Y-87562D01*
D02*
G37*
G36*
X-40249Y-84518D02*
X-40114Y-84619D01*
X-39966Y-84708D01*
X-39806Y-84786D01*
X-39633Y-84851D01*
X-39448Y-84905D01*
X-39251Y-84946D01*
X-39041Y-84976D01*
X-38818Y-84994D01*
X-38584Y-85000D01*
Y-87000D01*
X-38818Y-87006D01*
X-39041Y-87024D01*
X-39251Y-87054D01*
X-39448Y-87095D01*
X-39633Y-87149D01*
X-39806Y-87214D01*
X-39966Y-87292D01*
X-40114Y-87381D01*
X-40249Y-87483D01*
X-40372Y-87596D01*
Y-84404D01*
X-40249Y-84518D01*
D02*
G37*
G36*
X-124280Y-88860D02*
X-124416Y-88861D01*
X-124820Y-88892D01*
X-124886Y-88906D01*
X-124938Y-88923D01*
X-124976Y-88942D01*
X-125000Y-88964D01*
X-125011Y-88988D01*
X-125911Y-87663D01*
X-124519Y-87360D01*
X-124280Y-88860D01*
D02*
G37*
G36*
X-125492Y-89796D02*
X-125516Y-89822D01*
X-125539Y-89859D01*
X-125558Y-89909D01*
X-125575Y-89971D01*
X-125590Y-90045D01*
X-125601Y-90131D01*
X-125617Y-90341D01*
X-125622Y-90600D01*
X-127122Y-90316D01*
X-127154Y-89555D01*
X-125492Y-89796D01*
D02*
G37*
G36*
X-84498Y-89915D02*
X-84512Y-90013D01*
X-84490Y-90133D01*
X-84434Y-90275D01*
X-84343Y-90438D01*
X-84217Y-90623D01*
X-84056Y-90830D01*
X-83630Y-91309D01*
X-83364Y-91581D01*
X-84778Y-92995D01*
X-85050Y-92730D01*
X-85736Y-92143D01*
X-85921Y-92017D01*
X-86085Y-91926D01*
X-86226Y-91869D01*
X-86346Y-91848D01*
X-86444Y-91861D01*
X-86521Y-91909D01*
X-84450Y-89838D01*
X-84498Y-89915D01*
D02*
G37*
G36*
X-77767Y-92679D02*
X-77736Y-93173D01*
X-77724Y-93234D01*
X-77711Y-93283D01*
X-77696Y-93319D01*
X-77678Y-93343D01*
X-79358D01*
X-79341Y-93319D01*
X-79326Y-93283D01*
X-79312Y-93234D01*
X-79301Y-93173D01*
X-79291Y-93099D01*
X-79277Y-92914D01*
X-79268Y-92543D01*
X-77768D01*
X-77767Y-92679D01*
D02*
G37*
G36*
X-90350Y-94762D02*
X-90380Y-94572D01*
X-90470Y-94402D01*
X-90620Y-94252D01*
X-90830Y-94121D01*
X-91100Y-94011D01*
X-91430Y-93922D01*
X-91820Y-93852D01*
X-92270Y-93801D01*
X-93350Y-93761D01*
Y-91761D01*
X-92780Y-91751D01*
X-91820Y-91672D01*
X-91430Y-91602D01*
X-91100Y-91511D01*
X-90830Y-91401D01*
X-90620Y-91272D01*
X-90470Y-91122D01*
X-90380Y-90952D01*
X-90350Y-90762D01*
Y-94762D01*
D02*
G37*
G36*
X-87822Y-93239D02*
X-87821Y-93322D01*
X-87786Y-93429D01*
X-87719Y-93560D01*
X-87618Y-93713D01*
X-87484Y-93891D01*
X-87117Y-94316D01*
X-86617Y-94835D01*
X-88032Y-96249D01*
X-88305Y-95984D01*
X-88790Y-95565D01*
X-89003Y-95410D01*
X-89196Y-95292D01*
X-89369Y-95210D01*
X-89522Y-95165D01*
X-89655Y-95157D01*
X-89768Y-95185D01*
X-89862Y-95250D01*
X-87791Y-93179D01*
X-87822Y-93239D01*
D02*
G37*
G36*
X-129366Y-98188D02*
X-129301Y-98254D01*
X-129230Y-98311D01*
X-129151Y-98361D01*
X-129065Y-98404D01*
X-128971Y-98438D01*
X-128870Y-98465D01*
X-128763Y-98485D01*
X-128648Y-98496D01*
X-128526Y-98500D01*
X-128710Y-99500D01*
X-128831Y-99503D01*
X-129058Y-99524D01*
X-129164Y-99544D01*
X-129266Y-99568D01*
X-129362Y-99598D01*
X-129454Y-99633D01*
X-129541Y-99674D01*
X-129623Y-99721D01*
X-129700Y-99772D01*
X-129423Y-98115D01*
X-129366Y-98188D01*
D02*
G37*
G36*
X-131856Y-100690D02*
X-131792Y-100756D01*
X-131721Y-100814D01*
X-131642Y-100864D01*
X-131556Y-100906D01*
X-131463Y-100941D01*
X-131362Y-100968D01*
X-131254Y-100987D01*
X-131140Y-100999D01*
X-131017Y-101003D01*
X-131207Y-102003D01*
X-131328Y-102006D01*
X-131555Y-102027D01*
X-131661Y-102046D01*
X-131763Y-102070D01*
X-131860Y-102100D01*
X-131951Y-102135D01*
X-132038Y-102175D01*
X-132120Y-102221D01*
X-132197Y-102273D01*
X-131913Y-100617D01*
X-131856Y-100690D01*
D02*
G37*
G36*
X-101439Y-101949D02*
X-101350Y-102024D01*
X-101260Y-102089D01*
X-101170Y-102146D01*
X-101079Y-102194D01*
X-100987Y-102233D01*
X-100894Y-102263D01*
X-100801Y-102284D01*
X-100707Y-102297D01*
X-100612Y-102300D01*
X-101800Y-103488D01*
X-101803Y-103393D01*
X-101816Y-103299D01*
X-101837Y-103206D01*
X-101867Y-103113D01*
X-101906Y-103021D01*
X-101954Y-102930D01*
X-102011Y-102840D01*
X-102076Y-102750D01*
X-102151Y-102661D01*
X-102234Y-102573D01*
X-101527Y-101866D01*
X-101439Y-101949D01*
D02*
G37*
G36*
X-125085Y-103027D02*
X-124996Y-103101D01*
X-124906Y-103167D01*
X-124816Y-103224D01*
X-124725Y-103272D01*
X-124633Y-103311D01*
X-124540Y-103341D01*
X-124447Y-103362D01*
X-124353Y-103374D01*
X-124258Y-103378D01*
X-125446Y-104566D01*
X-125450Y-104471D01*
X-125462Y-104377D01*
X-125483Y-104283D01*
X-125513Y-104191D01*
X-125552Y-104099D01*
X-125600Y-104008D01*
X-125657Y-103917D01*
X-125722Y-103828D01*
X-125797Y-103739D01*
X-125880Y-103651D01*
X-125173Y-102944D01*
X-125085Y-103027D01*
D02*
G37*
G36*
X-134358Y-103188D02*
X-134293Y-103253D01*
X-134222Y-103311D01*
X-134143Y-103361D01*
X-134057Y-103404D01*
X-133963Y-103438D01*
X-133863Y-103465D01*
X-133755Y-103485D01*
X-133640Y-103496D01*
X-133518Y-103500D01*
X-133705Y-104500D01*
X-133826Y-104503D01*
X-134053Y-104524D01*
X-134160Y-104543D01*
X-134261Y-104568D01*
X-134357Y-104598D01*
X-134449Y-104633D01*
X-134536Y-104674D01*
X-134618Y-104720D01*
X-134695Y-104771D01*
X-134415Y-103115D01*
X-134358Y-103188D01*
D02*
G37*
G36*
X-66860Y-108113D02*
X-66880Y-107938D01*
X-66940Y-107782D01*
X-67040Y-107644D01*
X-67180Y-107525D01*
X-67360Y-107423D01*
X-67580Y-107341D01*
X-67840Y-107276D01*
X-68140Y-107230D01*
X-68480Y-107203D01*
X-68798Y-107195D01*
X-69122Y-107203D01*
X-69463Y-107234D01*
X-69765Y-107283D01*
X-70026Y-107353D01*
X-70247Y-107443D01*
X-70429Y-107554D01*
X-70570Y-107684D01*
X-70670Y-107834D01*
X-70731Y-108003D01*
X-70752Y-108194D01*
X-70740Y-104274D01*
X-70720Y-104449D01*
X-70660Y-104605D01*
X-70560Y-104743D01*
X-70420Y-104863D01*
X-70240Y-104964D01*
X-70020Y-105046D01*
X-69760Y-105111D01*
X-69460Y-105157D01*
X-69120Y-105184D01*
X-68802Y-105192D01*
X-68480Y-105183D01*
X-68140Y-105154D01*
X-67840Y-105104D01*
X-67580Y-105034D01*
X-67360Y-104944D01*
X-67180Y-104833D01*
X-67040Y-104703D01*
X-66940Y-104553D01*
X-66880Y-104384D01*
X-66860Y-104193D01*
Y-108113D01*
D02*
G37*
G36*
X-121046Y-105563D02*
X-121044Y-105684D01*
X-121024Y-105911D01*
X-121007Y-106018D01*
X-120986Y-106120D01*
X-120959Y-106217D01*
X-120927Y-106309D01*
X-120891Y-106397D01*
X-120850Y-106479D01*
X-120804Y-106557D01*
X-122441Y-106182D01*
X-122366Y-106130D01*
X-122299Y-106070D01*
X-122240Y-106002D01*
X-122188Y-105926D01*
X-122145Y-105842D01*
X-122109Y-105751D01*
X-122082Y-105652D01*
X-122062Y-105545D01*
X-122050Y-105430D01*
X-122046Y-105308D01*
X-121046Y-105563D01*
D02*
G37*
G36*
X-75850Y-103256D02*
X-75115Y-103878D01*
X-74789Y-104104D01*
X-74492Y-104274D01*
X-74224Y-104387D01*
X-73983Y-104444D01*
X-73771D01*
X-73587Y-104387D01*
X-73432Y-104274D01*
X-76260Y-107103D01*
X-76147Y-106947D01*
X-76090Y-106763D01*
Y-106551D01*
X-76147Y-106311D01*
X-76260Y-106042D01*
Y-108177D01*
X-76275Y-108034D01*
X-76320Y-107906D01*
X-76395Y-107794D01*
X-76500Y-107696D01*
X-76635Y-107614D01*
X-76800Y-107546D01*
X-76995Y-107494D01*
X-77220Y-107457D01*
X-77475Y-107434D01*
X-77760Y-107427D01*
Y-105927D01*
X-77475Y-105919D01*
X-77220Y-105896D01*
X-76995Y-105859D01*
X-76800Y-105807D01*
X-76635Y-105739D01*
X-76500Y-105657D01*
X-76495Y-105652D01*
X-76656Y-105420D01*
X-76939Y-105066D01*
X-77674Y-104274D01*
X-76260Y-102860D01*
X-75850Y-103256D01*
D02*
G37*
G36*
X-118611Y-107696D02*
X-118600Y-107812D01*
X-118583Y-107922D01*
X-118560Y-108026D01*
X-118529Y-108124D01*
X-118492Y-108216D01*
X-118447Y-108303D01*
X-118396Y-108384D01*
X-118339Y-108459D01*
X-118274Y-108529D01*
X-119954D01*
X-119889Y-108459D01*
X-119832Y-108384D01*
X-119781Y-108303D01*
X-119736Y-108216D01*
X-119699Y-108124D01*
X-119668Y-108026D01*
X-119645Y-107922D01*
X-119628Y-107812D01*
X-119617Y-107696D01*
X-119614Y-107575D01*
X-118614D01*
X-118611Y-107696D01*
D02*
G37*
G36*
X-117333Y-112815D02*
X-117411Y-112772D01*
X-117494Y-112733D01*
X-117581Y-112698D01*
X-117674Y-112669D01*
X-117771Y-112643D01*
X-117873Y-112623D01*
X-118091Y-112595D01*
X-118207Y-112588D01*
X-118328Y-112586D01*
X-118612Y-111586D01*
X-118490Y-111582D01*
X-118375Y-111570D01*
X-118269Y-111550D01*
X-118170Y-111522D01*
X-118079Y-111486D01*
X-117997Y-111442D01*
X-117923Y-111391D01*
X-117856Y-111331D01*
X-117798Y-111263D01*
X-117747Y-111187D01*
X-117333Y-112815D01*
D02*
G37*
D12*
X-66400Y-93100D02*
X-66372Y-93128D01*
X-66400Y-93100D02*
X-66300Y-93000D01*
X-66372Y-97175D02*
Y-93128D01*
X-71228Y-97275D02*
Y-93128D01*
X-71200Y-93100D01*
Y-42489D01*
X-66300Y-93000D02*
Y-40500D01*
X-66372Y-97175D02*
X-64891Y-98656D01*
X-64100D01*
X-59204Y-68364D02*
X-58083D01*
X-61600Y-65968D02*
X-59204Y-68364D01*
X-57500Y-69029D02*
Y-68946D01*
X-58083Y-68364D02*
X-57500Y-68946D01*
X-61600Y-65968D02*
Y-65700D01*
X-101197Y-12492D02*
X-71200Y-42489D01*
X-95100Y-11700D02*
X-66300Y-40500D01*
X-95100Y-11700D02*
Y8821D01*
X-112063Y-92037D02*
X-100600Y-103500D01*
X-112063Y-92037D02*
Y-81904D01*
X122898Y-47977D02*
X124998D01*
X122800Y-48075D02*
X122898Y-47977D01*
X124998D02*
X125096Y-47879D01*
X-135200Y-104000D02*
X-129400D01*
X-121314Y-112086D02*
X-117385D01*
X-129400Y-104000D02*
X-121314Y-112086D01*
X-126291Y-96509D02*
X-119114Y-103686D01*
X-121546Y-106937D02*
Y-103459D01*
X-119114Y-109386D02*
Y-103686D01*
X-121814Y-107205D02*
X-121546Y-106937D01*
X-117385Y-112086D02*
X-117089Y-111790D01*
X-135400Y-103800D02*
X-135200Y-104000D01*
X-117089Y-111790D02*
X-116710D01*
X-132900Y-101300D02*
X-132697Y-101503D01*
X-127321D01*
X-124246Y-104578D01*
X-126005Y-99000D02*
X-121546Y-103459D01*
X-130210Y-99000D02*
X-126005D01*
X-130407Y-98803D02*
X-130210Y-99000D01*
X-127900Y-96300D02*
X-127691Y-96509D01*
X-126291D01*
X-82863Y-18281D02*
X-80344Y-20800D01*
X-77400D01*
X-74700Y-14473D02*
X-64064Y-3836D01*
X-74700Y-23100D02*
Y-14473D01*
X-79295Y-16995D02*
Y-15895D01*
X-64654Y-1254D02*
X-48082D01*
X-79563Y-17263D02*
X-79295Y-16995D01*
Y-15895D02*
X-64654Y-1254D01*
X-64064Y-3836D02*
X-62016D01*
X61891Y71328D02*
X66800Y66418D01*
X68450Y7882D02*
Y66890D01*
X62512Y72828D02*
X68450Y66890D01*
X66800Y5732D02*
Y66418D01*
X58379Y71328D02*
X61891D01*
X61704Y68181D02*
X64000Y65885D01*
X63134Y74328D02*
X70300Y67161D01*
X45379Y74328D02*
X63134D01*
X51879Y72828D02*
X62512D01*
X70300Y10229D02*
Y67161D01*
X-76500Y21900D02*
X-67952D01*
X60583Y68181D02*
X61704D01*
X60000Y68764D02*
X60583Y68181D01*
X60000Y68764D02*
Y68846D01*
X48000Y68949D02*
X51879Y72828D01*
X56000Y68949D02*
X58379Y71328D01*
X40000Y68949D02*
X45379Y74328D01*
X-120803Y-67546D02*
X-119563Y-66306D01*
X-120803Y-73164D02*
X-112063Y-81904D01*
X-120803Y-73164D02*
Y-67546D01*
X-119563Y-66306D02*
Y-65927D01*
X-95100Y8821D02*
X-94960Y8961D01*
X-130864Y47264D02*
X-119119Y35519D01*
X-114475D01*
X-99014Y51162D02*
X-95600Y47748D01*
Y47600D02*
Y47748D01*
X-103700Y51162D02*
X-99014D01*
X-103800Y57771D02*
X-103786Y57786D01*
X-97014D01*
X-97000Y57800D01*
X71150Y9000D02*
Y9379D01*
X68450Y7882D02*
X71132Y5200D01*
Y1400D02*
X71150D01*
X66800Y5732D02*
X71132Y1400D01*
X70300Y10229D02*
X71150Y9379D01*
X71132Y5200D02*
X71150D01*
X65000Y3336D02*
X70936Y-2600D01*
X71100D01*
X64000Y65400D02*
Y65885D01*
Y65114D02*
X65000Y64114D01*
Y3336D02*
Y64114D01*
X64000Y65114D02*
Y65400D01*
X58083Y2819D02*
X60663D01*
X68200Y-67218D02*
Y-4718D01*
X60663Y2819D02*
X68200Y-4718D01*
X101853Y-22189D02*
X101956D01*
X105666Y-25900D01*
X100767Y-21103D02*
Y-21000D01*
Y-21103D02*
X101853Y-22189D01*
X105666Y-25900D02*
X109800D01*
X-112300Y45979D02*
X-109245D01*
X-105038Y50186D01*
X-106591Y57771D02*
X-103800D01*
X-111808Y62988D02*
X-106591Y57771D01*
X-112300Y62988D02*
X-111808D01*
X-105038Y50186D02*
X-104676D01*
X-103700Y51162D01*
X-120312Y51688D02*
X-112300D01*
X-120900Y51100D02*
X-120312Y51688D01*
X-132700Y52185D02*
X-121985D01*
X-120900Y51100D01*
Y57767D02*
X-120412Y57279D01*
X-112300D01*
X-132700Y57106D02*
X-121561D01*
X-120900Y57767D01*
X-132700Y47264D02*
X-130864D01*
X-132700Y7894D02*
X-124327D01*
X-124100Y7666D01*
X-124139Y2972D02*
X-124100Y2933D01*
X-132700Y2972D02*
X-124139D01*
X-112071Y-21271D02*
Y-18030D01*
X-112100Y-18000D02*
X-112071Y-18030D01*
Y-21271D02*
X-112041Y-21300D01*
X-72709Y-98756D02*
X-71228Y-97275D01*
X-73500Y-98756D02*
X-72709D01*
X-132700Y2972D02*
X-132661Y2933D01*
X102568Y868D02*
X103800Y2100D01*
X102300Y-900D02*
X102568Y-632D01*
Y868D01*
X3400Y-65968D02*
Y-65700D01*
X20000D02*
X22735Y-68435D01*
X-29100Y-65968D02*
Y-65700D01*
Y-65968D02*
X-26704Y-68364D01*
X3400Y-65968D02*
X5796Y-68364D01*
X7500Y-69029D02*
Y-68946D01*
X5796Y-68364D02*
X6917D01*
X7500Y-68946D01*
X32200Y-62000D02*
X35900Y-65700D01*
X60118Y700D02*
X66700Y-5882D01*
X61704Y-4419D02*
X63900Y-6615D01*
X66700Y-64900D02*
Y-5882D01*
X63900Y-6900D02*
Y-6615D01*
X51202Y700D02*
X60118D01*
X60019Y-71581D02*
X66700Y-64900D01*
X60583Y-4419D02*
X61704D01*
X60000Y-3836D02*
Y-3754D01*
Y-3836D02*
X60583Y-4419D01*
X40000Y65500D02*
Y68949D01*
X48000Y65885D02*
Y68949D01*
Y65400D02*
Y65885D01*
X56000D02*
Y68949D01*
Y65400D02*
Y65885D01*
X65709Y-69709D02*
X68200Y-67218D01*
X-45583Y-3754D02*
Y-3572D01*
X-45583Y-3754D02*
X-44917Y-4419D01*
X-71821Y-25300D02*
X-71139Y-25983D01*
X48500Y3402D02*
X51202Y700D01*
X57500Y3402D02*
Y3500D01*
Y3402D02*
X58083Y2819D01*
X50981Y-71581D02*
X60019D01*
X48500Y-69198D02*
X49083Y-69781D01*
X49181D01*
X50981Y-71581D01*
X48500Y-69198D02*
Y-69100D01*
X45355D02*
X48500D01*
X27500Y-3754D02*
X27583Y-3836D01*
X29417D02*
X29500Y-3919D01*
X32200Y3200D02*
X35900Y6900D01*
X27583Y-3836D02*
X29417D01*
X32200Y-62000D02*
Y3200D01*
X56917Y3984D02*
Y4181D01*
X54168Y-66524D02*
X56063Y-68419D01*
X53900Y-65800D02*
X54168Y-66068D01*
Y-66524D02*
Y-66068D01*
X56917Y-68419D02*
X57500Y-69002D01*
X56063Y-68419D02*
X56917D01*
X57500Y-69100D02*
Y-69002D01*
X55219Y4181D02*
X56917D01*
X52500Y6900D02*
X55219Y4181D01*
X48500Y3402D02*
Y3500D01*
X57500Y6847D02*
Y17681D01*
X59500Y19681D01*
Y-52919D02*
Y-52427D01*
X57500Y-54919D02*
X59500Y-52919D01*
X57500Y-65754D02*
Y-54919D01*
X-11296Y68402D02*
X-9000Y66106D01*
Y65800D02*
Y66106D01*
X-13000Y68984D02*
Y69067D01*
X-12417Y68402D02*
X-11296D01*
X-13000Y68984D02*
X-12417Y68402D01*
X-19296D02*
X-17000Y66106D01*
Y65620D02*
Y66106D01*
X21204Y68181D02*
X23500Y65885D01*
X19500Y68764D02*
Y68846D01*
Y68764D02*
X20083Y68181D01*
X21204D01*
X23500Y65400D02*
Y65885D01*
X-42917Y67496D02*
X-41500Y66079D01*
X-43796Y68437D02*
X-42917Y67558D01*
X-33515Y65700D02*
Y66042D01*
X-41500Y65700D02*
Y66079D01*
X-42917Y67496D02*
Y67558D01*
X-34917Y67445D02*
X-33515Y66042D01*
X-35796Y68437D02*
X-34917Y67558D01*
Y67445D02*
Y67558D01*
X-27681Y68402D02*
X-25000Y65720D01*
X-1017Y65800D02*
Y66052D01*
X-2417Y67453D02*
Y67523D01*
Y67453D02*
X-1017Y66052D01*
X-3296Y68402D02*
X-2417Y67523D01*
X-5000Y68984D02*
Y69067D01*
X-4417Y68402D02*
X-3296D01*
X-5000Y68984D02*
X-4417Y68402D01*
X-49500Y65656D02*
Y66141D01*
X-51796Y68437D02*
X-49500Y66141D01*
X31500Y65400D02*
Y65885D01*
X29204Y68181D02*
X31500Y65885D01*
X28083Y68181D02*
X29204D01*
X27500Y68764D02*
Y68846D01*
Y68764D02*
X28083Y68181D01*
X53704Y-4419D02*
X56000Y-6715D01*
Y-7200D02*
Y-6715D01*
X52583Y-7781D02*
X52681D01*
X52000Y-7198D02*
X52583Y-7781D01*
X56162Y-25658D02*
Y-11262D01*
X52681Y-7781D02*
X56162Y-11262D01*
X52583Y-4419D02*
X53704D01*
X52000Y-3836D02*
Y-3754D01*
Y-3836D02*
X52583Y-4419D01*
X53704Y68181D02*
X56000Y65885D01*
X44583Y-4419D02*
X45704D01*
X44000Y-3836D02*
Y-3754D01*
Y-3836D02*
X44583Y-4419D01*
X45704D02*
X48000Y-6715D01*
Y-7200D02*
Y-6715D01*
X37319Y-4419D02*
X40000Y-7100D01*
X35500Y-3836D02*
X36083Y-4419D01*
X35500Y-3836D02*
Y-3754D01*
X36083Y-4419D02*
X37319D01*
X35900Y6632D02*
Y6900D01*
Y6632D02*
X38296Y4236D01*
X11749Y4606D02*
Y6752D01*
X12854Y3500D02*
X16000D01*
X11700Y6259D02*
Y6800D01*
X11749Y4606D02*
X12854Y3500D01*
X11700Y6800D02*
X11749Y6752D01*
X4819Y-4419D02*
X7500Y-7100D01*
X-27681Y-4419D02*
X-25000Y-7100D01*
X-35796Y-4419D02*
X-33500Y-6715D01*
Y-7200D02*
Y-6715D01*
X-29500Y-3836D02*
Y-3754D01*
Y-3836D02*
X-28917Y-4419D01*
X-27681D01*
X-37583Y-3754D02*
X-36917Y-4419D01*
X-35796D01*
X-37583Y-3754D02*
Y-3572D01*
X-29131Y7229D02*
Y7608D01*
X-27583Y5335D02*
Y5681D01*
Y5335D02*
X-26704Y4457D01*
X-29131Y7229D02*
X-27583Y5681D01*
X-73644Y19200D02*
X-61600Y7156D01*
X-45000Y4025D02*
Y7527D01*
X-82863Y-18281D02*
Y-16563D01*
X-66054Y246D02*
X-41582D01*
X-82863Y-16563D02*
X-66054Y246D01*
X-60846Y1746D02*
X-47279D01*
X-75600Y16500D02*
X-60846Y1746D01*
X-56698Y11521D02*
X-53911Y8734D01*
X-53300Y7527D02*
Y7906D01*
X-53911Y8517D02*
X-53300Y7906D01*
X-53911Y8517D02*
Y8734D01*
X-53300Y7527D02*
X-53251Y7478D01*
X-47279Y1746D02*
X-45000Y4025D01*
X-48082Y-1254D02*
X-46264Y-3072D01*
X-41582Y246D02*
X-38264Y-3072D01*
X-45000Y7527D02*
X-42265Y4792D01*
X-40583D02*
X-40000Y4209D01*
Y4127D02*
Y4209D01*
X-42265Y4792D02*
X-40583D01*
X-52146Y4227D02*
X-49000D01*
X-53251Y5333D02*
X-52146Y4227D01*
X-53251Y5333D02*
Y7478D01*
X-61600Y7288D02*
Y7556D01*
X-58083Y4892D02*
X-57500Y4309D01*
X-61600Y7288D02*
X-59204Y4892D01*
X-58083D01*
X-57500Y4227D02*
Y4309D01*
X-81400Y16500D02*
X-75600D01*
X-79200Y19200D02*
X-73644D01*
X-81500Y16600D02*
X-81400Y16500D01*
X-46083Y-3072D02*
X-45583Y-3572D01*
X-46264Y-3072D02*
X-46083D01*
X-60000Y20429D02*
X-58630Y19059D01*
Y11332D02*
Y19059D01*
X-57591Y24091D02*
X-56698Y23198D01*
Y11521D02*
Y23198D01*
X-65761Y24091D02*
X-57591D01*
X-67952Y21900D02*
X-65761Y24091D01*
X-57500Y7173D02*
Y10202D01*
X-58630Y11332D02*
X-57500Y10202D01*
X11500Y-15254D02*
X11929Y-15683D01*
X11500Y-15254D02*
Y-7100D01*
X5000Y-52919D02*
X7500Y-55419D01*
X5000Y-52919D02*
Y-52427D01*
X12457Y-58927D02*
X16000Y-62470D01*
X11965Y-58927D02*
X12457D01*
X19500Y-3836D02*
X20083Y-4419D01*
Y-7781D02*
X20181D01*
X19500Y-7198D02*
Y-7100D01*
Y-3836D02*
Y-3754D01*
X13204Y-4419D02*
X15500Y-6715D01*
X20083Y-4419D02*
X21204D01*
X19500Y-7198D02*
X20083Y-7781D01*
X15500Y-7200D02*
Y-6715D01*
X3583Y-4419D02*
X4819D01*
X3000Y-7198D02*
X3583Y-7781D01*
X3681D01*
X5000Y-22321D02*
Y-9100D01*
X3681Y-7781D02*
X5000Y-9100D01*
X3000Y-7198D02*
Y-7100D01*
Y-3836D02*
Y-3754D01*
Y-3836D02*
X3583Y-4419D01*
X7500Y-65683D02*
Y-55419D01*
X11700Y-65800D02*
X11749Y-65848D01*
X16000Y-65754D02*
Y-62470D01*
X11749Y-67994D02*
Y-65848D01*
X11700Y-66341D02*
Y-65800D01*
X11749Y-67994D02*
X12854Y-69100D01*
X16000D01*
X11965Y-37356D02*
X12457D01*
X13827Y-35986D02*
Y-35494D01*
X12457Y-37356D02*
X13827Y-35986D01*
X11500Y-3836D02*
Y-3754D01*
Y-3836D02*
X12083Y-4419D01*
X13204D01*
X37500Y-22321D02*
Y-9100D01*
Y-52919D02*
Y-52427D01*
X-40000Y-69100D02*
Y-69017D01*
X-40583Y-68435D02*
X-40000Y-69017D01*
X-42265Y-68435D02*
X-40583D01*
X35900Y-65968D02*
Y-65700D01*
X24417Y-68435D02*
X25000Y-69017D01*
Y-65754D02*
Y-54919D01*
Y-69100D02*
Y-69017D01*
X38296Y-68364D02*
X39417D01*
X22735Y-68435D02*
X24417D01*
X35900Y-65968D02*
X38296Y-68364D01*
X37500Y-52919D02*
X40000Y-55419D01*
X36181Y-7781D02*
X37500Y-9100D01*
X-40000Y-65754D02*
Y-54919D01*
X-7500Y-69100D02*
Y-69017D01*
X-8083Y-68435D02*
X-7500Y-69017D01*
Y-65754D02*
Y-54919D01*
X-9765Y-68435D02*
X-8083D01*
X40000Y-65683D02*
Y-55419D01*
Y-69029D02*
Y-68946D01*
X39417Y-68364D02*
X40000Y-68946D01*
X44465Y-58927D02*
X44957D01*
X48500Y-62470D01*
X46327Y-35986D02*
Y-35494D01*
X44957Y-37356D02*
X46327Y-35986D01*
X44465Y-37356D02*
X44957D01*
X46327Y-35494D02*
X56162Y-25658D01*
X59500Y-22356D02*
X60000Y-21856D01*
X44249Y-67994D02*
X45355Y-69100D01*
X44249Y-67994D02*
Y-65848D01*
X44200Y-65800D02*
X44249Y-65848D01*
X48500Y-65754D02*
Y-62470D01*
X60000Y-21856D02*
Y-7100D01*
X44000Y-15254D02*
X44429Y-15683D01*
X44000Y-15254D02*
Y-7100D01*
X-60000Y-52919D02*
Y-52427D01*
Y-52919D02*
X-57500Y-55419D01*
X-53500Y-3852D02*
Y-3836D01*
X-49500Y-7200D02*
Y-6715D01*
X-52917Y-4419D02*
X-51796D01*
X-49500Y-6715D01*
X-53500Y-3836D02*
X-52917Y-4419D01*
X-62000Y-13120D02*
Y-7100D01*
X-61417Y-4435D02*
X-60563D01*
X-62016Y-3836D02*
X-61417Y-4435D01*
X-60563D02*
X-58851Y-6147D01*
X-52543Y-37356D02*
X-51173Y-35986D01*
X-53035Y-37356D02*
X-52543D01*
X-51173Y-35986D02*
Y-35494D01*
X-41338Y-25658D01*
Y-11262D01*
X-53035Y-58927D02*
X-52543D01*
X-49000Y-62470D01*
X-53300Y-65800D02*
X-53251Y-65848D01*
X-53300Y-66341D02*
Y-65800D01*
X-52146Y-69100D02*
X-49000D01*
X-45000Y-65700D02*
X-42265Y-68435D01*
X-49000Y-65754D02*
Y-62470D01*
X-53251Y-67994D02*
X-52146Y-69100D01*
X-53251Y-67994D02*
Y-65848D01*
X-53500Y-15254D02*
X-53071Y-15683D01*
X-56733Y-25124D02*
Y-13274D01*
X-57591Y-25983D02*
X-56733Y-25124D01*
X-60000Y-22321D02*
Y-15120D01*
X-62000Y-13120D02*
X-60000Y-15120D01*
X-54937Y-4435D02*
X-54083D01*
X-56733Y-13274D02*
X-55883Y-12424D01*
Y-5380D01*
X-54937Y-4435D01*
X-53500Y-15254D02*
Y-7100D01*
X-54083Y-4435D02*
X-53500Y-3852D01*
X-57500Y-65683D02*
Y-55419D01*
X-41500Y-7200D02*
Y-6715D01*
X-45500Y-7198D02*
Y-7100D01*
X-44819Y-7781D02*
X-41338Y-11262D01*
X-44917Y-7781D02*
X-44819D01*
X-43796Y-4419D02*
X-41500Y-6715D01*
X-44917Y-4419D02*
X-43796D01*
X-45500Y-7198D02*
X-44917Y-7781D01*
X52000Y-7198D02*
Y-7100D01*
X-12500Y-65700D02*
X-9765Y-68435D01*
X-20752Y-67994D02*
X-19646Y-69100D01*
X-16500D01*
X-20800Y-66341D02*
Y-65800D01*
X-20752Y-67994D02*
Y-65848D01*
X-20800Y-65800D02*
X-20752Y-65848D01*
X-27500Y-52919D02*
X-25000Y-55419D01*
X-27500Y-52919D02*
Y-52427D01*
X-20535Y-37356D02*
X-20043D01*
X-18673Y-35986D01*
Y-35494D01*
X-20043Y-58927D02*
X-16500Y-62470D01*
X-25000Y-65683D02*
Y-55419D01*
X-16500Y-65754D02*
Y-62470D01*
X-20535Y-58927D02*
X-20043D01*
X-21000Y-15254D02*
X-20571Y-15683D01*
X-25000Y-69029D02*
Y-68946D01*
X-25583Y-68364D02*
X-25000Y-68946D01*
X-26704Y-68364D02*
X-25583D01*
X-13000Y-3836D02*
Y-3754D01*
X-12417Y-7781D02*
X-12319D01*
X-12417Y-4419D02*
X-11296D01*
X-13000Y-3836D02*
X-12417Y-4419D01*
X-13000Y-7198D02*
Y-7100D01*
Y-7198D02*
X-12417Y-7781D01*
X-20417Y-4419D02*
X-19296D01*
X-21000Y-3836D02*
Y-3754D01*
Y-3836D02*
X-20417Y-4419D01*
X-21000Y-15254D02*
Y-7100D01*
X-17000Y-7200D02*
Y-6715D01*
X-19296Y-4419D02*
X-17000Y-6715D01*
X-28917Y-7781D02*
X-28819D01*
X-29500Y-7198D02*
Y-7100D01*
X-28819Y-7781D02*
X-27500Y-9100D01*
X-29500Y-7198D02*
X-28917Y-7781D01*
X-27500Y-22321D02*
Y-9100D01*
X23500Y-7200D02*
Y-6715D01*
X21204Y-4419D02*
X23500Y-6715D01*
X27500Y-21856D02*
Y-7100D01*
X23662Y-25658D02*
Y-11262D01*
X27000Y-22356D02*
X27500Y-21856D01*
X20181Y-7781D02*
X23662Y-11262D01*
X35500Y-7198D02*
Y-7100D01*
X-38264Y-3072D02*
X-38083D01*
X-37583Y-3572D01*
X-38000Y-22356D02*
X-37500Y-21856D01*
Y-7100D01*
X-8838Y-25658D02*
Y-11262D01*
X-12319Y-7781D02*
X-8838Y-11262D01*
X-9000Y-7200D02*
Y-6715D01*
X-5000Y-21856D02*
Y-7100D01*
X-5500Y-22356D02*
X-5000Y-21856D01*
Y-3836D02*
Y-3754D01*
X-11296Y-4419D02*
X-9000Y-6715D01*
X-4417Y-4419D02*
X-3296D01*
X-5000Y-3836D02*
X-4417Y-4419D01*
X-1000Y-7200D02*
Y-6715D01*
X-3296Y-4419D02*
X-1000Y-6715D01*
X-38000Y-52919D02*
Y-52427D01*
X-40000Y-54919D02*
X-38000Y-52919D01*
X13827Y-35494D02*
X23662Y-25658D01*
X-18673Y-35494D02*
X-8838Y-25658D01*
X35500Y-7198D02*
X36083Y-7781D01*
X36181D01*
X-7500Y-54919D02*
X-5500Y-52919D01*
X27000D02*
Y-52427D01*
X25000Y-54919D02*
X27000Y-52919D01*
X-5500D02*
Y-52427D01*
X-72200Y-25800D02*
X-71821D01*
X-71139Y-25983D02*
X-57591D01*
X-62000Y69020D02*
X-61417Y68437D01*
X-62000Y65658D02*
X-61417Y65075D01*
X-61319D01*
X-61417Y68437D02*
X-60181D01*
X-61319Y65075D02*
X-60000Y63756D01*
Y50535D02*
Y63756D01*
X-53035Y13929D02*
X-52543D01*
X-49000Y10386D01*
X-53500Y69020D02*
Y69102D01*
X-60181Y68437D02*
X-57500Y65756D01*
X-53500Y57602D02*
Y65756D01*
Y57602D02*
X-53071Y57173D01*
X-53500Y69020D02*
X-52917Y68437D01*
X-51796D01*
X-45500Y69020D02*
Y69102D01*
Y69020D02*
X-44917Y68437D01*
X-43796D01*
X-52543Y35500D02*
X-49100Y38943D01*
X-40000Y7102D02*
Y17937D01*
X-38000Y19937D02*
Y20429D01*
X-40000Y17937D02*
X-38000Y19937D01*
X-53035Y35500D02*
X-52543D01*
X-38000Y50500D02*
X-37500Y51000D01*
X-45500Y62744D02*
Y65756D01*
X-49100Y38943D02*
Y59144D01*
X-45500Y62744D01*
X-62000Y69020D02*
Y69102D01*
Y65658D02*
Y65756D01*
X-37500Y69020D02*
Y69102D01*
Y51000D02*
Y65756D01*
Y69020D02*
X-36917Y68437D01*
X-35796D01*
X-49000Y7102D02*
Y10386D01*
X35500Y68764D02*
Y68846D01*
X52583Y68181D02*
X53704D01*
X44000Y68764D02*
Y68846D01*
X44583Y68181D02*
X45704D01*
X44000Y68764D02*
X44583Y68181D01*
X15900Y38687D02*
Y58888D01*
X19500Y62488D01*
Y65500D01*
X11500Y57346D02*
X11929Y56917D01*
X13204Y68181D02*
X15500Y65885D01*
Y65400D02*
Y65885D01*
X12083Y68181D02*
X13204D01*
X11500Y68764D02*
X12083Y68181D01*
X11965Y35244D02*
X12457D01*
X15900Y38687D01*
X27000Y50244D02*
X27500Y50744D01*
Y65500D01*
X48400Y38687D02*
Y58888D01*
X52000Y62488D01*
Y65500D01*
Y68764D02*
Y68846D01*
X44000Y57346D02*
X44429Y56917D01*
X44000Y57346D02*
Y65500D01*
X45704Y68181D02*
X48000Y65885D01*
X60000Y50744D02*
Y65500D01*
X27000Y19681D02*
Y20173D01*
X25000Y17681D02*
X27000Y19681D01*
X25000Y6847D02*
Y17681D01*
X24417Y4165D02*
X25000Y3583D01*
X48500Y6847D02*
Y10130D01*
X35500Y65402D02*
Y65500D01*
X52000Y68764D02*
X52583Y68181D01*
X35500Y65402D02*
X36083Y64819D01*
X37500Y50279D02*
Y63500D01*
X36083Y64819D02*
X36181D01*
X37500Y63500D01*
X37319Y68181D02*
X40000Y65500D01*
X36083Y68181D02*
X37319D01*
X35500Y68764D02*
X36083Y68181D01*
X38296Y4236D02*
X39417D01*
X40000Y3653D01*
X44249Y4606D02*
Y6752D01*
X44200Y6800D02*
X44249Y6752D01*
Y4606D02*
X45355Y3500D01*
X44465Y13673D02*
X44957D01*
X44465Y35244D02*
X44957D01*
X48400Y38687D01*
X37500Y19681D02*
Y20173D01*
Y19681D02*
X40000Y17181D01*
X59500Y19681D02*
Y20173D01*
X45355Y3500D02*
X48500D01*
X40000Y3571D02*
Y3653D01*
Y6917D02*
Y17181D01*
X44957Y13673D02*
X48500Y10130D01*
X59500Y50244D02*
X60000Y50744D01*
X-28917Y68402D02*
X-27681D01*
X-13000Y62709D02*
Y65720D01*
X-16600Y59109D02*
X-13000Y62709D01*
X-21000Y57567D02*
X-20571Y57138D01*
X-21000Y57567D02*
Y65720D01*
X-20417Y68402D02*
X-19296D01*
X-5000Y50965D02*
Y65720D01*
X-29500Y68984D02*
Y69067D01*
Y65622D02*
Y65720D01*
Y65622D02*
X-28917Y65039D01*
X-27500Y50500D02*
Y63721D01*
X-28917Y65039D02*
X-28819D01*
X-27500Y63721D01*
X-29500Y68984D02*
X-28917Y68402D01*
X-21000Y68984D02*
Y69067D01*
X5000Y19681D02*
Y20173D01*
Y19681D02*
X7500Y17181D01*
Y6917D02*
Y17181D01*
X5796Y4236D02*
X6917D01*
X7500Y3571D02*
Y3653D01*
X6917Y4236D02*
X7500Y3653D01*
X3400Y6632D02*
X5796Y4236D01*
X3400Y6632D02*
Y6900D01*
X-20535Y13894D02*
X-20043D01*
X-20752Y4826D02*
Y6972D01*
X-20800Y7021D02*
X-20752Y6972D01*
X-19646Y3720D02*
X-16500D01*
X-20752Y4826D02*
X-19646Y3720D01*
X-20800Y6479D02*
Y7021D01*
X-20043Y13894D02*
X-16500Y10350D01*
Y7067D02*
Y10350D01*
X-7500Y3720D02*
Y3803D01*
X-12500Y7120D02*
X-9765Y4386D01*
X-8083D02*
X-7500Y3803D01*
X-9765Y4386D02*
X-8083D01*
X-7500Y17902D02*
X-5500Y19902D01*
Y20394D01*
Y50465D02*
X-5000Y50965D01*
X3000Y68764D02*
Y68846D01*
Y65402D02*
Y65500D01*
Y65402D02*
X3583Y64819D01*
X5000Y50279D02*
Y63500D01*
X3583Y64819D02*
X3681D01*
X5000Y63500D01*
X4819Y68181D02*
X7500Y65500D01*
X3583Y68181D02*
X4819D01*
X3000Y68764D02*
X3583Y68181D01*
X11500Y57346D02*
Y65500D01*
Y68764D02*
Y68846D01*
X-25000Y3791D02*
Y3874D01*
X-20535Y35465D02*
X-20043D01*
X-16600Y38908D01*
Y59109D01*
X-26704Y4457D02*
X-25583D01*
X-25000Y3874D01*
X-27500Y19902D02*
Y20394D01*
Y19902D02*
X-25000Y17402D01*
Y7138D02*
Y17402D01*
X-7500Y7067D02*
Y17902D01*
X-21000Y68984D02*
X-20417Y68402D01*
X20000Y6900D02*
X22735Y4165D01*
X25000Y3500D02*
Y3583D01*
X22735Y4165D02*
X24417D01*
X11965Y13673D02*
X12457D01*
X16000Y10130D01*
Y6847D02*
Y10130D01*
D14*
X80100Y92774D02*
D03*
Y87226D02*
D03*
D15*
X87000Y87346D02*
D03*
Y93054D02*
D03*
X-112300Y45979D02*
D03*
Y51688D02*
D03*
Y62988D02*
D03*
Y57279D02*
D03*
X-16000Y-80146D02*
D03*
Y-85854D02*
D03*
D16*
X86700Y99447D02*
D03*
Y105353D02*
D03*
X80500Y99447D02*
D03*
Y105353D02*
D03*
D17*
X107334Y30100D02*
D03*
X112066D02*
D03*
X107633Y5400D02*
D03*
X112366D02*
D03*
X100767Y-21000D02*
D03*
X96034D02*
D03*
D18*
X106282Y-69200D02*
D03*
X91118D02*
D03*
D19*
X77000Y-60732D02*
D03*
Y-77268D02*
D03*
D20*
X-73500Y-106244D02*
D03*
Y-98756D02*
D03*
X-64100Y-106143D02*
D03*
Y-98656D02*
D03*
D21*
X-124100Y7666D02*
D03*
Y2933D02*
D03*
X-120900Y62500D02*
D03*
Y57767D02*
D03*
Y46367D02*
D03*
Y51100D02*
D03*
X-25000Y-80500D02*
D03*
Y-85233D02*
D03*
X-33500Y-85366D02*
D03*
Y-80633D02*
D03*
D22*
X-103700Y51162D02*
D03*
Y46438D02*
D03*
X-103800Y57771D02*
D03*
Y62496D02*
D03*
D23*
X-112041Y-21300D02*
D03*
X-117159D02*
D03*
D24*
X-111676Y-4100D02*
D03*
X-116400D02*
D03*
X93662Y-60100D02*
D03*
X88938D02*
D03*
X103138Y-60000D02*
D03*
X107862D02*
D03*
X123738Y5500D02*
D03*
X128462D02*
D03*
X112262Y13200D02*
D03*
X107538D02*
D03*
X100700Y-14700D02*
D03*
X95976D02*
D03*
X100624Y-7700D02*
D03*
X95900D02*
D03*
X128400Y13100D02*
D03*
X123676D02*
D03*
D25*
X-105488Y-12800D02*
D03*
X-116512D02*
D03*
D26*
X119656Y-36000D02*
D03*
X126144D02*
D03*
X132656D02*
D03*
X113144D02*
D03*
D27*
X107912Y91300D02*
D03*
X116888D02*
D03*
X129088D02*
D03*
X120112D02*
D03*
D28*
X122800Y-48075D02*
D03*
Y-44925D02*
D03*
D29*
X111530Y21600D02*
D03*
X100270D02*
D03*
D30*
X-108941Y-66541D02*
D03*
X-105600Y-63200D02*
D03*
X-108330Y-75030D02*
D03*
X-111670Y-78370D02*
D03*
X-104270Y-71070D02*
D03*
X-100930Y-67730D02*
D03*
X-119000Y-85700D02*
D03*
X-115659Y-82359D02*
D03*
X-86730Y-89630D02*
D03*
X-90070Y-92970D02*
D03*
D31*
X-94530Y-88170D02*
D03*
X-97870Y-84830D02*
D03*
D32*
X-89003Y-82397D02*
D03*
X-96797Y-74603D02*
D03*
D33*
X-80639Y-77461D02*
D03*
X-91361Y-66738D02*
D03*
D34*
X11929Y-15683D02*
D03*
X20000D02*
D03*
X11965Y-58927D02*
D03*
X20035D02*
D03*
X11965Y-37356D02*
D03*
X20035D02*
D03*
X44465Y-58927D02*
D03*
X52535D02*
D03*
X44465Y-37356D02*
D03*
X52535D02*
D03*
X44429Y-15683D02*
D03*
X52500D02*
D03*
X-53035Y-58927D02*
D03*
X-44965D02*
D03*
X-53071Y-15683D02*
D03*
X-45000D02*
D03*
X-53035Y-37356D02*
D03*
X-44965D02*
D03*
X-20535D02*
D03*
X-12465D02*
D03*
X-20535Y-58927D02*
D03*
X-12465D02*
D03*
X-20571Y-15683D02*
D03*
X-12500D02*
D03*
X-53035Y13929D02*
D03*
X-44965D02*
D03*
X-53071Y57173D02*
D03*
X-45000D02*
D03*
X-53035Y35500D02*
D03*
X-44965D02*
D03*
X44465Y35244D02*
D03*
X52535D02*
D03*
X20035D02*
D03*
X11965D02*
D03*
X20000Y56917D02*
D03*
X11929D02*
D03*
X44429D02*
D03*
X52500D02*
D03*
X-20571Y57138D02*
D03*
X-12500D02*
D03*
X44465Y13673D02*
D03*
X52535D02*
D03*
X20035D02*
D03*
X11965D02*
D03*
X-20535Y13894D02*
D03*
X-12465D02*
D03*
X-20535Y35465D02*
D03*
X-12465D02*
D03*
D35*
X5000Y-52427D02*
D03*
Y-44356D02*
D03*
Y-22321D02*
D03*
Y-30391D02*
D03*
X37500Y-52427D02*
D03*
Y-44356D02*
D03*
Y-22321D02*
D03*
Y-30391D02*
D03*
X59500Y-52427D02*
D03*
Y-44356D02*
D03*
Y-22356D02*
D03*
Y-30427D02*
D03*
X-60000Y-52427D02*
D03*
Y-44356D02*
D03*
Y-22321D02*
D03*
Y-30391D02*
D03*
X-27500Y-52427D02*
D03*
Y-44356D02*
D03*
Y-22321D02*
D03*
Y-30391D02*
D03*
X27000Y-22356D02*
D03*
Y-30427D02*
D03*
X-38000Y-22356D02*
D03*
Y-30427D02*
D03*
X-5500Y-22356D02*
D03*
Y-30427D02*
D03*
X-38000Y-52427D02*
D03*
Y-44356D02*
D03*
X-5500Y-52427D02*
D03*
Y-44356D02*
D03*
X27000Y-52427D02*
D03*
Y-44356D02*
D03*
X-60000Y50535D02*
D03*
Y42465D02*
D03*
Y20429D02*
D03*
Y28500D02*
D03*
X-38000Y20429D02*
D03*
Y28500D02*
D03*
Y50500D02*
D03*
Y42429D02*
D03*
X37500Y20173D02*
D03*
Y28244D02*
D03*
X27000D02*
D03*
Y20173D02*
D03*
X59500D02*
D03*
Y28244D02*
D03*
X37500Y50279D02*
D03*
Y42209D02*
D03*
X27000Y42173D02*
D03*
Y50244D02*
D03*
X59500D02*
D03*
Y42173D02*
D03*
X-27500Y50500D02*
D03*
Y42429D02*
D03*
X5000Y28244D02*
D03*
Y20173D02*
D03*
X-5500Y50465D02*
D03*
Y42394D02*
D03*
Y20394D02*
D03*
Y28465D02*
D03*
X5000Y42209D02*
D03*
Y50279D02*
D03*
X-27500Y20394D02*
D03*
Y28465D02*
D03*
D36*
X19500Y-3754D02*
D03*
Y-7100D02*
D03*
X3000Y-3754D02*
D03*
Y-7100D02*
D03*
X7500Y-69029D02*
D03*
Y-65683D02*
D03*
X16000Y-69100D02*
D03*
Y-65754D02*
D03*
X11500Y-3754D02*
D03*
Y-7100D02*
D03*
X-40000Y-69100D02*
D03*
Y-65754D02*
D03*
X-49000Y-69100D02*
D03*
Y-65754D02*
D03*
X-57500Y-69029D02*
D03*
Y-65683D02*
D03*
X-25000Y-69029D02*
D03*
Y-65683D02*
D03*
X25000Y-69100D02*
D03*
Y-65754D02*
D03*
X-7500Y-69100D02*
D03*
Y-65754D02*
D03*
X-16500Y-69100D02*
D03*
Y-65754D02*
D03*
X40000Y-69029D02*
D03*
Y-65683D02*
D03*
X57500Y-69100D02*
D03*
Y-65754D02*
D03*
X48500Y-69100D02*
D03*
Y-65754D02*
D03*
X60000Y-3754D02*
D03*
Y-7100D02*
D03*
X44000Y-3754D02*
D03*
Y-7100D02*
D03*
X52000Y-3754D02*
D03*
Y-7100D02*
D03*
X-62000Y-3754D02*
D03*
Y-7100D02*
D03*
X-53500Y-3754D02*
D03*
Y-7100D02*
D03*
X-45500Y-3754D02*
D03*
Y-7100D02*
D03*
X-13000Y-3754D02*
D03*
Y-7100D02*
D03*
X-21000Y-3754D02*
D03*
Y-7100D02*
D03*
X-29500Y-3754D02*
D03*
Y-7100D02*
D03*
X27500Y-3754D02*
D03*
Y-7100D02*
D03*
X-37500Y-3754D02*
D03*
Y-7100D02*
D03*
X-5000Y-3754D02*
D03*
Y-7100D02*
D03*
X35500Y-3754D02*
D03*
Y-7100D02*
D03*
X-57500Y4227D02*
D03*
Y7573D02*
D03*
X-53500Y69102D02*
D03*
Y65756D02*
D03*
X-45500Y69102D02*
D03*
Y65756D02*
D03*
X-40000Y4127D02*
D03*
Y7473D02*
D03*
X-62000Y69102D02*
D03*
Y65756D02*
D03*
X-37500Y69102D02*
D03*
Y65756D02*
D03*
X-49000Y7573D02*
D03*
Y4227D02*
D03*
X60000Y68846D02*
D03*
Y65500D02*
D03*
X52000Y68846D02*
D03*
Y65500D02*
D03*
X44000Y68846D02*
D03*
Y65500D02*
D03*
X48500Y3500D02*
D03*
Y6847D02*
D03*
X35500Y68846D02*
D03*
Y65500D02*
D03*
X11500D02*
D03*
Y68846D02*
D03*
X3000Y65500D02*
D03*
Y68846D02*
D03*
X-5000Y69067D02*
D03*
Y65720D02*
D03*
X27500Y65500D02*
D03*
Y68846D02*
D03*
X19500Y65500D02*
D03*
Y68846D02*
D03*
X-13000Y69067D02*
D03*
Y65720D02*
D03*
X-29500Y69067D02*
D03*
Y65720D02*
D03*
X-21000Y69067D02*
D03*
Y65720D02*
D03*
X57500Y3500D02*
D03*
Y6847D02*
D03*
X16000D02*
D03*
Y3500D02*
D03*
X25000Y6847D02*
D03*
Y3500D02*
D03*
X40000Y3571D02*
D03*
Y6917D02*
D03*
X-16500Y3720D02*
D03*
Y7067D02*
D03*
X-7500Y3720D02*
D03*
Y7067D02*
D03*
X-25000Y3791D02*
D03*
Y7138D02*
D03*
X7500Y6917D02*
D03*
Y3571D02*
D03*
D48*
X-15508Y-85854D02*
X-11362Y-90000D01*
X16600D01*
X107226Y-52700D02*
X124800D01*
X89700Y-35174D02*
X107226Y-52700D01*
X89700Y-35174D02*
Y10800D01*
X-87980Y-61980D02*
X-84884Y-65077D01*
Y-67134D02*
Y-65077D01*
X-91309Y-73559D02*
X-84884Y-67134D01*
X-95754Y-73559D02*
X-91309D01*
X87000Y70300D02*
X100900Y56400D01*
Y29000D02*
Y56400D01*
X87000Y70300D02*
Y87346D01*
X80100Y82600D02*
Y87226D01*
X80300Y92974D02*
Y99247D01*
X80500Y99447D01*
X80100Y92774D02*
X80300Y92974D01*
X86750Y93104D02*
Y99397D01*
X86700Y99447D02*
X86750Y99397D01*
Y93104D02*
X86800Y93054D01*
X74480Y105353D02*
X80500D01*
X72933Y106900D02*
X74480Y105353D01*
X72500Y106900D02*
X72933D01*
X80500Y105353D02*
X86700D01*
X-84453Y-98413D02*
X-84345D01*
X-82077Y-95824D02*
X-82000Y-95900D01*
X-82077Y-95824D02*
Y-94283D01*
X-89896Y-92970D02*
X-84453Y-98413D01*
X-90070Y-92970D02*
X-89896D01*
X-82000Y-95900D02*
X-81967D01*
X-86730Y-89630D02*
X-82077Y-94283D01*
X-78307Y-102228D02*
Y-99560D01*
X-81967Y-95900D02*
X-78307Y-99560D01*
X124800Y-52700D02*
X133500Y-44000D01*
X-122803Y-1629D02*
X-113500Y7674D01*
Y25400D01*
X123738Y5500D02*
X123950Y5287D01*
X123707Y5531D02*
X123738Y5500D01*
X123950Y350D02*
X124163Y137D01*
X123950Y350D02*
Y5287D01*
X-123422Y-91874D02*
X-123346Y-91797D01*
X-120046D02*
X-114903Y-86654D01*
X-123346Y-91797D02*
X-120046D01*
X-109230Y34800D02*
X-107228D01*
X-113424Y28604D02*
X-107228Y34800D01*
X-113500Y25400D02*
X-113424Y25477D01*
Y28604D01*
X-104600Y41700D02*
Y41808D01*
X-103700Y42708D02*
Y46438D01*
X-104600Y41808D02*
X-103700Y42708D01*
X-122803Y-54200D02*
X-113105Y-63898D01*
X-122803Y-54200D02*
Y-1629D01*
Y-81897D02*
Y-54200D01*
X-113028Y-63822D02*
X-111273D01*
X-106554Y-59103D01*
X-102611D01*
X-113105Y-63898D02*
X-113028Y-63822D01*
X-102611Y-59103D02*
X-94625Y-67089D01*
X-91712D01*
X-91361Y-66738D01*
X-75800Y41100D02*
Y47802D01*
X-82400Y34500D02*
X-75800Y41100D01*
X-107228Y34800D02*
X-82700D01*
X-82400Y34500D01*
X83800Y3000D02*
Y19200D01*
X-118180Y-71767D02*
Y-69091D01*
X-118227Y-71814D02*
X-118180Y-71767D01*
Y-69091D02*
X-118103Y-69015D01*
X-122803Y-81897D02*
X-119000Y-85700D01*
X-115846Y-66352D02*
X-112322Y-69876D01*
X-83271Y55273D02*
X-75800Y47802D01*
X-120797Y46367D02*
X-109230Y34800D01*
X-16000Y-85854D02*
X-15508D01*
X-118227Y-71814D02*
X-111670Y-78370D01*
X-112322Y-71037D02*
X-108330Y-75030D01*
X-112322Y-71037D02*
Y-69876D01*
X-90279Y-92761D02*
X-90070Y-92970D01*
X-94218Y55273D02*
X-83271D01*
X-60393Y-105162D02*
X-42490Y-87259D01*
X-63119Y-105162D02*
X-60393D01*
X-64150Y-106193D02*
X-63119Y-105162D01*
X-42490Y-87259D02*
Y-86490D01*
X-42000Y-86000D01*
X-73450Y-106193D02*
X-64150D01*
X-73500Y-106244D02*
X-73450Y-106193D01*
X-78307Y-102228D02*
X-74291Y-106244D01*
X-120900Y46367D02*
X-120797D01*
X-105875Y71200D02*
X-93800Y59126D01*
X-113774Y71200D02*
X-105875D01*
X-93800Y55908D02*
Y59126D01*
X-116992Y67982D02*
X-113774Y71200D01*
X-116992Y66305D02*
Y67982D01*
X-120797Y62500D02*
X-116992Y66305D01*
X-120900Y62500D02*
X-120797D01*
X-96600Y53000D02*
X-96492D01*
X-94218Y55273D01*
X71900Y-8900D02*
X83800Y3000D01*
X94494Y13794D02*
X94800Y14100D01*
X92694Y13794D02*
X94494D01*
X107538Y12905D02*
Y13200D01*
X107061Y12428D02*
X107538Y12905D01*
X106766Y12428D02*
X107061D01*
X103338Y9000D02*
X106766Y12428D01*
X94226Y9000D02*
X103338D01*
X71900Y-60200D02*
Y-8900D01*
Y-60200D02*
X72432Y-60732D01*
X77000D01*
X89700Y10800D02*
X92694Y13794D01*
X94000Y-1028D02*
X95900Y-2928D01*
X94000Y-1028D02*
Y-1000D01*
X95900Y-7700D02*
Y-2928D01*
X98200Y-26300D02*
Y-26100D01*
X96000Y-23900D02*
X98200Y-26100D01*
X96000Y-21034D02*
X96034Y-21000D01*
X96000Y-23900D02*
Y-21034D01*
X95938Y-14662D02*
Y-7738D01*
X95900Y-7700D02*
X95938Y-7738D01*
Y-14662D02*
X95976Y-14700D01*
X96005Y-20971D02*
Y-14729D01*
X95976Y-14700D02*
X96005Y-14729D01*
Y-20971D02*
X96034Y-21000D01*
X123707Y5531D02*
Y13069D01*
X123676Y13100D02*
X123707Y13069D01*
X89058Y-67140D02*
Y-60220D01*
X88938Y-60100D02*
X89058Y-60220D01*
Y-67140D02*
X91118Y-69200D01*
X-108693Y67094D02*
X-104095Y62496D01*
X-111894Y67094D02*
X-108693D01*
X-104095Y62496D02*
X-103800D01*
X-112200Y67400D02*
X-111894Y67094D01*
X-36720Y-86000D02*
X-36674Y-85953D01*
X-34087D01*
X-42000Y-86000D02*
X-36720D01*
X-34087Y-85953D02*
X-33500Y-85366D01*
X-47000Y-81000D02*
X-46510Y-80510D01*
Y-79741D01*
X-43690Y-76920D01*
X-37316D01*
X-33603Y-80633D01*
X-33500D01*
X-112180Y-63975D02*
X-109614Y-66541D01*
X-108941D01*
X-61510Y-80510D02*
Y-79741D01*
X-56190Y-74420D02*
X-33891D01*
X-61510Y-79741D02*
X-56190Y-74420D01*
X-33891D02*
X-30011Y-78301D01*
Y-79328D02*
Y-78301D01*
Y-79328D02*
X-28839Y-80500D01*
X-62000Y-81000D02*
X-61510Y-80510D01*
X-28839Y-80500D02*
X-25000D01*
X-25067Y-85300D02*
X-25000Y-85233D01*
X-33433Y-85300D02*
X-25067D01*
X-33500Y-85366D02*
X-33433Y-85300D01*
X-24823Y-80323D02*
X-16177D01*
X-16000Y-80146D01*
X-25000Y-80500D02*
X-24823Y-80323D01*
X-98626Y-89125D02*
X-94990Y-92761D01*
X-97870Y-85503D02*
Y-84830D01*
X-94990Y-92761D02*
X-90279D01*
X-98626Y-89125D02*
Y-86259D01*
X-97870Y-85503D01*
X-96042Y-73848D02*
X-95754Y-73559D01*
X-96797Y-74603D02*
X-96042Y-73848D01*
X-105530Y-63200D02*
X-101000Y-67730D01*
X-105600Y-63200D02*
X-105530D01*
X-101000Y-67730D02*
X-100930D01*
X-96042Y-73848D02*
Y-72617D01*
X-100930Y-67730D02*
X-96042Y-72617D01*
X-114903Y-86654D02*
Y-85163D01*
X-115659Y-82359D02*
X-115451Y-82568D01*
Y-84616D02*
Y-82568D01*
Y-84616D02*
X-114903Y-85163D01*
X-108280Y-75030D02*
X-104320Y-71070D01*
X-108330Y-75030D02*
X-108280D01*
X-104320Y-71070D02*
X-104270D01*
X106411Y4711D02*
X107047D01*
X104500Y2800D02*
X106411Y4711D01*
X107633Y5297D02*
Y5400D01*
X107047Y4711D02*
X107633Y5297D01*
D49*
X-77000Y-62300D02*
X-74411Y-64889D01*
Y-83159D02*
Y-64889D01*
X-78518Y-87266D02*
X-74411Y-83159D01*
X-78518Y-94200D02*
Y-87266D01*
X114674Y-40274D02*
X119325Y-44925D01*
X122800D01*
X126475D01*
X-73933Y-106676D02*
X-73500Y-106244D01*
X-113300Y-106676D02*
X-73933D01*
X-126372Y-93604D02*
X-113300Y-106676D01*
X-125366Y-88110D02*
X-121860D01*
X-126550Y-89294D02*
X-125366Y-88110D01*
X126475Y-44925D02*
X131126Y-40274D01*
X114674Y-40274D02*
Y-37341D01*
X131126Y-40274D02*
Y-37341D01*
X129224Y91164D02*
X133836D01*
X134200Y90800D01*
X129088Y91300D02*
X129224Y91164D01*
X107812Y91200D02*
X107912Y91300D01*
X102600Y91200D02*
X107812D01*
X102500Y91100D02*
X102600Y91200D01*
X113144Y-36000D02*
X113333D01*
X114674Y-37341D01*
X132467Y-36000D02*
X132656D01*
X131126Y-37341D02*
X132467Y-36000D01*
X-126372Y-93604D02*
Y-89000D01*
X-126200Y-88828D01*
X-121860Y-88110D02*
X-119451Y-85700D01*
X-119000D01*
X100662Y-14662D02*
X100700Y-14700D01*
X100624Y-7700D02*
X100662Y-7738D01*
Y-14662D02*
Y-7738D01*
X100624Y-7405D02*
X105898Y-2131D01*
Y-1102D02*
X106300Y-700D01*
X100624Y-7700D02*
Y-7405D01*
X105898Y-2131D02*
Y-1102D01*
X93662Y-60017D02*
X94389Y-59291D01*
X93662Y-60100D02*
Y-60017D01*
X94389Y-59291D02*
X96283D01*
X97733Y-57841D01*
X100136Y-60000D02*
X103138D01*
X97977Y-57841D02*
X100136Y-60000D01*
X97733Y-57841D02*
X97977D01*
X103800Y2100D02*
X104500Y2800D01*
D50*
X121000Y-41800D02*
Y-41542D01*
X122009Y-40533D01*
X116967Y91300D02*
X117709Y90558D01*
Y-14909D02*
Y90558D01*
X119291Y-14254D02*
Y90558D01*
X117709Y-14909D02*
X122109Y-19309D01*
X119291Y90558D02*
X120033Y91300D01*
X119291Y-14254D02*
X123691Y-18654D01*
X124444Y-34300D02*
X126144Y-36000D01*
X124149Y-34300D02*
X124444D01*
X123691Y-33842D02*
X124149Y-34300D01*
X123691Y-33842D02*
Y-18654D01*
X121043Y100953D02*
Y102500D01*
X119373Y99283D02*
X121043Y100953D01*
X119291Y92042D02*
X120033Y91300D01*
X119373Y97077D02*
Y99283D01*
X119291Y96995D02*
X119373Y97077D01*
X119291Y92042D02*
Y96995D01*
X120033Y91300D02*
X120112D01*
X122109Y-33842D02*
Y-19309D01*
X121651Y-34300D02*
X122109Y-33842D01*
X121355Y-34300D02*
X121651D01*
X119656Y-36000D02*
X121355Y-34300D01*
X117791Y97732D02*
Y99283D01*
X116121Y100953D02*
X117791Y99283D01*
X117709Y92042D02*
Y97650D01*
X117791Y97732D01*
X116121Y100953D02*
Y102500D01*
X116888Y91300D02*
X116967D01*
X117709Y92042D01*
X124444Y-37700D02*
X126144Y-36000D01*
X124149Y-37700D02*
X124444D01*
X123591Y-38258D02*
X124149Y-37700D01*
X121551D02*
X122009Y-38158D01*
X121355Y-37700D02*
X121551D01*
X119656Y-36000D02*
X121355Y-37700D01*
X124600Y-41800D02*
Y-41542D01*
X122009Y-40533D02*
Y-38158D01*
X123591Y-40533D02*
Y-38258D01*
Y-40533D02*
X124600Y-41542D01*
D51*
X-117159Y-21044D02*
X-116512Y-20397D01*
X-117159Y-21300D02*
Y-21044D01*
X-116512Y-20397D02*
Y-12800D01*
X-111676Y-4395D02*
X-106108Y-9963D01*
X-111676Y-4395D02*
Y-4100D01*
X-106108Y-12180D02*
Y-9963D01*
Y-12180D02*
X-105488Y-12800D01*
X-105444Y-21456D02*
X-105400Y-21500D01*
X-105488Y-12800D02*
X-105444Y-12844D01*
Y-21456D02*
Y-12844D01*
X106282Y-69696D02*
X107636Y-68342D01*
Y-60226D01*
X107862Y-60000D01*
X115176Y-78589D02*
X118490D01*
X118700Y-78800D01*
X106282Y-69696D02*
X115176Y-78589D01*
X-80288Y-77111D02*
Y-68095D01*
X-81684Y-66700D02*
X-80288Y-68095D01*
X-94530Y-88047D02*
X-89003Y-82520D01*
X-94530Y-88170D02*
Y-88047D01*
X-89003Y-82520D02*
Y-82397D01*
X-84417Y-77812D02*
X-80989D01*
X-89003Y-82397D02*
X-84417Y-77812D01*
X-89003Y-82397D02*
X-89003D01*
X-80989Y-77812D02*
X-80639Y-77461D01*
X-80288Y-77111D01*
D52*
X-116512Y-12800D02*
X-116424Y-12712D01*
Y-4124D02*
X-116400Y-4100D01*
X-116424Y-12712D02*
Y-4124D01*
X-116376Y-4076D02*
Y-739D01*
X-114900Y738D02*
Y900D01*
X-116400Y-4100D02*
X-116376Y-4076D01*
Y-739D02*
X-114900Y738D01*
X-114785Y1015D02*
X-109585D01*
X-114900Y900D02*
X-114785Y1015D01*
X-109585D02*
X-71000Y39600D01*
D53*
X77953Y-76315D02*
X84498D01*
X77000Y-77268D02*
X77953Y-76315D01*
X91118Y-69696D02*
Y-69200D01*
X84498Y-76315D02*
X91118Y-69696D01*
D54*
X116121Y102500D02*
D03*
X121043D02*
D03*
X111200D02*
D03*
X106279D02*
D03*
D55*
X-62000Y-81000D02*
D03*
X-57000D02*
D03*
X-52000D02*
D03*
X-47000D02*
D03*
X-42000D02*
D03*
X-62000Y-86000D02*
D03*
X-57000D02*
D03*
X-52000D02*
D03*
X-47000D02*
D03*
X-42000D02*
D03*
D56*
X86614Y-47244D02*
D03*
X-86614D02*
D03*
Y47244D02*
D03*
X86614D02*
D03*
D57*
X-132700Y57106D02*
D03*
Y52185D02*
D03*
Y47264D02*
D03*
Y42342D02*
D03*
Y37421D02*
D03*
Y32500D02*
D03*
Y27579D02*
D03*
Y22658D02*
D03*
Y17736D02*
D03*
Y12815D02*
D03*
Y7894D02*
D03*
D58*
Y2972D02*
D03*
D59*
X-110100Y25400D02*
D03*
X4500Y-85900D02*
D03*
X37000Y-90900D02*
D03*
X59500Y-95900D02*
D03*
Y-75900D02*
D03*
X129500D02*
D03*
X137000Y-40900D02*
D03*
X42000Y-90900D02*
D03*
X112000Y-20900D02*
D03*
X47000Y-80900D02*
D03*
X79500Y-5900D02*
D03*
X9500Y-105900D02*
D03*
X-500D02*
D03*
X-5500Y-85900D02*
D03*
X-20500Y-95900D02*
D03*
X-30500Y-105900D02*
D03*
X-50500D02*
D03*
X47000Y-90900D02*
D03*
X-63000Y-110900D02*
D03*
X124500Y-65900D02*
D03*
X-70500Y4100D02*
D03*
X-10500Y-105900D02*
D03*
X-138000Y-110900D02*
D03*
X134500Y-65900D02*
D03*
X-58000Y-110900D02*
D03*
X134500Y-25900D02*
D03*
X107000Y-20900D02*
D03*
X117000D02*
D03*
X-500Y-85900D02*
D03*
X82000Y-70900D02*
D03*
X44500Y-85900D02*
D03*
X-15500Y-105900D02*
D03*
X137000Y-10900D02*
D03*
X-35500Y-95900D02*
D03*
X-138000Y-900D02*
D03*
X137000Y-20900D02*
D03*
X132000Y-70900D02*
D03*
X-123000Y-120900D02*
D03*
X124500Y-55900D02*
D03*
X29500Y-75900D02*
D03*
X-58000Y-90900D02*
D03*
X-28000D02*
D03*
X-93000Y-30900D02*
D03*
X77000Y-50900D02*
D03*
X24500Y-75900D02*
D03*
X57000Y-100900D02*
D03*
X52000Y-80900D02*
D03*
X77000Y-70900D02*
D03*
X39500Y-85900D02*
D03*
X-8000Y-80900D02*
D03*
X57000D02*
D03*
X-83000Y-60900D02*
D03*
X-35500Y-105900D02*
D03*
X137000Y-80900D02*
D03*
X114500Y-15900D02*
D03*
X-133000Y-120900D02*
D03*
X14500Y-105900D02*
D03*
X129500Y-65900D02*
D03*
X-85500Y-55900D02*
D03*
X-25500Y-105900D02*
D03*
X132000Y-80900D02*
D03*
X-10500Y-75900D02*
D03*
X-105500Y-115900D02*
D03*
X-88000Y29100D02*
D03*
X2000Y-80900D02*
D03*
X134500Y-55900D02*
D03*
X9500Y-95900D02*
D03*
X32000Y-90900D02*
D03*
X-130500Y-115900D02*
D03*
X-110500D02*
D03*
X62000Y-100900D02*
D03*
X137000Y-30900D02*
D03*
X39500Y-95900D02*
D03*
X82000Y-20900D02*
D03*
X-90500Y-115900D02*
D03*
X49500Y-85900D02*
D03*
X72000Y-70900D02*
D03*
X-80500Y-115900D02*
D03*
X-138000Y19100D02*
D03*
X137000Y-90900D02*
D03*
X79500Y-65900D02*
D03*
X134500Y-85900D02*
D03*
X-40500Y-105900D02*
D03*
X-48000Y-110900D02*
D03*
X124500Y-75900D02*
D03*
X14500Y-95900D02*
D03*
X-43000Y-110900D02*
D03*
X-33000Y-90900D02*
D03*
X-53000Y-110900D02*
D03*
X-90500Y-35900D02*
D03*
X137000Y-60900D02*
D03*
X29500Y-85900D02*
D03*
X19500Y-105900D02*
D03*
X-73000Y29100D02*
D03*
X-90500Y-55900D02*
D03*
X-93000Y29100D02*
D03*
X-95500Y-35900D02*
D03*
X84500Y-55900D02*
D03*
X77000Y-10900D02*
D03*
X27000Y-80900D02*
D03*
X137000Y-50900D02*
D03*
X-80500Y-55900D02*
D03*
X134500Y-75900D02*
D03*
X-138000Y29100D02*
D03*
X64500Y-75900D02*
D03*
X127000Y-70900D02*
D03*
X29500Y-95900D02*
D03*
X-5500Y-75900D02*
D03*
X132000Y-20900D02*
D03*
X134500Y-5900D02*
D03*
X129500Y-55900D02*
D03*
X62000Y-90900D02*
D03*
X-33000Y-70900D02*
D03*
X-108000Y-120900D02*
D03*
X-118000D02*
D03*
X79500Y-15900D02*
D03*
X-135500Y-5900D02*
D03*
X64500Y-95900D02*
D03*
X84500Y-35900D02*
D03*
X-100500Y-115900D02*
D03*
X34500Y-95900D02*
D03*
X54500Y-75900D02*
D03*
X-15500Y-95900D02*
D03*
X24500Y-85900D02*
D03*
X52000Y-100900D02*
D03*
X14500Y-75900D02*
D03*
X-88000Y-30900D02*
D03*
X-138000Y-10900D02*
D03*
X24500Y-95900D02*
D03*
X127000Y-80900D02*
D03*
X7000D02*
D03*
X-135500Y-115900D02*
D03*
X129500Y-15900D02*
D03*
X39500Y-75900D02*
D03*
X132000Y-60900D02*
D03*
X37000Y-80900D02*
D03*
X-113000Y-120900D02*
D03*
X-128000D02*
D03*
X-138000D02*
D03*
X127000Y-60900D02*
D03*
X129500Y-25900D02*
D03*
X-95500Y-115900D02*
D03*
X42000Y-80900D02*
D03*
X74500Y4100D02*
D03*
Y-65900D02*
D03*
X4500Y-75900D02*
D03*
X97000Y-50900D02*
D03*
X4500Y-105900D02*
D03*
X49500Y-75900D02*
D03*
X44500D02*
D03*
X-45500Y-105900D02*
D03*
X19500Y-95900D02*
D03*
X-133000Y-110900D02*
D03*
X104500Y-15900D02*
D03*
X44500Y-95900D02*
D03*
X22000Y-90900D02*
D03*
X-20500Y-105900D02*
D03*
X-93000Y-40900D02*
D03*
X-10500Y-85900D02*
D03*
X82000Y-10900D02*
D03*
X9500Y-75900D02*
D03*
X134500Y-15900D02*
D03*
X109500D02*
D03*
X-500Y-75900D02*
D03*
X34500D02*
D03*
X-85500Y-115900D02*
D03*
X34500Y-85900D02*
D03*
X32000Y-80900D02*
D03*
X127000Y-20900D02*
D03*
X77000D02*
D03*
X27000Y-90900D02*
D03*
X19500Y-75900D02*
D03*
X-68000Y-110900D02*
D03*
X-95500Y-45900D02*
D03*
X137000Y-70900D02*
D03*
X-3000Y-80900D02*
D03*
X54500Y-85900D02*
D03*
X-30500Y-95900D02*
D03*
X-5500Y-105900D02*
D03*
X-138000Y9100D02*
D03*
X-25500Y-95900D02*
D03*
X16600Y-90000D02*
D03*
X-19500D02*
D03*
X-116800Y-31500D02*
D03*
X-100200Y-31700D02*
D03*
X110000Y-43100D02*
D03*
X-94960Y8961D02*
D03*
X-101200Y-12489D02*
D03*
X-61600Y-65700D02*
D03*
X-77000Y-62300D02*
D03*
X-78518Y-94200D02*
D03*
X-84345Y-98413D02*
D03*
X-82000Y-95900D02*
D03*
X121000Y-41800D02*
D03*
X-100600Y-103500D02*
D03*
X125096Y-47879D02*
D03*
X124600Y-41800D02*
D03*
X-20800Y400D02*
D03*
X11700D02*
D03*
X44200Y500D02*
D03*
X-9291Y-95671D02*
D03*
X-124246Y-104578D02*
D03*
X-121814Y-107205D02*
D03*
X-127900Y-96300D02*
D03*
X-130407Y-98803D02*
D03*
X-123422Y-91874D02*
D03*
X-126200Y-88828D02*
D03*
X-116710Y-111790D02*
D03*
X-119114Y-109386D02*
D03*
X-135400Y-103800D02*
D03*
X-132900Y-101300D02*
D03*
X-117352Y-50762D02*
D03*
X-99600Y-50600D02*
D03*
X-104600Y41700D02*
D03*
X-77400Y-20800D02*
D03*
X-116899Y25500D02*
D03*
X64000Y65400D02*
D03*
X-76500Y21900D02*
D03*
X-118103Y-69015D02*
D03*
X-119563Y-65927D02*
D03*
X-115846Y-66352D02*
D03*
X-114475Y35519D02*
D03*
X-95600Y47600D02*
D03*
X-97000Y57800D02*
D03*
X71150Y5200D02*
D03*
X71100Y-2600D02*
D03*
X71150Y9000D02*
D03*
Y1400D02*
D03*
X94226Y9000D02*
D03*
X97977Y-57841D02*
D03*
X-113500Y25400D02*
D03*
X-96600Y53000D02*
D03*
X-112100Y-18000D02*
D03*
X-113105Y-63898D02*
D03*
X-87980Y-61980D02*
D03*
X-81684Y-66700D02*
D03*
X109800Y-25900D02*
D03*
X3400Y-65700D02*
D03*
X20000D02*
D03*
X102300Y-900D02*
D03*
X-29100Y-65700D02*
D03*
X35900D02*
D03*
X63900Y-6900D02*
D03*
X65709Y-69709D02*
D03*
X29500Y-3919D02*
D03*
X53900Y-65800D02*
D03*
X-9000Y65800D02*
D03*
X-17000Y65620D02*
D03*
X23500Y65400D02*
D03*
X-33515Y65700D02*
D03*
X-41500D02*
D03*
X-25000Y65720D02*
D03*
X-1017Y65800D02*
D03*
X-49500Y65656D02*
D03*
X31500Y65400D02*
D03*
X56000Y-7200D02*
D03*
Y65400D02*
D03*
X48000Y-7200D02*
D03*
X40000Y-7100D02*
D03*
X35900Y6900D02*
D03*
X11700Y6800D02*
D03*
X7500Y-7100D02*
D03*
X-25000D02*
D03*
X-33500Y-7200D02*
D03*
X-29131Y7608D02*
D03*
X-45000Y7527D02*
D03*
X-79563Y-17263D02*
D03*
X-53300Y7527D02*
D03*
X-61600Y7556D02*
D03*
X-79200Y19200D02*
D03*
X-81500Y16600D02*
D03*
X-74700Y-23100D02*
D03*
X-1000Y-7200D02*
D03*
X-9000D02*
D03*
X-41500D02*
D03*
X-17000D02*
D03*
X-49500D02*
D03*
X-72200Y-25800D02*
D03*
X-58583Y-7100D02*
D03*
X-20800Y-65800D02*
D03*
X-53300D02*
D03*
X11700D02*
D03*
X44200D02*
D03*
X-12500Y-65700D02*
D03*
X-45000D02*
D03*
X23500Y-7200D02*
D03*
X15500D02*
D03*
X-57500Y65756D02*
D03*
X-20800Y7021D02*
D03*
X3400Y6900D02*
D03*
X20000D02*
D03*
X-12500Y7120D02*
D03*
X7500Y65500D02*
D03*
X15500Y65400D02*
D03*
X48000D02*
D03*
X40000Y65500D02*
D03*
X44200Y6800D02*
D03*
X52500Y6900D02*
D03*
D60*
X127400Y40300D02*
D03*
X127300Y50800D02*
D03*
X133600Y56600D02*
D03*
X127300Y59300D02*
D03*
X102014Y-42114D02*
D03*
X-71200Y-93100D02*
D03*
X-66400D02*
D03*
X-80900Y-39400D02*
D03*
X99500Y72400D02*
D03*
X80100Y82600D02*
D03*
X126700Y17900D02*
D03*
X88593Y18224D02*
D03*
X134200Y90800D02*
D03*
X102500Y91100D02*
D03*
X124163Y137D02*
D03*
X-71000Y39600D02*
D03*
X-82400Y34500D02*
D03*
X83800Y19200D02*
D03*
X-114900Y900D02*
D03*
X66400Y-99600D02*
D03*
X120800Y-71000D02*
D03*
X-73900Y300D02*
D03*
X-105400Y-21500D02*
D03*
X94800Y14100D02*
D03*
X126600Y24400D02*
D03*
Y32100D02*
D03*
X94000Y-1000D02*
D03*
X133735Y-49139D02*
D03*
X98200Y-26300D02*
D03*
X133500Y-44000D02*
D03*
X118700Y-78800D02*
D03*
X102576Y-82622D02*
D03*
X-112200Y67400D02*
D03*
X106300Y-700D02*
D03*
X130154Y249D02*
D03*
X72500Y96600D02*
D03*
Y106900D02*
D03*
X-49000Y-26200D02*
D03*
X-16500Y-26400D02*
D03*
X48500D02*
D03*
X16000D02*
D03*
X-16500Y24165D02*
D03*
X48500Y23944D02*
D03*
X16000Y24200D02*
D03*
X-49000D02*
D03*
M02*
