G04*
G04 #@! TF.GenerationSoftware,Altium Limited,Altium Designer,22.4.2 (48)*
G04*
G04 Layer_Color=32896*
%FSLAX25Y25*%
%MOIN*%
G70*
G04*
G04 #@! TF.SameCoordinates,FFA694D2-1829-43A5-BD7A-47FC6BC8C01B*
G04*
G04*
G04 #@! TF.FilePolarity,Positive*
G04*
G01*
G75*
%ADD108C,0.00394*%
D108*
X116332Y51000D02*
X120268D01*
X118300Y49031D02*
Y52969D01*
X110000Y-50669D02*
Y-46731D01*
X108031Y-48700D02*
X111969D01*
X-78469Y-37000D02*
X-74532D01*
X-76500Y-38969D02*
Y-35032D01*
X-72069Y-37000D02*
X-68132D01*
X-70100Y-38969D02*
Y-35032D01*
X82032Y96600D02*
X85969D01*
X84000Y94631D02*
Y98568D01*
X118300Y58432D02*
Y62369D01*
X116332Y60400D02*
X120268D01*
X116631Y24600D02*
X120569D01*
X118600Y22632D02*
Y26568D01*
X-99968Y-55300D02*
X-96031D01*
X-98000Y-57269D02*
Y-53332D01*
X78831Y27600D02*
X82768D01*
X80800Y25631D02*
Y29568D01*
X-108600Y40031D02*
Y43968D01*
X-110568Y42000D02*
X-106632D01*
X-1500Y-96969D02*
Y-93032D01*
X-3469Y-95000D02*
X469D01*
X127131Y-46600D02*
X131069D01*
X129100Y-48568D02*
Y-44631D01*
X107931Y-74700D02*
X111869D01*
X109900Y-76669D02*
Y-72732D01*
X-106968Y70100D02*
X-103032D01*
X-105000Y68132D02*
Y72069D01*
X-107069Y62300D02*
X-103131D01*
X-105100Y60331D02*
Y64268D01*
X-118800Y-57069D02*
Y-53132D01*
X-120768Y-55100D02*
X-116832D01*
X110531Y-21700D02*
X114469D01*
X112500Y-23668D02*
Y-19732D01*
X116631Y32200D02*
X120569D01*
X118600Y30231D02*
Y34168D01*
X116332Y40500D02*
X120268D01*
X118300Y38532D02*
Y42469D01*
X81500Y-95368D02*
Y-91431D01*
X79532Y-93400D02*
X83469D01*
X73100Y-95669D02*
Y-91732D01*
X71131Y-93700D02*
X75068D01*
X116631Y17100D02*
X120569D01*
X118600Y15132D02*
Y19069D01*
X116594Y9500D02*
X120531D01*
X118562Y7531D02*
Y11468D01*
X101932Y45600D02*
X105868D01*
X103900Y43632D02*
Y47569D01*
X122500Y82832D02*
Y86769D01*
X120531Y84800D02*
X124469D01*
X83900Y104832D02*
Y108768D01*
X81932Y106800D02*
X85869D01*
X109600Y66632D02*
Y70569D01*
X107632Y68600D02*
X111568D01*
X109600Y88231D02*
Y92168D01*
X107632Y90200D02*
X111568D01*
M02*
