G04*
G04 #@! TF.GenerationSoftware,Altium Limited,Altium Designer,22.4.2 (48)*
G04*
G04 Layer_Physical_Order=3*
G04 Layer_Color=16440176*
%FSLAX25Y25*%
%MOIN*%
G70*
G04*
G04 #@! TF.SameCoordinates,FFA694D2-1829-43A5-BD7A-47FC6BC8C01B*
G04*
G04*
G04 #@! TF.FilePolarity,Positive*
G04*
G01*
G75*
G04:AMPARAMS|DCode=54|XSize=31.5mil|YSize=62.99mil|CornerRadius=11.81mil|HoleSize=0mil|Usage=FLASHONLY|Rotation=0.000|XOffset=0mil|YOffset=0mil|HoleType=Round|Shape=RoundedRectangle|*
%AMROUNDEDRECTD54*
21,1,0.03150,0.03937,0,0,0.0*
21,1,0.00787,0.06299,0,0,0.0*
1,1,0.02362,0.00394,-0.01968*
1,1,0.02362,-0.00394,-0.01968*
1,1,0.02362,-0.00394,0.01968*
1,1,0.02362,0.00394,0.01968*
%
%ADD54ROUNDEDRECTD54*%
%ADD55C,0.04559*%
%ADD56C,0.04500*%
G04:AMPARAMS|DCode=57|XSize=31.5mil|YSize=62.99mil|CornerRadius=11.81mil|HoleSize=0mil|Usage=FLASHONLY|Rotation=90.000|XOffset=0mil|YOffset=0mil|HoleType=Round|Shape=RoundedRectangle|*
%AMROUNDEDRECTD57*
21,1,0.03150,0.03937,0,0,90.0*
21,1,0.00787,0.06299,0,0,90.0*
1,1,0.02362,0.01968,0.00394*
1,1,0.02362,0.01968,-0.00394*
1,1,0.02362,-0.01968,-0.00394*
1,1,0.02362,-0.01968,0.00394*
%
%ADD57ROUNDEDRECTD57*%
%ADD58R,0.06299X0.03150*%
%ADD59C,0.02400*%
%ADD60C,0.03600*%
G36*
X133029Y113665D02*
X134171Y113192D01*
X135199Y112505D01*
X135636Y112068D01*
X135636D01*
X135636Y112068D01*
X138298Y109406D01*
X138464Y109240D01*
X138726Y108848D01*
X138906Y108413D01*
X138953Y108177D01*
X138998Y107718D01*
Y107716D01*
X138998Y107716D01*
X138998Y107716D01*
Y-97824D01*
Y-98530D01*
X138722Y-99915D01*
X138182Y-101220D01*
X137397Y-102394D01*
X136898Y-102894D01*
X136375Y-103417D01*
X135144Y-104239D01*
X133777Y-104805D01*
X132326Y-105094D01*
X131587Y-105094D01*
X124098D01*
X86365Y-105371D01*
X82990D01*
Y-105350D01*
X64745Y-105529D01*
X42298Y-105694D01*
X-25902Y-110294D01*
X-73102Y-116194D01*
X-117967Y-124073D01*
X-131579Y-127160D01*
X-131647Y-127193D01*
X-131791Y-127243D01*
X-131940Y-127277D01*
X-132092Y-127294D01*
X-132168Y-127294D01*
X-133668D01*
X-134974Y-127034D01*
X-136204Y-126524D01*
X-137311Y-125785D01*
X-137782Y-125314D01*
Y-125314D01*
X-138202Y-124894D01*
X-138868Y-124228D01*
X-139914Y-122662D01*
X-140635Y-120923D01*
X-141002Y-119076D01*
Y-118134D01*
X-141002Y58946D01*
X-141038Y59873D01*
X-140746Y61705D01*
X-140103Y63445D01*
X-139132Y65026D01*
X-138502Y65706D01*
X-138143Y66237D01*
X-137232Y67137D01*
X-136162Y67843D01*
X-134976Y68326D01*
X-134347Y68447D01*
X-134347Y68447D01*
X-77566Y88701D01*
X-9509Y105587D01*
X45498Y112006D01*
X78098Y113606D01*
X127598Y113906D01*
X131198Y113906D01*
X131816Y113906D01*
X133029Y113665D01*
D02*
G37*
%LPC*%
G36*
X121436Y106692D02*
X120649D01*
X119798Y106523D01*
X119076Y106041D01*
X118883Y105751D01*
X118281D01*
X118087Y106041D01*
X117366Y106523D01*
X116515Y106692D01*
X115728D01*
X114876Y106523D01*
X114155Y106041D01*
X113673Y105319D01*
X113504Y104469D01*
Y100531D01*
X113673Y99681D01*
X114155Y98959D01*
X114876Y98477D01*
X115728Y98308D01*
X116515D01*
X117366Y98477D01*
X118087Y98959D01*
X118281Y99249D01*
X118883D01*
X119076Y98959D01*
X119798Y98477D01*
X120649Y98308D01*
X121436D01*
X122287Y98477D01*
X123009Y98959D01*
X123491Y99681D01*
X123660Y100531D01*
Y104469D01*
X123491Y105319D01*
X123009Y106041D01*
X122287Y106523D01*
X121436Y106692D01*
D02*
G37*
G36*
X106672D02*
X105885D01*
X105034Y106523D01*
X104313Y106041D01*
X103831Y105319D01*
X103661Y104469D01*
Y100531D01*
X103831Y99681D01*
X104313Y98959D01*
X105034Y98477D01*
X105885Y98308D01*
X106672D01*
X107524Y98477D01*
X108245Y98959D01*
X108727Y99681D01*
X108896Y100531D01*
Y104469D01*
X108727Y105319D01*
X108245Y106041D01*
X107524Y106523D01*
X106672Y106692D01*
D02*
G37*
G36*
X80469Y85400D02*
X79731D01*
X79019Y85209D01*
X78381Y84841D01*
X77859Y84319D01*
X77491Y83681D01*
X77300Y82969D01*
Y82231D01*
X77491Y81519D01*
X77859Y80881D01*
X78381Y80359D01*
X79019Y79991D01*
X79731Y79800D01*
X80469D01*
X81181Y79991D01*
X81819Y80359D01*
X82341Y80881D01*
X82709Y81519D01*
X82900Y82231D01*
Y82969D01*
X82709Y83681D01*
X82341Y84319D01*
X81819Y84841D01*
X81181Y85209D01*
X80469Y85400D01*
D02*
G37*
G36*
X-579Y68000D02*
X-1454D01*
X-2263Y67665D01*
X-2882Y67046D01*
X-3217Y66238D01*
Y65362D01*
X-2882Y64554D01*
X-2263Y63935D01*
X-1454Y63600D01*
X-579D01*
X229Y63935D01*
X848Y64554D01*
X1183Y65362D01*
Y66238D01*
X848Y67046D01*
X229Y67665D01*
X-579Y68000D01*
D02*
G37*
G36*
X-8562D02*
X-9438D01*
X-10246Y67665D01*
X-10865Y67046D01*
X-11200Y66238D01*
Y65362D01*
X-10865Y64554D01*
X-10246Y63935D01*
X-9438Y63600D01*
X-8562D01*
X-7754Y63935D01*
X-7135Y64554D01*
X-6800Y65362D01*
Y66238D01*
X-7135Y67046D01*
X-7754Y67665D01*
X-8562Y68000D01*
D02*
G37*
G36*
X-57062Y67956D02*
X-57938D01*
X-58746Y67621D01*
X-59365Y67002D01*
X-59700Y66193D01*
Y65318D01*
X-59365Y64510D01*
X-58746Y63891D01*
X-57938Y63556D01*
X-57062D01*
X-56254Y63891D01*
X-55635Y64510D01*
X-55300Y65318D01*
Y66193D01*
X-55635Y67002D01*
X-56254Y67621D01*
X-57062Y67956D01*
D02*
G37*
G36*
X-24562Y67921D02*
X-25438D01*
X-26246Y67585D01*
X-26865Y66967D01*
X-27200Y66158D01*
Y65283D01*
X-26865Y64474D01*
X-26246Y63855D01*
X-25438Y63520D01*
X-24562D01*
X-23754Y63855D01*
X-23135Y64474D01*
X-22800Y65283D01*
Y66158D01*
X-23135Y66967D01*
X-23754Y67585D01*
X-24562Y67921D01*
D02*
G37*
G36*
X-33077Y67900D02*
X-33953D01*
X-34761Y67565D01*
X-35380Y66946D01*
X-35715Y66138D01*
Y65262D01*
X-35380Y64454D01*
X-34761Y63835D01*
X-33953Y63500D01*
X-33077D01*
X-32269Y63835D01*
X-31650Y64454D01*
X-31315Y65262D01*
Y66138D01*
X-31650Y66946D01*
X-32269Y67565D01*
X-33077Y67900D01*
D02*
G37*
G36*
X-41062D02*
X-41938D01*
X-42746Y67565D01*
X-43365Y66946D01*
X-43700Y66138D01*
Y65262D01*
X-43365Y64454D01*
X-42746Y63835D01*
X-41938Y63500D01*
X-41062D01*
X-40254Y63835D01*
X-39635Y64454D01*
X-39300Y65262D01*
Y66138D01*
X-39635Y66946D01*
X-40254Y67565D01*
X-41062Y67900D01*
D02*
G37*
G36*
X-49062Y67856D02*
X-49938D01*
X-50746Y67521D01*
X-51365Y66902D01*
X-51700Y66093D01*
Y65218D01*
X-51365Y64410D01*
X-50746Y63791D01*
X-49938Y63456D01*
X-49062D01*
X-48254Y63791D01*
X-47635Y64410D01*
X-47300Y65218D01*
Y66093D01*
X-47635Y66902D01*
X-48254Y67521D01*
X-49062Y67856D01*
D02*
G37*
G36*
X-16562Y67821D02*
X-17438D01*
X-18246Y67485D01*
X-18865Y66867D01*
X-19200Y66058D01*
Y65183D01*
X-18865Y64374D01*
X-18246Y63755D01*
X-17438Y63420D01*
X-16562D01*
X-15754Y63755D01*
X-15135Y64374D01*
X-14800Y65183D01*
Y66058D01*
X-15135Y66867D01*
X-15754Y67485D01*
X-16562Y67821D01*
D02*
G37*
G36*
X40438Y67700D02*
X39562D01*
X38754Y67365D01*
X38135Y66746D01*
X37800Y65938D01*
Y65062D01*
X38135Y64254D01*
X38754Y63635D01*
X39562Y63300D01*
X40438D01*
X41246Y63635D01*
X41865Y64254D01*
X42200Y65062D01*
Y65938D01*
X41865Y66746D01*
X41246Y67365D01*
X40438Y67700D01*
D02*
G37*
G36*
X7938D02*
X7062D01*
X6254Y67365D01*
X5635Y66746D01*
X5300Y65938D01*
Y65062D01*
X5635Y64254D01*
X6254Y63635D01*
X7062Y63300D01*
X7938D01*
X8746Y63635D01*
X9365Y64254D01*
X9700Y65062D01*
Y65938D01*
X9365Y66746D01*
X8746Y67365D01*
X7938Y67700D01*
D02*
G37*
G36*
X64438Y67600D02*
X63562D01*
X62754Y67265D01*
X62135Y66646D01*
X61800Y65838D01*
Y64962D01*
X62135Y64154D01*
X62754Y63535D01*
X63562Y63200D01*
X64438D01*
X65246Y63535D01*
X65865Y64154D01*
X66200Y64962D01*
Y65838D01*
X65865Y66646D01*
X65246Y67265D01*
X64438Y67600D01*
D02*
G37*
G36*
X56438D02*
X55562D01*
X54754Y67265D01*
X54135Y66646D01*
X53800Y65838D01*
Y64962D01*
X54135Y64154D01*
X54754Y63535D01*
X55562Y63200D01*
X56438D01*
X57246Y63535D01*
X57865Y64154D01*
X58200Y64962D01*
Y65838D01*
X57865Y66646D01*
X57246Y67265D01*
X56438Y67600D01*
D02*
G37*
G36*
X48438D02*
X47562D01*
X46754Y67265D01*
X46135Y66646D01*
X45800Y65838D01*
Y64962D01*
X46135Y64154D01*
X46754Y63535D01*
X47562Y63200D01*
X48438D01*
X49246Y63535D01*
X49865Y64154D01*
X50200Y64962D01*
Y65838D01*
X49865Y66646D01*
X49246Y67265D01*
X48438Y67600D01*
D02*
G37*
G36*
X31938D02*
X31062D01*
X30254Y67265D01*
X29635Y66646D01*
X29300Y65838D01*
Y64962D01*
X29635Y64154D01*
X30254Y63535D01*
X31062Y63200D01*
X31938D01*
X32746Y63535D01*
X33365Y64154D01*
X33700Y64962D01*
Y65838D01*
X33365Y66646D01*
X32746Y67265D01*
X31938Y67600D01*
D02*
G37*
G36*
X23938D02*
X23062D01*
X22254Y67265D01*
X21635Y66646D01*
X21300Y65838D01*
Y64962D01*
X21635Y64154D01*
X22254Y63535D01*
X23062Y63200D01*
X23938D01*
X24746Y63535D01*
X25365Y64154D01*
X25700Y64962D01*
Y65838D01*
X25365Y66646D01*
X24746Y67265D01*
X23938Y67600D01*
D02*
G37*
G36*
X15938D02*
X15062D01*
X14254Y67265D01*
X13635Y66646D01*
X13300Y65838D01*
Y64962D01*
X13635Y64154D01*
X14254Y63535D01*
X15062Y63200D01*
X15938D01*
X16746Y63535D01*
X17365Y64154D01*
X17700Y64962D01*
Y65838D01*
X17365Y66646D01*
X16746Y67265D01*
X15938Y67600D01*
D02*
G37*
G36*
X133969Y59400D02*
X133231D01*
X132519Y59209D01*
X131881Y58841D01*
X131359Y58319D01*
X130991Y57681D01*
X130800Y56969D01*
Y56231D01*
X130991Y55519D01*
X131359Y54881D01*
X131881Y54359D01*
X132519Y53991D01*
X133231Y53800D01*
X133969D01*
X134681Y53991D01*
X135319Y54359D01*
X135841Y54881D01*
X136209Y55519D01*
X136400Y56231D01*
Y56969D01*
X136209Y57681D01*
X135841Y58319D01*
X135319Y58841D01*
X134681Y59209D01*
X133969Y59400D01*
D02*
G37*
G36*
X-96562Y60000D02*
X-97438D01*
X-98246Y59665D01*
X-98865Y59046D01*
X-99200Y58238D01*
Y57362D01*
X-98865Y56554D01*
X-98246Y55935D01*
X-97438Y55600D01*
X-97378D01*
X-97279Y55100D01*
X-97846Y54865D01*
X-98465Y54246D01*
X-98800Y53438D01*
Y52562D01*
X-98465Y51754D01*
X-97846Y51135D01*
X-97038Y50800D01*
X-96162D01*
X-95354Y51135D01*
X-94735Y51754D01*
X-94400Y52562D01*
Y53438D01*
X-94735Y54246D01*
X-95354Y54865D01*
X-96162Y55200D01*
X-96222D01*
X-96321Y55700D01*
X-95754Y55935D01*
X-95135Y56554D01*
X-94800Y57362D01*
Y58238D01*
X-95135Y59046D01*
X-95754Y59665D01*
X-96562Y60000D01*
D02*
G37*
G36*
X-86585Y54809D02*
X-88055Y54665D01*
X-89469Y54236D01*
X-90772Y53539D01*
X-91914Y52602D01*
X-92851Y51460D01*
X-93548Y50157D01*
X-93755Y49473D01*
X-94240Y49352D01*
X-94354Y49465D01*
X-95162Y49800D01*
X-96038D01*
X-96846Y49465D01*
X-97465Y48846D01*
X-97800Y48038D01*
Y47162D01*
X-97465Y46354D01*
X-96846Y45735D01*
X-96038Y45400D01*
X-95162D01*
X-94451Y45695D01*
X-94052Y45583D01*
X-93884Y45498D01*
X-93548Y44389D01*
X-92851Y43086D01*
X-91914Y41944D01*
X-90772Y41007D01*
X-89469Y40311D01*
X-88055Y39882D01*
X-86585Y39737D01*
X-85115Y39882D01*
X-83701Y40311D01*
X-82398Y41007D01*
X-81256Y41944D01*
X-80319Y43086D01*
X-79622Y44389D01*
X-79194Y45803D01*
X-79049Y47273D01*
X-79194Y48744D01*
X-79622Y50157D01*
X-80319Y51460D01*
X-81256Y52602D01*
X-82398Y53539D01*
X-83701Y54236D01*
X-85115Y54665D01*
X-86585Y54809D01*
D02*
G37*
G36*
X86643D02*
X85173Y54665D01*
X83759Y54236D01*
X82456Y53539D01*
X81314Y52602D01*
X80377Y51460D01*
X79681Y50157D01*
X79252Y48744D01*
X79107Y47273D01*
X79252Y45803D01*
X79681Y44389D01*
X80377Y43086D01*
X81314Y41944D01*
X82456Y41007D01*
X83759Y40311D01*
X85173Y39882D01*
X86643Y39737D01*
X88114Y39882D01*
X89527Y40311D01*
X90830Y41007D01*
X91972Y41944D01*
X92909Y43086D01*
X93606Y44389D01*
X94035Y45803D01*
X94180Y47273D01*
X94035Y48744D01*
X93606Y50157D01*
X92909Y51460D01*
X91972Y52602D01*
X90830Y53539D01*
X89527Y54236D01*
X88114Y54665D01*
X86643Y54809D01*
D02*
G37*
G36*
X-70631Y42400D02*
X-71369D01*
X-72081Y42209D01*
X-72719Y41841D01*
X-73241Y41319D01*
X-73609Y40681D01*
X-73800Y39969D01*
Y39231D01*
X-73609Y38519D01*
X-73241Y37881D01*
X-72719Y37359D01*
X-72081Y36991D01*
X-71369Y36800D01*
X-70631D01*
X-69919Y36991D01*
X-69281Y37359D01*
X-68759Y37881D01*
X-68391Y38519D01*
X-68200Y39231D01*
Y39969D01*
X-68391Y40681D01*
X-68759Y41319D01*
X-69281Y41841D01*
X-69919Y42209D01*
X-70631Y42400D01*
D02*
G37*
G36*
X-114037Y37719D02*
X-114913D01*
X-115721Y37384D01*
X-116340Y36766D01*
X-116675Y35957D01*
Y35082D01*
X-116340Y34273D01*
X-115721Y33654D01*
X-114913Y33319D01*
X-114037D01*
X-113229Y33654D01*
X-112610Y34273D01*
X-112275Y35082D01*
Y35957D01*
X-112610Y36766D01*
X-113229Y37384D01*
X-114037Y37719D01*
D02*
G37*
G36*
X-82031Y37300D02*
X-82769D01*
X-83481Y37109D01*
X-84119Y36741D01*
X-84641Y36219D01*
X-85009Y35581D01*
X-85200Y34869D01*
Y34131D01*
X-85009Y33419D01*
X-84641Y32781D01*
X-84119Y32259D01*
X-83481Y31891D01*
X-82769Y31700D01*
X-82031D01*
X-81319Y31891D01*
X-80681Y32259D01*
X-80159Y32781D01*
X-79791Y33419D01*
X-79600Y34131D01*
Y34869D01*
X-79791Y35581D01*
X-80159Y36219D01*
X-80681Y36741D01*
X-81319Y37109D01*
X-82031Y37300D01*
D02*
G37*
G36*
X-113062Y27600D02*
X-113938D01*
X-114746Y27265D01*
X-115365Y26646D01*
X-115700Y25838D01*
Y24962D01*
X-115365Y24154D01*
X-114746Y23535D01*
X-113938Y23200D01*
X-113062D01*
X-112254Y23535D01*
X-111635Y24154D01*
X-111300Y24962D01*
Y25838D01*
X-111635Y26646D01*
X-112254Y27265D01*
X-113062Y27600D01*
D02*
G37*
G36*
X16369Y27000D02*
X15631D01*
X14919Y26809D01*
X14281Y26441D01*
X13759Y25919D01*
X13391Y25281D01*
X13200Y24569D01*
Y23831D01*
X13391Y23119D01*
X13759Y22481D01*
X14281Y21959D01*
X14919Y21591D01*
X15631Y21400D01*
X16369D01*
X17081Y21591D01*
X17719Y21959D01*
X18241Y22481D01*
X18609Y23119D01*
X18800Y23831D01*
Y24569D01*
X18609Y25281D01*
X18241Y25919D01*
X17719Y26441D01*
X17081Y26809D01*
X16369Y27000D01*
D02*
G37*
G36*
X-48631D02*
X-49369D01*
X-50081Y26809D01*
X-50719Y26441D01*
X-51241Y25919D01*
X-51609Y25281D01*
X-51800Y24569D01*
Y23831D01*
X-51609Y23119D01*
X-51241Y22481D01*
X-50719Y21959D01*
X-50081Y21591D01*
X-49369Y21400D01*
X-48631D01*
X-47919Y21591D01*
X-47281Y21959D01*
X-46759Y22481D01*
X-46391Y23119D01*
X-46200Y23831D01*
Y24569D01*
X-46391Y25281D01*
X-46759Y25919D01*
X-47281Y26441D01*
X-47919Y26809D01*
X-48631Y27000D01*
D02*
G37*
G36*
X-16131Y26965D02*
X-16869D01*
X-17581Y26774D01*
X-18219Y26405D01*
X-18741Y25884D01*
X-19109Y25245D01*
X-19300Y24533D01*
Y23796D01*
X-19109Y23084D01*
X-18741Y22445D01*
X-18219Y21924D01*
X-17581Y21555D01*
X-16869Y21365D01*
X-16131D01*
X-15419Y21555D01*
X-14781Y21924D01*
X-14259Y22445D01*
X-13891Y23084D01*
X-13700Y23796D01*
Y24533D01*
X-13891Y25245D01*
X-14259Y25884D01*
X-14781Y26405D01*
X-15419Y26774D01*
X-16131Y26965D01*
D02*
G37*
G36*
X48869Y26744D02*
X48131D01*
X47419Y26553D01*
X46781Y26185D01*
X46259Y25663D01*
X45891Y25025D01*
X45700Y24313D01*
Y23575D01*
X45891Y22863D01*
X46259Y22225D01*
X46781Y21703D01*
X47419Y21335D01*
X48131Y21144D01*
X48869D01*
X49581Y21335D01*
X50219Y21703D01*
X50741Y22225D01*
X51109Y22863D01*
X51300Y23575D01*
Y24313D01*
X51109Y25025D01*
X50741Y25663D01*
X50219Y26185D01*
X49581Y26553D01*
X48869Y26744D01*
D02*
G37*
G36*
X84169Y22000D02*
X83431D01*
X82719Y21809D01*
X82081Y21441D01*
X81559Y20919D01*
X81191Y20281D01*
X81000Y19569D01*
Y18831D01*
X81191Y18119D01*
X81559Y17481D01*
X82081Y16959D01*
X82719Y16591D01*
X83431Y16400D01*
X84169D01*
X84881Y16591D01*
X85519Y16959D01*
X86041Y17481D01*
X86409Y18119D01*
X86600Y18831D01*
Y19569D01*
X86409Y20281D01*
X86041Y20919D01*
X85519Y21441D01*
X84881Y21809D01*
X84169Y22000D01*
D02*
G37*
G36*
X-76062Y24100D02*
X-76938D01*
X-77746Y23765D01*
X-78365Y23146D01*
X-78700Y22338D01*
Y21862D01*
X-78755Y21455D01*
X-79162Y21400D01*
X-79638D01*
X-80446Y21065D01*
X-81065Y20446D01*
X-81400Y19638D01*
Y18800D01*
X-81938D01*
X-82746Y18465D01*
X-83365Y17846D01*
X-83700Y17038D01*
Y16162D01*
X-83365Y15354D01*
X-82746Y14735D01*
X-81938Y14400D01*
X-81062D01*
X-80254Y14735D01*
X-79635Y15354D01*
X-79300Y16162D01*
Y17000D01*
X-78762D01*
X-77954Y17335D01*
X-77335Y17954D01*
X-77000Y18762D01*
Y19238D01*
X-76945Y19645D01*
X-76538Y19700D01*
X-76062D01*
X-75254Y20035D01*
X-74635Y20654D01*
X-74300Y21462D01*
Y22338D01*
X-74635Y23146D01*
X-75254Y23765D01*
X-76062Y24100D01*
D02*
G37*
G36*
X95169Y16900D02*
X94431D01*
X93719Y16709D01*
X93081Y16341D01*
X92559Y15819D01*
X92191Y15181D01*
X92000Y14469D01*
Y13731D01*
X92191Y13019D01*
X92559Y12381D01*
X93081Y11859D01*
X93719Y11491D01*
X94431Y11300D01*
X95169D01*
X95881Y11491D01*
X96519Y11859D01*
X97041Y12381D01*
X97409Y13019D01*
X97600Y13731D01*
Y14469D01*
X97409Y15181D01*
X97041Y15819D01*
X96519Y16341D01*
X95881Y16709D01*
X95169Y16900D01*
D02*
G37*
G36*
X-130731Y59724D02*
X-134669D01*
X-135520Y59554D01*
X-136241Y59073D01*
X-136723Y58351D01*
X-136892Y57500D01*
Y56713D01*
X-136723Y55862D01*
X-136241Y55140D01*
X-135951Y54946D01*
Y54345D01*
X-136241Y54151D01*
X-136723Y53430D01*
X-136892Y52579D01*
Y51791D01*
X-136723Y50940D01*
X-136241Y50219D01*
X-135951Y50025D01*
Y49424D01*
X-136241Y49230D01*
X-136723Y48509D01*
X-136892Y47657D01*
Y46870D01*
X-136723Y46019D01*
X-136241Y45298D01*
X-135951Y45104D01*
Y44502D01*
X-136241Y44309D01*
X-136723Y43587D01*
X-136892Y42736D01*
Y41949D01*
X-136723Y41098D01*
X-136241Y40376D01*
X-135951Y40183D01*
Y39581D01*
X-136241Y39388D01*
X-136723Y38666D01*
X-136892Y37815D01*
Y37028D01*
X-136723Y36176D01*
X-136241Y35455D01*
X-135951Y35261D01*
Y34660D01*
X-136241Y34466D01*
X-136723Y33745D01*
X-136892Y32894D01*
Y32106D01*
X-136723Y31255D01*
X-136241Y30534D01*
X-135951Y30340D01*
Y29739D01*
X-136241Y29545D01*
X-136723Y28824D01*
X-136892Y27972D01*
Y27185D01*
X-136723Y26334D01*
X-136241Y25613D01*
X-135951Y25419D01*
Y24817D01*
X-136241Y24624D01*
X-136723Y23902D01*
X-136892Y23051D01*
Y22264D01*
X-136723Y21413D01*
X-136241Y20691D01*
X-135951Y20497D01*
Y19896D01*
X-136241Y19702D01*
X-136723Y18981D01*
X-136892Y18130D01*
Y17343D01*
X-136723Y16491D01*
X-136241Y15770D01*
X-135951Y15576D01*
Y14975D01*
X-136241Y14781D01*
X-136723Y14060D01*
X-136892Y13209D01*
Y12421D01*
X-136723Y11570D01*
X-136241Y10849D01*
X-135520Y10367D01*
X-134669Y10197D01*
X-130731D01*
X-129880Y10367D01*
X-129159Y10849D01*
X-128677Y11570D01*
X-128508Y12421D01*
Y13209D01*
X-128677Y14060D01*
X-129159Y14781D01*
X-129449Y14975D01*
Y15576D01*
X-129159Y15770D01*
X-128677Y16491D01*
X-128508Y17343D01*
Y18130D01*
X-128677Y18981D01*
X-129159Y19702D01*
X-129449Y19896D01*
Y20497D01*
X-129159Y20691D01*
X-128677Y21413D01*
X-128508Y22264D01*
Y23051D01*
X-128677Y23902D01*
X-129159Y24624D01*
X-129449Y24817D01*
Y25419D01*
X-129159Y25613D01*
X-128677Y26334D01*
X-128508Y27185D01*
Y27972D01*
X-128677Y28824D01*
X-129159Y29545D01*
X-129449Y29739D01*
Y30340D01*
X-129159Y30534D01*
X-128677Y31255D01*
X-128508Y32106D01*
Y32894D01*
X-128677Y33745D01*
X-129159Y34466D01*
X-129449Y34660D01*
Y35261D01*
X-129159Y35455D01*
X-128677Y36176D01*
X-128508Y37028D01*
Y37815D01*
X-128677Y38666D01*
X-129159Y39388D01*
X-129449Y39581D01*
Y40183D01*
X-129159Y40376D01*
X-128677Y41098D01*
X-128508Y41949D01*
Y42736D01*
X-128677Y43587D01*
X-129159Y44309D01*
X-129449Y44502D01*
Y45104D01*
X-129159Y45298D01*
X-128677Y46019D01*
X-128508Y46870D01*
Y47657D01*
X-128677Y48509D01*
X-129159Y49230D01*
X-129449Y49424D01*
Y50025D01*
X-129159Y50219D01*
X-128677Y50940D01*
X-128508Y51791D01*
Y52579D01*
X-128677Y53430D01*
X-129159Y54151D01*
X-129449Y54345D01*
Y54946D01*
X-129159Y55140D01*
X-128677Y55862D01*
X-128508Y56713D01*
Y57500D01*
X-128677Y58351D01*
X-129159Y59073D01*
X-129880Y59554D01*
X-130731Y59724D01*
D02*
G37*
G36*
X-94523Y11161D02*
X-95398D01*
X-96207Y10825D01*
X-96826Y10207D01*
X-97161Y9398D01*
Y8523D01*
X-96826Y7714D01*
X-96207Y7095D01*
X-95398Y6761D01*
X-94523D01*
X-93714Y7095D01*
X-93095Y7714D01*
X-92760Y8523D01*
Y9398D01*
X-93095Y10207D01*
X-93714Y10825D01*
X-94523Y11161D01*
D02*
G37*
G36*
X-28693Y9808D02*
X-29569D01*
X-30377Y9473D01*
X-30996Y8854D01*
X-31331Y8045D01*
Y7170D01*
X-30996Y6362D01*
X-30377Y5743D01*
X-29569Y5408D01*
X-28693D01*
X-27885Y5743D01*
X-27266Y6362D01*
X-26931Y7170D01*
Y8045D01*
X-27266Y8854D01*
X-27885Y9473D01*
X-28693Y9808D01*
D02*
G37*
G36*
X-61162Y9756D02*
X-62038D01*
X-62846Y9421D01*
X-63465Y8802D01*
X-63800Y7993D01*
Y7118D01*
X-63465Y6310D01*
X-62846Y5691D01*
X-62038Y5356D01*
X-61162D01*
X-60354Y5691D01*
X-59735Y6310D01*
X-59400Y7118D01*
Y7993D01*
X-59735Y8802D01*
X-60354Y9421D01*
X-61162Y9756D01*
D02*
G37*
G36*
X-44562Y9727D02*
X-45438D01*
X-46246Y9392D01*
X-46865Y8773D01*
X-47200Y7964D01*
Y7089D01*
X-46865Y6281D01*
X-46246Y5662D01*
X-45438Y5327D01*
X-44562D01*
X-43754Y5662D01*
X-43135Y6281D01*
X-42800Y7089D01*
Y7964D01*
X-43135Y8773D01*
X-43754Y9392D01*
X-44562Y9727D01*
D02*
G37*
G36*
X-52862D02*
X-53738D01*
X-54546Y9392D01*
X-55165Y8773D01*
X-55500Y7964D01*
Y7089D01*
X-55165Y6281D01*
X-54546Y5662D01*
X-53738Y5327D01*
X-52862D01*
X-52054Y5662D01*
X-51435Y6281D01*
X-51100Y7089D01*
Y7964D01*
X-51435Y8773D01*
X-52054Y9392D01*
X-52862Y9727D01*
D02*
G37*
G36*
X-12062Y9320D02*
X-12938D01*
X-13746Y8986D01*
X-14365Y8367D01*
X-14700Y7558D01*
Y6683D01*
X-14365Y5874D01*
X-13746Y5255D01*
X-12938Y4921D01*
X-12062D01*
X-11254Y5255D01*
X-10635Y5874D01*
X-10300Y6683D01*
Y7558D01*
X-10635Y8367D01*
X-11254Y8986D01*
X-12062Y9320D01*
D02*
G37*
G36*
X-20362Y9221D02*
X-21238D01*
X-22046Y8885D01*
X-22665Y8267D01*
X-23000Y7458D01*
Y6583D01*
X-22665Y5774D01*
X-22046Y5155D01*
X-21238Y4820D01*
X-20362D01*
X-19554Y5155D01*
X-18935Y5774D01*
X-18600Y6583D01*
Y7458D01*
X-18935Y8267D01*
X-19554Y8885D01*
X-20362Y9221D01*
D02*
G37*
G36*
X52938Y9100D02*
X52062D01*
X51254Y8765D01*
X50635Y8146D01*
X50300Y7338D01*
Y6462D01*
X50635Y5654D01*
X51254Y5035D01*
X52062Y4700D01*
X52938D01*
X53746Y5035D01*
X54365Y5654D01*
X54700Y6462D01*
Y7338D01*
X54365Y8146D01*
X53746Y8765D01*
X52938Y9100D01*
D02*
G37*
G36*
X36338D02*
X35462D01*
X34654Y8765D01*
X34035Y8146D01*
X33700Y7338D01*
Y6462D01*
X34035Y5654D01*
X34654Y5035D01*
X35462Y4700D01*
X36338D01*
X37146Y5035D01*
X37765Y5654D01*
X38100Y6462D01*
Y7338D01*
X37765Y8146D01*
X37146Y8765D01*
X36338Y9100D01*
D02*
G37*
G36*
X20438D02*
X19562D01*
X18754Y8765D01*
X18135Y8146D01*
X17800Y7338D01*
Y6462D01*
X18135Y5654D01*
X18754Y5035D01*
X19562Y4700D01*
X20438D01*
X21246Y5035D01*
X21865Y5654D01*
X22200Y6462D01*
Y7338D01*
X21865Y8146D01*
X21246Y8765D01*
X20438Y9100D01*
D02*
G37*
G36*
X3838D02*
X2962D01*
X2154Y8765D01*
X1535Y8146D01*
X1200Y7338D01*
Y6462D01*
X1535Y5654D01*
X2154Y5035D01*
X2962Y4700D01*
X3838D01*
X4646Y5035D01*
X5265Y5654D01*
X5600Y6462D01*
Y7338D01*
X5265Y8146D01*
X4646Y8765D01*
X3838Y9100D01*
D02*
G37*
G36*
X44638Y9000D02*
X43762D01*
X42954Y8665D01*
X42335Y8046D01*
X42000Y7238D01*
Y6362D01*
X42335Y5554D01*
X42954Y4935D01*
X43762Y4600D01*
X44638D01*
X45446Y4935D01*
X46065Y5554D01*
X46400Y6362D01*
Y7238D01*
X46065Y8046D01*
X45446Y8665D01*
X44638Y9000D01*
D02*
G37*
G36*
X12138D02*
X11262D01*
X10454Y8665D01*
X9835Y8046D01*
X9500Y7238D01*
Y6362D01*
X9835Y5554D01*
X10454Y4935D01*
X11262Y4600D01*
X12138D01*
X12946Y4935D01*
X13565Y5554D01*
X13900Y6362D01*
Y7238D01*
X13565Y8046D01*
X12946Y8665D01*
X12138Y9000D01*
D02*
G37*
G36*
X106669Y2100D02*
X105931D01*
X105219Y1909D01*
X104581Y1541D01*
X104059Y1019D01*
X104057Y1015D01*
X103561Y950D01*
X103546Y965D01*
X102738Y1300D01*
X101862D01*
X101054Y965D01*
X100435Y346D01*
X100100Y-462D01*
Y-1338D01*
X100435Y-2146D01*
X101054Y-2765D01*
X101862Y-3100D01*
X102738D01*
X103546Y-2765D01*
X103911Y-2400D01*
X104059Y-2419D01*
X104581Y-2941D01*
X105219Y-3309D01*
X105931Y-3500D01*
X106669D01*
X107381Y-3309D01*
X108019Y-2941D01*
X108541Y-2419D01*
X108909Y-1781D01*
X109100Y-1069D01*
Y-331D01*
X108909Y381D01*
X108541Y1019D01*
X108019Y1541D01*
X107381Y1909D01*
X106669Y2100D01*
D02*
G37*
G36*
X-128550Y5547D02*
X-136850D01*
Y398D01*
X-128550D01*
Y5547D01*
D02*
G37*
G36*
X-114531Y3700D02*
X-115269D01*
X-115981Y3509D01*
X-116619Y3141D01*
X-117141Y2619D01*
X-117509Y1981D01*
X-117700Y1269D01*
Y531D01*
X-117509Y-181D01*
X-117141Y-819D01*
X-116619Y-1341D01*
X-115981Y-1709D01*
X-115269Y-1900D01*
X-114531D01*
X-113819Y-1709D01*
X-113181Y-1341D01*
X-112659Y-819D01*
X-112291Y-181D01*
X-112100Y531D01*
Y1269D01*
X-112291Y1981D01*
X-112659Y2619D01*
X-113181Y3141D01*
X-113819Y3509D01*
X-114531Y3700D01*
D02*
G37*
G36*
X130522Y3049D02*
X129785D01*
X129073Y2859D01*
X128435Y2490D01*
X127913Y1969D01*
X127545Y1330D01*
X127354Y618D01*
Y-119D01*
X127545Y-831D01*
X127913Y-1470D01*
X128435Y-1991D01*
X129073Y-2360D01*
X129785Y-2551D01*
X130522D01*
X131235Y-2360D01*
X131873Y-1991D01*
X132394Y-1470D01*
X132763Y-831D01*
X132954Y-119D01*
Y618D01*
X132763Y1330D01*
X132394Y1969D01*
X131873Y2490D01*
X131235Y2859D01*
X130522Y3049D01*
D02*
G37*
G36*
X71588Y11200D02*
X70712D01*
X69904Y10865D01*
X69285Y10246D01*
X68950Y9438D01*
Y8562D01*
X69285Y7754D01*
X69612Y7427D01*
X69876Y7100D01*
X69612Y6773D01*
X69285Y6446D01*
X68950Y5638D01*
Y4762D01*
X69285Y3954D01*
X69612Y3627D01*
X69876Y3300D01*
X69612Y2973D01*
X69285Y2646D01*
X68950Y1838D01*
Y962D01*
X69285Y154D01*
X69697Y-259D01*
X69820Y-633D01*
X69687Y-902D01*
X69235Y-1354D01*
X68900Y-2162D01*
Y-3038D01*
X69235Y-3846D01*
X69854Y-4465D01*
X70662Y-4800D01*
X71538D01*
X72346Y-4465D01*
X72965Y-3846D01*
X73300Y-3038D01*
Y-2162D01*
X72965Y-1354D01*
X72553Y-941D01*
X72430Y-567D01*
X72563Y-298D01*
X73015Y154D01*
X73350Y962D01*
Y1838D01*
X73015Y2646D01*
X72688Y2973D01*
X72424Y3300D01*
X72688Y3627D01*
X73015Y3954D01*
X73350Y4762D01*
Y5638D01*
X73015Y6446D01*
X72688Y6773D01*
X72424Y7100D01*
X72688Y7427D01*
X73015Y7754D01*
X73350Y8562D01*
Y9438D01*
X73015Y10246D01*
X72396Y10865D01*
X71588Y11200D01*
D02*
G37*
G36*
X29938Y-1719D02*
X29062D01*
X28254Y-2054D01*
X27635Y-2673D01*
X27300Y-3482D01*
Y-4357D01*
X27635Y-5165D01*
X28254Y-5784D01*
X29062Y-6119D01*
X29938D01*
X30746Y-5784D01*
X31365Y-5165D01*
X31700Y-4357D01*
Y-3482D01*
X31365Y-2673D01*
X30746Y-2054D01*
X29938Y-1719D01*
D02*
G37*
G36*
X64338Y-4700D02*
X63462D01*
X62654Y-5035D01*
X62035Y-5654D01*
X61700Y-6462D01*
Y-7338D01*
X62035Y-8146D01*
X62654Y-8765D01*
X63462Y-9100D01*
X64338D01*
X65146Y-8765D01*
X65765Y-8146D01*
X66100Y-7338D01*
Y-6462D01*
X65765Y-5654D01*
X65146Y-5035D01*
X64338Y-4700D01*
D02*
G37*
G36*
X40438Y-4900D02*
X39562D01*
X38754Y-5235D01*
X38135Y-5854D01*
X37800Y-6662D01*
Y-7538D01*
X38135Y-8346D01*
X38754Y-8965D01*
X39562Y-9300D01*
X40438D01*
X41246Y-8965D01*
X41865Y-8346D01*
X42200Y-7538D01*
Y-6662D01*
X41865Y-5854D01*
X41246Y-5235D01*
X40438Y-4900D01*
D02*
G37*
G36*
X7938D02*
X7062D01*
X6254Y-5235D01*
X5635Y-5854D01*
X5300Y-6662D01*
Y-7538D01*
X5635Y-8346D01*
X6254Y-8965D01*
X7062Y-9300D01*
X7938D01*
X8746Y-8965D01*
X9365Y-8346D01*
X9700Y-7538D01*
Y-6662D01*
X9365Y-5854D01*
X8746Y-5235D01*
X7938Y-4900D01*
D02*
G37*
G36*
X-24562D02*
X-25438D01*
X-26246Y-5235D01*
X-26865Y-5854D01*
X-27200Y-6662D01*
Y-7538D01*
X-26865Y-8346D01*
X-26246Y-8965D01*
X-25438Y-9300D01*
X-24562D01*
X-23754Y-8965D01*
X-23135Y-8346D01*
X-22800Y-7538D01*
Y-6662D01*
X-23135Y-5854D01*
X-23754Y-5235D01*
X-24562Y-4900D01*
D02*
G37*
G36*
X-58145D02*
X-59020D01*
X-59829Y-5235D01*
X-60448Y-5854D01*
X-60783Y-6662D01*
Y-7538D01*
X-60448Y-8346D01*
X-59829Y-8965D01*
X-59020Y-9300D01*
X-58145D01*
X-57336Y-8965D01*
X-56718Y-8346D01*
X-56383Y-7538D01*
Y-6662D01*
X-56718Y-5854D01*
X-57336Y-5235D01*
X-58145Y-4900D01*
D02*
G37*
G36*
X56438Y-5000D02*
X55562D01*
X54754Y-5335D01*
X54135Y-5954D01*
X53800Y-6762D01*
Y-7638D01*
X54135Y-8446D01*
X54754Y-9065D01*
X55562Y-9400D01*
X56438D01*
X57246Y-9065D01*
X57865Y-8446D01*
X58200Y-7638D01*
Y-6762D01*
X57865Y-5954D01*
X57246Y-5335D01*
X56438Y-5000D01*
D02*
G37*
G36*
X48438D02*
X47562D01*
X46754Y-5335D01*
X46135Y-5954D01*
X45800Y-6762D01*
Y-7638D01*
X46135Y-8446D01*
X46754Y-9065D01*
X47562Y-9400D01*
X48438D01*
X49246Y-9065D01*
X49865Y-8446D01*
X50200Y-7638D01*
Y-6762D01*
X49865Y-5954D01*
X49246Y-5335D01*
X48438Y-5000D01*
D02*
G37*
G36*
X23938D02*
X23062D01*
X22254Y-5335D01*
X21635Y-5954D01*
X21300Y-6762D01*
Y-7638D01*
X21635Y-8446D01*
X22254Y-9065D01*
X23062Y-9400D01*
X23938D01*
X24746Y-9065D01*
X25365Y-8446D01*
X25700Y-7638D01*
Y-6762D01*
X25365Y-5954D01*
X24746Y-5335D01*
X23938Y-5000D01*
D02*
G37*
G36*
X15938D02*
X15062D01*
X14254Y-5335D01*
X13635Y-5954D01*
X13300Y-6762D01*
Y-7638D01*
X13635Y-8446D01*
X14254Y-9065D01*
X15062Y-9400D01*
X15938D01*
X16746Y-9065D01*
X17365Y-8446D01*
X17700Y-7638D01*
Y-6762D01*
X17365Y-5954D01*
X16746Y-5335D01*
X15938Y-5000D01*
D02*
G37*
G36*
X-562D02*
X-1438D01*
X-2246Y-5335D01*
X-2865Y-5954D01*
X-3200Y-6762D01*
Y-7638D01*
X-2865Y-8446D01*
X-2246Y-9065D01*
X-1438Y-9400D01*
X-562D01*
X246Y-9065D01*
X865Y-8446D01*
X1200Y-7638D01*
Y-6762D01*
X865Y-5954D01*
X246Y-5335D01*
X-562Y-5000D01*
D02*
G37*
G36*
X-8562D02*
X-9438D01*
X-10246Y-5335D01*
X-10865Y-5954D01*
X-11200Y-6762D01*
Y-7638D01*
X-10865Y-8446D01*
X-10246Y-9065D01*
X-9438Y-9400D01*
X-8562D01*
X-7754Y-9065D01*
X-7135Y-8446D01*
X-6800Y-7638D01*
Y-6762D01*
X-7135Y-5954D01*
X-7754Y-5335D01*
X-8562Y-5000D01*
D02*
G37*
G36*
X-16562D02*
X-17438D01*
X-18246Y-5335D01*
X-18865Y-5954D01*
X-19200Y-6762D01*
Y-7638D01*
X-18865Y-8446D01*
X-18246Y-9065D01*
X-17438Y-9400D01*
X-16562D01*
X-15754Y-9065D01*
X-15135Y-8446D01*
X-14800Y-7638D01*
Y-6762D01*
X-15135Y-5954D01*
X-15754Y-5335D01*
X-16562Y-5000D01*
D02*
G37*
G36*
X-33062D02*
X-33938D01*
X-34746Y-5335D01*
X-35365Y-5954D01*
X-35700Y-6762D01*
Y-7638D01*
X-35365Y-8446D01*
X-34746Y-9065D01*
X-33938Y-9400D01*
X-33062D01*
X-32254Y-9065D01*
X-31635Y-8446D01*
X-31300Y-7638D01*
Y-6762D01*
X-31635Y-5954D01*
X-32254Y-5335D01*
X-33062Y-5000D01*
D02*
G37*
G36*
X-41062D02*
X-41938D01*
X-42746Y-5335D01*
X-43365Y-5954D01*
X-43700Y-6762D01*
Y-7638D01*
X-43365Y-8446D01*
X-42746Y-9065D01*
X-41938Y-9400D01*
X-41062D01*
X-40254Y-9065D01*
X-39635Y-8446D01*
X-39300Y-7638D01*
Y-6762D01*
X-39635Y-5954D01*
X-40254Y-5335D01*
X-41062Y-5000D01*
D02*
G37*
G36*
X-49062D02*
X-49938D01*
X-50746Y-5335D01*
X-51365Y-5954D01*
X-51700Y-6762D01*
Y-7638D01*
X-51365Y-8446D01*
X-50746Y-9065D01*
X-49938Y-9400D01*
X-49062D01*
X-48254Y-9065D01*
X-47635Y-8446D01*
X-47300Y-7638D01*
Y-6762D01*
X-47635Y-5954D01*
X-48254Y-5335D01*
X-49062Y-5000D01*
D02*
G37*
G36*
X-100762Y-10289D02*
X-101638D01*
X-102446Y-10623D01*
X-103065Y-11242D01*
X-103400Y-12051D01*
Y-12926D01*
X-103065Y-13735D01*
X-102446Y-14354D01*
X-101638Y-14689D01*
X-100762D01*
X-99954Y-14354D01*
X-99335Y-13735D01*
X-99000Y-12926D01*
Y-12051D01*
X-99335Y-11242D01*
X-99954Y-10623D01*
X-100762Y-10289D01*
D02*
G37*
G36*
X-111662Y-15800D02*
X-112538D01*
X-113346Y-16135D01*
X-113965Y-16754D01*
X-114300Y-17562D01*
Y-18438D01*
X-113965Y-19246D01*
X-113346Y-19865D01*
X-112538Y-20200D01*
X-111662D01*
X-110854Y-19865D01*
X-110235Y-19246D01*
X-109900Y-18438D01*
Y-17562D01*
X-110235Y-16754D01*
X-110854Y-16135D01*
X-111662Y-15800D01*
D02*
G37*
G36*
X-79125Y-15063D02*
X-80000D01*
X-80809Y-15398D01*
X-81428Y-16016D01*
X-81763Y-16825D01*
Y-17700D01*
X-81428Y-18509D01*
X-80809Y-19128D01*
X-80000Y-19463D01*
X-79769D01*
X-79435Y-19963D01*
X-79600Y-20362D01*
Y-21238D01*
X-79265Y-22046D01*
X-78646Y-22665D01*
X-77838Y-23000D01*
X-76962D01*
X-76900Y-23042D01*
Y-23538D01*
X-76565Y-24346D01*
X-75946Y-24965D01*
X-75138Y-25300D01*
X-74442D01*
X-74400Y-25362D01*
Y-26238D01*
X-74065Y-27046D01*
X-73446Y-27665D01*
X-72638Y-28000D01*
X-71762D01*
X-70954Y-27665D01*
X-70335Y-27046D01*
X-70000Y-26238D01*
Y-25362D01*
X-70335Y-24554D01*
X-70954Y-23935D01*
X-71762Y-23600D01*
X-72458D01*
X-72500Y-23538D01*
Y-22662D01*
X-72835Y-21854D01*
X-73454Y-21235D01*
X-74262Y-20900D01*
X-75138D01*
X-75200Y-20858D01*
Y-20362D01*
X-75535Y-19554D01*
X-76154Y-18935D01*
X-76962Y-18600D01*
X-77194D01*
X-77528Y-18100D01*
X-77363Y-17700D01*
Y-16825D01*
X-77698Y-16016D01*
X-78316Y-15398D01*
X-79125Y-15063D01*
D02*
G37*
G36*
X110238Y-23700D02*
X109362D01*
X108554Y-24035D01*
X107935Y-24654D01*
X107600Y-25462D01*
Y-26338D01*
X107935Y-27146D01*
X108554Y-27765D01*
X109362Y-28100D01*
X110238D01*
X111046Y-27765D01*
X111665Y-27146D01*
X112000Y-26338D01*
Y-25462D01*
X111665Y-24654D01*
X111046Y-24035D01*
X110238Y-23700D01*
D02*
G37*
G36*
X-48631Y-23400D02*
X-49369D01*
X-50081Y-23591D01*
X-50719Y-23959D01*
X-51241Y-24481D01*
X-51609Y-25119D01*
X-51800Y-25831D01*
Y-26569D01*
X-51609Y-27281D01*
X-51241Y-27919D01*
X-50719Y-28441D01*
X-50081Y-28809D01*
X-49369Y-29000D01*
X-48631D01*
X-47919Y-28809D01*
X-47281Y-28441D01*
X-46759Y-27919D01*
X-46391Y-27281D01*
X-46200Y-26569D01*
Y-25831D01*
X-46391Y-25119D01*
X-46759Y-24481D01*
X-47281Y-23959D01*
X-47919Y-23591D01*
X-48631Y-23400D01*
D02*
G37*
G36*
X48869Y-23600D02*
X48131D01*
X47419Y-23791D01*
X46781Y-24159D01*
X46259Y-24681D01*
X45891Y-25319D01*
X45700Y-26031D01*
Y-26769D01*
X45891Y-27481D01*
X46259Y-28119D01*
X46781Y-28641D01*
X47419Y-29009D01*
X48131Y-29200D01*
X48869D01*
X49581Y-29009D01*
X50219Y-28641D01*
X50741Y-28119D01*
X51109Y-27481D01*
X51300Y-26769D01*
Y-26031D01*
X51109Y-25319D01*
X50741Y-24681D01*
X50219Y-24159D01*
X49581Y-23791D01*
X48869Y-23600D01*
D02*
G37*
G36*
X16369D02*
X15631D01*
X14919Y-23791D01*
X14281Y-24159D01*
X13759Y-24681D01*
X13391Y-25319D01*
X13200Y-26031D01*
Y-26769D01*
X13391Y-27481D01*
X13759Y-28119D01*
X14281Y-28641D01*
X14919Y-29009D01*
X15631Y-29200D01*
X16369D01*
X17081Y-29009D01*
X17719Y-28641D01*
X18241Y-28119D01*
X18609Y-27481D01*
X18800Y-26769D01*
Y-26031D01*
X18609Y-25319D01*
X18241Y-24681D01*
X17719Y-24159D01*
X17081Y-23791D01*
X16369Y-23600D01*
D02*
G37*
G36*
X-16131D02*
X-16869D01*
X-17581Y-23791D01*
X-18219Y-24159D01*
X-18741Y-24681D01*
X-19109Y-25319D01*
X-19300Y-26031D01*
Y-26769D01*
X-19109Y-27481D01*
X-18741Y-28119D01*
X-18219Y-28641D01*
X-17581Y-29009D01*
X-16869Y-29200D01*
X-16131D01*
X-15419Y-29009D01*
X-14781Y-28641D01*
X-14259Y-28119D01*
X-13891Y-27481D01*
X-13700Y-26769D01*
Y-26031D01*
X-13891Y-25319D01*
X-14259Y-24681D01*
X-14781Y-24159D01*
X-15419Y-23791D01*
X-16131Y-23600D01*
D02*
G37*
G36*
X125038Y-39600D02*
X124162D01*
X123354Y-39935D01*
X122800Y-40489D01*
X122246Y-39935D01*
X121438Y-39600D01*
X120562D01*
X119754Y-39935D01*
X119135Y-40554D01*
X118800Y-41362D01*
Y-42238D01*
X119135Y-43046D01*
X119754Y-43665D01*
X120562Y-44000D01*
X121438D01*
X122246Y-43665D01*
X122800Y-43111D01*
X123354Y-43665D01*
X124162Y-44000D01*
X125038D01*
X125846Y-43665D01*
X126465Y-43046D01*
X126800Y-42238D01*
Y-41362D01*
X126465Y-40554D01*
X125846Y-39935D01*
X125038Y-39600D01*
D02*
G37*
G36*
X133869Y-41200D02*
X133131D01*
X132419Y-41391D01*
X131781Y-41759D01*
X131259Y-42281D01*
X130891Y-42919D01*
X130700Y-43631D01*
Y-44369D01*
X130891Y-45081D01*
X131259Y-45719D01*
X131781Y-46241D01*
X132419Y-46609D01*
X133131Y-46800D01*
X133869D01*
X134581Y-46609D01*
X135219Y-46241D01*
X135741Y-45719D01*
X136109Y-45081D01*
X136300Y-44369D01*
Y-43631D01*
X136109Y-42919D01*
X135741Y-42281D01*
X135219Y-41759D01*
X134581Y-41391D01*
X133869Y-41200D01*
D02*
G37*
G36*
X86643Y-39679D02*
X85173Y-39823D01*
X83759Y-40252D01*
X82456Y-40949D01*
X81314Y-41886D01*
X80377Y-43028D01*
X79681Y-44331D01*
X79252Y-45745D01*
X79107Y-47215D01*
X79252Y-48685D01*
X79681Y-50099D01*
X80377Y-51402D01*
X81314Y-52544D01*
X82456Y-53481D01*
X83759Y-54178D01*
X85173Y-54606D01*
X86643Y-54751D01*
X88114Y-54606D01*
X89527Y-54178D01*
X90830Y-53481D01*
X91972Y-52544D01*
X92909Y-51402D01*
X93606Y-50099D01*
X94035Y-48685D01*
X94180Y-47215D01*
X94035Y-45745D01*
X93606Y-44331D01*
X92909Y-43028D01*
X91972Y-41886D01*
X90830Y-40949D01*
X89527Y-40252D01*
X88114Y-39823D01*
X86643Y-39679D01*
D02*
G37*
G36*
X-86585D02*
X-88055Y-39823D01*
X-89469Y-40252D01*
X-90772Y-40949D01*
X-91914Y-41886D01*
X-92851Y-43028D01*
X-93548Y-44331D01*
X-93976Y-45745D01*
X-94121Y-47215D01*
X-93976Y-48685D01*
X-93548Y-50099D01*
X-92851Y-51402D01*
X-91914Y-52544D01*
X-90772Y-53481D01*
X-89469Y-54178D01*
X-88055Y-54606D01*
X-86585Y-54751D01*
X-85115Y-54606D01*
X-83701Y-54178D01*
X-82398Y-53481D01*
X-81256Y-52544D01*
X-80319Y-51402D01*
X-79622Y-50099D01*
X-79194Y-48685D01*
X-79049Y-47215D01*
X-79194Y-45745D01*
X-79622Y-44331D01*
X-80319Y-43028D01*
X-81256Y-41886D01*
X-82398Y-40949D01*
X-83701Y-40252D01*
X-85115Y-39823D01*
X-86585Y-39679D01*
D02*
G37*
G36*
X-76562Y-60100D02*
X-77438D01*
X-78246Y-60435D01*
X-78865Y-61054D01*
X-79200Y-61862D01*
Y-62738D01*
X-78865Y-63546D01*
X-78246Y-64165D01*
X-77438Y-64500D01*
X-76562D01*
X-75754Y-64165D01*
X-75135Y-63546D01*
X-74800Y-62738D01*
Y-61862D01*
X-75135Y-61054D01*
X-75754Y-60435D01*
X-76562Y-60100D01*
D02*
G37*
G36*
X-112667Y-61699D02*
X-113542D01*
X-114351Y-62033D01*
X-114970Y-62652D01*
X-115305Y-63461D01*
Y-64083D01*
X-115409Y-64152D01*
X-116284D01*
X-117092Y-64487D01*
X-117354Y-64749D01*
X-117698Y-64681D01*
X-118316Y-64062D01*
X-119125Y-63727D01*
X-120000D01*
X-120809Y-64062D01*
X-121428Y-64681D01*
X-121763Y-65489D01*
Y-66365D01*
X-121428Y-67173D01*
X-120809Y-67792D01*
X-120000Y-68127D01*
X-119125D01*
X-118316Y-67792D01*
X-118055Y-67530D01*
X-117711Y-67599D01*
X-117092Y-68217D01*
X-116284Y-68552D01*
X-115409D01*
X-114600Y-68217D01*
X-113981Y-67599D01*
X-113646Y-66790D01*
Y-66168D01*
X-113542Y-66098D01*
X-112667D01*
X-111859Y-65763D01*
X-111240Y-65145D01*
X-110905Y-64336D01*
Y-63461D01*
X-111240Y-62652D01*
X-111859Y-62033D01*
X-112667Y-61699D01*
D02*
G37*
G36*
X36338Y-63500D02*
X35462D01*
X34654Y-63835D01*
X34035Y-64454D01*
X33700Y-65262D01*
Y-66138D01*
X34035Y-66946D01*
X34654Y-67565D01*
X35462Y-67900D01*
X36338D01*
X37146Y-67565D01*
X37765Y-66946D01*
X38100Y-66138D01*
Y-65262D01*
X37765Y-64454D01*
X37146Y-63835D01*
X36338Y-63500D01*
D02*
G37*
G36*
X20438D02*
X19562D01*
X18754Y-63835D01*
X18135Y-64454D01*
X17800Y-65262D01*
Y-66138D01*
X18135Y-66946D01*
X18754Y-67565D01*
X19562Y-67900D01*
X20438D01*
X21246Y-67565D01*
X21865Y-66946D01*
X22200Y-66138D01*
Y-65262D01*
X21865Y-64454D01*
X21246Y-63835D01*
X20438Y-63500D01*
D02*
G37*
G36*
X3838D02*
X2962D01*
X2154Y-63835D01*
X1535Y-64454D01*
X1200Y-65262D01*
Y-66138D01*
X1535Y-66946D01*
X2154Y-67565D01*
X2962Y-67900D01*
X3838D01*
X4646Y-67565D01*
X5265Y-66946D01*
X5600Y-66138D01*
Y-65262D01*
X5265Y-64454D01*
X4646Y-63835D01*
X3838Y-63500D01*
D02*
G37*
G36*
X-12062D02*
X-12938D01*
X-13746Y-63835D01*
X-14365Y-64454D01*
X-14700Y-65262D01*
Y-66138D01*
X-14365Y-66946D01*
X-13746Y-67565D01*
X-12938Y-67900D01*
X-12062D01*
X-11254Y-67565D01*
X-10635Y-66946D01*
X-10300Y-66138D01*
Y-65262D01*
X-10635Y-64454D01*
X-11254Y-63835D01*
X-12062Y-63500D01*
D02*
G37*
G36*
X-28662D02*
X-29538D01*
X-30346Y-63835D01*
X-30965Y-64454D01*
X-31300Y-65262D01*
Y-66138D01*
X-30965Y-66946D01*
X-30346Y-67565D01*
X-29538Y-67900D01*
X-28662D01*
X-27854Y-67565D01*
X-27235Y-66946D01*
X-26900Y-66138D01*
Y-65262D01*
X-27235Y-64454D01*
X-27854Y-63835D01*
X-28662Y-63500D01*
D02*
G37*
G36*
X-44562D02*
X-45438D01*
X-46246Y-63835D01*
X-46865Y-64454D01*
X-47200Y-65262D01*
Y-66138D01*
X-46865Y-66946D01*
X-46246Y-67565D01*
X-45438Y-67900D01*
X-44562D01*
X-43754Y-67565D01*
X-43135Y-66946D01*
X-42800Y-66138D01*
Y-65262D01*
X-43135Y-64454D01*
X-43754Y-63835D01*
X-44562Y-63500D01*
D02*
G37*
G36*
X-61162D02*
X-62038D01*
X-62846Y-63835D01*
X-63465Y-64454D01*
X-63800Y-65262D01*
Y-66138D01*
X-63465Y-66946D01*
X-62846Y-67565D01*
X-62038Y-67900D01*
X-61162D01*
X-60354Y-67565D01*
X-59735Y-66946D01*
X-59400Y-66138D01*
Y-65262D01*
X-59735Y-64454D01*
X-60354Y-63835D01*
X-61162Y-63500D01*
D02*
G37*
G36*
X54338Y-63600D02*
X53462D01*
X52654Y-63935D01*
X52035Y-64554D01*
X51700Y-65362D01*
Y-66238D01*
X52035Y-67046D01*
X52654Y-67665D01*
X53462Y-68000D01*
X54338D01*
X55146Y-67665D01*
X55765Y-67046D01*
X56100Y-66238D01*
Y-65362D01*
X55765Y-64554D01*
X55146Y-63935D01*
X54338Y-63600D01*
D02*
G37*
G36*
X44638D02*
X43762D01*
X42954Y-63935D01*
X42335Y-64554D01*
X42000Y-65362D01*
Y-66238D01*
X42335Y-67046D01*
X42954Y-67665D01*
X43762Y-68000D01*
X44638D01*
X45446Y-67665D01*
X46065Y-67046D01*
X46400Y-66238D01*
Y-65362D01*
X46065Y-64554D01*
X45446Y-63935D01*
X44638Y-63600D01*
D02*
G37*
G36*
X12138D02*
X11262D01*
X10454Y-63935D01*
X9835Y-64554D01*
X9500Y-65362D01*
Y-66238D01*
X9835Y-67046D01*
X10454Y-67665D01*
X11262Y-68000D01*
X12138D01*
X12946Y-67665D01*
X13565Y-67046D01*
X13900Y-66238D01*
Y-65362D01*
X13565Y-64554D01*
X12946Y-63935D01*
X12138Y-63600D01*
D02*
G37*
G36*
X-20362D02*
X-21238D01*
X-22046Y-63935D01*
X-22665Y-64554D01*
X-23000Y-65362D01*
Y-66238D01*
X-22665Y-67046D01*
X-22046Y-67665D01*
X-21238Y-68000D01*
X-20362D01*
X-19554Y-67665D01*
X-18935Y-67046D01*
X-18600Y-66238D01*
Y-65362D01*
X-18935Y-64554D01*
X-19554Y-63935D01*
X-20362Y-63600D01*
D02*
G37*
G36*
X-52862D02*
X-53738D01*
X-54546Y-63935D01*
X-55165Y-64554D01*
X-55500Y-65362D01*
Y-66238D01*
X-55165Y-67046D01*
X-54546Y-67665D01*
X-53738Y-68000D01*
X-52862D01*
X-52054Y-67665D01*
X-51435Y-67046D01*
X-51100Y-66238D01*
Y-65362D01*
X-51435Y-64554D01*
X-52054Y-63935D01*
X-52862Y-63600D01*
D02*
G37*
G36*
X-81246Y-64500D02*
X-82121D01*
X-82930Y-64835D01*
X-83549Y-65454D01*
X-83884Y-66262D01*
Y-67138D01*
X-83549Y-67946D01*
X-82930Y-68565D01*
X-82121Y-68900D01*
X-81246D01*
X-80437Y-68565D01*
X-79819Y-67946D01*
X-79484Y-67138D01*
Y-66262D01*
X-79819Y-65454D01*
X-80437Y-64835D01*
X-81246Y-64500D01*
D02*
G37*
G36*
X66147Y-67509D02*
X65272D01*
X64463Y-67844D01*
X63844Y-68463D01*
X63509Y-69272D01*
Y-70147D01*
X63844Y-70955D01*
X64463Y-71574D01*
X65272Y-71909D01*
X66147D01*
X66955Y-71574D01*
X67574Y-70955D01*
X67909Y-70147D01*
Y-69272D01*
X67574Y-68463D01*
X66955Y-67844D01*
X66147Y-67509D01*
D02*
G37*
G36*
X-41568Y-77720D02*
X-42432D01*
X-43266Y-77944D01*
X-44014Y-78376D01*
X-44500Y-78862D01*
X-44986Y-78376D01*
X-45734Y-77944D01*
X-46568Y-77720D01*
X-47432D01*
X-48266Y-77944D01*
X-49014Y-78376D01*
X-49500Y-78862D01*
X-49986Y-78376D01*
X-50734Y-77944D01*
X-51568Y-77720D01*
X-52432D01*
X-53266Y-77944D01*
X-54014Y-78376D01*
X-54500Y-78862D01*
X-54986Y-78376D01*
X-55734Y-77944D01*
X-56568Y-77720D01*
X-57432D01*
X-58266Y-77944D01*
X-59014Y-78376D01*
X-59500Y-78862D01*
X-59986Y-78376D01*
X-60734Y-77944D01*
X-61568Y-77720D01*
X-62432D01*
X-63266Y-77944D01*
X-64014Y-78376D01*
X-64624Y-78986D01*
X-65056Y-79734D01*
X-65280Y-80568D01*
Y-81432D01*
X-65056Y-82266D01*
X-64624Y-83014D01*
X-64138Y-83500D01*
X-64624Y-83986D01*
X-65056Y-84734D01*
X-65280Y-85568D01*
Y-86432D01*
X-65056Y-87266D01*
X-64624Y-88014D01*
X-64014Y-88624D01*
X-63266Y-89056D01*
X-62432Y-89280D01*
X-61568D01*
X-60734Y-89056D01*
X-59986Y-88624D01*
X-59500Y-88138D01*
X-59014Y-88624D01*
X-58266Y-89056D01*
X-57432Y-89280D01*
X-56568D01*
X-55734Y-89056D01*
X-54986Y-88624D01*
X-54376Y-88014D01*
X-53944Y-87266D01*
X-53720Y-86432D01*
Y-85568D01*
X-53944Y-84734D01*
X-54376Y-83986D01*
X-54862Y-83500D01*
X-54500Y-83138D01*
X-54014Y-83624D01*
X-53266Y-84056D01*
X-52432Y-84280D01*
X-51568D01*
X-50734Y-84056D01*
X-49986Y-83624D01*
X-49500Y-83138D01*
X-49014Y-83624D01*
X-48266Y-84056D01*
X-47432Y-84280D01*
X-46568D01*
X-45734Y-84056D01*
X-44986Y-83624D01*
X-44500Y-83138D01*
X-44138Y-83500D01*
X-44624Y-83986D01*
X-45056Y-84734D01*
X-45279Y-85568D01*
Y-86432D01*
X-45056Y-87266D01*
X-44624Y-88014D01*
X-44014Y-88624D01*
X-43266Y-89056D01*
X-42432Y-89280D01*
X-41568D01*
X-40734Y-89056D01*
X-39986Y-88624D01*
X-39376Y-88014D01*
X-38944Y-87266D01*
X-38721Y-86432D01*
Y-85568D01*
X-38944Y-84734D01*
X-39376Y-83986D01*
X-39862Y-83500D01*
X-39376Y-83014D01*
X-38944Y-82266D01*
X-38721Y-81432D01*
Y-80568D01*
X-38944Y-79734D01*
X-39376Y-78986D01*
X-39986Y-78376D01*
X-40734Y-77944D01*
X-41568Y-77720D01*
D02*
G37*
G36*
X119069Y-76000D02*
X118331D01*
X117619Y-76191D01*
X116981Y-76559D01*
X116459Y-77081D01*
X116091Y-77719D01*
X115900Y-78431D01*
Y-79169D01*
X116091Y-79881D01*
X116459Y-80519D01*
X116981Y-81041D01*
X117619Y-81409D01*
X118331Y-81600D01*
X119069D01*
X119781Y-81409D01*
X120419Y-81041D01*
X120941Y-80519D01*
X121309Y-79881D01*
X121500Y-79169D01*
Y-78431D01*
X121309Y-77719D01*
X120941Y-77081D01*
X120419Y-76559D01*
X119781Y-76191D01*
X119069Y-76000D01*
D02*
G37*
G36*
X-125762Y-86628D02*
X-126638D01*
X-127446Y-86963D01*
X-128065Y-87582D01*
X-128400Y-88390D01*
Y-89265D01*
X-128065Y-90074D01*
X-127446Y-90693D01*
X-126638Y-91028D01*
X-125762D01*
X-124954Y-90693D01*
X-124335Y-90074D01*
X-124000Y-89265D01*
Y-88390D01*
X-124335Y-87582D01*
X-124954Y-86963D01*
X-125762Y-86628D01*
D02*
G37*
G36*
X-66031Y-90300D02*
X-66769D01*
X-67481Y-90491D01*
X-68119Y-90859D01*
X-68477Y-91217D01*
X-68800Y-91327D01*
X-69123Y-91217D01*
X-69481Y-90859D01*
X-70119Y-90491D01*
X-70831Y-90300D01*
X-71569D01*
X-72281Y-90491D01*
X-72919Y-90859D01*
X-73441Y-91381D01*
X-73809Y-92019D01*
X-74000Y-92731D01*
Y-93469D01*
X-73809Y-94181D01*
X-73441Y-94819D01*
X-72919Y-95341D01*
X-72281Y-95709D01*
X-71569Y-95900D01*
X-70831D01*
X-70119Y-95709D01*
X-69481Y-95341D01*
X-69123Y-94983D01*
X-68800Y-94873D01*
X-68477Y-94983D01*
X-68119Y-95341D01*
X-67481Y-95709D01*
X-66769Y-95900D01*
X-66031D01*
X-65319Y-95709D01*
X-64681Y-95341D01*
X-64159Y-94819D01*
X-63791Y-94181D01*
X-63600Y-93469D01*
Y-92731D01*
X-63791Y-92019D01*
X-64159Y-91381D01*
X-64681Y-90859D01*
X-65319Y-90491D01*
X-66031Y-90300D01*
D02*
G37*
G36*
X17038Y-87800D02*
X16162D01*
X15354Y-88135D01*
X14735Y-88754D01*
X14400Y-89562D01*
Y-90438D01*
X14735Y-91246D01*
X15354Y-91865D01*
X16162Y-92200D01*
X17038D01*
X17846Y-91865D01*
X18465Y-91246D01*
X18800Y-90438D01*
Y-89562D01*
X18465Y-88754D01*
X17846Y-88135D01*
X17038Y-87800D01*
D02*
G37*
G36*
X-78081Y-92000D02*
X-78956D01*
X-79765Y-92335D01*
X-80383Y-92954D01*
X-80643Y-93581D01*
X-80718Y-93762D01*
X-81218Y-93843D01*
X-81562Y-93700D01*
X-82438D01*
X-83246Y-94035D01*
X-83865Y-94654D01*
X-84200Y-95462D01*
Y-96338D01*
X-83865Y-97146D01*
X-83246Y-97765D01*
X-82438Y-98100D01*
X-81562D01*
X-80754Y-97765D01*
X-80135Y-97146D01*
X-79875Y-96519D01*
X-79800Y-96338D01*
X-79300Y-96258D01*
X-78956Y-96400D01*
X-78081D01*
X-77272Y-96065D01*
X-76653Y-95446D01*
X-76318Y-94638D01*
Y-93762D01*
X-76653Y-92954D01*
X-77272Y-92335D01*
X-78081Y-92000D01*
D02*
G37*
G36*
X-100162Y-101300D02*
X-101038D01*
X-101846Y-101635D01*
X-102465Y-102254D01*
X-102800Y-103062D01*
Y-103938D01*
X-102465Y-104746D01*
X-101846Y-105365D01*
X-101038Y-105700D01*
X-100162D01*
X-99354Y-105365D01*
X-98735Y-104746D01*
X-98400Y-103938D01*
Y-103062D01*
X-98735Y-102254D01*
X-99354Y-101635D01*
X-100162Y-101300D01*
D02*
G37*
G36*
X-127462Y-94100D02*
X-128338D01*
X-129146Y-94435D01*
X-129765Y-95054D01*
X-130100Y-95862D01*
Y-96603D01*
X-130844D01*
X-131653Y-96938D01*
X-132272Y-97557D01*
X-132607Y-98365D01*
Y-99100D01*
X-133338D01*
X-134146Y-99435D01*
X-134765Y-100054D01*
X-135100Y-100862D01*
Y-101600D01*
X-135838D01*
X-136646Y-101935D01*
X-137265Y-102554D01*
X-137600Y-103362D01*
Y-104238D01*
X-137265Y-105046D01*
X-136646Y-105665D01*
X-135838Y-106000D01*
X-134962D01*
X-134154Y-105665D01*
X-133535Y-105046D01*
X-133200Y-104238D01*
Y-103500D01*
X-132462D01*
X-131654Y-103165D01*
X-131035Y-102546D01*
X-130700Y-101738D01*
Y-101003D01*
X-129969D01*
X-129161Y-100668D01*
X-128542Y-100049D01*
X-128207Y-99240D01*
Y-98500D01*
X-127462D01*
X-126654Y-98165D01*
X-126035Y-97546D01*
X-125700Y-96738D01*
Y-95862D01*
X-126035Y-95054D01*
X-126654Y-94435D01*
X-127462Y-94100D01*
D02*
G37*
G36*
X-123809Y-102378D02*
X-124684D01*
X-125492Y-102713D01*
X-126111Y-103331D01*
X-126446Y-104140D01*
Y-105015D01*
X-126111Y-105824D01*
X-125492Y-106443D01*
X-124684Y-106778D01*
X-124014D01*
Y-107643D01*
X-123679Y-108451D01*
X-123060Y-109070D01*
X-122252Y-109405D01*
X-121376D01*
X-121314Y-109764D01*
Y-109824D01*
X-120979Y-110632D01*
X-120360Y-111251D01*
X-119552Y-111586D01*
X-118910D01*
Y-112228D01*
X-118575Y-113036D01*
X-117956Y-113655D01*
X-117148Y-113990D01*
X-116272D01*
X-115464Y-113655D01*
X-114845Y-113036D01*
X-114510Y-112228D01*
Y-111353D01*
X-114845Y-110544D01*
X-115464Y-109925D01*
X-116272Y-109590D01*
X-116914D01*
Y-108948D01*
X-117249Y-108140D01*
X-117868Y-107521D01*
X-118676Y-107186D01*
X-119552D01*
X-119614Y-106827D01*
Y-106767D01*
X-119949Y-105959D01*
X-120568Y-105340D01*
X-121376Y-105005D01*
X-122046D01*
Y-104140D01*
X-122381Y-103331D01*
X-123000Y-102713D01*
X-123809Y-102378D01*
D02*
G37*
%LPD*%
D54*
X116121Y102500D02*
D03*
X121043D02*
D03*
X111200D02*
D03*
X106279D02*
D03*
D55*
X-62000Y-81000D02*
D03*
X-57000D02*
D03*
X-52000D02*
D03*
X-47000D02*
D03*
X-42000D02*
D03*
X-62000Y-86000D02*
D03*
X-57000D02*
D03*
X-52000D02*
D03*
X-47000D02*
D03*
X-42000D02*
D03*
D56*
X86614Y-47244D02*
D03*
X-86614D02*
D03*
Y47244D02*
D03*
X86614D02*
D03*
D57*
X-132700Y57106D02*
D03*
Y52185D02*
D03*
Y47264D02*
D03*
Y42342D02*
D03*
Y37421D02*
D03*
Y32500D02*
D03*
Y27579D02*
D03*
Y22658D02*
D03*
Y17736D02*
D03*
Y12815D02*
D03*
Y7894D02*
D03*
D58*
Y2972D02*
D03*
D59*
X-110100Y25400D02*
D03*
X4500Y-85900D02*
D03*
X37000Y-90900D02*
D03*
X59500Y-95900D02*
D03*
Y-75900D02*
D03*
X129500D02*
D03*
X137000Y-40900D02*
D03*
X42000Y-90900D02*
D03*
X112000Y-20900D02*
D03*
X47000Y-80900D02*
D03*
X79500Y-5900D02*
D03*
X9500Y-105900D02*
D03*
X-500D02*
D03*
X-5500Y-85900D02*
D03*
X-20500Y-95900D02*
D03*
X-30500Y-105900D02*
D03*
X-50500D02*
D03*
X47000Y-90900D02*
D03*
X-63000Y-110900D02*
D03*
X124500Y-65900D02*
D03*
X-70500Y4100D02*
D03*
X-10500Y-105900D02*
D03*
X-138000Y-110900D02*
D03*
X134500Y-65900D02*
D03*
X-58000Y-110900D02*
D03*
X134500Y-25900D02*
D03*
X107000Y-20900D02*
D03*
X117000D02*
D03*
X-500Y-85900D02*
D03*
X82000Y-70900D02*
D03*
X44500Y-85900D02*
D03*
X-15500Y-105900D02*
D03*
X137000Y-10900D02*
D03*
X-35500Y-95900D02*
D03*
X-138000Y-900D02*
D03*
X137000Y-20900D02*
D03*
X132000Y-70900D02*
D03*
X-123000Y-120900D02*
D03*
X124500Y-55900D02*
D03*
X29500Y-75900D02*
D03*
X-58000Y-90900D02*
D03*
X-28000D02*
D03*
X-93000Y-30900D02*
D03*
X77000Y-50900D02*
D03*
X24500Y-75900D02*
D03*
X57000Y-100900D02*
D03*
X52000Y-80900D02*
D03*
X77000Y-70900D02*
D03*
X39500Y-85900D02*
D03*
X-8000Y-80900D02*
D03*
X57000D02*
D03*
X-83000Y-60900D02*
D03*
X-35500Y-105900D02*
D03*
X137000Y-80900D02*
D03*
X114500Y-15900D02*
D03*
X-133000Y-120900D02*
D03*
X14500Y-105900D02*
D03*
X129500Y-65900D02*
D03*
X-85500Y-55900D02*
D03*
X-25500Y-105900D02*
D03*
X132000Y-80900D02*
D03*
X-10500Y-75900D02*
D03*
X-105500Y-115900D02*
D03*
X-88000Y29100D02*
D03*
X2000Y-80900D02*
D03*
X134500Y-55900D02*
D03*
X9500Y-95900D02*
D03*
X32000Y-90900D02*
D03*
X-130500Y-115900D02*
D03*
X-110500D02*
D03*
X62000Y-100900D02*
D03*
X137000Y-30900D02*
D03*
X39500Y-95900D02*
D03*
X82000Y-20900D02*
D03*
X-90500Y-115900D02*
D03*
X49500Y-85900D02*
D03*
X72000Y-70900D02*
D03*
X-80500Y-115900D02*
D03*
X-138000Y19100D02*
D03*
X137000Y-90900D02*
D03*
X79500Y-65900D02*
D03*
X134500Y-85900D02*
D03*
X-40500Y-105900D02*
D03*
X-48000Y-110900D02*
D03*
X124500Y-75900D02*
D03*
X14500Y-95900D02*
D03*
X-43000Y-110900D02*
D03*
X-33000Y-90900D02*
D03*
X-53000Y-110900D02*
D03*
X-90500Y-35900D02*
D03*
X137000Y-60900D02*
D03*
X29500Y-85900D02*
D03*
X19500Y-105900D02*
D03*
X-73000Y29100D02*
D03*
X-90500Y-55900D02*
D03*
X-93000Y29100D02*
D03*
X-95500Y-35900D02*
D03*
X84500Y-55900D02*
D03*
X77000Y-10900D02*
D03*
X27000Y-80900D02*
D03*
X137000Y-50900D02*
D03*
X-80500Y-55900D02*
D03*
X134500Y-75900D02*
D03*
X-138000Y29100D02*
D03*
X64500Y-75900D02*
D03*
X127000Y-70900D02*
D03*
X29500Y-95900D02*
D03*
X-5500Y-75900D02*
D03*
X132000Y-20900D02*
D03*
X134500Y-5900D02*
D03*
X129500Y-55900D02*
D03*
X62000Y-90900D02*
D03*
X-33000Y-70900D02*
D03*
X-108000Y-120900D02*
D03*
X-118000D02*
D03*
X79500Y-15900D02*
D03*
X-135500Y-5900D02*
D03*
X64500Y-95900D02*
D03*
X84500Y-35900D02*
D03*
X-100500Y-115900D02*
D03*
X34500Y-95900D02*
D03*
X54500Y-75900D02*
D03*
X-15500Y-95900D02*
D03*
X24500Y-85900D02*
D03*
X52000Y-100900D02*
D03*
X14500Y-75900D02*
D03*
X-88000Y-30900D02*
D03*
X-138000Y-10900D02*
D03*
X24500Y-95900D02*
D03*
X127000Y-80900D02*
D03*
X7000D02*
D03*
X-135500Y-115900D02*
D03*
X129500Y-15900D02*
D03*
X39500Y-75900D02*
D03*
X132000Y-60900D02*
D03*
X37000Y-80900D02*
D03*
X-113000Y-120900D02*
D03*
X-128000D02*
D03*
X-138000D02*
D03*
X127000Y-60900D02*
D03*
X129500Y-25900D02*
D03*
X-95500Y-115900D02*
D03*
X42000Y-80900D02*
D03*
X74500Y4100D02*
D03*
Y-65900D02*
D03*
X4500Y-75900D02*
D03*
X97000Y-50900D02*
D03*
X4500Y-105900D02*
D03*
X49500Y-75900D02*
D03*
X44500D02*
D03*
X-45500Y-105900D02*
D03*
X19500Y-95900D02*
D03*
X-133000Y-110900D02*
D03*
X104500Y-15900D02*
D03*
X44500Y-95900D02*
D03*
X22000Y-90900D02*
D03*
X-20500Y-105900D02*
D03*
X-93000Y-40900D02*
D03*
X-10500Y-85900D02*
D03*
X82000Y-10900D02*
D03*
X9500Y-75900D02*
D03*
X134500Y-15900D02*
D03*
X109500D02*
D03*
X-500Y-75900D02*
D03*
X34500D02*
D03*
X-85500Y-115900D02*
D03*
X34500Y-85900D02*
D03*
X32000Y-80900D02*
D03*
X127000Y-20900D02*
D03*
X77000D02*
D03*
X27000Y-90900D02*
D03*
X19500Y-75900D02*
D03*
X-68000Y-110900D02*
D03*
X-95500Y-45900D02*
D03*
X137000Y-70900D02*
D03*
X-3000Y-80900D02*
D03*
X54500Y-85900D02*
D03*
X-30500Y-95900D02*
D03*
X-5500Y-105900D02*
D03*
X-138000Y9100D02*
D03*
X-25500Y-95900D02*
D03*
X16600Y-90000D02*
D03*
X-19500D02*
D03*
X-116800Y-31500D02*
D03*
X-100200Y-31700D02*
D03*
X110000Y-43100D02*
D03*
X-94960Y8961D02*
D03*
X-101200Y-12489D02*
D03*
X-61600Y-65700D02*
D03*
X-77000Y-62300D02*
D03*
X-78518Y-94200D02*
D03*
X-84345Y-98413D02*
D03*
X-82000Y-95900D02*
D03*
X121000Y-41800D02*
D03*
X-100600Y-103500D02*
D03*
X125096Y-47879D02*
D03*
X124600Y-41800D02*
D03*
X-20800Y400D02*
D03*
X11700D02*
D03*
X44200Y500D02*
D03*
X-9291Y-95671D02*
D03*
X-124246Y-104578D02*
D03*
X-121814Y-107205D02*
D03*
X-127900Y-96300D02*
D03*
X-130407Y-98803D02*
D03*
X-123422Y-91874D02*
D03*
X-126200Y-88828D02*
D03*
X-116710Y-111790D02*
D03*
X-119114Y-109386D02*
D03*
X-135400Y-103800D02*
D03*
X-132900Y-101300D02*
D03*
X-117352Y-50762D02*
D03*
X-99600Y-50600D02*
D03*
X-104600Y41700D02*
D03*
X-77400Y-20800D02*
D03*
X-116899Y25500D02*
D03*
X64000Y65400D02*
D03*
X-76500Y21900D02*
D03*
X-118103Y-69015D02*
D03*
X-119563Y-65927D02*
D03*
X-115846Y-66352D02*
D03*
X-114475Y35519D02*
D03*
X-95600Y47600D02*
D03*
X-97000Y57800D02*
D03*
X71150Y5200D02*
D03*
X71100Y-2600D02*
D03*
X71150Y9000D02*
D03*
Y1400D02*
D03*
X94226Y9000D02*
D03*
X97977Y-57841D02*
D03*
X-113500Y25400D02*
D03*
X-96600Y53000D02*
D03*
X-112100Y-18000D02*
D03*
X-113105Y-63898D02*
D03*
X-87980Y-61980D02*
D03*
X-81684Y-66700D02*
D03*
X109800Y-25900D02*
D03*
X3400Y-65700D02*
D03*
X20000D02*
D03*
X102300Y-900D02*
D03*
X-29100Y-65700D02*
D03*
X35900D02*
D03*
X63900Y-6900D02*
D03*
X65709Y-69709D02*
D03*
X29500Y-3919D02*
D03*
X53900Y-65800D02*
D03*
X-9000Y65800D02*
D03*
X-17000Y65620D02*
D03*
X23500Y65400D02*
D03*
X-33515Y65700D02*
D03*
X-41500D02*
D03*
X-25000Y65720D02*
D03*
X-1017Y65800D02*
D03*
X-49500Y65656D02*
D03*
X31500Y65400D02*
D03*
X56000Y-7200D02*
D03*
Y65400D02*
D03*
X48000Y-7200D02*
D03*
X40000Y-7100D02*
D03*
X35900Y6900D02*
D03*
X11700Y6800D02*
D03*
X7500Y-7100D02*
D03*
X-25000D02*
D03*
X-33500Y-7200D02*
D03*
X-29131Y7608D02*
D03*
X-45000Y7527D02*
D03*
X-79563Y-17263D02*
D03*
X-53300Y7527D02*
D03*
X-61600Y7556D02*
D03*
X-79200Y19200D02*
D03*
X-81500Y16600D02*
D03*
X-74700Y-23100D02*
D03*
X-1000Y-7200D02*
D03*
X-9000D02*
D03*
X-41500D02*
D03*
X-17000D02*
D03*
X-49500D02*
D03*
X-72200Y-25800D02*
D03*
X-58583Y-7100D02*
D03*
X-20800Y-65800D02*
D03*
X-53300D02*
D03*
X11700D02*
D03*
X44200D02*
D03*
X-12500Y-65700D02*
D03*
X-45000D02*
D03*
X23500Y-7200D02*
D03*
X15500D02*
D03*
X-57500Y65756D02*
D03*
X-20800Y7021D02*
D03*
X3400Y6900D02*
D03*
X20000D02*
D03*
X-12500Y7120D02*
D03*
X7500Y65500D02*
D03*
X15500Y65400D02*
D03*
X48000D02*
D03*
X40000Y65500D02*
D03*
X44200Y6800D02*
D03*
X52500Y6900D02*
D03*
D60*
X127400Y40300D02*
D03*
X127300Y50800D02*
D03*
X133600Y56600D02*
D03*
X127300Y59300D02*
D03*
X102014Y-42114D02*
D03*
X-71200Y-93100D02*
D03*
X-66400D02*
D03*
X-80900Y-39400D02*
D03*
X99500Y72400D02*
D03*
X80100Y82600D02*
D03*
X126700Y17900D02*
D03*
X88593Y18224D02*
D03*
X134200Y90800D02*
D03*
X102500Y91100D02*
D03*
X124163Y137D02*
D03*
X-71000Y39600D02*
D03*
X-82400Y34500D02*
D03*
X83800Y19200D02*
D03*
X-114900Y900D02*
D03*
X66400Y-99600D02*
D03*
X120800Y-71000D02*
D03*
X-73900Y300D02*
D03*
X-105400Y-21500D02*
D03*
X94800Y14100D02*
D03*
X126600Y24400D02*
D03*
Y32100D02*
D03*
X94000Y-1000D02*
D03*
X133735Y-49139D02*
D03*
X98200Y-26300D02*
D03*
X133500Y-44000D02*
D03*
X118700Y-78800D02*
D03*
X102576Y-82622D02*
D03*
X-112200Y67400D02*
D03*
X106300Y-700D02*
D03*
X130154Y249D02*
D03*
X72500Y96600D02*
D03*
Y106900D02*
D03*
X-49000Y-26200D02*
D03*
X-16500Y-26400D02*
D03*
X48500D02*
D03*
X16000D02*
D03*
X-16500Y24165D02*
D03*
X48500Y23944D02*
D03*
X16000Y24200D02*
D03*
X-49000D02*
D03*
M02*
