G04*
G04 #@! TF.GenerationSoftware,Altium Limited,Altium Designer,22.4.2 (48)*
G04*
G04 Layer_Physical_Order=4*
G04 Layer_Color=16711680*
%FSLAX25Y25*%
%MOIN*%
G70*
G04*
G04 #@! TF.SameCoordinates,FFA694D2-1829-43A5-BD7A-47FC6BC8C01B*
G04*
G04*
G04 #@! TF.FilePolarity,Positive*
G04*
G01*
G75*
%ADD12C,0.01000*%
%ADD15R,0.03543X0.02559*%
%ADD16R,0.03150X0.03150*%
%ADD22R,0.03543X0.02953*%
%ADD24R,0.02953X0.03543*%
%ADD48C,0.02000*%
%ADD49C,0.01500*%
%ADD50C,0.00782*%
%ADD51C,0.02500*%
%ADD52C,0.03000*%
G04:AMPARAMS|DCode=54|XSize=31.5mil|YSize=62.99mil|CornerRadius=11.81mil|HoleSize=0mil|Usage=FLASHONLY|Rotation=0.000|XOffset=0mil|YOffset=0mil|HoleType=Round|Shape=RoundedRectangle|*
%AMROUNDEDRECTD54*
21,1,0.03150,0.03937,0,0,0.0*
21,1,0.00787,0.06299,0,0,0.0*
1,1,0.02362,0.00394,-0.01968*
1,1,0.02362,-0.00394,-0.01968*
1,1,0.02362,-0.00394,0.01968*
1,1,0.02362,0.00394,0.01968*
%
%ADD54ROUNDEDRECTD54*%
%ADD55C,0.04559*%
%ADD56C,0.04500*%
G04:AMPARAMS|DCode=57|XSize=31.5mil|YSize=62.99mil|CornerRadius=11.81mil|HoleSize=0mil|Usage=FLASHONLY|Rotation=90.000|XOffset=0mil|YOffset=0mil|HoleType=Round|Shape=RoundedRectangle|*
%AMROUNDEDRECTD57*
21,1,0.03150,0.03937,0,0,90.0*
21,1,0.00787,0.06299,0,0,90.0*
1,1,0.02362,0.01968,0.00394*
1,1,0.02362,0.01968,-0.00394*
1,1,0.02362,-0.01968,-0.00394*
1,1,0.02362,-0.01968,0.00394*
%
%ADD57ROUNDEDRECTD57*%
%ADD58R,0.06299X0.03150*%
%ADD59C,0.02400*%
%ADD60C,0.03600*%
%ADD61R,0.03642X0.06693*%
%ADD62R,0.01575X0.07480*%
%ADD63R,0.04134X0.06299*%
G04:AMPARAMS|DCode=64|XSize=11.81mil|YSize=62.99mil|CornerRadius=0mil|HoleSize=0mil|Usage=FLASHONLY|Rotation=225.000|XOffset=0mil|YOffset=0mil|HoleType=Round|Shape=Round|*
%AMOVALD64*
21,1,0.05118,0.01181,0.00000,0.00000,315.0*
1,1,0.01181,-0.01810,0.01810*
1,1,0.01181,0.01810,-0.01810*
%
%ADD64OVALD64*%

G04:AMPARAMS|DCode=65|XSize=11.81mil|YSize=62.99mil|CornerRadius=0mil|HoleSize=0mil|Usage=FLASHONLY|Rotation=135.000|XOffset=0mil|YOffset=0mil|HoleType=Round|Shape=Round|*
%AMOVALD65*
21,1,0.05118,0.01181,0.00000,0.00000,225.0*
1,1,0.01181,0.01810,0.01810*
1,1,0.01181,-0.01810,-0.01810*
%
%ADD65OVALD65*%

%ADD66R,0.02047X0.02047*%
%ADD67R,0.03150X0.03543*%
%ADD68R,0.01499X0.06517*%
G04:AMPARAMS|DCode=69|XSize=65.17mil|YSize=14.99mil|CornerRadius=7.5mil|HoleSize=0mil|Usage=FLASHONLY|Rotation=90.000|XOffset=0mil|YOffset=0mil|HoleType=Round|Shape=RoundedRectangle|*
%AMROUNDEDRECTD69*
21,1,0.06517,0.00000,0,0,90.0*
21,1,0.05018,0.01499,0,0,90.0*
1,1,0.01499,0.00000,0.02509*
1,1,0.01499,0.00000,-0.02509*
1,1,0.01499,0.00000,-0.02509*
1,1,0.01499,0.00000,0.02509*
%
%ADD69ROUNDEDRECTD69*%
%ADD70R,0.08661X0.06299*%
%ADD71R,0.08583X0.06299*%
%ADD72R,0.02756X0.03937*%
%ADD73R,0.02756X0.02362*%
%ADD74O,0.08661X0.01378*%
%ADD75R,0.03937X0.06299*%
%ADD76R,0.11811X0.09843*%
%ADD77R,0.07480X0.07480*%
%ADD78R,0.08268X0.06299*%
%ADD79R,0.01575X0.05315*%
%ADD80R,0.01772X0.06890*%
G04:AMPARAMS|DCode=81|XSize=23.62mil|YSize=39.37mil|CornerRadius=2.01mil|HoleSize=0mil|Usage=FLASHONLY|Rotation=180.000|XOffset=0mil|YOffset=0mil|HoleType=Round|Shape=RoundedRectangle|*
%AMROUNDEDRECTD81*
21,1,0.02362,0.03535,0,0,180.0*
21,1,0.01961,0.03937,0,0,180.0*
1,1,0.00402,-0.00980,0.01768*
1,1,0.00402,0.00980,0.01768*
1,1,0.00402,0.00980,-0.01768*
1,1,0.00402,-0.00980,-0.01768*
%
%ADD81ROUNDEDRECTD81*%
%ADD82R,0.03347X0.02756*%
%ADD83R,0.07500X0.11000*%
%ADD84R,0.03773X0.03961*%
%ADD85R,0.07087X0.05276*%
G04:AMPARAMS|DCode=86|XSize=57.09mil|YSize=23.23mil|CornerRadius=2.9mil|HoleSize=0mil|Usage=FLASHONLY|Rotation=0.000|XOffset=0mil|YOffset=0mil|HoleType=Round|Shape=RoundedRectangle|*
%AMROUNDEDRECTD86*
21,1,0.05709,0.01742,0,0,0.0*
21,1,0.05128,0.02323,0,0,0.0*
1,1,0.00581,0.02564,-0.00871*
1,1,0.00581,-0.02564,-0.00871*
1,1,0.00581,-0.02564,0.00871*
1,1,0.00581,0.02564,0.00871*
%
%ADD86ROUNDEDRECTD86*%
%ADD87C,0.01024*%
%ADD88C,0.00800*%
G36*
X-101330Y68337D02*
X-101458Y68291D01*
X-101570Y68215D01*
X-101668Y68109D01*
X-101750Y67973D01*
X-101818Y67807D01*
X-101870Y67610D01*
X-101908Y67384D01*
X-101930Y67127D01*
X-101938Y66840D01*
X-103438D01*
X-103444Y67125D01*
X-103464Y67380D01*
X-103498Y67605D01*
X-103544Y67800D01*
X-103604Y67965D01*
X-103677Y68100D01*
X-103763Y68205D01*
X-103863Y68280D01*
X-103976Y68325D01*
X-104102Y68340D01*
X-101188Y68352D01*
X-101330Y68337D01*
D02*
G37*
G36*
X-110988Y68741D02*
X-110948Y68733D01*
X-110886Y68727D01*
X-110579Y68713D01*
X-109881Y68706D01*
X-109461Y66706D01*
X-109664Y66704D01*
X-110285Y66662D01*
X-110391Y66642D01*
X-110479Y66619D01*
X-110547Y66593D01*
X-110596Y66562D01*
X-110625Y66529D01*
X-111008Y68749D01*
X-110988Y68741D01*
D02*
G37*
G36*
X-105996Y68320D02*
X-106083Y68260D01*
X-106160Y68160D01*
X-106227Y68020D01*
X-106284Y67840D01*
X-106330Y67620D01*
X-106366Y67360D01*
X-106407Y66720D01*
X-106412Y66340D01*
X-108412D01*
X-108416Y66720D01*
X-108478Y67620D01*
X-108516Y67840D01*
X-108561Y68020D01*
X-108615Y68160D01*
X-108677Y68260D01*
X-108748Y68320D01*
X-108827Y68340D01*
X-105898D01*
X-105996Y68320D01*
D02*
G37*
G36*
X-39866Y66627D02*
X-39949Y66539D01*
X-40024Y66450D01*
X-40089Y66360D01*
X-40146Y66270D01*
X-40194Y66179D01*
X-40233Y66087D01*
X-40263Y65994D01*
X-40284Y65901D01*
X-40297Y65807D01*
X-40300Y65712D01*
X-41488Y66900D01*
X-41393Y66903D01*
X-41299Y66916D01*
X-41206Y66937D01*
X-41113Y66967D01*
X-41021Y67006D01*
X-40930Y67054D01*
X-40840Y67111D01*
X-40750Y67176D01*
X-40661Y67251D01*
X-40573Y67334D01*
X-39866Y66627D01*
D02*
G37*
G36*
X-17839Y67171D02*
X-17750Y67097D01*
X-17660Y67031D01*
X-17570Y66974D01*
X-17479Y66926D01*
X-17387Y66888D01*
X-17294Y66857D01*
X-17201Y66836D01*
X-17107Y66824D01*
X-17012Y66820D01*
X-18200Y65632D01*
X-18203Y65727D01*
X-18216Y65821D01*
X-18237Y65915D01*
X-18267Y66007D01*
X-18306Y66099D01*
X-18354Y66190D01*
X-18411Y66281D01*
X-18476Y66370D01*
X-18551Y66459D01*
X-18634Y66547D01*
X-17927Y67255D01*
X-17839Y67171D01*
D02*
G37*
G36*
X-32690Y66582D02*
X-32610Y66532D01*
X-32524Y66488D01*
X-32433Y66450D01*
X-32337Y66418D01*
X-32236Y66392D01*
X-32131Y66372D01*
X-32020Y66357D01*
X-31904Y66348D01*
X-31783Y66345D01*
X-31649Y65345D01*
X-31771Y65341D01*
X-31886Y65330D01*
X-31994Y65311D01*
X-32096Y65285D01*
X-32190Y65251D01*
X-32278Y65210D01*
X-32359Y65161D01*
X-32434Y65105D01*
X-32502Y65041D01*
X-32563Y64970D01*
X-32766Y66637D01*
X-32690Y66582D01*
D02*
G37*
G36*
X-56297Y65649D02*
X-56284Y65555D01*
X-56263Y65462D01*
X-56233Y65369D01*
X-56194Y65277D01*
X-56146Y65186D01*
X-56089Y65096D01*
X-56024Y65006D01*
X-55949Y64917D01*
X-55866Y64829D01*
X-56573Y64122D01*
X-56661Y64205D01*
X-56750Y64280D01*
X-56840Y64345D01*
X-56930Y64402D01*
X-57021Y64450D01*
X-57113Y64489D01*
X-57206Y64519D01*
X-57299Y64540D01*
X-57393Y64552D01*
X-57488Y64556D01*
X-56300Y65744D01*
X-56297Y65649D01*
D02*
G37*
G36*
X-23797Y65614D02*
X-23784Y65519D01*
X-23763Y65426D01*
X-23733Y65334D01*
X-23694Y65242D01*
X-23646Y65151D01*
X-23589Y65060D01*
X-23524Y64971D01*
X-23449Y64882D01*
X-23366Y64793D01*
X-24073Y64086D01*
X-24161Y64170D01*
X-24250Y64244D01*
X-24340Y64310D01*
X-24430Y64367D01*
X-24521Y64414D01*
X-24613Y64453D01*
X-24706Y64483D01*
X-24799Y64505D01*
X-24893Y64517D01*
X-24988Y64521D01*
X-23800Y65709D01*
X-23797Y65614D01*
D02*
G37*
G36*
X-25012Y64521D02*
X-25107Y64517D01*
X-25201Y64505D01*
X-25294Y64483D01*
X-25387Y64453D01*
X-25479Y64414D01*
X-25570Y64367D01*
X-25660Y64310D01*
X-25750Y64244D01*
X-25839Y64170D01*
X-25927Y64086D01*
X-26634Y64793D01*
X-26551Y64882D01*
X-26476Y64971D01*
X-26411Y65060D01*
X-26354Y65151D01*
X-26306Y65242D01*
X-26267Y65334D01*
X-26237Y65426D01*
X-26216Y65519D01*
X-26203Y65614D01*
X-26200Y65709D01*
X-25012Y64521D01*
D02*
G37*
G36*
X-101931Y65275D02*
X-101911Y65020D01*
X-101878Y64795D01*
X-101831Y64600D01*
X-101772Y64435D01*
X-101699Y64300D01*
X-101612Y64195D01*
X-101513Y64120D01*
X-101400Y64075D01*
X-101273Y64060D01*
X-104188D01*
X-104045Y64075D01*
X-103918Y64120D01*
X-103805Y64195D01*
X-103708Y64300D01*
X-103625Y64435D01*
X-103558Y64600D01*
X-103505Y64795D01*
X-103468Y65020D01*
X-103445Y65275D01*
X-103438Y65560D01*
X-101938D01*
X-101931Y65275D01*
D02*
G37*
G36*
X-106408Y65680D02*
X-106346Y64780D01*
X-106309Y64560D01*
X-106263Y64380D01*
X-106209Y64240D01*
X-106147Y64140D01*
X-106077Y64080D01*
X-105998Y64060D01*
X-108927D01*
X-108829Y64080D01*
X-108741Y64140D01*
X-108664Y64240D01*
X-108597Y64380D01*
X-108541Y64560D01*
X-108494Y64780D01*
X-108458Y65040D01*
X-108417Y65680D01*
X-108412Y66060D01*
X-106412D01*
X-106408Y65680D01*
D02*
G37*
G36*
X-48297Y65549D02*
X-48284Y65455D01*
X-48263Y65362D01*
X-48233Y65269D01*
X-48194Y65177D01*
X-48146Y65086D01*
X-48089Y64996D01*
X-48024Y64906D01*
X-47949Y64817D01*
X-47866Y64729D01*
X-48573Y64022D01*
X-48661Y64105D01*
X-48750Y64180D01*
X-48840Y64245D01*
X-48930Y64302D01*
X-49021Y64350D01*
X-49113Y64389D01*
X-49206Y64419D01*
X-49299Y64440D01*
X-49393Y64452D01*
X-49488Y64456D01*
X-48300Y65644D01*
X-48297Y65549D01*
D02*
G37*
G36*
X-15797Y65514D02*
X-15784Y65420D01*
X-15763Y65326D01*
X-15733Y65234D01*
X-15694Y65142D01*
X-15646Y65051D01*
X-15589Y64960D01*
X-15524Y64871D01*
X-15449Y64782D01*
X-15366Y64693D01*
X-16073Y63986D01*
X-16161Y64070D01*
X-16250Y64144D01*
X-16340Y64210D01*
X-16430Y64267D01*
X-16521Y64314D01*
X-16613Y64353D01*
X-16706Y64384D01*
X-16799Y64405D01*
X-16893Y64417D01*
X-16988Y64420D01*
X-15800Y65609D01*
X-15797Y65514D01*
D02*
G37*
G36*
X-101369Y62546D02*
X-101410Y62409D01*
X-101409Y62251D01*
X-101365Y62071D01*
X-101279Y61869D01*
X-101151Y61646D01*
X-100980Y61402D01*
X-100767Y61136D01*
X-100213Y60540D01*
X-101273Y59480D01*
X-101582Y59778D01*
X-102135Y60247D01*
X-102379Y60418D01*
X-102602Y60546D01*
X-102804Y60632D01*
X-102984Y60676D01*
X-103142Y60677D01*
X-103279Y60636D01*
X-103395Y60552D01*
X-101285Y62662D01*
X-101369Y62546D01*
D02*
G37*
G36*
X-95797Y57667D02*
X-95786Y57550D01*
X-95767Y57438D01*
X-95740Y57330D01*
X-95705Y57226D01*
X-95662Y57127D01*
X-95611Y57032D01*
X-95551Y56942D01*
X-95484Y56855D01*
X-95408Y56774D01*
X-95974Y56208D01*
X-96056Y56284D01*
X-96142Y56351D01*
X-96232Y56411D01*
X-96327Y56462D01*
X-96426Y56505D01*
X-96530Y56540D01*
X-96638Y56567D01*
X-96750Y56586D01*
X-96867Y56597D01*
X-96988Y56600D01*
X-95800Y57788D01*
X-95797Y57667D01*
D02*
G37*
G36*
X-98888Y54357D02*
X-98843Y54230D01*
X-98767Y54118D01*
X-98661Y54020D01*
X-98525Y53938D01*
X-98359Y53870D01*
X-98162Y53817D01*
X-97936Y53780D01*
X-97821Y53770D01*
X-97627Y53782D01*
X-97566Y53794D01*
X-97517Y53808D01*
X-97481Y53823D01*
X-97457Y53840D01*
Y53752D01*
X-97391Y53750D01*
Y52250D01*
X-97457Y52248D01*
Y52160D01*
X-97481Y52177D01*
X-97517Y52192D01*
X-97566Y52206D01*
X-97627Y52218D01*
X-97701Y52227D01*
X-97780Y52234D01*
X-97936Y52220D01*
X-98162Y52183D01*
X-98359Y52130D01*
X-98525Y52062D01*
X-98661Y51980D01*
X-98767Y51882D01*
X-98843Y51770D01*
X-98888Y51643D01*
X-98903Y51500D01*
Y54500D01*
X-98888Y54357D01*
D02*
G37*
G36*
X-118297Y50694D02*
X-118307Y50788D01*
X-118337Y50874D01*
X-118388Y50949D01*
X-118459Y51013D01*
X-118550Y51069D01*
X-118661Y51113D01*
X-118793Y51149D01*
X-118944Y51174D01*
X-119116Y51188D01*
X-119309Y51193D01*
Y52194D01*
X-119116Y52199D01*
X-118944Y52214D01*
X-118793Y52239D01*
X-118661Y52274D01*
X-118550Y52319D01*
X-118459Y52374D01*
X-118388Y52438D01*
X-118337Y52513D01*
X-118307Y52599D01*
X-118297Y52694D01*
Y50694D01*
D02*
G37*
G36*
X-109458Y50023D02*
X-109461Y50017D01*
X-109464Y49998D01*
X-109467Y49965D01*
X-109474Y49599D01*
X-109475Y49358D01*
X-110475D01*
X-110489Y50220D01*
X-109458Y50023D01*
D02*
G37*
G36*
X-106681Y50236D02*
X-106730Y50138D01*
X-106774Y50033D01*
X-106811Y49920D01*
X-106843Y49800D01*
X-106869Y49672D01*
X-106890Y49538D01*
X-106913Y49246D01*
X-106916Y49088D01*
X-107916Y49178D01*
X-107917Y49369D01*
X-107965Y50161D01*
X-107980Y50233D01*
X-107996Y50288D01*
X-108015Y50327D01*
X-106626D01*
X-106681Y50236D01*
D02*
G37*
G36*
X-104122Y50235D02*
X-104171Y50134D01*
X-104215Y50025D01*
X-104252Y49905D01*
X-104284Y49777D01*
X-104311Y49640D01*
X-104345Y49337D01*
X-104354Y49172D01*
X-104357Y48998D01*
X-105357Y49178D01*
X-105358Y49369D01*
X-105405Y50161D01*
X-105420Y50233D01*
X-105437Y50288D01*
X-105456Y50327D01*
X-104067D01*
X-104122Y50235D01*
D02*
G37*
G36*
X-102897Y50327D02*
X-101671Y50083D01*
X-101735Y50030D01*
X-101794Y49962D01*
X-101845Y49880D01*
X-101889Y49784D01*
X-101927Y49673D01*
X-101957Y49547D01*
X-101981Y49408D01*
X-101998Y49253D01*
X-102012Y48900D01*
X-103012Y48934D01*
X-103011Y49230D01*
X-102938Y50326D01*
X-102919Y50344D01*
X-102897Y50327D01*
D02*
G37*
G36*
X-114466Y50083D02*
X-114332Y50166D01*
X-114249Y50204D01*
X-114219Y50194D01*
X-114240Y50138D01*
X-114314Y50036D01*
X-114439Y49886D01*
X-115126Y49159D01*
X-115459Y48823D01*
X-116270Y49426D01*
X-116083Y49621D01*
X-115797Y49962D01*
X-115699Y50109D01*
X-115631Y50240D01*
X-115593Y50354D01*
X-115584Y50453D01*
X-115605Y50536D01*
X-115657Y50603D01*
X-115738Y50654D01*
X-114466Y50083D01*
D02*
G37*
G36*
X-94844Y46655D02*
X-94918Y46565D01*
X-94984Y46472D01*
X-95042Y46377D01*
X-95090Y46279D01*
X-95130Y46178D01*
X-95160Y46075D01*
X-95182Y45969D01*
X-95196Y45860D01*
X-95200Y45749D01*
X-96000D01*
X-96004Y45860D01*
X-96018Y45969D01*
X-96040Y46075D01*
X-96070Y46178D01*
X-96110Y46279D01*
X-96158Y46377D01*
X-96216Y46472D01*
X-96282Y46565D01*
X-96356Y46655D01*
X-96440Y46743D01*
X-94760D01*
X-94844Y46655D01*
D02*
G37*
G36*
X-129032Y44071D02*
X-129213Y43883D01*
X-129490Y43550D01*
X-129587Y43404D01*
X-129656Y43273D01*
X-129696Y43156D01*
X-129708Y43053D01*
X-129692Y42964D01*
X-129649Y42890D01*
X-129577Y42829D01*
X-131309Y43903D01*
X-131218Y43863D01*
X-131115Y43846D01*
X-131003Y43855D01*
X-130879Y43888D01*
X-130744Y43946D01*
X-130599Y44029D01*
X-130443Y44137D01*
X-130276Y44269D01*
X-130098Y44426D01*
X-129910Y44607D01*
X-129032Y44071D01*
D02*
G37*
G36*
Y39149D02*
X-129213Y38962D01*
X-129490Y38628D01*
X-129587Y38483D01*
X-129656Y38352D01*
X-129696Y38235D01*
X-129708Y38132D01*
X-129692Y38043D01*
X-129649Y37969D01*
X-129577Y37908D01*
X-131309Y38982D01*
X-131218Y38941D01*
X-131115Y38925D01*
X-131003Y38934D01*
X-130879Y38967D01*
X-130744Y39025D01*
X-130599Y39108D01*
X-130443Y39215D01*
X-130276Y39348D01*
X-130098Y39505D01*
X-129910Y39686D01*
X-129032Y39149D01*
D02*
G37*
G36*
X-128922Y33996D02*
X-129107Y33804D01*
X-129396Y33460D01*
X-129500Y33307D01*
X-129578Y33167D01*
X-129628Y33039D01*
X-129653Y32925D01*
X-129650Y32823D01*
X-129621Y32735D01*
X-129564Y32659D01*
X-130966Y34061D01*
X-130891Y34005D01*
X-130802Y33975D01*
X-130700Y33973D01*
X-130586Y33997D01*
X-130458Y34048D01*
X-130318Y34125D01*
X-130166Y34229D01*
X-130000Y34360D01*
X-129821Y34518D01*
X-129630Y34703D01*
X-128922Y33996D01*
D02*
G37*
G36*
X-114767Y34713D02*
X-114402D01*
X-114401Y34574D01*
X-113995Y34420D01*
X-114072Y34379D01*
X-114142Y34330D01*
X-114203Y34271D01*
X-114256Y34203D01*
X-114300Y34126D01*
X-114337Y34040D01*
X-114363Y33951D01*
X-114348Y33721D01*
X-114333Y33687D01*
X-114317Y33674D01*
X-114399Y33691D01*
X-114402Y33601D01*
X-115402Y33678D01*
X-115404Y33869D01*
X-115406Y33911D01*
X-115490Y33929D01*
X-115473Y33933D01*
X-115459Y33954D01*
X-115445Y33992D01*
X-115434Y34045D01*
X-115424Y34116D01*
X-115421Y34154D01*
X-115443Y34506D01*
X-115461Y34633D01*
X-115506Y34851D01*
X-115534Y34940D01*
X-115565Y35017D01*
X-114767Y34713D01*
D02*
G37*
G36*
X-108061Y31647D02*
X-107915Y31634D01*
X-107627Y31626D01*
Y30126D01*
X-107915Y30119D01*
X-108061Y30106D01*
Y29376D01*
X-108076Y29519D01*
X-108121Y29646D01*
X-108196Y29759D01*
X-108302Y29856D01*
X-108439Y29939D01*
X-108600Y30005D01*
X-108762Y29939D01*
X-108898Y29856D01*
X-109003Y29759D01*
X-109079Y29646D01*
X-109124Y29519D01*
X-109140Y29376D01*
Y30106D01*
X-109285Y30119D01*
X-109573Y30126D01*
Y31626D01*
X-109285Y31634D01*
X-109140Y31647D01*
Y32376D01*
X-109124Y32234D01*
X-109079Y32106D01*
X-109003Y31994D01*
X-108898Y31896D01*
X-108762Y31814D01*
X-108600Y31748D01*
X-108439Y31814D01*
X-108302Y31896D01*
X-108196Y31994D01*
X-108121Y32106D01*
X-108076Y32234D01*
X-108061Y32376D01*
Y31647D01*
D02*
G37*
G36*
X-128922Y29074D02*
X-129107Y28883D01*
X-129396Y28539D01*
X-129500Y28385D01*
X-129578Y28245D01*
X-129628Y28118D01*
X-129653Y28004D01*
X-129650Y27902D01*
X-129621Y27813D01*
X-129564Y27737D01*
X-130966Y29140D01*
X-130891Y29083D01*
X-130802Y29054D01*
X-130700Y29051D01*
X-130586Y29076D01*
X-130458Y29126D01*
X-130318Y29204D01*
X-130166Y29308D01*
X-130000Y29439D01*
X-129821Y29597D01*
X-129630Y29781D01*
X-128922Y29074D01*
D02*
G37*
G36*
X-111799Y27988D02*
X-111848Y27887D01*
X-111892Y27777D01*
X-111930Y27658D01*
X-111961Y27530D01*
X-111988Y27393D01*
X-112022Y27090D01*
X-112031Y26925D01*
X-112034Y26750D01*
X-112651Y26862D01*
X-112180Y26391D01*
X-112241Y26330D01*
X-112440Y26103D01*
X-112459Y26074D01*
X-112470Y26050D01*
X-112475Y26032D01*
X-112472Y26019D01*
X-113390Y26595D01*
X-113034Y26951D01*
X-113035Y27122D01*
X-113083Y27914D01*
X-113098Y27986D01*
X-113115Y28041D01*
X-113133Y28080D01*
X-111744D01*
X-111799Y27988D01*
D02*
G37*
G36*
X-109130Y26827D02*
X-109117Y26088D01*
X-110769Y26396D01*
X-110742Y26421D01*
X-110719Y26458D01*
X-110698Y26507D01*
X-110680Y26569D01*
X-110665Y26643D01*
X-110652Y26729D01*
X-110635Y26938D01*
X-110630Y27197D01*
X-109130Y26827D01*
D02*
G37*
G36*
X-116805Y27281D02*
X-116784Y26956D01*
X-116771Y26876D01*
X-116756Y26809D01*
X-116737Y26755D01*
X-116716Y26715D01*
X-116692Y26689D01*
X-116666Y26677D01*
X-118051Y25833D01*
X-118306Y27223D01*
X-116806Y27416D01*
X-116805Y27281D01*
D02*
G37*
G36*
X-128922Y24153D02*
X-129107Y23962D01*
X-129396Y23617D01*
X-129500Y23464D01*
X-129578Y23324D01*
X-129628Y23197D01*
X-129653Y23083D01*
X-129650Y22981D01*
X-129621Y22892D01*
X-129564Y22816D01*
X-130966Y24218D01*
X-130891Y24162D01*
X-130802Y24133D01*
X-130700Y24130D01*
X-130586Y24154D01*
X-130458Y24205D01*
X-130318Y24283D01*
X-130166Y24387D01*
X-130000Y24518D01*
X-129821Y24676D01*
X-129630Y24860D01*
X-128922Y24153D01*
D02*
G37*
G36*
X-50286Y22940D02*
X-50344Y22989D01*
X-50419Y23034D01*
X-50509Y23073D01*
X-50614Y23106D01*
X-50736Y23135D01*
X-50873Y23158D01*
X-51193Y23190D01*
X-51377Y23197D01*
X-51577Y23200D01*
Y25200D01*
X-51377Y25203D01*
X-50873Y25242D01*
X-50736Y25265D01*
X-50614Y25294D01*
X-50509Y25327D01*
X-50419Y25366D01*
X-50344Y25411D01*
X-50286Y25460D01*
Y22940D01*
D02*
G37*
G36*
X-17785Y22905D02*
X-17844Y22954D01*
X-17919Y22998D01*
X-18009Y23037D01*
X-18114Y23071D01*
X-18236Y23100D01*
X-18373Y23123D01*
X-18693Y23154D01*
X-18877Y23162D01*
X-19077Y23165D01*
Y25165D01*
X-18877Y25167D01*
X-18373Y25206D01*
X-18236Y25230D01*
X-18114Y25258D01*
X-18009Y25292D01*
X-17919Y25331D01*
X-17844Y25375D01*
X-17785Y25425D01*
Y22905D01*
D02*
G37*
G36*
X-77357Y21060D02*
X-77426Y21125D01*
X-77502Y21182D01*
X-77583Y21233D01*
X-77670Y21278D01*
X-77762Y21315D01*
X-77860Y21346D01*
X-77964Y21369D01*
X-78074Y21386D01*
X-78190Y21397D01*
X-78311Y21400D01*
Y22400D01*
X-78190Y22403D01*
X-78074Y22414D01*
X-77964Y22431D01*
X-77860Y22454D01*
X-77762Y22485D01*
X-77670Y22522D01*
X-77583Y22567D01*
X-77502Y22618D01*
X-77426Y22675D01*
X-77357Y22740D01*
Y21060D01*
D02*
G37*
G36*
X-128922Y19232D02*
X-129107Y19040D01*
X-129396Y18696D01*
X-129500Y18543D01*
X-129578Y18403D01*
X-129628Y18276D01*
X-129653Y18161D01*
X-129650Y18060D01*
X-129621Y17971D01*
X-129564Y17895D01*
X-130966Y19297D01*
X-130891Y19241D01*
X-130802Y19212D01*
X-130700Y19209D01*
X-130586Y19233D01*
X-130458Y19284D01*
X-130318Y19361D01*
X-130166Y19466D01*
X-130000Y19597D01*
X-129821Y19754D01*
X-129630Y19939D01*
X-128922Y19232D01*
D02*
G37*
G36*
X-80124Y18434D02*
X-80188Y18504D01*
X-80258Y18566D01*
X-80335Y18621D01*
X-80418Y18668D01*
X-80507Y18709D01*
X-80603Y18742D01*
X-80706Y18767D01*
X-80814Y18785D01*
X-80930Y18796D01*
X-81051Y18800D01*
X-80959Y19800D01*
X-80838Y19803D01*
X-80722Y19812D01*
X-80612Y19828D01*
X-80507Y19849D01*
X-80406Y19877D01*
X-80312Y19911D01*
X-80222Y19951D01*
X-80137Y19997D01*
X-80058Y20050D01*
X-79984Y20109D01*
X-80124Y18434D01*
D02*
G37*
G36*
X-82357Y15760D02*
X-82427Y15825D01*
X-82502Y15882D01*
X-82583Y15933D01*
X-82670Y15978D01*
X-82762Y16015D01*
X-82860Y16046D01*
X-82964Y16069D01*
X-83074Y16086D01*
X-83190Y16097D01*
X-83311Y16100D01*
Y17100D01*
X-83190Y17103D01*
X-83074Y17114D01*
X-82964Y17131D01*
X-82860Y17154D01*
X-82762Y17185D01*
X-82670Y17222D01*
X-82583Y17267D01*
X-82502Y17318D01*
X-82427Y17375D01*
X-82357Y17440D01*
Y15760D01*
D02*
G37*
G36*
X-128922Y14311D02*
X-129107Y14119D01*
X-129396Y13775D01*
X-129500Y13622D01*
X-129578Y13482D01*
X-129628Y13354D01*
X-129653Y13240D01*
X-129650Y13138D01*
X-129621Y13050D01*
X-129564Y12974D01*
X-130966Y14376D01*
X-130891Y14320D01*
X-130802Y14290D01*
X-130700Y14288D01*
X-130586Y14312D01*
X-130458Y14363D01*
X-130318Y14440D01*
X-130166Y14544D01*
X-130000Y14675D01*
X-129821Y14833D01*
X-129630Y15018D01*
X-128922Y14311D01*
D02*
G37*
G36*
X-93783Y10466D02*
X-93869Y10374D01*
X-93942Y10286D01*
X-94000Y10201D01*
X-94044Y10119D01*
X-94075Y10041D01*
X-94091Y9967D01*
X-94094Y9895D01*
X-94082Y9827D01*
X-94056Y9763D01*
X-94017Y9702D01*
X-95589Y9983D01*
X-94650Y11013D01*
X-93783Y10466D01*
D02*
G37*
G36*
X-27497Y8535D02*
X-27580Y8447D01*
X-27655Y8358D01*
X-27720Y8268D01*
X-27777Y8178D01*
X-27825Y8087D01*
X-27864Y7995D01*
X-27894Y7902D01*
X-27915Y7809D01*
X-27928Y7715D01*
X-27931Y7620D01*
X-29119Y8808D01*
X-29024Y8811D01*
X-28930Y8824D01*
X-28837Y8845D01*
X-28744Y8875D01*
X-28652Y8914D01*
X-28561Y8962D01*
X-28471Y9019D01*
X-28381Y9084D01*
X-28292Y9159D01*
X-28204Y9242D01*
X-27497Y8535D01*
D02*
G37*
G36*
X-29970Y9159D02*
X-29881Y9084D01*
X-29791Y9019D01*
X-29701Y8962D01*
X-29610Y8914D01*
X-29518Y8875D01*
X-29425Y8845D01*
X-29332Y8824D01*
X-29238Y8811D01*
X-29143Y8808D01*
X-30331Y7620D01*
X-30334Y7715D01*
X-30347Y7809D01*
X-30368Y7902D01*
X-30398Y7995D01*
X-30437Y8087D01*
X-30485Y8178D01*
X-30542Y8268D01*
X-30607Y8358D01*
X-30682Y8447D01*
X-30765Y8535D01*
X-30058Y9242D01*
X-29970Y9159D01*
D02*
G37*
G36*
X-59966Y8483D02*
X-60049Y8395D01*
X-60124Y8306D01*
X-60189Y8216D01*
X-60246Y8126D01*
X-60294Y8035D01*
X-60333Y7943D01*
X-60363Y7850D01*
X-60384Y7757D01*
X-60397Y7663D01*
X-60400Y7568D01*
X-61588Y8756D01*
X-61493Y8759D01*
X-61399Y8772D01*
X-61306Y8793D01*
X-61213Y8823D01*
X-61121Y8862D01*
X-61030Y8910D01*
X-60940Y8967D01*
X-60850Y9032D01*
X-60761Y9107D01*
X-60673Y9190D01*
X-59966Y8483D01*
D02*
G37*
G36*
X-44074Y8302D02*
X-43998Y8244D01*
X-43917Y8193D01*
X-43830Y8149D01*
X-43738Y8112D01*
X-43640Y8081D01*
X-43536Y8057D01*
X-43426Y8040D01*
X-43310Y8030D01*
X-43189Y8027D01*
Y7027D01*
X-43310Y7023D01*
X-43426Y7013D01*
X-43536Y6996D01*
X-43640Y6972D01*
X-43738Y6942D01*
X-43830Y6904D01*
X-43917Y6860D01*
X-43998Y6809D01*
X-44074Y6751D01*
X-44143Y6687D01*
Y8367D01*
X-44074Y8302D01*
D02*
G37*
G36*
X-52373D02*
X-52298Y8244D01*
X-52217Y8193D01*
X-52130Y8149D01*
X-52038Y8112D01*
X-51940Y8081D01*
X-51836Y8057D01*
X-51726Y8040D01*
X-51610Y8030D01*
X-51489Y8027D01*
Y7027D01*
X-51610Y7023D01*
X-51726Y7013D01*
X-51836Y6996D01*
X-51940Y6972D01*
X-52038Y6942D01*
X-52130Y6904D01*
X-52217Y6860D01*
X-52298Y6809D01*
X-52373Y6751D01*
X-52443Y6687D01*
Y8367D01*
X-52373Y8302D01*
D02*
G37*
G36*
X-19873Y7796D02*
X-19798Y7738D01*
X-19717Y7687D01*
X-19630Y7643D01*
X-19538Y7605D01*
X-19440Y7575D01*
X-19336Y7551D01*
X-19226Y7534D01*
X-19110Y7524D01*
X-18989Y7520D01*
Y6521D01*
X-19110Y6517D01*
X-19226Y6507D01*
X-19336Y6490D01*
X-19440Y6466D01*
X-19538Y6436D01*
X-19630Y6398D01*
X-19717Y6354D01*
X-19798Y6303D01*
X-19873Y6245D01*
X-19943Y6180D01*
Y7861D01*
X-19873Y7796D01*
D02*
G37*
G36*
X-20812Y5821D02*
X-20907Y5817D01*
X-21001Y5805D01*
X-21094Y5783D01*
X-21187Y5753D01*
X-21279Y5714D01*
X-21370Y5666D01*
X-21460Y5610D01*
X-21550Y5544D01*
X-21639Y5470D01*
X-21727Y5386D01*
X-22434Y6094D01*
X-22351Y6182D01*
X-22276Y6271D01*
X-22211Y6360D01*
X-22154Y6451D01*
X-22106Y6542D01*
X-22067Y6634D01*
X-22037Y6726D01*
X-22016Y6820D01*
X-22003Y6914D01*
X-22000Y7008D01*
X-20812Y5821D01*
D02*
G37*
G36*
X-77547Y6012D02*
X-77567Y6000D01*
X-77609Y5966D01*
X-77753Y5834D01*
X-78684Y4920D01*
X-79745Y5980D01*
X-78653Y7118D01*
X-77547Y6012D01*
D02*
G37*
G36*
X-102994Y6061D02*
X-102929Y6038D01*
X-102848Y6018D01*
X-102751Y6000D01*
X-102510Y5972D01*
X-102205Y5956D01*
X-101837Y5950D01*
Y4950D01*
X-102029Y4949D01*
X-102751Y4900D01*
X-102848Y4882D01*
X-102929Y4862D01*
X-102994Y4839D01*
X-103043Y4812D01*
Y6088D01*
X-102994Y6061D01*
D02*
G37*
G36*
X-75908Y3704D02*
X-75926Y3692D01*
X-75968Y3654D01*
X-77159Y2481D01*
X-78219Y3541D01*
X-76996Y4792D01*
X-75908Y3704D01*
D02*
G37*
G36*
X-102994Y3562D02*
X-102929Y3538D01*
X-102848Y3517D01*
X-102751Y3500D01*
X-102510Y3472D01*
X-102205Y3455D01*
X-101837Y3450D01*
Y2450D01*
X-102029Y2449D01*
X-102751Y2400D01*
X-102848Y2382D01*
X-102929Y2362D01*
X-102994Y2338D01*
X-103043Y2312D01*
Y3588D01*
X-102994Y3562D01*
D02*
G37*
G36*
X-131795Y1400D02*
X-131880Y1370D01*
X-131955Y1320D01*
X-132020Y1250D01*
X-132075Y1160D01*
X-132120Y1050D01*
X-132155Y920D01*
X-132180Y770D01*
X-132195Y600D01*
X-132200Y410D01*
X-133200D01*
X-133205Y600D01*
X-133220Y770D01*
X-133245Y920D01*
X-133280Y1050D01*
X-133325Y1160D01*
X-133380Y1250D01*
X-133445Y1320D01*
X-133520Y1370D01*
X-133605Y1400D01*
X-133700Y1410D01*
X-131700D01*
X-131795Y1400D01*
D02*
G37*
G36*
X-75246Y-895D02*
X-75346Y-793D01*
X-75454Y-703D01*
X-75572Y-623D01*
X-75699Y-553D01*
X-75835Y-495D01*
X-75981Y-446D01*
X-76135Y-409D01*
X-76299Y-382D01*
X-76472Y-366D01*
X-76654Y-361D01*
X-76573Y1139D01*
X-76391Y1144D01*
X-76218Y1158D01*
X-76052Y1182D01*
X-75895Y1216D01*
X-75746Y1260D01*
X-75605Y1313D01*
X-75472Y1376D01*
X-75347Y1448D01*
X-75230Y1530D01*
X-75122Y1622D01*
X-75246Y-895D01*
D02*
G37*
G36*
X-102994Y-1438D02*
X-102929Y-1462D01*
X-102848Y-1483D01*
X-102751Y-1500D01*
X-102510Y-1528D01*
X-102205Y-1544D01*
X-101837Y-1550D01*
Y-2550D01*
X-102029Y-2551D01*
X-102751Y-2600D01*
X-102848Y-2617D01*
X-102929Y-2638D01*
X-102994Y-2661D01*
X-103043Y-2688D01*
Y-1412D01*
X-102994Y-1438D01*
D02*
G37*
G36*
X-112163Y1463D02*
X-112110Y1461D01*
X-112122Y1422D01*
X-112100Y1400D01*
Y-500D01*
X-114500Y-2900D01*
X-117400D01*
Y3800D01*
X-114500D01*
X-112163Y1463D01*
D02*
G37*
G36*
X-76802Y-2705D02*
X-77895Y-3798D01*
X-77908Y-3779D01*
X-77944Y-3738D01*
X-78477Y-3186D01*
X-79080Y-2580D01*
X-78020Y-1520D01*
X-76802Y-2705D01*
D02*
G37*
G36*
X-102994Y-3938D02*
X-102929Y-3962D01*
X-102848Y-3982D01*
X-102751Y-4000D01*
X-102510Y-4028D01*
X-102205Y-4044D01*
X-101837Y-4050D01*
Y-5050D01*
X-102029Y-5051D01*
X-102751Y-5100D01*
X-102848Y-5117D01*
X-102929Y-5138D01*
X-102994Y-5161D01*
X-103043Y-5188D01*
Y-3912D01*
X-102994Y-3938D01*
D02*
G37*
G36*
X-25839Y-5549D02*
X-25750Y-5624D01*
X-25660Y-5689D01*
X-25570Y-5746D01*
X-25479Y-5794D01*
X-25387Y-5833D01*
X-25294Y-5863D01*
X-25201Y-5884D01*
X-25107Y-5897D01*
X-25012Y-5900D01*
X-26200Y-7088D01*
X-26203Y-6993D01*
X-26216Y-6899D01*
X-26237Y-6806D01*
X-26267Y-6713D01*
X-26306Y-6621D01*
X-26354Y-6530D01*
X-26411Y-6440D01*
X-26476Y-6350D01*
X-26551Y-6261D01*
X-26634Y-6173D01*
X-25927Y-5466D01*
X-25839Y-5549D01*
D02*
G37*
G36*
X-15366Y-6273D02*
X-15449Y-6361D01*
X-15524Y-6450D01*
X-15589Y-6540D01*
X-15646Y-6630D01*
X-15694Y-6721D01*
X-15733Y-6813D01*
X-15763Y-6906D01*
X-15784Y-6999D01*
X-15797Y-7093D01*
X-15800Y-7188D01*
X-16988Y-6000D01*
X-16893Y-5997D01*
X-16799Y-5984D01*
X-16706Y-5963D01*
X-16613Y-5933D01*
X-16521Y-5894D01*
X-16430Y-5846D01*
X-16340Y-5789D01*
X-16250Y-5724D01*
X-16161Y-5649D01*
X-16073Y-5566D01*
X-15366Y-6273D01*
D02*
G37*
G36*
X-102994Y-6438D02*
X-102929Y-6462D01*
X-102848Y-6482D01*
X-102751Y-6500D01*
X-102510Y-6528D01*
X-102205Y-6544D01*
X-101837Y-6550D01*
Y-7550D01*
X-102029Y-7551D01*
X-102751Y-7600D01*
X-102848Y-7617D01*
X-102929Y-7638D01*
X-102994Y-7661D01*
X-103043Y-7688D01*
Y-6412D01*
X-102994Y-6438D01*
D02*
G37*
G36*
X-24073Y-6325D02*
X-23998Y-6382D01*
X-23917Y-6433D01*
X-23830Y-6478D01*
X-23738Y-6515D01*
X-23640Y-6546D01*
X-23536Y-6569D01*
X-23426Y-6586D01*
X-23310Y-6597D01*
X-23189Y-6600D01*
Y-7600D01*
X-23310Y-7603D01*
X-23426Y-7614D01*
X-23536Y-7631D01*
X-23640Y-7654D01*
X-23738Y-7685D01*
X-23830Y-7722D01*
X-23917Y-7767D01*
X-23998Y-7818D01*
X-24073Y-7875D01*
X-24143Y-7940D01*
Y-6260D01*
X-24073Y-6325D01*
D02*
G37*
G36*
X-57656D02*
X-57581Y-6382D01*
X-57500Y-6433D01*
X-57413Y-6478D01*
X-57321Y-6515D01*
X-57222Y-6546D01*
X-57118Y-6569D01*
X-57009Y-6586D01*
X-56893Y-6597D01*
X-56772Y-6600D01*
Y-7600D01*
X-56893Y-7603D01*
X-57009Y-7614D01*
X-57118Y-7631D01*
X-57222Y-7654D01*
X-57321Y-7685D01*
X-57413Y-7722D01*
X-57500Y-7767D01*
X-57581Y-7818D01*
X-57656Y-7875D01*
X-57726Y-7940D01*
Y-6260D01*
X-57656Y-6325D01*
D02*
G37*
G36*
X-40573Y-6425D02*
X-40498Y-6482D01*
X-40417Y-6533D01*
X-40330Y-6578D01*
X-40238Y-6615D01*
X-40140Y-6646D01*
X-40036Y-6669D01*
X-39926Y-6686D01*
X-39810Y-6697D01*
X-39689Y-6700D01*
Y-7700D01*
X-39810Y-7703D01*
X-39926Y-7714D01*
X-40036Y-7731D01*
X-40140Y-7754D01*
X-40238Y-7785D01*
X-40330Y-7822D01*
X-40417Y-7867D01*
X-40498Y-7918D01*
X-40573Y-7975D01*
X-40643Y-8040D01*
Y-6360D01*
X-40573Y-6425D01*
D02*
G37*
G36*
X-48573D02*
X-48498Y-6482D01*
X-48417Y-6533D01*
X-48330Y-6578D01*
X-48238Y-6615D01*
X-48140Y-6646D01*
X-48036Y-6669D01*
X-47926Y-6686D01*
X-47810Y-6697D01*
X-47689Y-6700D01*
Y-7700D01*
X-47810Y-7703D01*
X-47926Y-7714D01*
X-48036Y-7731D01*
X-48140Y-7754D01*
X-48238Y-7785D01*
X-48330Y-7822D01*
X-48417Y-7867D01*
X-48498Y-7918D01*
X-48573Y-7975D01*
X-48643Y-8040D01*
Y-6360D01*
X-48573Y-6425D01*
D02*
G37*
G36*
X-17012Y-8400D02*
X-17107Y-8403D01*
X-17201Y-8416D01*
X-17294Y-8437D01*
X-17387Y-8467D01*
X-17479Y-8506D01*
X-17570Y-8554D01*
X-17660Y-8611D01*
X-17750Y-8676D01*
X-17839Y-8751D01*
X-17927Y-8834D01*
X-18634Y-8127D01*
X-18551Y-8039D01*
X-18476Y-7950D01*
X-18411Y-7860D01*
X-18354Y-7770D01*
X-18306Y-7679D01*
X-18267Y-7587D01*
X-18237Y-7494D01*
X-18216Y-7401D01*
X-18203Y-7307D01*
X-18200Y-7212D01*
X-17012Y-8400D01*
D02*
G37*
G36*
X-32297Y-7307D02*
X-32284Y-7401D01*
X-32263Y-7494D01*
X-32233Y-7587D01*
X-32194Y-7679D01*
X-32146Y-7770D01*
X-32089Y-7860D01*
X-32024Y-7950D01*
X-31949Y-8039D01*
X-31866Y-8127D01*
X-32573Y-8834D01*
X-32661Y-8751D01*
X-32750Y-8676D01*
X-32840Y-8611D01*
X-32930Y-8554D01*
X-33021Y-8506D01*
X-33113Y-8467D01*
X-33206Y-8437D01*
X-33299Y-8416D01*
X-33393Y-8403D01*
X-33488Y-8400D01*
X-32300Y-7212D01*
X-32297Y-7307D01*
D02*
G37*
G36*
X-102994Y-8939D02*
X-102929Y-8962D01*
X-102848Y-8982D01*
X-102751Y-9000D01*
X-102510Y-9028D01*
X-102205Y-9044D01*
X-101837Y-9050D01*
Y-10050D01*
X-102029Y-10051D01*
X-102751Y-10100D01*
X-102848Y-10118D01*
X-102929Y-10138D01*
X-102994Y-10161D01*
X-103043Y-10188D01*
Y-8912D01*
X-102994Y-8939D01*
D02*
G37*
G36*
X-101945Y-12006D02*
Y-12622D01*
X-102136Y-12623D01*
X-102143Y-12623D01*
X-102272Y-13027D01*
X-102317Y-12950D01*
X-102371Y-12881D01*
X-102433Y-12821D01*
X-102504Y-12768D01*
X-102584Y-12723D01*
X-102672Y-12687D01*
X-102764Y-12660D01*
X-103014Y-12675D01*
X-103043Y-12688D01*
X-103042Y-12625D01*
X-103112Y-12622D01*
X-103036Y-12412D01*
X-103014Y-11446D01*
X-103004Y-11480D01*
X-102972Y-11510D01*
X-102919Y-11536D01*
X-102845Y-11559D01*
X-102749Y-11578D01*
X-102631Y-11594D01*
X-102464Y-11606D01*
X-102294Y-11591D01*
X-102192Y-11574D01*
X-102004Y-11527D01*
X-101918Y-11497D01*
X-101836Y-11464D01*
X-101760Y-11427D01*
X-101945Y-12006D01*
D02*
G37*
G36*
X-109764Y-15228D02*
X-109854Y-15186D01*
X-109956Y-15170D01*
X-110069Y-15179D01*
X-110194Y-15213D01*
X-110329Y-15272D01*
X-110476Y-15356D01*
X-110635Y-15466D01*
X-110805Y-15601D01*
X-110986Y-15762D01*
X-111179Y-15947D01*
X-111974Y-15328D01*
X-111845Y-15197D01*
X-111532Y-14839D01*
X-111451Y-14732D01*
X-111326Y-14535D01*
X-111282Y-14446D01*
X-111249Y-14363D01*
X-111228Y-14286D01*
X-109764Y-15228D01*
D02*
G37*
G36*
X-111332Y-16358D02*
X-111330Y-16479D01*
X-111310Y-16706D01*
X-111293Y-16813D01*
X-111272Y-16915D01*
X-111245Y-17012D01*
X-111213Y-17104D01*
X-111177Y-17191D01*
X-111136Y-17274D01*
X-111090Y-17352D01*
X-112727Y-16977D01*
X-112652Y-16925D01*
X-112585Y-16864D01*
X-112526Y-16797D01*
X-112475Y-16721D01*
X-112431Y-16637D01*
X-112395Y-16546D01*
X-112368Y-16447D01*
X-112348Y-16340D01*
X-112336Y-16225D01*
X-112332Y-16103D01*
X-111332Y-16358D01*
D02*
G37*
G36*
X-80583Y-17895D02*
X-80636Y-17820D01*
X-80696Y-17753D01*
X-80764Y-17693D01*
X-80840Y-17642D01*
X-80924Y-17599D01*
X-81016Y-17563D01*
X-81115Y-17536D01*
X-81222Y-17516D01*
X-81337Y-17504D01*
X-81459Y-17500D01*
X-81209Y-16500D01*
X-81088Y-16498D01*
X-80861Y-16478D01*
X-80754Y-16461D01*
X-80652Y-16439D01*
X-80555Y-16412D01*
X-80463Y-16380D01*
X-80376Y-16343D01*
X-80293Y-16302D01*
X-80215Y-16255D01*
X-80583Y-17895D01*
D02*
G37*
G36*
X-78257Y-21640D02*
X-78326Y-21575D01*
X-78402Y-21518D01*
X-78483Y-21467D01*
X-78570Y-21422D01*
X-78662Y-21385D01*
X-78760Y-21354D01*
X-78864Y-21331D01*
X-78974Y-21314D01*
X-79090Y-21303D01*
X-79211Y-21300D01*
Y-20300D01*
X-79090Y-20297D01*
X-78974Y-20286D01*
X-78864Y-20269D01*
X-78760Y-20246D01*
X-78662Y-20215D01*
X-78570Y-20178D01*
X-78483Y-20133D01*
X-78402Y-20082D01*
X-78326Y-20025D01*
X-78257Y-19960D01*
Y-21640D01*
D02*
G37*
G36*
X-73057Y-26640D02*
X-73127Y-26575D01*
X-73202Y-26518D01*
X-73283Y-26467D01*
X-73370Y-26422D01*
X-73462Y-26385D01*
X-73560Y-26354D01*
X-73664Y-26331D01*
X-73774Y-26314D01*
X-73890Y-26303D01*
X-74011Y-26300D01*
Y-25300D01*
X-73890Y-25297D01*
X-73774Y-25286D01*
X-73664Y-25269D01*
X-73560Y-25246D01*
X-73462Y-25215D01*
X-73370Y-25178D01*
X-73283Y-25133D01*
X-73202Y-25082D01*
X-73127Y-25025D01*
X-73057Y-24960D01*
Y-26640D01*
D02*
G37*
G36*
X-50138Y-27595D02*
X-50193Y-27558D01*
X-50265Y-27525D01*
X-50353Y-27496D01*
X-50458Y-27470D01*
X-50578Y-27449D01*
X-50867Y-27417D01*
X-51221Y-27402D01*
X-51422Y-27400D01*
X-51692Y-25400D01*
X-51494Y-25397D01*
X-51144Y-25372D01*
X-50993Y-25350D01*
X-50857Y-25323D01*
X-50738Y-25289D01*
X-50634Y-25248D01*
X-50546Y-25202D01*
X-50474Y-25149D01*
X-50418Y-25091D01*
X-50138Y-27595D01*
D02*
G37*
G36*
X-17785Y-27660D02*
X-17844Y-27611D01*
X-17919Y-27566D01*
X-18009Y-27527D01*
X-18114Y-27494D01*
X-18236Y-27465D01*
X-18373Y-27442D01*
X-18693Y-27410D01*
X-18877Y-27403D01*
X-19077Y-27400D01*
Y-25400D01*
X-18877Y-25397D01*
X-18373Y-25358D01*
X-18236Y-25335D01*
X-18114Y-25306D01*
X-18009Y-25273D01*
X-17919Y-25234D01*
X-17844Y-25189D01*
X-17785Y-25140D01*
Y-27660D01*
D02*
G37*
G36*
X-71860Y-35413D02*
X-71875Y-35306D01*
X-71920Y-35209D01*
X-71995Y-35124D01*
X-72100Y-35050D01*
X-72235Y-34988D01*
X-72400Y-34937D01*
X-72595Y-34898D01*
X-72820Y-34869D01*
X-73075Y-34852D01*
X-73360Y-34846D01*
Y-33346D01*
X-73075Y-33342D01*
X-72595Y-33304D01*
X-72400Y-33272D01*
X-72235Y-33229D01*
X-72100Y-33178D01*
X-71995Y-33117D01*
X-71920Y-33047D01*
X-71875Y-32967D01*
X-71860Y-32878D01*
Y-35413D01*
D02*
G37*
G36*
X-74922Y-32739D02*
X-74877Y-32866D01*
X-74802Y-32979D01*
X-74697Y-33076D01*
X-74562Y-33159D01*
X-74397Y-33226D01*
X-74202Y-33279D01*
X-73977Y-33316D01*
X-73722Y-33339D01*
X-73437Y-33346D01*
Y-34846D01*
X-73722Y-34854D01*
X-73977Y-34876D01*
X-74202Y-34914D01*
X-74397Y-34966D01*
X-74562Y-35034D01*
X-74697Y-35116D01*
X-74802Y-35214D01*
X-74877Y-35326D01*
X-74922Y-35454D01*
X-74937Y-35596D01*
Y-32596D01*
X-74922Y-32739D01*
D02*
G37*
G36*
X-69246Y-41110D02*
X-69389Y-41054D01*
X-69559Y-41045D01*
X-69757Y-41085D01*
X-69981Y-41173D01*
X-70232Y-41310D01*
X-70511Y-41494D01*
X-70817Y-41726D01*
X-71510Y-42336D01*
X-71898Y-42713D01*
X-72920Y-41614D01*
X-72600Y-41283D01*
X-72102Y-40701D01*
X-71923Y-40449D01*
X-71793Y-40224D01*
X-71709Y-40025D01*
X-71673Y-39852D01*
X-71684Y-39706D01*
X-71742Y-39586D01*
X-71848Y-39493D01*
X-69246Y-41110D01*
D02*
G37*
G36*
X-79349Y-38461D02*
X-79251Y-38559D01*
X-79142Y-38645D01*
X-79023Y-38720D01*
X-78893Y-38783D01*
X-78752Y-38835D01*
X-78676Y-38855D01*
X-78603Y-38841D01*
X-78438Y-38792D01*
X-78303Y-38733D01*
X-78198Y-38664D01*
X-78123Y-38583D01*
X-78078Y-38492D01*
X-78063Y-38390D01*
X-78051Y-41176D01*
X-78066Y-41034D01*
X-78112Y-40906D01*
X-78188Y-40794D01*
X-78294Y-40696D01*
X-78430Y-40614D01*
X-78597Y-40546D01*
X-78793Y-40494D01*
X-78916Y-40473D01*
X-79022Y-40493D01*
X-79174Y-40530D01*
X-79319Y-40576D01*
X-79456Y-40630D01*
X-79586Y-40693D01*
X-79708Y-40763D01*
X-79823Y-40842D01*
X-79563Y-39166D01*
Y-38926D01*
X-79525Y-38926D01*
X-79436Y-38352D01*
X-79349Y-38461D01*
D02*
G37*
G36*
X-101409Y-54298D02*
X-101379Y-54382D01*
X-101329Y-54457D01*
X-101258Y-54521D01*
X-101167Y-54576D01*
X-101056Y-54621D01*
X-100925Y-54655D01*
X-100774Y-54680D01*
X-100602Y-54695D01*
X-100411Y-54700D01*
Y-55700D01*
X-100602Y-55705D01*
X-100774Y-55720D01*
X-100925Y-55745D01*
X-101056Y-55779D01*
X-101167Y-55824D01*
X-101258Y-55879D01*
X-101329Y-55943D01*
X-101379Y-56018D01*
X-101409Y-56102D01*
X-101419Y-56196D01*
Y-54204D01*
X-101409Y-54298D01*
D02*
G37*
G36*
X-115544Y-56200D02*
X-115555Y-56105D01*
X-115585Y-56020D01*
X-115636Y-55945D01*
X-115706Y-55880D01*
X-115797Y-55825D01*
X-115909Y-55780D01*
X-116040Y-55745D01*
X-116192Y-55720D01*
X-116364Y-55705D01*
X-116557Y-55700D01*
Y-54700D01*
X-116364Y-54695D01*
X-116192Y-54680D01*
X-116040Y-54655D01*
X-115909Y-54620D01*
X-115797Y-54575D01*
X-115706Y-54520D01*
X-115636Y-54455D01*
X-115585Y-54380D01*
X-115555Y-54295D01*
X-115544Y-54200D01*
Y-56200D01*
D02*
G37*
G36*
X-111711Y-57000D02*
X-111738Y-57091D01*
X-111737Y-57197D01*
X-111707Y-57316D01*
X-111650Y-57451D01*
X-111563Y-57599D01*
X-111449Y-57762D01*
X-111307Y-57940D01*
X-110936Y-58338D01*
X-111644Y-59045D01*
X-111850Y-58846D01*
X-112219Y-58532D01*
X-112382Y-58418D01*
X-112530Y-58332D01*
X-112665Y-58274D01*
X-112785Y-58244D01*
X-112890Y-58243D01*
X-112981Y-58270D01*
X-113058Y-58326D01*
X-111655Y-56923D01*
X-111711Y-57000D01*
D02*
G37*
G36*
X-76249Y-60779D02*
X-76218Y-61273D01*
X-76206Y-61334D01*
X-76192Y-61383D01*
X-76177Y-61419D01*
X-76160Y-61443D01*
X-77840D01*
X-77823Y-61419D01*
X-77808Y-61383D01*
X-77794Y-61334D01*
X-77782Y-61273D01*
X-77772Y-61199D01*
X-77758Y-61014D01*
X-77750Y-60643D01*
X-76250D01*
X-76249Y-60779D01*
D02*
G37*
G36*
X-87205Y-62907D02*
X-87263Y-62982D01*
X-87314Y-63063D01*
X-87358Y-63150D01*
X-87395Y-63242D01*
X-87426Y-63341D01*
X-87450Y-63445D01*
X-87467Y-63554D01*
X-87477Y-63670D01*
X-87480Y-63791D01*
X-88480D01*
X-88484Y-63670D01*
X-88494Y-63554D01*
X-88511Y-63445D01*
X-88535Y-63341D01*
X-88565Y-63242D01*
X-88603Y-63150D01*
X-88647Y-63063D01*
X-88698Y-62982D01*
X-88756Y-62907D01*
X-88820Y-62837D01*
X-87140D01*
X-87205Y-62907D01*
D02*
G37*
G36*
X-98567Y-63590D02*
X-98430Y-63705D01*
X-98302Y-63797D01*
X-98183Y-63867D01*
X-98072Y-63915D01*
X-97969Y-63940D01*
X-97875Y-63942D01*
X-97789Y-63922D01*
X-97711Y-63879D01*
X-97642Y-63814D01*
X-98884Y-65283D01*
X-98872Y-65183D01*
X-98874Y-65081D01*
X-98891Y-64975D01*
X-98923Y-64867D01*
X-98969Y-64756D01*
X-99030Y-64642D01*
X-99105Y-64526D01*
X-99195Y-64406D01*
X-99300Y-64284D01*
X-99419Y-64159D01*
X-98712Y-63452D01*
X-98567Y-63590D01*
D02*
G37*
G36*
X-43366Y-64773D02*
X-43449Y-64861D01*
X-43524Y-64950D01*
X-43589Y-65040D01*
X-43646Y-65130D01*
X-43694Y-65221D01*
X-43733Y-65313D01*
X-43763Y-65406D01*
X-43784Y-65499D01*
X-43797Y-65593D01*
X-43800Y-65688D01*
X-44988Y-64500D01*
X-44893Y-64497D01*
X-44799Y-64484D01*
X-44706Y-64463D01*
X-44613Y-64433D01*
X-44521Y-64394D01*
X-44430Y-64346D01*
X-44340Y-64289D01*
X-44250Y-64224D01*
X-44161Y-64149D01*
X-44073Y-64066D01*
X-43366Y-64773D01*
D02*
G37*
G36*
X-29957Y-66540D02*
X-30027Y-66475D01*
X-30102Y-66418D01*
X-30183Y-66367D01*
X-30270Y-66322D01*
X-30362Y-66285D01*
X-30460Y-66254D01*
X-30564Y-66231D01*
X-30674Y-66214D01*
X-30790Y-66203D01*
X-30911Y-66200D01*
Y-65200D01*
X-30790Y-65197D01*
X-30674Y-65186D01*
X-30564Y-65169D01*
X-30460Y-65146D01*
X-30362Y-65115D01*
X-30270Y-65078D01*
X-30183Y-65033D01*
X-30102Y-64982D01*
X-30027Y-64925D01*
X-29957Y-64860D01*
Y-66540D01*
D02*
G37*
G36*
X-21657Y-66640D02*
X-21726Y-66575D01*
X-21802Y-66518D01*
X-21883Y-66467D01*
X-21970Y-66422D01*
X-22062Y-66385D01*
X-22160Y-66354D01*
X-22264Y-66331D01*
X-22374Y-66314D01*
X-22490Y-66303D01*
X-22611Y-66300D01*
Y-65300D01*
X-22490Y-65297D01*
X-22374Y-65286D01*
X-22264Y-65269D01*
X-22160Y-65246D01*
X-22062Y-65215D01*
X-21970Y-65178D01*
X-21883Y-65133D01*
X-21802Y-65082D01*
X-21726Y-65025D01*
X-21657Y-64960D01*
Y-66640D01*
D02*
G37*
G36*
X-27897Y-65807D02*
X-27884Y-65901D01*
X-27863Y-65994D01*
X-27833Y-66087D01*
X-27794Y-66179D01*
X-27746Y-66270D01*
X-27689Y-66360D01*
X-27624Y-66450D01*
X-27549Y-66539D01*
X-27466Y-66627D01*
X-28173Y-67334D01*
X-28261Y-67251D01*
X-28350Y-67176D01*
X-28440Y-67111D01*
X-28530Y-67054D01*
X-28621Y-67006D01*
X-28713Y-66967D01*
X-28806Y-66937D01*
X-28899Y-66916D01*
X-28993Y-66903D01*
X-29088Y-66900D01*
X-27900Y-65712D01*
X-27897Y-65807D01*
D02*
G37*
G36*
X-60397D02*
X-60384Y-65901D01*
X-60363Y-65994D01*
X-60333Y-66087D01*
X-60294Y-66179D01*
X-60246Y-66270D01*
X-60189Y-66360D01*
X-60124Y-66450D01*
X-60049Y-66539D01*
X-59966Y-66627D01*
X-60673Y-67334D01*
X-60761Y-67251D01*
X-60850Y-67176D01*
X-60940Y-67111D01*
X-61030Y-67054D01*
X-61121Y-67006D01*
X-61213Y-66967D01*
X-61306Y-66937D01*
X-61399Y-66916D01*
X-61493Y-66903D01*
X-61588Y-66900D01*
X-60400Y-65712D01*
X-60397Y-65807D01*
D02*
G37*
G36*
X-19597Y-65907D02*
X-19584Y-66001D01*
X-19563Y-66094D01*
X-19533Y-66187D01*
X-19494Y-66279D01*
X-19446Y-66370D01*
X-19389Y-66460D01*
X-19324Y-66550D01*
X-19249Y-66639D01*
X-19166Y-66727D01*
X-19873Y-67434D01*
X-19961Y-67351D01*
X-20050Y-67276D01*
X-20140Y-67211D01*
X-20230Y-67154D01*
X-20321Y-67106D01*
X-20413Y-67067D01*
X-20506Y-67037D01*
X-20599Y-67016D01*
X-20693Y-67003D01*
X-20788Y-67000D01*
X-19600Y-65812D01*
X-19597Y-65907D01*
D02*
G37*
G36*
X-52097D02*
X-52084Y-66001D01*
X-52063Y-66094D01*
X-52033Y-66187D01*
X-51994Y-66279D01*
X-51946Y-66370D01*
X-51889Y-66460D01*
X-51824Y-66550D01*
X-51749Y-66639D01*
X-51666Y-66727D01*
X-52373Y-67434D01*
X-52461Y-67351D01*
X-52550Y-67276D01*
X-52640Y-67211D01*
X-52730Y-67154D01*
X-52821Y-67106D01*
X-52913Y-67067D01*
X-53006Y-67037D01*
X-53099Y-67016D01*
X-53193Y-67003D01*
X-53288Y-67000D01*
X-52100Y-65812D01*
X-52097Y-65907D01*
D02*
G37*
G36*
X-119307Y-67099D02*
X-119394Y-67122D01*
X-119482Y-67151D01*
X-119569Y-67187D01*
X-119657Y-67230D01*
X-119744Y-67280D01*
X-119832Y-67337D01*
X-119919Y-67400D01*
X-120094Y-67547D01*
X-120181Y-67631D01*
X-121069Y-67104D01*
X-120985Y-67015D01*
X-120912Y-66925D01*
X-120850Y-66836D01*
X-120800Y-66746D01*
X-120760Y-66656D01*
X-120732Y-66567D01*
X-120715Y-66477D01*
X-120709Y-66387D01*
X-120714Y-66297D01*
X-120730Y-66206D01*
X-119307Y-67099D01*
D02*
G37*
G36*
X-81959Y-67868D02*
X-82046Y-67853D01*
X-82134Y-67849D01*
X-82222Y-67856D01*
X-82311Y-67874D01*
X-82400Y-67903D01*
X-82489Y-67944D01*
X-82578Y-67995D01*
X-82667Y-68057D01*
X-82757Y-68131D01*
X-82847Y-68215D01*
X-83389Y-67308D01*
X-83304Y-67220D01*
X-83155Y-67045D01*
X-83091Y-66959D01*
X-82985Y-66787D01*
X-82942Y-66701D01*
X-82907Y-66617D01*
X-82878Y-66532D01*
X-82857Y-66448D01*
X-81959Y-67868D01*
D02*
G37*
G36*
X-117035Y-68449D02*
X-116974Y-68516D01*
X-116905Y-68575D01*
X-116829Y-68626D01*
X-116744Y-68669D01*
X-116653Y-68705D01*
X-116553Y-68733D01*
X-116446Y-68752D01*
X-116331Y-68764D01*
X-116209Y-68768D01*
X-116449Y-69768D01*
X-116570Y-69770D01*
X-116798Y-69790D01*
X-116904Y-69808D01*
X-117006Y-69830D01*
X-117103Y-69857D01*
X-117195Y-69890D01*
X-117282Y-69927D01*
X-117365Y-69969D01*
X-117443Y-70016D01*
X-117088Y-68374D01*
X-117035Y-68449D01*
D02*
G37*
G36*
X-125319Y-88005D02*
X-125283Y-88020D01*
X-125234Y-88034D01*
X-125173Y-88045D01*
X-125099Y-88055D01*
X-124914Y-88070D01*
X-124543Y-88078D01*
Y-89578D01*
X-124679Y-89579D01*
X-125173Y-89610D01*
X-125234Y-89622D01*
X-125283Y-89635D01*
X-125319Y-89651D01*
X-125343Y-89668D01*
Y-87988D01*
X-125319Y-88005D01*
D02*
G37*
G36*
X-122462Y-89770D02*
X-122531Y-89733D01*
X-122623Y-89701D01*
X-122738Y-89672D01*
X-122877Y-89647D01*
X-123224Y-89609D01*
X-123663Y-89586D01*
X-124196Y-89578D01*
X-124167Y-88078D01*
X-123667Y-88070D01*
X-122802Y-88011D01*
X-122435Y-87959D01*
X-122113Y-87892D01*
X-121835Y-87811D01*
X-121601Y-87714D01*
X-121411Y-87603D01*
X-121266Y-87477D01*
X-121165Y-87336D01*
X-122462Y-89770D01*
D02*
G37*
G36*
X-128514Y-94690D02*
X-128338Y-94835D01*
X-128249Y-94897D01*
X-128160Y-94951D01*
X-128071Y-94999D01*
X-127981Y-95039D01*
X-127891Y-95071D01*
X-127801Y-95097D01*
X-127710Y-95115D01*
X-129081Y-96086D01*
X-129069Y-95994D01*
X-129068Y-95902D01*
X-129078Y-95811D01*
X-129098Y-95719D01*
X-129129Y-95628D01*
X-129171Y-95538D01*
X-129223Y-95448D01*
X-129285Y-95358D01*
X-129358Y-95269D01*
X-129442Y-95180D01*
X-128601Y-94606D01*
X-128514Y-94690D01*
D02*
G37*
G36*
X-82929Y-95141D02*
X-83167Y-96179D01*
X-83174Y-96170D01*
X-83189Y-96162D01*
X-83213Y-96155D01*
X-83246Y-96149D01*
X-83288Y-96144D01*
X-83397Y-96136D01*
X-83626Y-96132D01*
Y-95132D01*
X-82929Y-95141D01*
D02*
G37*
G36*
X-85029Y-96817D02*
X-84852Y-96961D01*
X-84763Y-97021D01*
X-84673Y-97073D01*
X-84582Y-97118D01*
X-84491Y-97155D01*
X-84399Y-97185D01*
X-84307Y-97206D01*
X-84214Y-97220D01*
X-85535Y-98260D01*
X-85527Y-98166D01*
X-85530Y-98073D01*
X-85544Y-97980D01*
X-85567Y-97888D01*
X-85600Y-97797D01*
X-85643Y-97706D01*
X-85696Y-97616D01*
X-85760Y-97526D01*
X-85833Y-97436D01*
X-85917Y-97347D01*
X-85116Y-96733D01*
X-85029Y-96817D01*
D02*
G37*
G36*
X-131222Y-97244D02*
X-131133Y-97318D01*
X-131044Y-97384D01*
X-130954Y-97441D01*
X-130862Y-97490D01*
X-130771Y-97530D01*
X-130678Y-97561D01*
X-130585Y-97584D01*
X-130491Y-97598D01*
X-130396Y-97603D01*
X-131606Y-98768D01*
X-131608Y-98673D01*
X-131619Y-98579D01*
X-131639Y-98486D01*
X-131668Y-98393D01*
X-131706Y-98301D01*
X-131753Y-98210D01*
X-131809Y-98119D01*
X-131874Y-98030D01*
X-131949Y-97941D01*
X-132032Y-97853D01*
X-131310Y-97160D01*
X-131222Y-97244D01*
D02*
G37*
G36*
X-133227Y-99680D02*
X-132972Y-99898D01*
X-132890Y-99959D01*
X-132730Y-100062D01*
X-132651Y-100104D01*
X-132574Y-100139D01*
X-132499Y-100169D01*
X-134023Y-100876D01*
X-133997Y-100792D01*
X-133984Y-100708D01*
X-133983Y-100623D01*
X-133994Y-100537D01*
X-134018Y-100450D01*
X-134053Y-100363D01*
X-134101Y-100275D01*
X-134161Y-100186D01*
X-134233Y-100097D01*
X-134317Y-100006D01*
X-133315Y-99595D01*
X-133227Y-99680D01*
D02*
G37*
G36*
X-135489Y-102228D02*
X-135043Y-102619D01*
X-134987Y-102658D01*
X-134937Y-102689D01*
X-134891Y-102713D01*
X-136462Y-103241D01*
X-136429Y-103166D01*
X-136409Y-103088D01*
X-136403Y-103009D01*
X-136409Y-102928D01*
X-136429Y-102846D01*
X-136461Y-102762D01*
X-136507Y-102676D01*
X-136566Y-102589D01*
X-136638Y-102500D01*
X-136723Y-102409D01*
X-135581Y-102137D01*
X-135489Y-102228D01*
D02*
G37*
G36*
X-99397Y-103607D02*
X-99384Y-103701D01*
X-99363Y-103794D01*
X-99333Y-103887D01*
X-99294Y-103979D01*
X-99246Y-104070D01*
X-99189Y-104160D01*
X-99124Y-104250D01*
X-99049Y-104339D01*
X-98966Y-104427D01*
X-99673Y-105134D01*
X-99761Y-105051D01*
X-99850Y-104976D01*
X-99940Y-104911D01*
X-100030Y-104854D01*
X-100121Y-104806D01*
X-100213Y-104767D01*
X-100306Y-104737D01*
X-100399Y-104716D01*
X-100493Y-104703D01*
X-100588Y-104700D01*
X-99400Y-103512D01*
X-99397Y-103607D01*
D02*
G37*
G36*
X-123369Y-103748D02*
X-123290Y-103802D01*
X-123207Y-103849D01*
X-123118Y-103891D01*
X-123023Y-103926D01*
X-122924Y-103954D01*
X-122819Y-103976D01*
X-122708Y-103992D01*
X-122593Y-104002D01*
X-122472Y-104005D01*
X-122405Y-105005D01*
X-122526Y-105009D01*
X-122642Y-105019D01*
X-122751Y-105037D01*
X-122854Y-105062D01*
X-122950Y-105095D01*
X-123041Y-105134D01*
X-123125Y-105181D01*
X-123203Y-105235D01*
X-123274Y-105296D01*
X-123340Y-105364D01*
X-123442Y-103687D01*
X-123369Y-103748D01*
D02*
G37*
G36*
X-115914Y-110172D02*
X-115912Y-110293D01*
X-115893Y-110521D01*
X-115877Y-110627D01*
X-115831Y-110826D01*
X-115802Y-110919D01*
X-115767Y-111006D01*
X-115728Y-111089D01*
X-115684Y-111167D01*
X-117313Y-110752D01*
X-117237Y-110702D01*
X-117169Y-110644D01*
X-117109Y-110577D01*
X-117058Y-110503D01*
X-117014Y-110421D01*
X-116978Y-110330D01*
X-116950Y-110231D01*
X-116930Y-110125D01*
X-116918Y-110010D01*
X-116914Y-109888D01*
X-115914Y-110172D01*
D02*
G37*
G36*
X112590Y99890D02*
X112568Y99801D01*
X112549Y99676D01*
X112518Y99316D01*
X112491Y98500D01*
X112486Y97774D01*
X110486Y97399D01*
X110479Y97718D01*
X110423Y98312D01*
X110374Y98588D01*
X110311Y98849D01*
X110234Y99097D01*
X110143Y99330D01*
X110037Y99548D01*
X109918Y99752D01*
X109785Y99942D01*
X112615D01*
X112590Y99890D01*
D02*
G37*
G36*
X112495Y93580D02*
X112523Y93240D01*
X112571Y92940D01*
X112636Y92680D01*
X112721Y92460D01*
X112824Y92280D01*
X112947Y92140D01*
X113088Y92040D01*
X113248Y91980D01*
X113427Y91960D01*
X110498D01*
X110495Y91980D01*
X110494Y92040D01*
X110486Y93960D01*
X112486D01*
X112495Y93580D01*
D02*
G37*
G36*
X82300Y89700D02*
X73600D01*
X69400Y93900D01*
Y109700D01*
X72400Y112700D01*
X82300D01*
Y89700D01*
D02*
G37*
G36*
X120937Y86387D02*
X120917Y86531D01*
X120857Y86660D01*
X120757Y86774D01*
X120617Y86873D01*
X120437Y86957D01*
X120217Y87025D01*
X119957Y87078D01*
X119657Y87116D01*
X119317Y87139D01*
X118937Y87147D01*
Y89147D01*
X119317Y89154D01*
X119957Y89215D01*
X120217Y89268D01*
X120437Y89336D01*
X120617Y89420D01*
X120757Y89519D01*
X120857Y89633D01*
X120917Y89762D01*
X120937Y89906D01*
Y86387D01*
D02*
G37*
G36*
X108508Y110992D02*
X108695Y81855D01*
X108343Y81500D01*
X100800D01*
X96000Y86300D01*
X87900D01*
X83900Y90300D01*
Y110900D01*
X86400Y113400D01*
X106100D01*
X108508Y110992D01*
D02*
G37*
G36*
X120937Y79694D02*
X124063D01*
X123965Y79674D01*
X123878Y79614D01*
X123801Y79514D01*
X123735Y79374D01*
X123678Y79194D01*
X123632Y78974D01*
X123596Y78714D01*
X123562Y78187D01*
X123614Y77607D01*
X123664Y77347D01*
X123728Y77127D01*
X123806Y76947D01*
X123898Y76807D01*
X124005Y76707D01*
X124126Y76647D01*
X124261Y76627D01*
X120939D01*
X121055Y76647D01*
X121159Y76707D01*
X121250Y76807D01*
X121330Y76947D01*
X121397Y77127D01*
X121452Y77347D01*
X121495Y77607D01*
X121526Y77907D01*
X121535Y78188D01*
X121495Y78714D01*
X121452Y78974D01*
X121397Y79194D01*
X121329Y79374D01*
X121250Y79514D01*
X121158Y79614D01*
X121054Y79674D01*
X120937Y79694D01*
X120917Y79838D01*
X120857Y79967D01*
X120757Y80081D01*
X120617Y80180D01*
X120437Y80264D01*
X120217Y80332D01*
X119957Y80385D01*
X119657Y80423D01*
X119317Y80446D01*
X118937Y80453D01*
Y82454D01*
X119317Y82461D01*
X119957Y82522D01*
X120217Y82575D01*
X120437Y82643D01*
X120617Y82727D01*
X120757Y82826D01*
X120857Y82940D01*
X120917Y83069D01*
X120937Y83213D01*
Y79694D01*
D02*
G37*
G36*
X104833Y74417D02*
X104661Y74511D01*
X104465Y74553D01*
X104244Y74542D01*
X103998Y74479D01*
X103727Y74362D01*
X103432Y74193D01*
X103112Y73972D01*
X102768Y73697D01*
X102399Y73370D01*
X102020Y73005D01*
X101917Y72901D01*
X101416Y72334D01*
X101358Y72251D01*
X101314Y72178D01*
X101284Y72116D01*
X101268Y72064D01*
X99871Y74161D01*
X99953Y74153D01*
X100042Y74161D01*
X100137Y74185D01*
X100240Y74225D01*
X100349Y74282D01*
X100464Y74355D01*
X100587Y74444D01*
X100716Y74549D01*
X100849Y74673D01*
X101426Y75352D01*
X101581Y75570D01*
X101714Y75779D01*
X101824Y75981D01*
X101914Y76175D01*
X101981Y76361D01*
X102027Y76539D01*
X104833Y74417D01*
D02*
G37*
G36*
X95758Y85100D02*
X100079Y80779D01*
X100410Y80558D01*
X100800Y80480D01*
X107232D01*
X107900Y79812D01*
Y78000D01*
X100400D01*
X96300Y73900D01*
X94893D01*
X94900Y72626D01*
X92900D01*
X92896Y72891D01*
X92865Y73338D01*
X92838Y73520D01*
X92804Y73673D01*
X92761Y73799D01*
X92711Y73897D01*
X92709Y73900D01*
X87300D01*
Y85100D01*
X95758Y85100D01*
D02*
G37*
G36*
X115757Y74397D02*
X115587Y74336D01*
X115437Y74236D01*
X115307Y74095D01*
X115197Y73914D01*
X115107Y73693D01*
X115037Y73431D01*
X114987Y73129D01*
X114957Y72787D01*
X114947Y72405D01*
X112947D01*
X112937Y72787D01*
X112907Y73129D01*
X112857Y73431D01*
X112787Y73693D01*
X112697Y73914D01*
X112587Y74095D01*
X112457Y74236D01*
X112307Y74336D01*
X112137Y74397D01*
X111947Y74417D01*
X115947D01*
X115757Y74397D01*
D02*
G37*
G36*
X105773Y66840D02*
X105753Y66985D01*
X105693Y67114D01*
X105593Y67228D01*
X105453Y67326D01*
X105273Y67410D01*
X105053Y67479D01*
X104793Y67532D01*
X104493Y67570D01*
X104153Y67592D01*
X103773Y67600D01*
Y69600D01*
X104153Y69608D01*
X104793Y69668D01*
X105053Y69722D01*
X105273Y69790D01*
X105453Y69873D01*
X105593Y69972D01*
X105693Y70086D01*
X105753Y70215D01*
X105773Y70360D01*
Y66840D01*
D02*
G37*
G36*
X617Y66727D02*
X534Y66639D01*
X459Y66550D01*
X394Y66460D01*
X337Y66370D01*
X289Y66279D01*
X250Y66187D01*
X220Y66094D01*
X199Y66001D01*
X187Y65907D01*
X183Y65812D01*
X-1005Y67000D01*
X-910Y67003D01*
X-816Y67016D01*
X-722Y67037D01*
X-630Y67067D01*
X-538Y67106D01*
X-447Y67154D01*
X-357Y67211D01*
X-267Y67276D01*
X-178Y67351D01*
X-90Y67434D01*
X617Y66727D01*
D02*
G37*
G36*
X-7366D02*
X-7449Y66639D01*
X-7524Y66550D01*
X-7589Y66460D01*
X-7646Y66370D01*
X-7694Y66279D01*
X-7733Y66187D01*
X-7763Y66094D01*
X-7784Y66001D01*
X-7797Y65907D01*
X-7800Y65812D01*
X-8988Y67000D01*
X-8893Y67003D01*
X-8799Y67016D01*
X-8706Y67037D01*
X-8613Y67067D01*
X-8521Y67106D01*
X-8430Y67154D01*
X-8340Y67211D01*
X-8250Y67276D01*
X-8161Y67351D01*
X-8073Y67434D01*
X-7366Y66727D01*
D02*
G37*
G36*
X-9839Y67351D02*
X-9750Y67276D01*
X-9660Y67211D01*
X-9570Y67154D01*
X-9479Y67106D01*
X-9387Y67067D01*
X-9294Y67037D01*
X-9201Y67016D01*
X-9107Y67003D01*
X-9012Y67000D01*
X-10200Y65812D01*
X-10203Y65907D01*
X-10216Y66001D01*
X-10237Y66094D01*
X-10267Y66187D01*
X-10306Y66279D01*
X-10354Y66370D01*
X-10411Y66460D01*
X-10476Y66550D01*
X-10551Y66639D01*
X-10634Y66727D01*
X-9927Y67434D01*
X-9839Y67351D01*
D02*
G37*
G36*
X55161Y66951D02*
X55250Y66876D01*
X55340Y66811D01*
X55430Y66754D01*
X55521Y66706D01*
X55613Y66667D01*
X55706Y66637D01*
X55799Y66616D01*
X55893Y66603D01*
X55988Y66600D01*
X54800Y65412D01*
X54797Y65507D01*
X54784Y65601D01*
X54763Y65694D01*
X54733Y65787D01*
X54694Y65879D01*
X54646Y65970D01*
X54589Y66060D01*
X54524Y66150D01*
X54449Y66239D01*
X54366Y66327D01*
X55073Y67034D01*
X55161Y66951D01*
D02*
G37*
G36*
X33134Y66327D02*
X33051Y66239D01*
X32976Y66150D01*
X32911Y66060D01*
X32854Y65970D01*
X32806Y65879D01*
X32767Y65787D01*
X32737Y65694D01*
X32716Y65601D01*
X32703Y65507D01*
X32700Y65412D01*
X31512Y66600D01*
X31607Y66603D01*
X31701Y66616D01*
X31794Y66637D01*
X31887Y66667D01*
X31979Y66706D01*
X32070Y66754D01*
X32160Y66811D01*
X32250Y66876D01*
X32339Y66951D01*
X32427Y67034D01*
X33134Y66327D01*
D02*
G37*
G36*
X25134D02*
X25051Y66239D01*
X24976Y66150D01*
X24911Y66060D01*
X24854Y65970D01*
X24806Y65879D01*
X24767Y65787D01*
X24737Y65694D01*
X24716Y65601D01*
X24703Y65507D01*
X24700Y65412D01*
X23512Y66600D01*
X23607Y66603D01*
X23701Y66616D01*
X23794Y66637D01*
X23887Y66667D01*
X23979Y66706D01*
X24070Y66754D01*
X24160Y66811D01*
X24250Y66876D01*
X24339Y66951D01*
X24427Y67034D01*
X25134Y66327D01*
D02*
G37*
G36*
X22661Y66951D02*
X22750Y66876D01*
X22840Y66811D01*
X22930Y66754D01*
X23021Y66706D01*
X23113Y66667D01*
X23206Y66637D01*
X23299Y66616D01*
X23393Y66603D01*
X23488Y66600D01*
X22300Y65412D01*
X22297Y65507D01*
X22284Y65601D01*
X22263Y65694D01*
X22233Y65787D01*
X22194Y65879D01*
X22146Y65970D01*
X22089Y66060D01*
X22024Y66150D01*
X21949Y66239D01*
X21866Y66327D01*
X22573Y67034D01*
X22661Y66951D01*
D02*
G37*
G36*
X63143Y64560D02*
X63073Y64625D01*
X62998Y64682D01*
X62917Y64733D01*
X62830Y64778D01*
X62738Y64815D01*
X62640Y64846D01*
X62536Y64869D01*
X62426Y64886D01*
X62310Y64897D01*
X62189Y64900D01*
Y65900D01*
X62310Y65903D01*
X62426Y65914D01*
X62536Y65931D01*
X62640Y65954D01*
X62738Y65985D01*
X62830Y66022D01*
X62917Y66067D01*
X62998Y66118D01*
X63073Y66175D01*
X63143Y66240D01*
Y64560D01*
D02*
G37*
G36*
X47143D02*
X47074Y64625D01*
X46998Y64682D01*
X46917Y64733D01*
X46830Y64778D01*
X46738Y64815D01*
X46640Y64846D01*
X46536Y64869D01*
X46426Y64886D01*
X46310Y64897D01*
X46189Y64900D01*
Y65900D01*
X46310Y65903D01*
X46426Y65914D01*
X46536Y65931D01*
X46640Y65954D01*
X46738Y65985D01*
X46830Y66022D01*
X46917Y66067D01*
X46998Y66118D01*
X47074Y66175D01*
X47143Y66240D01*
Y64560D01*
D02*
G37*
G36*
X14643D02*
X14573Y64625D01*
X14498Y64682D01*
X14417Y64733D01*
X14330Y64778D01*
X14238Y64815D01*
X14140Y64846D01*
X14036Y64869D01*
X13926Y64886D01*
X13810Y64897D01*
X13689Y64900D01*
Y65900D01*
X13810Y65903D01*
X13926Y65914D01*
X14036Y65931D01*
X14140Y65954D01*
X14238Y65985D01*
X14330Y66022D01*
X14417Y66067D01*
X14498Y66118D01*
X14573Y66175D01*
X14643Y66240D01*
Y64560D01*
D02*
G37*
G36*
X-1029Y64600D02*
X-1124Y64597D01*
X-1218Y64584D01*
X-1311Y64563D01*
X-1404Y64533D01*
X-1496Y64494D01*
X-1587Y64446D01*
X-1677Y64389D01*
X-1767Y64324D01*
X-1856Y64249D01*
X-1944Y64166D01*
X-2651Y64873D01*
X-2568Y64961D01*
X-2493Y65050D01*
X-2427Y65140D01*
X-2371Y65230D01*
X-2323Y65321D01*
X-2284Y65413D01*
X-2254Y65506D01*
X-2233Y65599D01*
X-2220Y65693D01*
X-2217Y65788D01*
X-1029Y64600D01*
D02*
G37*
G36*
X39988Y64300D02*
X39893Y64297D01*
X39799Y64284D01*
X39706Y64263D01*
X39613Y64233D01*
X39521Y64194D01*
X39430Y64146D01*
X39340Y64089D01*
X39250Y64024D01*
X39161Y63949D01*
X39073Y63866D01*
X38366Y64573D01*
X38449Y64661D01*
X38524Y64750D01*
X38589Y64840D01*
X38646Y64930D01*
X38694Y65021D01*
X38733Y65113D01*
X38763Y65206D01*
X38784Y65299D01*
X38797Y65393D01*
X38800Y65488D01*
X39988Y64300D01*
D02*
G37*
G36*
X8703Y65393D02*
X8716Y65299D01*
X8737Y65206D01*
X8767Y65113D01*
X8806Y65021D01*
X8854Y64930D01*
X8911Y64840D01*
X8976Y64750D01*
X9051Y64661D01*
X9134Y64573D01*
X8427Y63866D01*
X8339Y63949D01*
X8250Y64024D01*
X8160Y64089D01*
X8070Y64146D01*
X7979Y64194D01*
X7887Y64233D01*
X7794Y64263D01*
X7701Y64284D01*
X7607Y64297D01*
X7512Y64300D01*
X8700Y65488D01*
X8703Y65393D01*
D02*
G37*
G36*
X7488Y64300D02*
X7393Y64297D01*
X7299Y64284D01*
X7206Y64263D01*
X7113Y64233D01*
X7021Y64194D01*
X6930Y64146D01*
X6840Y64089D01*
X6750Y64024D01*
X6661Y63949D01*
X6573Y63866D01*
X5866Y64573D01*
X5949Y64661D01*
X6024Y64750D01*
X6089Y64840D01*
X6146Y64930D01*
X6194Y65021D01*
X6233Y65113D01*
X6263Y65206D01*
X6284Y65299D01*
X6297Y65393D01*
X6300Y65488D01*
X7488Y64300D01*
D02*
G37*
G36*
X31488Y64200D02*
X31393Y64197D01*
X31299Y64184D01*
X31206Y64163D01*
X31113Y64133D01*
X31021Y64094D01*
X30930Y64046D01*
X30840Y63989D01*
X30750Y63924D01*
X30661Y63849D01*
X30573Y63766D01*
X29866Y64473D01*
X29949Y64561D01*
X30024Y64650D01*
X30089Y64740D01*
X30146Y64830D01*
X30194Y64921D01*
X30233Y65013D01*
X30263Y65106D01*
X30284Y65199D01*
X30297Y65293D01*
X30300Y65388D01*
X31488Y64200D01*
D02*
G37*
G36*
X16703Y65293D02*
X16716Y65199D01*
X16737Y65106D01*
X16767Y65013D01*
X16806Y64921D01*
X16854Y64830D01*
X16911Y64740D01*
X16976Y64650D01*
X17051Y64561D01*
X17134Y64473D01*
X16427Y63766D01*
X16339Y63849D01*
X16250Y63924D01*
X16160Y63989D01*
X16070Y64046D01*
X15979Y64094D01*
X15887Y64133D01*
X15794Y64163D01*
X15701Y64184D01*
X15607Y64197D01*
X15512Y64200D01*
X16700Y65388D01*
X16703Y65293D01*
D02*
G37*
G36*
X84300Y83300D02*
X84300Y74700D01*
X93400Y65600D01*
X114300D01*
X121583Y72883D01*
X124417D01*
X125600Y71700D01*
Y69000D01*
X121346Y64746D01*
X120843D01*
Y64243D01*
X118300Y61700D01*
Y49300D01*
X114900Y45900D01*
X102500D01*
X100208Y43608D01*
X99357D01*
Y42757D01*
X90900Y34300D01*
X87115D01*
Y34309D01*
X81965D01*
Y33265D01*
X78500Y29800D01*
X73100D01*
X64800Y38100D01*
X47900D01*
Y39900D01*
X65800Y57800D01*
X65800Y64089D01*
X65865Y64154D01*
X66200Y64962D01*
Y65838D01*
X65865Y66646D01*
X65800Y66711D01*
X65800Y83300D01*
X71100Y88600D01*
X79000D01*
X84300Y83300D01*
D02*
G37*
G36*
X14715Y22940D02*
X14656Y22989D01*
X14581Y23034D01*
X14491Y23073D01*
X14386Y23106D01*
X14264Y23135D01*
X14127Y23158D01*
X13807Y23190D01*
X13623Y23197D01*
X13423Y23200D01*
Y25200D01*
X13623Y25203D01*
X14127Y25242D01*
X14264Y25265D01*
X14386Y25294D01*
X14491Y25327D01*
X14581Y25366D01*
X14656Y25411D01*
X14715Y25460D01*
Y22940D01*
D02*
G37*
G36*
X47214Y22684D02*
X47156Y22734D01*
X47081Y22778D01*
X46991Y22817D01*
X46886Y22851D01*
X46764Y22879D01*
X46627Y22903D01*
X46307Y22934D01*
X46123Y22941D01*
X45923Y22944D01*
Y24944D01*
X46123Y24947D01*
X46627Y24986D01*
X46764Y25009D01*
X46886Y25038D01*
X46991Y25071D01*
X47081Y25111D01*
X47156Y25155D01*
X47214Y25204D01*
Y22684D01*
D02*
G37*
G36*
X82308Y24272D02*
X82314Y24151D01*
X82370Y23994D01*
X82474Y23803D01*
X82627Y23575D01*
X82830Y23312D01*
X83382Y22679D01*
X84131Y21903D01*
X82363Y20136D01*
X81957Y20534D01*
X80691Y21639D01*
X80464Y21792D01*
X80272Y21897D01*
X80115Y21952D01*
X79994Y21958D01*
X79909Y21915D01*
X82351Y24357D01*
X82308Y24272D01*
D02*
G37*
G36*
X118300Y42000D02*
Y22600D01*
X115600Y19900D01*
X106806D01*
X106395Y20400D01*
X106405Y20446D01*
Y23981D01*
X106311Y24450D01*
X106046Y24847D01*
X105649Y25112D01*
X105180Y25205D01*
X103220D01*
X102751Y25112D01*
X102354Y24847D01*
X102089Y24450D01*
X101995Y23981D01*
Y22111D01*
X101980Y22032D01*
Y19939D01*
X95102D01*
X94850Y20108D01*
X94070Y20263D01*
X90514D01*
X90312Y20464D01*
X89674Y20833D01*
X89391Y20909D01*
X82990Y27310D01*
Y33190D01*
X91090D01*
X91250Y33350D01*
X91290Y33358D01*
X91621Y33579D01*
X100078Y42036D01*
X100299Y42366D01*
X100307Y42407D01*
X100558Y42658D01*
X100598Y42666D01*
X100929Y42887D01*
X102842Y44800D01*
X115500D01*
X118300Y42000D01*
D02*
G37*
G36*
X105184Y20256D02*
X105153Y20245D01*
X105125Y20210D01*
X105100Y20151D01*
X105078Y20068D01*
X105060Y19962D01*
X105045Y19831D01*
X105025Y19499D01*
X105019Y19072D01*
X103019D01*
X103075Y20301D01*
X105184Y20256D01*
D02*
G37*
G36*
X70226Y8234D02*
X70162Y8304D01*
X70092Y8366D01*
X70015Y8421D01*
X69932Y8468D01*
X69843Y8509D01*
X69747Y8541D01*
X69644Y8567D01*
X69535Y8585D01*
X69420Y8596D01*
X69299Y8600D01*
X69391Y9600D01*
X69512Y9603D01*
X69627Y9612D01*
X69738Y9628D01*
X69843Y9649D01*
X69943Y9677D01*
X70038Y9711D01*
X70128Y9751D01*
X70213Y9797D01*
X70292Y9850D01*
X70366Y9909D01*
X70226Y8234D01*
D02*
G37*
G36*
X-13339Y8671D02*
X-13250Y8597D01*
X-13160Y8531D01*
X-13070Y8474D01*
X-12979Y8427D01*
X-12887Y8388D01*
X-12794Y8358D01*
X-12701Y8336D01*
X-12607Y8324D01*
X-12512Y8320D01*
X-13700Y7132D01*
X-13703Y7227D01*
X-13716Y7321D01*
X-13737Y7415D01*
X-13767Y7507D01*
X-13806Y7599D01*
X-13854Y7690D01*
X-13911Y7781D01*
X-13976Y7870D01*
X-14051Y7959D01*
X-14134Y8047D01*
X-13427Y8755D01*
X-13339Y8671D01*
D02*
G37*
G36*
X51661Y8451D02*
X51750Y8376D01*
X51840Y8311D01*
X51930Y8254D01*
X52021Y8206D01*
X52113Y8167D01*
X52206Y8137D01*
X52299Y8116D01*
X52393Y8103D01*
X52488Y8100D01*
X51300Y6912D01*
X51297Y7007D01*
X51284Y7101D01*
X51263Y7194D01*
X51233Y7287D01*
X51194Y7379D01*
X51146Y7470D01*
X51089Y7560D01*
X51024Y7650D01*
X50949Y7739D01*
X50866Y7827D01*
X51573Y8534D01*
X51661Y8451D01*
D02*
G37*
G36*
X35061D02*
X35150Y8376D01*
X35240Y8311D01*
X35330Y8254D01*
X35421Y8206D01*
X35513Y8167D01*
X35606Y8137D01*
X35699Y8116D01*
X35793Y8103D01*
X35888Y8100D01*
X34700Y6912D01*
X34697Y7007D01*
X34684Y7101D01*
X34663Y7194D01*
X34633Y7287D01*
X34594Y7379D01*
X34546Y7470D01*
X34489Y7560D01*
X34424Y7650D01*
X34349Y7739D01*
X34266Y7827D01*
X34973Y8534D01*
X35061Y8451D01*
D02*
G37*
G36*
X19161D02*
X19250Y8376D01*
X19340Y8311D01*
X19430Y8254D01*
X19521Y8206D01*
X19613Y8167D01*
X19706Y8137D01*
X19799Y8116D01*
X19893Y8103D01*
X19988Y8100D01*
X18800Y6912D01*
X18797Y7007D01*
X18784Y7101D01*
X18763Y7194D01*
X18733Y7287D01*
X18694Y7379D01*
X18646Y7470D01*
X18589Y7560D01*
X18524Y7650D01*
X18449Y7739D01*
X18366Y7827D01*
X19073Y8534D01*
X19161Y8451D01*
D02*
G37*
G36*
X5034Y7827D02*
X4951Y7739D01*
X4876Y7650D01*
X4811Y7560D01*
X4754Y7470D01*
X4706Y7379D01*
X4667Y7287D01*
X4637Y7194D01*
X4616Y7101D01*
X4603Y7007D01*
X4600Y6912D01*
X3412Y8100D01*
X3507Y8103D01*
X3601Y8116D01*
X3694Y8137D01*
X3787Y8167D01*
X3879Y8206D01*
X3970Y8254D01*
X4060Y8311D01*
X4150Y8376D01*
X4239Y8451D01*
X4327Y8534D01*
X5034Y7827D01*
D02*
G37*
G36*
X2561Y8451D02*
X2650Y8376D01*
X2740Y8311D01*
X2830Y8254D01*
X2921Y8206D01*
X3013Y8167D01*
X3106Y8137D01*
X3199Y8116D01*
X3293Y8103D01*
X3388Y8100D01*
X2200Y6912D01*
X2197Y7007D01*
X2184Y7101D01*
X2163Y7194D01*
X2133Y7287D01*
X2094Y7379D01*
X2046Y7470D01*
X1989Y7560D01*
X1924Y7650D01*
X1849Y7739D01*
X1766Y7827D01*
X2473Y8534D01*
X2561Y8451D01*
D02*
G37*
G36*
X-11574Y7896D02*
X-11498Y7838D01*
X-11417Y7787D01*
X-11330Y7743D01*
X-11238Y7705D01*
X-11140Y7675D01*
X-11036Y7651D01*
X-10926Y7634D01*
X-10810Y7624D01*
X-10689Y7621D01*
Y6621D01*
X-10810Y6617D01*
X-10926Y6607D01*
X-11036Y6590D01*
X-11140Y6566D01*
X-11238Y6536D01*
X-11330Y6498D01*
X-11417Y6454D01*
X-11498Y6403D01*
X-11574Y6345D01*
X-11643Y6280D01*
Y7960D01*
X-11574Y7896D01*
D02*
G37*
G36*
X20926Y7675D02*
X21002Y7618D01*
X21083Y7567D01*
X21170Y7522D01*
X21262Y7485D01*
X21360Y7454D01*
X21464Y7431D01*
X21574Y7414D01*
X21690Y7403D01*
X21811Y7400D01*
Y6400D01*
X21690Y6397D01*
X21574Y6386D01*
X21464Y6369D01*
X21360Y6346D01*
X21262Y6315D01*
X21170Y6278D01*
X21083Y6233D01*
X21002Y6182D01*
X20926Y6125D01*
X20857Y6060D01*
Y7740D01*
X20926Y7675D01*
D02*
G37*
G36*
X12627Y7575D02*
X12702Y7518D01*
X12783Y7467D01*
X12870Y7422D01*
X12962Y7385D01*
X13060Y7354D01*
X13164Y7331D01*
X13274Y7314D01*
X13390Y7303D01*
X13511Y7300D01*
Y6300D01*
X13390Y6297D01*
X13274Y6286D01*
X13164Y6269D01*
X13060Y6246D01*
X12962Y6215D01*
X12870Y6178D01*
X12783Y6133D01*
X12702Y6082D01*
X12627Y6025D01*
X12557Y5960D01*
Y7640D01*
X12627Y7575D01*
D02*
G37*
G36*
X44188Y5600D02*
X44093Y5597D01*
X43999Y5584D01*
X43906Y5563D01*
X43813Y5533D01*
X43721Y5494D01*
X43630Y5446D01*
X43540Y5389D01*
X43450Y5324D01*
X43361Y5249D01*
X43273Y5166D01*
X42566Y5873D01*
X42649Y5961D01*
X42724Y6050D01*
X42789Y6140D01*
X42846Y6230D01*
X42894Y6321D01*
X42933Y6413D01*
X42963Y6506D01*
X42984Y6599D01*
X42997Y6693D01*
X43000Y6788D01*
X44188Y5600D01*
D02*
G37*
G36*
X11688D02*
X11593Y5597D01*
X11499Y5584D01*
X11406Y5563D01*
X11313Y5533D01*
X11221Y5494D01*
X11130Y5446D01*
X11040Y5389D01*
X10950Y5324D01*
X10861Y5249D01*
X10773Y5166D01*
X10066Y5873D01*
X10149Y5961D01*
X10224Y6050D01*
X10289Y6140D01*
X10346Y6230D01*
X10394Y6321D01*
X10433Y6413D01*
X10463Y6506D01*
X10484Y6599D01*
X10497Y6693D01*
X10500Y6788D01*
X11688Y5600D01*
D02*
G37*
G36*
X130300Y61095D02*
Y8600D01*
X126800Y5100D01*
X121700D01*
X119320Y7480D01*
Y19200D01*
X119242Y19590D01*
X119200Y19653D01*
Y22147D01*
X119242Y22210D01*
X119320Y22600D01*
Y42000D01*
X119242Y42390D01*
X119200Y42453D01*
Y48847D01*
X119242Y48910D01*
X119320Y49300D01*
Y61120D01*
X122000Y63800D01*
X126400Y63800D01*
X127595D01*
X130300Y61095D01*
D02*
G37*
G36*
X70293Y4360D02*
X70223Y4425D01*
X70148Y4482D01*
X70067Y4533D01*
X69980Y4578D01*
X69888Y4615D01*
X69790Y4646D01*
X69686Y4669D01*
X69576Y4686D01*
X69460Y4697D01*
X69339Y4700D01*
Y5700D01*
X69460Y5703D01*
X69576Y5714D01*
X69686Y5731D01*
X69790Y5754D01*
X69888Y5785D01*
X69980Y5822D01*
X70067Y5867D01*
X70148Y5918D01*
X70223Y5975D01*
X70293Y6040D01*
Y4360D01*
D02*
G37*
G36*
X72353Y1293D02*
X72366Y1199D01*
X72387Y1106D01*
X72417Y1013D01*
X72456Y921D01*
X72504Y830D01*
X72561Y740D01*
X72626Y650D01*
X72701Y561D01*
X72784Y473D01*
X72077Y-234D01*
X71989Y-151D01*
X71900Y-76D01*
X71810Y-11D01*
X71720Y46D01*
X71629Y94D01*
X71537Y133D01*
X71444Y163D01*
X71351Y184D01*
X71257Y197D01*
X71162Y200D01*
X72350Y1388D01*
X72353Y1293D01*
D02*
G37*
G36*
X62700Y36000D02*
X83200Y15500D01*
X87940Y15500D01*
X88225Y15424D01*
X88962D01*
X89247Y15500D01*
X110900Y15500D01*
X114280Y18880D01*
X115600D01*
X115990Y18958D01*
X116321Y19179D01*
X116342Y19200D01*
X118300D01*
Y1200D01*
X115848Y-1252D01*
X109796D01*
X109211Y-1369D01*
X108715Y-1701D01*
X108515Y-1900D01*
X104932D01*
X104625Y-1441D01*
X104500Y-1316D01*
Y-462D01*
X104165Y346D01*
X103546Y965D01*
X102738Y1300D01*
X101862D01*
X101054Y965D01*
X100435Y346D01*
X100100Y-462D01*
Y-1338D01*
X100161Y-1484D01*
X99883Y-1900D01*
X98600D01*
X96595Y105D01*
X96241Y719D01*
X95719Y1241D01*
X95105Y1595D01*
X93400Y3300D01*
X79100D01*
X73350Y9050D01*
Y9438D01*
X73015Y10246D01*
X72396Y10865D01*
X71588Y11200D01*
X71200D01*
X49200Y33200D01*
Y36000D01*
X62700Y36000D01*
D02*
G37*
G36*
X130136Y-1551D02*
X129993Y-1556D01*
X129852Y-1574D01*
X129712Y-1606D01*
X129573Y-1651D01*
X129436Y-1710D01*
X129299Y-1781D01*
X129163Y-1867D01*
X129029Y-1965D01*
X128896Y-2077D01*
X128763Y-2202D01*
X127703Y-1141D01*
X127828Y-1009D01*
X127939Y-875D01*
X128038Y-741D01*
X128123Y-605D01*
X128195Y-469D01*
X128253Y-331D01*
X128298Y-192D01*
X128330Y-52D01*
X128349Y89D01*
X128354Y231D01*
X130136Y-1551D01*
D02*
G37*
G36*
X125377Y-1192D02*
X125325Y-1250D01*
X125277Y-1324D01*
X125236Y-1414D01*
X125200Y-1519D01*
X125169Y-1640D01*
X125144Y-1777D01*
X125125Y-1929D01*
X125103Y-2281D01*
X125100Y-2480D01*
X123100Y-2396D01*
X123098Y-2196D01*
X123061Y-1690D01*
X123040Y-1553D01*
X123013Y-1432D01*
X122982Y-1326D01*
X122946Y-1236D01*
X122905Y-1162D01*
X122859Y-1104D01*
X125377Y-1192D01*
D02*
G37*
G36*
X103451Y-1270D02*
X103446Y-1360D01*
X103452Y-1450D01*
X103469Y-1540D01*
X103498Y-1630D01*
X103537Y-1719D01*
X103588Y-1809D01*
X103649Y-1899D01*
X103722Y-1988D01*
X103806Y-2077D01*
X102918Y-2604D01*
X102831Y-2520D01*
X102656Y-2373D01*
X102569Y-2310D01*
X102482Y-2253D01*
X102394Y-2203D01*
X102307Y-2160D01*
X102219Y-2124D01*
X102131Y-2095D01*
X102044Y-2072D01*
X103467Y-1180D01*
X103451Y-1270D01*
D02*
G37*
G36*
X70243Y-3440D02*
X70174Y-3375D01*
X70098Y-3318D01*
X70017Y-3267D01*
X69930Y-3222D01*
X69838Y-3185D01*
X69740Y-3154D01*
X69636Y-3131D01*
X69526Y-3114D01*
X69410Y-3103D01*
X69289Y-3100D01*
Y-2100D01*
X69410Y-2097D01*
X69526Y-2086D01*
X69636Y-2069D01*
X69740Y-2046D01*
X69838Y-2015D01*
X69930Y-1978D01*
X70017Y-1933D01*
X70098Y-1882D01*
X70174Y-1825D01*
X70243Y-1760D01*
Y-3440D01*
D02*
G37*
G36*
X107487Y-2053D02*
X107386Y-2152D01*
X107294Y-2260D01*
X107214Y-2377D01*
X107144Y-2504D01*
X107085Y-2640D01*
X107037Y-2785D01*
X107000Y-2939D01*
X106973Y-3103D01*
X106957Y-3276D01*
X106951Y-3458D01*
X105451Y-3367D01*
X105446Y-3186D01*
X105432Y-3012D01*
X105408Y-2847D01*
X105374Y-2689D01*
X105331Y-2540D01*
X105278Y-2399D01*
X105216Y-2266D01*
X105144Y-2141D01*
X105062Y-2023D01*
X104971Y-1914D01*
X107487Y-2053D01*
D02*
G37*
G36*
X29005Y-4851D02*
X30278Y-4833D01*
X30238Y-4876D01*
X30212Y-4924D01*
X30201Y-4979D01*
X30203Y-5038D01*
X30220Y-5104D01*
X30252Y-5175D01*
X30298Y-5251D01*
X30358Y-5333D01*
X30432Y-5421D01*
X30521Y-5514D01*
X29572Y-5979D01*
X28873Y-5025D01*
X28814Y-5020D01*
X28176Y-5002D01*
X27730Y-5000D01*
X27583Y-4000D01*
X27707Y-3996D01*
X27821Y-3984D01*
X27924Y-3964D01*
X28016Y-3936D01*
X28098Y-3900D01*
X28168Y-3856D01*
X28228Y-3804D01*
X28278Y-3743D01*
X28316Y-3675D01*
X28343Y-3599D01*
X29005Y-4851D01*
D02*
G37*
G36*
X65534Y-5973D02*
X65451Y-6061D01*
X65376Y-6150D01*
X65311Y-6240D01*
X65254Y-6330D01*
X65206Y-6421D01*
X65167Y-6513D01*
X65137Y-6606D01*
X65116Y-6699D01*
X65103Y-6793D01*
X65100Y-6888D01*
X63912Y-5700D01*
X64007Y-5697D01*
X64101Y-5684D01*
X64194Y-5663D01*
X64287Y-5633D01*
X64379Y-5594D01*
X64470Y-5546D01*
X64560Y-5489D01*
X64650Y-5424D01*
X64739Y-5349D01*
X64827Y-5266D01*
X65534Y-5973D01*
D02*
G37*
G36*
X63061Y-5349D02*
X63150Y-5424D01*
X63240Y-5489D01*
X63330Y-5546D01*
X63421Y-5594D01*
X63513Y-5633D01*
X63606Y-5663D01*
X63699Y-5684D01*
X63793Y-5697D01*
X63888Y-5700D01*
X62700Y-6888D01*
X62697Y-6793D01*
X62684Y-6699D01*
X62663Y-6606D01*
X62633Y-6513D01*
X62594Y-6421D01*
X62546Y-6330D01*
X62489Y-6240D01*
X62424Y-6150D01*
X62349Y-6061D01*
X62266Y-5973D01*
X62973Y-5266D01*
X63061Y-5349D01*
D02*
G37*
G36*
X41634Y-6173D02*
X41551Y-6261D01*
X41476Y-6350D01*
X41411Y-6440D01*
X41354Y-6530D01*
X41306Y-6621D01*
X41267Y-6713D01*
X41237Y-6806D01*
X41216Y-6899D01*
X41203Y-6993D01*
X41200Y-7088D01*
X40012Y-5900D01*
X40107Y-5897D01*
X40201Y-5884D01*
X40294Y-5863D01*
X40387Y-5833D01*
X40479Y-5794D01*
X40570Y-5746D01*
X40660Y-5689D01*
X40750Y-5624D01*
X40839Y-5549D01*
X40927Y-5466D01*
X41634Y-6173D01*
D02*
G37*
G36*
X39161Y-5549D02*
X39250Y-5624D01*
X39340Y-5689D01*
X39430Y-5746D01*
X39521Y-5794D01*
X39613Y-5833D01*
X39706Y-5863D01*
X39799Y-5884D01*
X39893Y-5897D01*
X39988Y-5900D01*
X38800Y-7088D01*
X38797Y-6993D01*
X38784Y-6899D01*
X38763Y-6806D01*
X38733Y-6713D01*
X38694Y-6621D01*
X38646Y-6530D01*
X38589Y-6440D01*
X38524Y-6350D01*
X38449Y-6261D01*
X38366Y-6173D01*
X39073Y-5466D01*
X39161Y-5549D01*
D02*
G37*
G36*
X6661D02*
X6750Y-5624D01*
X6840Y-5689D01*
X6930Y-5746D01*
X7021Y-5794D01*
X7113Y-5833D01*
X7206Y-5863D01*
X7299Y-5884D01*
X7393Y-5897D01*
X7488Y-5900D01*
X6300Y-7088D01*
X6297Y-6993D01*
X6284Y-6899D01*
X6263Y-6806D01*
X6233Y-6713D01*
X6194Y-6621D01*
X6146Y-6530D01*
X6089Y-6440D01*
X6024Y-6350D01*
X5949Y-6261D01*
X5866Y-6173D01*
X6573Y-5466D01*
X6661Y-5549D01*
D02*
G37*
G36*
X49634Y-6273D02*
X49551Y-6361D01*
X49476Y-6450D01*
X49411Y-6540D01*
X49354Y-6630D01*
X49306Y-6721D01*
X49267Y-6813D01*
X49237Y-6906D01*
X49216Y-6999D01*
X49203Y-7093D01*
X49200Y-7188D01*
X48012Y-6000D01*
X48107Y-5997D01*
X48201Y-5984D01*
X48294Y-5963D01*
X48387Y-5933D01*
X48479Y-5894D01*
X48570Y-5846D01*
X48660Y-5789D01*
X48750Y-5724D01*
X48839Y-5649D01*
X48927Y-5566D01*
X49634Y-6273D01*
D02*
G37*
G36*
X17134D02*
X17051Y-6361D01*
X16976Y-6450D01*
X16911Y-6540D01*
X16854Y-6630D01*
X16806Y-6721D01*
X16767Y-6813D01*
X16737Y-6906D01*
X16716Y-6999D01*
X16703Y-7093D01*
X16700Y-7188D01*
X15512Y-6000D01*
X15607Y-5997D01*
X15701Y-5984D01*
X15794Y-5963D01*
X15887Y-5933D01*
X15979Y-5894D01*
X16070Y-5846D01*
X16160Y-5789D01*
X16250Y-5724D01*
X16339Y-5649D01*
X16427Y-5566D01*
X17134Y-6273D01*
D02*
G37*
G36*
X-1839Y-5649D02*
X-1750Y-5724D01*
X-1660Y-5789D01*
X-1570Y-5846D01*
X-1479Y-5894D01*
X-1387Y-5933D01*
X-1294Y-5963D01*
X-1201Y-5984D01*
X-1107Y-5997D01*
X-1012Y-6000D01*
X-2200Y-7188D01*
X-2203Y-7093D01*
X-2216Y-6999D01*
X-2237Y-6906D01*
X-2267Y-6813D01*
X-2306Y-6721D01*
X-2354Y-6630D01*
X-2411Y-6540D01*
X-2476Y-6450D01*
X-2551Y-6361D01*
X-2634Y-6273D01*
X-1927Y-5566D01*
X-1839Y-5649D01*
D02*
G37*
G36*
X8427Y-6325D02*
X8502Y-6382D01*
X8583Y-6433D01*
X8670Y-6478D01*
X8762Y-6515D01*
X8860Y-6546D01*
X8964Y-6569D01*
X9074Y-6586D01*
X9190Y-6597D01*
X9311Y-6600D01*
Y-7600D01*
X9190Y-7603D01*
X9074Y-7614D01*
X8964Y-7631D01*
X8860Y-7654D01*
X8762Y-7685D01*
X8670Y-7722D01*
X8583Y-7767D01*
X8502Y-7818D01*
X8427Y-7875D01*
X8357Y-7940D01*
Y-6260D01*
X8427Y-6325D01*
D02*
G37*
G36*
X24427Y-6425D02*
X24502Y-6482D01*
X24583Y-6533D01*
X24670Y-6578D01*
X24762Y-6615D01*
X24860Y-6646D01*
X24964Y-6669D01*
X25074Y-6686D01*
X25190Y-6697D01*
X25311Y-6700D01*
Y-7700D01*
X25190Y-7703D01*
X25074Y-7714D01*
X24964Y-7731D01*
X24860Y-7754D01*
X24762Y-7785D01*
X24670Y-7822D01*
X24583Y-7867D01*
X24502Y-7918D01*
X24427Y-7975D01*
X24357Y-8040D01*
Y-6360D01*
X24427Y-6425D01*
D02*
G37*
G36*
X57203Y-7307D02*
X57216Y-7401D01*
X57237Y-7494D01*
X57267Y-7587D01*
X57306Y-7679D01*
X57354Y-7770D01*
X57411Y-7860D01*
X57476Y-7950D01*
X57551Y-8039D01*
X57634Y-8127D01*
X56927Y-8834D01*
X56839Y-8751D01*
X56750Y-8676D01*
X56660Y-8611D01*
X56570Y-8554D01*
X56479Y-8506D01*
X56387Y-8467D01*
X56294Y-8437D01*
X56201Y-8416D01*
X56107Y-8403D01*
X56012Y-8400D01*
X57200Y-7212D01*
X57203Y-7307D01*
D02*
G37*
G36*
X55988Y-8400D02*
X55893Y-8403D01*
X55799Y-8416D01*
X55706Y-8437D01*
X55613Y-8467D01*
X55521Y-8506D01*
X55430Y-8554D01*
X55340Y-8611D01*
X55250Y-8676D01*
X55161Y-8751D01*
X55073Y-8834D01*
X54366Y-8127D01*
X54449Y-8039D01*
X54524Y-7950D01*
X54589Y-7860D01*
X54646Y-7770D01*
X54694Y-7679D01*
X54733Y-7587D01*
X54763Y-7494D01*
X54784Y-7401D01*
X54797Y-7307D01*
X54800Y-7212D01*
X55988Y-8400D01*
D02*
G37*
G36*
X47988D02*
X47893Y-8403D01*
X47799Y-8416D01*
X47706Y-8437D01*
X47613Y-8467D01*
X47521Y-8506D01*
X47430Y-8554D01*
X47340Y-8611D01*
X47250Y-8676D01*
X47161Y-8751D01*
X47073Y-8834D01*
X46366Y-8127D01*
X46449Y-8039D01*
X46524Y-7950D01*
X46589Y-7860D01*
X46646Y-7770D01*
X46694Y-7679D01*
X46733Y-7587D01*
X46763Y-7494D01*
X46784Y-7401D01*
X46797Y-7307D01*
X46800Y-7212D01*
X47988Y-8400D01*
D02*
G37*
G36*
X23488D02*
X23393Y-8403D01*
X23299Y-8416D01*
X23206Y-8437D01*
X23113Y-8467D01*
X23021Y-8506D01*
X22930Y-8554D01*
X22840Y-8611D01*
X22750Y-8676D01*
X22661Y-8751D01*
X22573Y-8834D01*
X21866Y-8127D01*
X21949Y-8039D01*
X22024Y-7950D01*
X22089Y-7860D01*
X22146Y-7770D01*
X22194Y-7679D01*
X22233Y-7587D01*
X22263Y-7494D01*
X22284Y-7401D01*
X22297Y-7307D01*
X22300Y-7212D01*
X23488Y-8400D01*
D02*
G37*
G36*
X15488D02*
X15393Y-8403D01*
X15299Y-8416D01*
X15206Y-8437D01*
X15113Y-8467D01*
X15021Y-8506D01*
X14930Y-8554D01*
X14840Y-8611D01*
X14750Y-8676D01*
X14661Y-8751D01*
X14573Y-8834D01*
X13866Y-8127D01*
X13949Y-8039D01*
X14024Y-7950D01*
X14089Y-7860D01*
X14146Y-7770D01*
X14194Y-7679D01*
X14233Y-7587D01*
X14263Y-7494D01*
X14284Y-7401D01*
X14297Y-7307D01*
X14300Y-7212D01*
X15488Y-8400D01*
D02*
G37*
G36*
X203Y-7307D02*
X216Y-7401D01*
X237Y-7494D01*
X267Y-7587D01*
X306Y-7679D01*
X354Y-7770D01*
X411Y-7860D01*
X476Y-7950D01*
X551Y-8039D01*
X634Y-8127D01*
X-73Y-8834D01*
X-161Y-8751D01*
X-250Y-8676D01*
X-340Y-8611D01*
X-430Y-8554D01*
X-521Y-8506D01*
X-613Y-8467D01*
X-706Y-8437D01*
X-799Y-8416D01*
X-893Y-8403D01*
X-988Y-8400D01*
X200Y-7212D01*
X203Y-7307D01*
D02*
G37*
G36*
X-7797D02*
X-7784Y-7401D01*
X-7763Y-7494D01*
X-7733Y-7587D01*
X-7694Y-7679D01*
X-7646Y-7770D01*
X-7589Y-7860D01*
X-7524Y-7950D01*
X-7449Y-8039D01*
X-7366Y-8127D01*
X-8073Y-8834D01*
X-8161Y-8751D01*
X-8250Y-8676D01*
X-8340Y-8611D01*
X-8430Y-8554D01*
X-8521Y-8506D01*
X-8613Y-8467D01*
X-8706Y-8437D01*
X-8799Y-8416D01*
X-8893Y-8403D01*
X-8988Y-8400D01*
X-7800Y-7212D01*
X-7797Y-7307D01*
D02*
G37*
G36*
X-9012Y-8400D02*
X-9107Y-8403D01*
X-9201Y-8416D01*
X-9294Y-8437D01*
X-9387Y-8467D01*
X-9479Y-8506D01*
X-9570Y-8554D01*
X-9660Y-8611D01*
X-9750Y-8676D01*
X-9839Y-8751D01*
X-9927Y-8834D01*
X-10634Y-8127D01*
X-10551Y-8039D01*
X-10476Y-7950D01*
X-10411Y-7860D01*
X-10354Y-7770D01*
X-10306Y-7679D01*
X-10267Y-7587D01*
X-10237Y-7494D01*
X-10216Y-7401D01*
X-10203Y-7307D01*
X-10200Y-7212D01*
X-9012Y-8400D01*
D02*
G37*
G36*
X101494Y-10953D02*
X101492Y-10969D01*
X101490Y-10995D01*
X101484Y-11372D01*
X101484Y-11472D01*
X100484D01*
X100472Y-10948D01*
X101496D01*
X101494Y-10953D01*
D02*
G37*
G36*
X110726Y-25125D02*
X110802Y-25182D01*
X110883Y-25233D01*
X110970Y-25278D01*
X111062Y-25315D01*
X111160Y-25346D01*
X111264Y-25369D01*
X111374Y-25386D01*
X111490Y-25397D01*
X111611Y-25400D01*
Y-26400D01*
X111490Y-26403D01*
X111374Y-26414D01*
X111264Y-26431D01*
X111160Y-26454D01*
X111062Y-26485D01*
X110970Y-26522D01*
X110883Y-26567D01*
X110802Y-26618D01*
X110726Y-26675D01*
X110657Y-26740D01*
Y-25060D01*
X110726Y-25125D01*
D02*
G37*
G36*
X47214Y-27660D02*
X47156Y-27611D01*
X47081Y-27566D01*
X46991Y-27527D01*
X46886Y-27494D01*
X46764Y-27465D01*
X46627Y-27442D01*
X46307Y-27410D01*
X46123Y-27403D01*
X45923Y-27400D01*
Y-25400D01*
X46123Y-25397D01*
X46627Y-25358D01*
X46764Y-25335D01*
X46886Y-25306D01*
X46991Y-25273D01*
X47081Y-25234D01*
X47156Y-25189D01*
X47214Y-25140D01*
Y-27660D01*
D02*
G37*
G36*
X14715D02*
X14656Y-27611D01*
X14581Y-27566D01*
X14491Y-27527D01*
X14386Y-27494D01*
X14264Y-27465D01*
X14127Y-27442D01*
X13807Y-27410D01*
X13623Y-27403D01*
X13423Y-27400D01*
Y-25400D01*
X13623Y-25397D01*
X14127Y-25358D01*
X14264Y-25335D01*
X14386Y-25306D01*
X14491Y-25273D01*
X14581Y-25234D01*
X14656Y-25189D01*
X14715Y-25140D01*
Y-27660D01*
D02*
G37*
G36*
X121619Y-40052D02*
X121623Y-40159D01*
X121634Y-40265D01*
X121653Y-40372D01*
X121678Y-40479D01*
X121712Y-40585D01*
X121752Y-40692D01*
X121800Y-40798D01*
X121855Y-40905D01*
X121918Y-41012D01*
X121988Y-41118D01*
X120338Y-40799D01*
X120433Y-40730D01*
X120518Y-40657D01*
X120593Y-40579D01*
X120658Y-40495D01*
X120712Y-40407D01*
X120757Y-40314D01*
X120792Y-40216D01*
X120817Y-40112D01*
X120832Y-40004D01*
X120837Y-39891D01*
X121619Y-40052D01*
D02*
G37*
G36*
X124704Y-39998D02*
X124719Y-40106D01*
X124745Y-40208D01*
X124780Y-40305D01*
X124826Y-40396D01*
X124882Y-40481D01*
X124948Y-40560D01*
X125024Y-40634D01*
X125110Y-40702D01*
X125206Y-40764D01*
X123577Y-41173D01*
X123641Y-41063D01*
X123750Y-40843D01*
X123794Y-40734D01*
X123832Y-40626D01*
X123862Y-40518D01*
X123886Y-40411D01*
X123903Y-40304D01*
X123913Y-40199D01*
X123917Y-40093D01*
X124699Y-39884D01*
X124704Y-39998D01*
D02*
G37*
G36*
X129874Y-41561D02*
X129897Y-41818D01*
X129934Y-42044D01*
X129987Y-42241D01*
X130054Y-42407D01*
X130137Y-42544D01*
X130234Y-42649D01*
X130347Y-42725D01*
X130474Y-42770D01*
X130617Y-42785D01*
X127617D01*
X127759Y-42770D01*
X127887Y-42725D01*
X127999Y-42649D01*
X128097Y-42544D01*
X128179Y-42407D01*
X128247Y-42241D01*
X128299Y-42044D01*
X128337Y-41818D01*
X128359Y-41561D01*
X128367Y-41273D01*
X129867D01*
X129874Y-41561D01*
D02*
G37*
G36*
X130875Y-42887D02*
X130920Y-42988D01*
X130995Y-43077D01*
X131100Y-43154D01*
X131235Y-43220D01*
X131400Y-43274D01*
X131420Y-43278D01*
X131552Y-43234D01*
X131687Y-43174D01*
X131813Y-43104D01*
X131930Y-43023D01*
X132036Y-42930D01*
X132134Y-42828D01*
X132170Y-43365D01*
X132360Y-43369D01*
Y-44869D01*
X132269Y-44871D01*
X132301Y-45342D01*
X132191Y-45252D01*
X132073Y-45172D01*
X131947Y-45101D01*
X131813Y-45039D01*
X131672Y-44987D01*
X131540Y-44950D01*
X131394Y-44989D01*
X131227Y-45056D01*
X131091Y-45139D01*
X130985Y-45236D01*
X130909Y-45349D01*
X130863Y-45476D01*
X130848Y-45619D01*
X130851Y-44869D01*
X130844Y-44869D01*
X130734Y-43369D01*
X130857Y-43365D01*
X130860Y-42773D01*
X130875Y-42887D01*
D02*
G37*
G36*
X130880Y-47603D02*
X130940Y-47697D01*
X131040Y-47780D01*
X131180Y-47852D01*
X131360Y-47912D01*
X131580Y-47962D01*
X131840Y-48001D01*
X131945Y-48011D01*
X132064Y-47993D01*
X132185Y-47967D01*
X132291Y-47936D01*
X132380Y-47901D01*
X132455Y-47862D01*
X132513Y-47818D01*
X132502Y-48040D01*
X132860Y-48051D01*
Y-50051D01*
X132480Y-50055D01*
X132403Y-50059D01*
X132389Y-50335D01*
X132331Y-50281D01*
X132257Y-50232D01*
X132167Y-50190D01*
X132062Y-50153D01*
X131941Y-50122D01*
X131807Y-50097D01*
X131580Y-50111D01*
X131360Y-50145D01*
X131180Y-50186D01*
X131040Y-50235D01*
X130940Y-50291D01*
X130880Y-50355D01*
X130860Y-50427D01*
Y-47498D01*
X130880Y-47603D01*
D02*
G37*
G36*
X21634Y-64773D02*
X21551Y-64861D01*
X21476Y-64950D01*
X21411Y-65040D01*
X21354Y-65130D01*
X21306Y-65221D01*
X21267Y-65313D01*
X21237Y-65406D01*
X21216Y-65499D01*
X21203Y-65593D01*
X21200Y-65688D01*
X20012Y-64500D01*
X20107Y-64497D01*
X20201Y-64484D01*
X20294Y-64463D01*
X20387Y-64433D01*
X20479Y-64394D01*
X20570Y-64346D01*
X20660Y-64289D01*
X20750Y-64224D01*
X20839Y-64149D01*
X20927Y-64066D01*
X21634Y-64773D01*
D02*
G37*
G36*
X19161Y-64149D02*
X19250Y-64224D01*
X19340Y-64289D01*
X19430Y-64346D01*
X19521Y-64394D01*
X19613Y-64433D01*
X19706Y-64463D01*
X19799Y-64484D01*
X19893Y-64497D01*
X19988Y-64500D01*
X18800Y-65688D01*
X18797Y-65593D01*
X18784Y-65499D01*
X18763Y-65406D01*
X18733Y-65313D01*
X18694Y-65221D01*
X18646Y-65130D01*
X18589Y-65040D01*
X18524Y-64950D01*
X18449Y-64861D01*
X18366Y-64773D01*
X19073Y-64066D01*
X19161Y-64149D01*
D02*
G37*
G36*
X-10866Y-64773D02*
X-10949Y-64861D01*
X-11024Y-64950D01*
X-11089Y-65040D01*
X-11146Y-65130D01*
X-11194Y-65221D01*
X-11233Y-65313D01*
X-11263Y-65406D01*
X-11284Y-65499D01*
X-11297Y-65593D01*
X-11300Y-65688D01*
X-12488Y-64500D01*
X-12393Y-64497D01*
X-12299Y-64484D01*
X-12206Y-64463D01*
X-12113Y-64433D01*
X-12021Y-64394D01*
X-11930Y-64346D01*
X-11840Y-64289D01*
X-11750Y-64224D01*
X-11661Y-64149D01*
X-11573Y-64066D01*
X-10866Y-64773D01*
D02*
G37*
G36*
X10861Y-64249D02*
X10950Y-64324D01*
X11040Y-64389D01*
X11130Y-64446D01*
X11221Y-64494D01*
X11313Y-64533D01*
X11406Y-64563D01*
X11499Y-64584D01*
X11593Y-64597D01*
X11688Y-64600D01*
X10500Y-65788D01*
X10497Y-65693D01*
X10484Y-65599D01*
X10463Y-65506D01*
X10433Y-65413D01*
X10394Y-65321D01*
X10346Y-65230D01*
X10289Y-65140D01*
X10224Y-65050D01*
X10149Y-64961D01*
X10066Y-64873D01*
X10773Y-64166D01*
X10861Y-64249D01*
D02*
G37*
G36*
X35043Y-66540D02*
X34973Y-66475D01*
X34898Y-66418D01*
X34817Y-66367D01*
X34730Y-66322D01*
X34638Y-66285D01*
X34540Y-66254D01*
X34436Y-66231D01*
X34326Y-66214D01*
X34210Y-66203D01*
X34089Y-66200D01*
Y-65200D01*
X34210Y-65197D01*
X34326Y-65186D01*
X34436Y-65169D01*
X34540Y-65146D01*
X34638Y-65115D01*
X34730Y-65078D01*
X34817Y-65033D01*
X34898Y-64982D01*
X34973Y-64925D01*
X35043Y-64860D01*
Y-66540D01*
D02*
G37*
G36*
X2543D02*
X2473Y-66475D01*
X2398Y-66418D01*
X2317Y-66367D01*
X2230Y-66322D01*
X2138Y-66285D01*
X2040Y-66254D01*
X1936Y-66231D01*
X1826Y-66214D01*
X1710Y-66203D01*
X1589Y-66200D01*
Y-65200D01*
X1710Y-65197D01*
X1826Y-65186D01*
X1936Y-65169D01*
X2040Y-65146D01*
X2138Y-65115D01*
X2230Y-65078D01*
X2317Y-65033D01*
X2398Y-64982D01*
X2473Y-64925D01*
X2543Y-64860D01*
Y-66540D01*
D02*
G37*
G36*
X-13357D02*
X-13427Y-66475D01*
X-13502Y-66418D01*
X-13583Y-66367D01*
X-13670Y-66322D01*
X-13762Y-66285D01*
X-13860Y-66254D01*
X-13964Y-66231D01*
X-14074Y-66214D01*
X-14190Y-66203D01*
X-14311Y-66200D01*
Y-65200D01*
X-14190Y-65197D01*
X-14074Y-65186D01*
X-13964Y-65169D01*
X-13860Y-65146D01*
X-13762Y-65115D01*
X-13670Y-65078D01*
X-13583Y-65033D01*
X-13502Y-64982D01*
X-13427Y-64925D01*
X-13357Y-64860D01*
Y-66540D01*
D02*
G37*
G36*
X54826Y-65025D02*
X54902Y-65082D01*
X54983Y-65133D01*
X55070Y-65178D01*
X55162Y-65215D01*
X55260Y-65246D01*
X55364Y-65269D01*
X55474Y-65286D01*
X55590Y-65297D01*
X55711Y-65300D01*
Y-66300D01*
X55590Y-66303D01*
X55474Y-66314D01*
X55364Y-66331D01*
X55260Y-66354D01*
X55162Y-66385D01*
X55070Y-66422D01*
X54983Y-66467D01*
X54902Y-66518D01*
X54826Y-66575D01*
X54757Y-66640D01*
Y-64960D01*
X54826Y-65025D01*
D02*
G37*
G36*
X53043Y-66640D02*
X52974Y-66575D01*
X52898Y-66518D01*
X52817Y-66467D01*
X52730Y-66422D01*
X52638Y-66385D01*
X52540Y-66354D01*
X52436Y-66331D01*
X52326Y-66314D01*
X52210Y-66303D01*
X52089Y-66300D01*
Y-65300D01*
X52210Y-65297D01*
X52326Y-65286D01*
X52436Y-65269D01*
X52540Y-65246D01*
X52638Y-65215D01*
X52730Y-65178D01*
X52817Y-65133D01*
X52898Y-65082D01*
X52974Y-65025D01*
X53043Y-64960D01*
Y-66640D01*
D02*
G37*
G36*
X43343D02*
X43273Y-66575D01*
X43198Y-66518D01*
X43117Y-66467D01*
X43030Y-66422D01*
X42938Y-66385D01*
X42840Y-66354D01*
X42736Y-66331D01*
X42626Y-66314D01*
X42510Y-66303D01*
X42389Y-66300D01*
Y-65300D01*
X42510Y-65297D01*
X42626Y-65286D01*
X42736Y-65269D01*
X42840Y-65246D01*
X42938Y-65215D01*
X43030Y-65178D01*
X43117Y-65133D01*
X43198Y-65082D01*
X43273Y-65025D01*
X43343Y-64960D01*
Y-66640D01*
D02*
G37*
G36*
X4603Y-65807D02*
X4616Y-65901D01*
X4637Y-65994D01*
X4667Y-66087D01*
X4706Y-66179D01*
X4754Y-66270D01*
X4811Y-66360D01*
X4876Y-66450D01*
X4951Y-66539D01*
X5034Y-66627D01*
X4327Y-67334D01*
X4239Y-67251D01*
X4150Y-67176D01*
X4060Y-67111D01*
X3970Y-67054D01*
X3879Y-67006D01*
X3787Y-66967D01*
X3694Y-66937D01*
X3601Y-66916D01*
X3507Y-66903D01*
X3412Y-66900D01*
X4600Y-65712D01*
X4603Y-65807D01*
D02*
G37*
G36*
X12903Y-65907D02*
X12916Y-66001D01*
X12937Y-66094D01*
X12967Y-66187D01*
X13006Y-66279D01*
X13054Y-66370D01*
X13111Y-66460D01*
X13176Y-66550D01*
X13251Y-66639D01*
X13334Y-66727D01*
X12627Y-67434D01*
X12539Y-67351D01*
X12450Y-67276D01*
X12360Y-67211D01*
X12270Y-67154D01*
X12179Y-67106D01*
X12087Y-67067D01*
X11994Y-67037D01*
X11901Y-67016D01*
X11807Y-67003D01*
X11712Y-67000D01*
X12900Y-65812D01*
X12903Y-65907D01*
D02*
G37*
G36*
X64870Y-68159D02*
X64959Y-68233D01*
X65049Y-68299D01*
X65139Y-68355D01*
X65230Y-68403D01*
X65322Y-68442D01*
X65415Y-68472D01*
X65508Y-68493D01*
X65602Y-68506D01*
X65697Y-68509D01*
X64509Y-69697D01*
X64506Y-69602D01*
X64493Y-69508D01*
X64472Y-69415D01*
X64442Y-69322D01*
X64403Y-69230D01*
X64355Y-69139D01*
X64298Y-69049D01*
X64233Y-68959D01*
X64158Y-68870D01*
X64075Y-68782D01*
X64782Y-68075D01*
X64870Y-68159D01*
D02*
G37*
G36*
X107328Y-70736D02*
X107359Y-70821D01*
X107410Y-70896D01*
X107481Y-70961D01*
X107572Y-71016D01*
X107683Y-71061D01*
X107815Y-71096D01*
X107966Y-71121D01*
X108137Y-71136D01*
X108329Y-71141D01*
Y-72141D01*
X107329Y-72129D01*
X107317Y-70641D01*
X107328Y-70736D01*
D02*
G37*
G36*
X120138Y-72674D02*
X120037Y-72640D01*
X119913Y-72610D01*
X119765Y-72584D01*
X119401Y-72541D01*
X118943Y-72513D01*
X118082Y-72497D01*
X117920Y-70997D01*
X118106Y-70991D01*
X118277Y-70973D01*
X118433Y-70942D01*
X118574Y-70900D01*
X118700Y-70845D01*
X118812Y-70778D01*
X118908Y-70698D01*
X118989Y-70607D01*
X119056Y-70503D01*
X119107Y-70387D01*
X120138Y-72674D01*
D02*
G37*
G36*
X115206Y-70390D02*
X115251Y-70517D01*
X115327Y-70630D01*
X115433Y-70727D01*
X115569Y-70810D01*
X115735Y-70877D01*
X115932Y-70930D01*
X116159Y-70967D01*
X116416Y-70990D01*
X116703Y-70997D01*
Y-72497D01*
X116416Y-72505D01*
X116159Y-72527D01*
X115932Y-72565D01*
X115735Y-72617D01*
X115569Y-72685D01*
X115433Y-72767D01*
X115327Y-72865D01*
X115251Y-72977D01*
X115206Y-73105D01*
X115191Y-73247D01*
Y-70247D01*
X115206Y-70390D01*
D02*
G37*
G36*
X117073Y-76465D02*
X117182Y-76565D01*
X117308Y-76658D01*
X117444Y-76740D01*
X117590Y-76811D01*
X117746Y-76870D01*
X117913Y-76919D01*
X118090Y-76956D01*
X118277Y-76982D01*
X118474Y-76997D01*
X118682Y-77000D01*
X118203Y-77479D01*
X118427Y-77676D01*
X118540Y-77745D01*
X118631Y-77786D01*
X118701Y-77800D01*
X117700Y-78801D01*
X117686Y-78731D01*
X117645Y-78640D01*
X117576Y-78527D01*
X117479Y-78392D01*
X117394Y-78288D01*
X116900Y-78782D01*
X116897Y-78574D01*
X116882Y-78377D01*
X116856Y-78190D01*
X116819Y-78013D01*
X116770Y-77846D01*
X116711Y-77690D01*
X116640Y-77544D01*
X116558Y-77408D01*
X116465Y-77282D01*
X116365Y-77173D01*
X116320Y-77127D01*
X117027Y-76420D01*
X117073Y-76465D01*
D02*
G37*
G36*
X112483Y-79464D02*
X112473Y-79367D01*
X112442Y-79280D01*
X112390Y-79203D01*
X112317Y-79137D01*
X112224Y-79080D01*
X112110Y-79034D01*
X111975Y-78998D01*
X111820Y-78973D01*
X111644Y-78957D01*
X111447Y-78952D01*
Y-77928D01*
X111644Y-77923D01*
X111820Y-77908D01*
X111975Y-77882D01*
X112110Y-77846D01*
X112224Y-77800D01*
X112317Y-77744D01*
X112390Y-77677D01*
X112442Y-77600D01*
X112473Y-77513D01*
X112483Y-77416D01*
Y-79464D01*
D02*
G37*
G36*
X107327Y-77513D02*
X107358Y-77600D01*
X107410Y-77677D01*
X107483Y-77744D01*
X107576Y-77800D01*
X107690Y-77846D01*
X107825Y-77882D01*
X107980Y-77908D01*
X108156Y-77923D01*
X108353Y-77928D01*
Y-78952D01*
X108156Y-78957D01*
X107980Y-78973D01*
X107825Y-78998D01*
X107690Y-79034D01*
X107576Y-79080D01*
X107483Y-79137D01*
X107410Y-79203D01*
X107358Y-79280D01*
X107327Y-79367D01*
X107317Y-79464D01*
Y-77416D01*
X107327Y-77513D01*
D02*
G37*
G36*
X118682Y-80600D02*
X118605Y-80607D01*
X118522Y-80628D01*
X118430Y-80664D01*
X118332Y-80715D01*
X118226Y-80780D01*
X118112Y-80861D01*
X117864Y-81065D01*
X117728Y-81190D01*
X117585Y-81329D01*
X116171Y-79915D01*
X116310Y-79772D01*
X116639Y-79388D01*
X116720Y-79274D01*
X116785Y-79168D01*
X116836Y-79070D01*
X116872Y-78978D01*
X116893Y-78895D01*
X116900Y-78818D01*
X118682Y-80600D01*
D02*
G37*
G36*
X104291Y-83188D02*
X104287Y-83262D01*
X104270Y-85234D01*
X102770Y-85491D01*
X102764Y-85304D01*
X102746Y-85133D01*
X102717Y-84980D01*
X102675Y-84843D01*
X102622Y-84723D01*
X102557Y-84620D01*
X102480Y-84534D01*
X102391Y-84465D01*
X102290Y-84413D01*
X102178Y-84377D01*
X104296Y-83152D01*
X104291Y-83188D01*
D02*
G37*
G36*
X133800Y-88800D02*
Y-100800D01*
X129600Y-105000D01*
X71943D01*
X68900Y-101852D01*
Y-100982D01*
X69669D01*
X70351Y-100847D01*
X70930Y-100460D01*
X72852Y-98539D01*
X75872D01*
Y-97895D01*
X78451D01*
X78542Y-97904D01*
X78614Y-97915D01*
Y-99141D01*
X84386D01*
Y-93180D01*
X78614D01*
Y-94307D01*
X78542Y-94319D01*
X78451Y-94327D01*
X75872D01*
Y-93586D01*
X70328D01*
Y-96015D01*
X69400Y-96944D01*
X68900Y-96737D01*
Y-88700D01*
X72800Y-84700D01*
X100694D01*
X100856Y-84863D01*
X101495Y-85231D01*
X101736Y-85296D01*
Y-87231D01*
X101770Y-87403D01*
Y-90926D01*
X115581D01*
Y-87403D01*
X115615Y-87231D01*
Y-84700D01*
X129700D01*
X133800Y-88800D01*
D02*
G37*
G36*
X2347Y-93385D02*
X2407Y-93514D01*
X2507Y-93628D01*
X2647Y-93726D01*
X2827Y-93810D01*
X3047Y-93879D01*
X3307Y-93932D01*
X3607Y-93970D01*
X3947Y-93992D01*
X4327Y-94000D01*
Y-96000D01*
X3947Y-96008D01*
X3307Y-96068D01*
X3047Y-96122D01*
X2827Y-96190D01*
X2647Y-96273D01*
X2507Y-96372D01*
X2407Y-96486D01*
X2347Y-96615D01*
X2327Y-96760D01*
Y-93240D01*
X2347Y-93385D01*
D02*
G37*
G36*
X-5327Y-96760D02*
X-5347Y-96615D01*
X-5407Y-96486D01*
X-5507Y-96372D01*
X-5647Y-96273D01*
X-5827Y-96190D01*
X-6047Y-96122D01*
X-6307Y-96068D01*
X-6607Y-96030D01*
X-6947Y-96008D01*
X-7327Y-96000D01*
Y-94000D01*
X-6947Y-93992D01*
X-6307Y-93932D01*
X-6047Y-93879D01*
X-5827Y-93810D01*
X-5647Y-93726D01*
X-5507Y-93628D01*
X-5407Y-93514D01*
X-5347Y-93385D01*
X-5327Y-93240D01*
Y-96760D01*
D02*
G37*
G36*
X79638Y-97611D02*
X79623Y-97469D01*
X79577Y-97341D01*
X79502Y-97229D01*
X79396Y-97131D01*
X79260Y-97049D01*
X79093Y-96981D01*
X78897Y-96929D01*
X78670Y-96891D01*
X78413Y-96869D01*
X78126Y-96861D01*
Y-95361D01*
X78413Y-95354D01*
X78670Y-95331D01*
X78897Y-95294D01*
X79093Y-95241D01*
X79260Y-95174D01*
X79396Y-95091D01*
X79502Y-94994D01*
X79577Y-94881D01*
X79623Y-94754D01*
X79638Y-94611D01*
Y-97611D01*
D02*
G37*
%LPC*%
G36*
X102869Y93900D02*
X102131D01*
X101419Y93709D01*
X100781Y93341D01*
X100259Y92819D01*
X99891Y92181D01*
X99700Y91469D01*
Y90731D01*
X99891Y90019D01*
X100259Y89381D01*
X100781Y88859D01*
X101419Y88491D01*
X102131Y88300D01*
X102869D01*
X103581Y88491D01*
X104219Y88859D01*
X104741Y89381D01*
X105109Y90019D01*
X105300Y90731D01*
Y91469D01*
X105109Y92181D01*
X104741Y92819D01*
X104219Y93341D01*
X103581Y93709D01*
X102869Y93900D01*
D02*
G37*
G36*
X86643Y54809D02*
X85173Y54665D01*
X83759Y54236D01*
X82456Y53539D01*
X81314Y52602D01*
X80377Y51460D01*
X79681Y50157D01*
X79252Y48744D01*
X79107Y47273D01*
X79252Y45803D01*
X79681Y44389D01*
X80377Y43086D01*
X81314Y41944D01*
X82456Y41007D01*
X83759Y40311D01*
X85173Y39882D01*
X86643Y39737D01*
X88114Y39882D01*
X89527Y40311D01*
X90830Y41007D01*
X91972Y41944D01*
X92909Y43086D01*
X93606Y44389D01*
X94035Y45803D01*
X94180Y47273D01*
X94035Y48744D01*
X93606Y50157D01*
X92909Y51460D01*
X91972Y52602D01*
X90830Y53539D01*
X89527Y54236D01*
X88114Y54665D01*
X86643Y54809D01*
D02*
G37*
G36*
X108921Y14379D02*
X106960D01*
X106491Y14285D01*
X106094Y14020D01*
X105829Y13623D01*
X105736Y13154D01*
Y9619D01*
X105829Y9150D01*
X106094Y8753D01*
X106491Y8488D01*
X106960Y8395D01*
X108921D01*
X109389Y8488D01*
X109786Y8753D01*
X110052Y9150D01*
X110145Y9619D01*
Y13154D01*
X110052Y13623D01*
X109786Y14020D01*
X109389Y14285D01*
X108921Y14379D01*
D02*
G37*
G36*
X94663Y11200D02*
X93788D01*
X92979Y10865D01*
X92360Y10246D01*
X92026Y9438D01*
Y8562D01*
X92360Y7754D01*
X92979Y7135D01*
X93788Y6800D01*
X94663D01*
X95472Y7135D01*
X96091Y7754D01*
X96425Y8562D01*
Y9438D01*
X96091Y10246D01*
X95472Y10865D01*
X94663Y11200D01*
D02*
G37*
%LPD*%
D12*
X-122303Y-88877D02*
X-122303D01*
X-99893Y30627D02*
X-99643Y30876D01*
X-112700Y19700D02*
X-107500D01*
X-99893Y27307D02*
Y30627D01*
X-107500Y19700D02*
X-99893Y27307D01*
X-102288Y27272D02*
Y30790D01*
X-104761Y26920D02*
Y30876D01*
X-114300Y21200D02*
X-108360D01*
X-102288Y30790D02*
X-102202Y30876D01*
X-108982Y22700D02*
X-104761Y26920D01*
X-115700Y22700D02*
X-108982D01*
X-108360Y21200D02*
X-102288Y27272D01*
X-115523Y-30602D02*
X-108490D01*
X-116421Y-31500D02*
X-115523Y-30602D01*
X-116800Y-31500D02*
X-116421D01*
X-108490Y-30602D02*
X-108482Y-30594D01*
X-100326Y-31700D02*
X-100200D01*
X-101433Y-30594D02*
X-100326Y-31700D01*
X-108482Y-30594D02*
X-101433D01*
X110000Y-48700D02*
Y-43100D01*
X111594Y-40329D02*
X114724Y-43460D01*
X111594Y-40329D02*
Y-36246D01*
X105276Y-48700D02*
Y-43624D01*
X114724Y-48700D02*
Y-43460D01*
X105276Y-43624D02*
X108661Y-40239D01*
Y-35873D01*
X111221D02*
X111594Y-36246D01*
X-106208Y-107926D02*
X-76005D01*
X-97673Y-106427D02*
X-76626D01*
X-67930Y-99851D02*
X-45051D01*
X-66700Y-96500D02*
X-64400D01*
X-76626Y-106427D02*
X-66700Y-96500D01*
X-76005Y-107926D02*
X-67930Y-99851D01*
X-45051D02*
X-36000Y-90800D01*
X-64400Y-96500D02*
X-62400Y-94500D01*
X-79280Y-89225D02*
X-70275D01*
X-79874Y-91450D02*
X-73229D01*
X-71579Y-93100D01*
X-71200D01*
X-70275Y-89225D02*
X-66400Y-93100D01*
X-81090Y-87415D02*
X-79280Y-89225D01*
X-81174Y-87415D02*
X-81090D01*
X-61600Y-65700D02*
X-57400Y-69900D01*
X-82516Y-88807D02*
X-79874Y-91450D01*
X-80907Y-93200D02*
X-80000D01*
X-83908Y-90199D02*
X-80907Y-93200D01*
X-83957Y-90199D02*
X-83908D01*
X-82565Y-88807D02*
X-82516D01*
X-83626Y-95632D02*
X-82268D01*
X-82000Y-95900D01*
X-84345Y-98413D02*
Y-98212D01*
X-88133Y-94424D02*
X-84345Y-98212D01*
X-83679Y-95580D02*
X-83626Y-95632D01*
X-84096Y-95580D02*
X-83679D01*
X-86692Y-92983D02*
X-84096Y-95580D01*
X-88133Y-94424D02*
Y-94375D01*
X-100600Y-103500D02*
X-97673Y-106427D01*
X-72900Y-62160D02*
Y-50700D01*
X-62400Y-40200D02*
X67138D01*
X-72900Y-50700D02*
X-62400Y-40200D01*
X80000Y-38600D02*
X91600D01*
X93618Y-40618D01*
X67800Y-50800D02*
X80000Y-38600D01*
X93618Y-40618D02*
X97290D01*
X98052Y-39857D01*
X-120813Y-104505D02*
X-112075Y-95767D01*
X-124246Y-104578D02*
X-124173Y-104505D01*
X-120813D01*
X-121814Y-107205D02*
X-121546Y-106937D01*
X-120461D02*
X-110683Y-97159D01*
X-121546Y-106937D02*
X-120461D01*
X-127900Y-96300D02*
Y-96014D01*
X-132300Y-96877D02*
Y-21100D01*
Y-96877D02*
X-130407Y-98771D01*
Y-98803D02*
Y-98771D01*
X-123154Y-91606D02*
X-121882D01*
X-119083Y-88807D01*
X-123422Y-91874D02*
X-123154Y-91606D01*
X-135100Y-19800D02*
X-127500Y-12200D01*
Y10900D02*
X-115700Y22700D01*
X-127500Y-12200D02*
Y10900D01*
X-137900Y-100525D02*
Y-18300D01*
X-132700Y-13100D02*
Y2972D01*
X-137900Y-18300D02*
X-132700Y-13100D01*
X-135100Y-98517D02*
Y-19800D01*
X-125300Y-14100D02*
Y10200D01*
X-132300Y-21100D02*
X-125300Y-14100D01*
X-129400Y-94514D02*
Y-23100D01*
X-123200Y-16900D02*
Y9200D01*
X-129400Y-23100D02*
X-123200Y-16900D01*
X-129400Y-94514D02*
X-127900Y-96014D01*
X-137900Y-100525D02*
X-135400Y-103025D01*
X-135100Y-98517D02*
X-132900Y-100717D01*
X-116414Y-108458D02*
X-107899Y-99942D01*
X-116414Y-111494D02*
Y-108458D01*
X-116710Y-111790D02*
X-116414Y-111494D01*
X-125300Y10200D02*
X-114300Y21200D01*
X-119114Y-109386D02*
Y-108374D01*
X-109291Y-98551D01*
X-123200Y9200D02*
X-112700Y19700D01*
X-135400Y-103800D02*
Y-103025D01*
X-132900Y-101300D02*
Y-100717D01*
X-118276Y-56151D02*
X-117540D01*
X-116589Y-55200D02*
X-113600D01*
X-117540Y-56151D02*
X-116589Y-55200D01*
X-118800Y-56675D02*
X-118276Y-56151D01*
X-100411Y-55200D02*
X-99260Y-56351D01*
X-98524D02*
X-98000Y-56875D01*
X-103364Y-55200D02*
X-100411D01*
X-99260Y-56351D02*
X-98524D01*
X-103364Y-56381D02*
X-100380Y-59365D01*
X-94301D01*
X-103364Y-56381D02*
Y-55200D01*
X-94301Y-59365D02*
X-92785Y-60881D01*
Y-62508D02*
Y-60881D01*
X-95093Y-64816D02*
X-92785Y-62508D01*
X-95093Y-64866D02*
Y-64816D01*
X-98000Y-64870D02*
X-97882D01*
X-103097Y-59773D02*
X-98000Y-64870D01*
X-110208Y-59773D02*
X-103097D01*
X-113600Y-56381D02*
X-110208Y-59773D01*
X-97882Y-64870D02*
X-96485Y-63474D01*
X-113600Y-56381D02*
Y-55200D01*
X-112534Y26745D02*
Y30781D01*
X-113500Y25400D02*
Y25779D01*
X-112534Y30781D02*
X-112439Y30876D01*
X-113500Y25779D02*
X-112534Y26745D01*
X128761Y-11510D02*
Y-7900D01*
X129134Y-7527D01*
X112355Y-12272D02*
X127999D01*
X-90377Y-20800D02*
X-77400D01*
X-131125Y12815D02*
X-119806Y24134D01*
Y34940D01*
X-116119Y38628D01*
X57901Y62700D02*
X60601Y65400D01*
X64000D01*
X-95350Y21900D02*
X-76500D01*
X-118103Y-69015D02*
X-117850Y-69268D01*
X-116073D01*
X-120850Y-67593D02*
X-119563Y-66306D01*
X-116073Y-69268D02*
X-113516Y-71825D01*
X-115846Y-66613D02*
Y-66352D01*
Y-66613D02*
X-112075Y-70384D01*
X-119563Y-66306D02*
Y-65927D01*
X-94832Y9089D02*
Y10124D01*
X-94960Y8961D02*
X-94832Y9089D01*
X-114902Y34713D02*
X-114475Y35140D01*
X-114902Y30972D02*
Y34713D01*
X-114475Y35140D02*
Y35519D01*
X-116251Y-74609D02*
X-116251D01*
X-119140Y-71720D02*
X-116251Y-74609D01*
X-119269Y-71720D02*
X-119140D01*
X-120850Y-70138D02*
X-119269Y-71720D01*
X-120850Y-70138D02*
Y-67593D01*
X-108815Y-105319D02*
X-106208Y-107926D01*
X-62400Y-94500D02*
Y-91616D01*
X-65579Y-88437D02*
X-62400Y-91616D01*
X-65579Y-88437D02*
Y-84517D01*
X-62062Y-81000D01*
X-62000D01*
X-122303Y-88877D02*
X-121888Y-88877D01*
X-122557D02*
X-122303Y-88877D01*
X63900Y-6900D02*
X68200Y-2600D01*
X71150Y1400D02*
X73800Y-1250D01*
X60400Y5200D02*
X71150D01*
X61600Y9100D02*
X71050D01*
X68200Y-2600D02*
X71100D01*
X71050Y9100D02*
X71150Y9000D01*
X58700Y-9900D02*
X67618D01*
X73800Y-3718D01*
Y-1250D01*
X118524Y-35500D02*
Y-31890D01*
X112534Y-25900D02*
X118524Y-31890D01*
X109800Y-25900D02*
X112534D01*
X118524Y-35500D02*
X118898Y-35873D01*
X114916Y-75016D02*
X118700Y-78800D01*
X111921Y-75016D02*
X114916D01*
X108546Y-71641D02*
X111921Y-75016D01*
X106644Y-71641D02*
X108546D01*
X105963Y-70960D02*
X106644Y-71641D01*
X-108815Y-103692D02*
X-106507Y-101383D01*
Y-101335D01*
X-108815Y-105319D02*
Y-103692D01*
X-36000Y-90800D02*
Y-78900D01*
X-59300Y-73500D02*
X-41400D01*
X-36000Y-78900D01*
X-64800Y-68000D02*
Y-59800D01*
Y-68000D02*
X-59300Y-73500D01*
X-64800Y-59800D02*
X-55800Y-50800D01*
X-67358Y-64970D02*
Y-57658D01*
X-81174Y-78785D02*
X-67358Y-64970D01*
Y-57658D02*
X-57800Y-48100D01*
X-55800Y-50800D02*
X67800D01*
X98052Y-39857D02*
Y-36246D01*
X98425Y-35873D01*
X-101579Y-12489D02*
X-101200D01*
X-101945Y-12122D02*
X-101579Y-12489D01*
X-106877Y-12122D02*
X-101945D01*
X-116119Y38628D02*
X-112220D01*
X-102512Y48336D01*
Y49952D01*
X-102512Y49952D01*
Y50170D01*
X-102202Y50479D01*
Y53124D01*
X-121806Y27055D02*
Y35769D01*
X-131125Y17736D02*
X-121806Y27055D01*
X-114998Y30876D02*
X-114902Y30972D01*
X-110488Y-14550D02*
X-106949D01*
X-111832Y-15894D02*
X-110488Y-14550D01*
X-111832Y-17732D02*
Y-15894D01*
X-112100Y-18000D02*
X-111832Y-17732D01*
X-96250Y-2050D02*
X-94000Y-4300D01*
X-97000Y-16298D02*
Y-9300D01*
X-106949Y-12050D02*
X-106877Y-12122D01*
X-97850Y-4550D02*
X-95500Y-6900D01*
X-94000Y-15056D02*
X-92056Y-17000D01*
X-106949Y-9550D02*
X-100320D01*
X-98500Y-11370D01*
Y-16920D02*
Y-11370D01*
X-95500Y-15677D02*
Y-6900D01*
X-98500Y-16920D02*
X-89620Y-25800D01*
X-99250Y-7050D02*
X-97000Y-9300D01*
Y-16298D02*
X-89798Y-23500D01*
X-94000Y-15056D02*
Y-4300D01*
X-95500Y-15677D02*
X-90377Y-20800D01*
X-92056Y-17000D02*
X-79826D01*
X-89798Y-23500D02*
X-76282D01*
X-92306Y12439D02*
X-91795Y12950D01*
X-88051D01*
X-94832Y10124D02*
X-92517Y12439D01*
X-92306D01*
X-99150Y2950D02*
X-97800Y4300D01*
X-106949Y-2050D02*
X-96250D01*
X-106949Y2950D02*
X-99150D01*
X-97800Y4300D02*
Y14300D01*
X-95500Y16600D01*
X-113105Y-63898D02*
X-113077Y-63927D01*
Y-66598D02*
Y-63927D01*
Y-66598D02*
X-110683Y-68992D01*
X-87980Y-66055D02*
Y-61980D01*
X-122613Y-88828D02*
X-122557Y-88877D01*
X-121888D02*
X-120426Y-87415D01*
X-119083Y-88807D02*
X-119034D01*
X-112075Y-70433D02*
Y-70384D01*
X-110683Y-69041D02*
Y-68992D01*
X-113516Y-71825D02*
X-113467D01*
X-90917Y-68992D02*
X-87980Y-66055D01*
X-90917Y-69041D02*
Y-68992D01*
X-86741Y-92983D02*
X-86692D01*
X7600Y-69900D02*
X26313D01*
X11700Y-65800D02*
X14300Y-68400D01*
X25692D01*
X31091Y-63000D01*
X26313Y-69900D02*
X30513Y-65700D01*
X3400D02*
X7600Y-69900D01*
X8900Y-63000D02*
X11700Y-65800D01*
X30513Y-65700D02*
X35900D01*
X31091Y-63000D02*
X37901D01*
X103543Y-7527D02*
Y-2522D01*
X102300Y-1279D02*
X103543Y-2522D01*
X-85349Y-74609D02*
X-72900Y-62160D01*
X-57800Y-48100D02*
X67400D01*
X88600Y-26900D01*
X93000D01*
X95866Y-29766D01*
Y-35873D02*
Y-29766D01*
X-57400Y-69900D02*
X-38687D01*
X-69453Y-64280D02*
Y-54871D01*
X-82565Y-77393D02*
X-69453Y-64280D01*
X-70953Y-62996D02*
Y-52312D01*
X-83957Y-76001D02*
X-70953Y-62996D01*
X-69453Y-54871D02*
X-59900Y-45318D01*
X67138D01*
X-70953Y-52312D02*
X-61400Y-42759D01*
X67138Y-45318D02*
X100984Y-11472D01*
X-61400Y-42759D02*
X67138D01*
X98425Y-11472D01*
X67138Y-40200D02*
X95866Y-11472D01*
Y-7527D01*
X43718Y-61500D02*
X48018Y-65800D01*
X151Y-63000D02*
X8900D01*
X-8300Y-61500D02*
X15800D01*
X20000Y-65700D02*
X24200Y-61500D01*
X-5249Y-68400D02*
X151Y-63000D01*
X-18200Y-68400D02*
X-5249D01*
X-12500Y-65700D02*
X-8300Y-61500D01*
X-427Y-65700D02*
X3400D01*
X48018Y-65800D02*
X53900D01*
X15800Y-61500D02*
X20000Y-65700D01*
X100984Y-11472D02*
Y-7527D01*
X98425Y-11472D02*
Y-7527D01*
X56000Y-7200D02*
X58700Y-9900D01*
X102300Y-1279D02*
Y-900D01*
X127999Y-12272D02*
X128761Y-11510D01*
X48500Y-4000D02*
X61600Y9100D01*
X48000Y-7200D02*
X60400Y5200D01*
X109035Y-7153D02*
Y-3543D01*
X109796Y-2782D01*
X117763D01*
X118524Y-3543D01*
X108661Y-7527D02*
X109035Y-7153D01*
X118524Y-7153D02*
X118898Y-7527D01*
X118524Y-7153D02*
Y-3543D01*
X111594Y-11510D02*
Y-7900D01*
Y-11510D02*
X112355Y-12272D01*
X111221Y-7527D02*
X111594Y-7900D01*
X-34487Y-65700D02*
X-29100D01*
X-38687Y-69900D02*
X-34487Y-65700D01*
X-50700Y-68400D02*
X-39309D01*
X-33909Y-63000D01*
X-53300Y-65800D02*
X-50700Y-68400D01*
X-4627Y-69900D02*
X-427Y-65700D01*
X-24900Y-69900D02*
X-4627D01*
X-29100Y-65700D02*
X-24900Y-69900D01*
X-24299Y-65800D02*
X-20800D01*
X-18200Y-68400D01*
X-21282Y-61500D02*
X-17082Y-65700D01*
X-45000D02*
X-40800Y-61500D01*
X-33909Y-63000D02*
X-27099D01*
X-24299Y-65800D01*
X-40800Y-61500D02*
X-21282D01*
X-17082Y-65700D02*
X-12500D01*
X37901Y-63000D02*
X40701Y-65800D01*
X44200D01*
X24200Y-61500D02*
X43718D01*
X23500Y65400D02*
X29300Y71200D01*
X31500Y65400D02*
X35800Y69700D01*
X54518Y62700D02*
X57901D01*
X47518Y69700D02*
X54518Y62700D01*
X50200Y71200D02*
X56000Y65400D01*
X35800Y69700D02*
X47518D01*
X29300Y71200D02*
X50200D01*
X38118Y68200D02*
X41851D01*
X44651Y65400D01*
X61500Y-4500D02*
X63900Y-6900D01*
X54621Y-4500D02*
X61500D01*
X45400Y-9800D02*
X48000Y-7200D01*
X-104857Y53028D02*
X-104761Y53124D01*
X-107416Y49088D02*
Y53028D01*
X-109975D02*
X-109880Y53124D01*
X-107416Y53028D02*
X-107320Y53124D01*
X-114968Y44365D02*
X-109975Y49358D01*
X-114140Y42365D02*
X-107416Y49088D01*
X-113311Y40365D02*
X-104857Y48819D01*
Y53028D01*
X-132700Y42342D02*
X-131467D01*
X-132700Y37421D02*
X-131467D01*
X-132700Y32500D02*
X-131125D01*
X-132700Y27579D02*
X-131125D01*
X-127806Y35819D02*
Y38254D01*
X-131125Y27579D02*
X-125806Y32898D01*
X-131125Y32500D02*
X-127806Y35819D01*
X-131125Y22658D02*
X-123806Y29976D01*
X-125806Y32898D02*
Y37426D01*
X-123806Y29976D02*
Y36597D01*
X-132700Y12815D02*
X-131125D01*
X-132700Y17736D02*
X-131125D01*
X-132700Y22658D02*
X-131125D01*
X-115796Y46365D02*
X-112534Y49627D01*
X-119695Y46365D02*
X-115796D01*
X-118867Y44365D02*
X-114968D01*
X-118039Y42365D02*
X-114140D01*
X-117210Y40365D02*
X-113311D01*
X-122116Y51694D02*
X-117787D01*
X-131467Y42342D02*
X-122116Y51694D01*
X-127806Y38254D02*
X-119695Y46365D01*
X-125806Y37426D02*
X-118867Y44365D01*
X-121806Y35769D02*
X-117210Y40365D01*
X-131467Y37421D02*
X-120524Y48365D01*
X-123806Y36597D02*
X-118039Y42365D01*
X-117787Y51694D02*
X-117557Y51924D01*
X-120524Y48365D02*
X-116625D01*
X-117557Y51924D02*
Y53124D01*
X-116625Y48365D02*
X-115093Y49897D01*
Y53028D01*
X-114998Y53124D01*
X-112534Y49627D02*
Y53028D01*
X-112439Y53124D01*
X-109975Y49358D02*
Y53028D01*
X61800Y-65800D02*
X65709Y-69709D01*
X53900Y-65800D02*
X61800D01*
X65709Y-69709D02*
Y-69709D01*
X30750Y-1219D02*
X35209Y-5678D01*
X28860Y-4560D02*
X29500Y-3919D01*
X11782Y-7100D02*
X19162Y281D01*
X21481Y-1219D02*
X30750D01*
X15500Y-7200D02*
X21481Y-1219D01*
X32619Y281D02*
X40000Y-7100D01*
X19162Y281D02*
X32619D01*
X35209Y-6127D02*
X38882Y-9800D01*
X45400D01*
X35209Y-6127D02*
Y-5678D01*
X-41500Y65700D02*
X-35780Y71421D01*
X-14620D01*
X-9000Y65800D01*
X17700Y71200D02*
X23500Y65400D01*
X-3600Y71200D02*
X17700D01*
X-9000Y65800D02*
X-3600Y71200D01*
X-18679Y59400D02*
X1400D01*
X7500Y65500D01*
X-25000Y65720D02*
X-18679Y59400D01*
X-17000Y65620D02*
X-12380Y61000D01*
X-818D01*
X6382Y68200D01*
X-19800Y68420D02*
X-17000Y65620D01*
X-17482Y69920D02*
X-10378Y62817D01*
X-4000D01*
X-30815Y65845D02*
X-26740Y69920D01*
X-33370Y65845D02*
X-30815D01*
X-33515Y65700D02*
X-33370Y65845D01*
X-26740Y69920D02*
X-17482D01*
X-31539Y63000D02*
X-26118Y68420D01*
X-19800D01*
X-4000Y62817D02*
X-1017Y65800D01*
X7500Y65500D02*
X13300Y59700D01*
X2883Y69700D02*
X15018D01*
X22018Y62700D01*
X28800D01*
X-1017Y65800D02*
X2883Y69700D01*
X28800Y62700D02*
X31500Y65400D01*
X31118Y61200D02*
X38118Y68200D01*
X19700Y61200D02*
X31118D01*
X15500Y65400D02*
X19700Y61200D01*
X13300Y59700D02*
X34200D01*
X40000Y65500D01*
X-49500Y65656D02*
X-46844Y63000D01*
X-31539D01*
X-57500Y65756D02*
X-53244Y61500D01*
X-29221D02*
X-25000Y65720D01*
X-53244Y61500D02*
X-29221D01*
X6382Y68200D02*
X9351D01*
X12151Y65400D02*
X15500D01*
X9351Y68200D02*
X12151Y65400D01*
X40000Y-7100D02*
X43100Y-4000D01*
X48500D01*
X44651Y65400D02*
X48000D01*
X47821Y-11300D02*
X54621Y-4500D01*
X35600Y-11300D02*
X47821D01*
X33282Y-12800D02*
X50400D01*
X56000Y-7200D01*
X27682D02*
X33282Y-12800D01*
X28800Y-4500D02*
X35600Y-11300D01*
X23500Y-7200D02*
X27682D01*
X7500Y-7100D02*
X11782D01*
X17100Y-13600D02*
X23500Y-7200D01*
X-2600Y-13600D02*
X17100D01*
X-9000Y-7200D02*
X-2600Y-13600D01*
X40100Y2700D02*
X44200Y6800D01*
X37135Y4200D02*
X42435Y9500D01*
X16282Y6800D02*
X20382Y2700D01*
X27349Y6900D02*
X30049Y4200D01*
X49900Y9500D02*
X52500Y6900D01*
X20000D02*
X27349D01*
X42435Y9500D02*
X49900D01*
X20382Y2700D02*
X40100D01*
X30049Y4200D02*
X37135D01*
X31800Y11000D02*
X35900Y6900D01*
X7500Y11000D02*
X31800D01*
X11700Y6800D02*
X16282D01*
X3400Y6900D02*
X7500Y11000D01*
X7600Y2700D02*
X11700Y6800D01*
X-16218Y7021D02*
X-11898Y2700D01*
X17400Y9500D02*
X20000Y6900D01*
X9818Y9500D02*
X17400D01*
X4518Y4200D02*
X9818Y9500D01*
X-12500Y7120D02*
X-5262D01*
X-2341Y4200D01*
X-11898Y2700D02*
X7600D01*
X-2341Y4200D02*
X4518D01*
X-20800Y7021D02*
X-16218D01*
X-920Y11220D02*
X3400Y6900D01*
X-29131Y7608D02*
X-25518Y11220D01*
X-920D01*
X22018Y-4500D02*
X28800D01*
X15218Y-11300D02*
X22018Y-4500D01*
X3100Y-11300D02*
X15218D01*
X-1000Y-7200D02*
X3100Y-11300D01*
X5418Y-9800D02*
X12900D01*
X15500Y-7200D01*
X900Y-500D02*
X7500Y-7100D01*
X-1382Y-3000D02*
X5418Y-9800D01*
X-12800Y-3000D02*
X-1382D01*
X-17000Y-7200D02*
X-12800Y-3000D01*
X-29400Y-11300D02*
X-17282D01*
X-10482Y-4500D02*
X-3700D01*
X-17282Y-11300D02*
X-10482Y-4500D01*
X-14118Y-500D02*
X900D01*
X-20718Y-7100D02*
X-14118Y-500D01*
X-25000Y-7100D02*
X-20718D01*
X-37318Y-7200D02*
X-31718Y-12800D01*
X-14600D02*
X-9000Y-7200D01*
X-3700Y-4500D02*
X-1000Y-7200D01*
X-33500D02*
X-29400Y-11300D01*
X-31718Y-12800D02*
X-14600D01*
X-42618Y-4500D02*
X-32382D01*
X-27082Y-9800D01*
X-19600D01*
X-41500Y-7200D02*
X-37318D01*
X-19600Y-9800D02*
X-17000Y-7200D01*
X-45318D02*
X-42618Y-4500D01*
X-49500Y-7200D02*
X-45318D01*
X-29700Y-2400D02*
X-25000Y-7100D01*
X-53218D02*
X-48518Y-2400D01*
X-29700D01*
X-58583Y-7100D02*
X-53218D01*
X-44699Y3408D02*
X-24413D01*
X-22746Y9720D02*
X-15100D01*
X-37445Y7527D02*
X-34826Y4908D01*
X-45000Y7527D02*
X-37445D01*
X-48818D02*
X-44699Y3408D01*
X-27559Y4908D02*
X-22746Y9720D01*
X-31750Y10227D02*
X-29131Y7608D01*
X-15100Y9720D02*
X-12500Y7120D01*
X-34826Y4908D02*
X-27559D01*
X-58929Y10227D02*
X-31750D01*
X-24413Y3408D02*
X-20800Y7021D01*
X-53300Y7527D02*
X-48818D01*
X-61600Y7556D02*
X-58929Y10227D01*
X-79826Y-17000D02*
X-79563Y-17263D01*
X-101150Y16100D02*
X-95350Y21900D01*
X-101150Y12294D02*
Y16100D01*
X-102483Y10961D02*
X-101150Y12294D01*
X-103205Y10450D02*
X-102694Y10961D01*
X-99650Y6036D02*
Y15479D01*
X-102694Y10961D02*
X-102483D01*
X-95829Y19300D02*
X-79300D01*
X-99650Y15479D02*
X-95829Y19300D01*
X-106949Y10450D02*
X-103205D01*
X-100236Y5450D02*
X-99650Y6036D01*
X-95500Y16600D02*
X-81500D01*
X-106949Y5450D02*
X-100236D01*
X-79300Y19300D02*
X-79200Y19200D01*
X-89620Y-25800D02*
X-72200D01*
X-76149Y-23368D02*
X-74968D01*
X-76282Y-23500D02*
X-76149Y-23368D01*
X-74968D02*
X-74700Y-23100D01*
X-106949Y-7050D02*
X-99250D01*
X-106949Y-4550D02*
X-97850D01*
D15*
X-70100Y-39854D02*
D03*
Y-34146D02*
D03*
D16*
X-76500Y-34047D02*
D03*
Y-39953D02*
D03*
D22*
X129100Y-48962D02*
D03*
Y-44238D02*
D03*
X73100Y-96062D02*
D03*
X73131Y-91338D02*
D03*
D24*
X116238Y24600D02*
D03*
X120962D02*
D03*
X862Y-95000D02*
D03*
X-3862D02*
D03*
X-102638Y70100D02*
D03*
X-107362D02*
D03*
X-102738Y62300D02*
D03*
X-107462D02*
D03*
X116238Y32200D02*
D03*
X120962D02*
D03*
X116238Y17100D02*
D03*
X120962D02*
D03*
X116200Y9500D02*
D03*
X120924D02*
D03*
X111962Y68600D02*
D03*
X107238D02*
D03*
X111962Y90200D02*
D03*
X107238D02*
D03*
D48*
X16600Y-90000D02*
Y-83009D01*
X16590Y-83000D02*
X16600Y-83009D01*
X-19500Y-90000D02*
Y-83091D01*
X-19590Y-83000D02*
X-19500Y-83091D01*
X102321Y-41808D02*
X104192D01*
X104900Y-41100D01*
X102014Y-42114D02*
X102321Y-41808D01*
X99806Y72706D02*
X100306D01*
X103160Y75560D01*
X99500Y72400D02*
X99806Y72706D01*
X118681Y66716D02*
X122305Y70339D01*
X-9214Y-95595D02*
Y-95168D01*
X-9291Y-95671D02*
X-9214Y-95595D01*
X-9047Y-95000D02*
X-3862D01*
X-9214Y-95168D02*
X-9047Y-95000D01*
X124100Y-2900D02*
Y74D01*
X124163Y137D01*
X-117429Y-52154D02*
Y-50839D01*
X-118800Y-53525D02*
X-117429Y-52154D01*
Y-50839D02*
X-117352Y-50762D01*
X-99524Y-52202D02*
Y-50677D01*
Y-52202D02*
X-98000Y-53725D01*
X-99600Y-50600D02*
X-99524Y-50677D01*
X88593Y18224D02*
X94070D01*
X94393Y17900D02*
X102847D01*
X94070Y18224D02*
X94393Y17900D01*
X104019Y19072D02*
Y22032D01*
X102847Y17900D02*
X104019Y19072D01*
X-106960Y461D02*
X-106949Y450D01*
X-114028Y461D02*
X-106960D01*
X-114467Y900D02*
X-114028Y461D01*
X-114900Y900D02*
X-114467D01*
X13299Y-85150D02*
X15449Y-83000D01*
X13299Y-86291D02*
Y-85150D01*
X4591Y-95000D02*
X13299Y-86291D01*
X15449Y-83000D02*
X16590D01*
X104019Y22032D02*
X104200Y22213D01*
X129189Y-49051D02*
X133646D01*
X129100Y-48962D02*
X129189Y-49051D01*
X133646D02*
X133735Y-49139D01*
X115600Y-81900D02*
X118700Y-78800D01*
X-107412Y69755D02*
X-107362Y69805D01*
X-109461Y67706D02*
X-107412Y69755D01*
Y62350D02*
Y69755D01*
X-112200Y67400D02*
X-111894Y67706D01*
X-109461D01*
X-107362Y69805D02*
Y70100D01*
X-107462Y62300D02*
X-107412Y62350D01*
X-18409Y-83000D02*
X-16260Y-85150D01*
X862Y-95000D02*
X4591D01*
X104231Y41135D02*
X107476Y39970D01*
X103900Y39970D02*
X107476Y39970D01*
X103900Y39970D02*
X104231Y41135D01*
X22600Y-26400D02*
X48500D01*
X18600Y-30400D02*
X22600Y-26400D01*
X-7400Y-30400D02*
X18600D01*
X113721Y88147D02*
X122500D01*
X118185Y81454D02*
X122500D01*
X116760Y82879D02*
X118185Y81454D01*
X122550Y75311D02*
Y81403D01*
X111962Y89905D02*
Y90200D01*
Y89905D02*
X113721Y88147D01*
X114109Y82879D02*
X116760D01*
X113947Y83040D02*
X114109Y82879D01*
X122500Y81454D02*
X122550Y81403D01*
Y75311D02*
X122600Y75261D01*
X122305Y70339D02*
X122600D01*
X103160Y75560D02*
X104853D01*
X97926Y68600D02*
X107238D01*
X93900Y72626D02*
X97926Y68600D01*
X91150Y77750D02*
X93900Y75000D01*
Y72626D02*
Y75000D01*
X111486Y90676D02*
Y102214D01*
X111200Y102500D02*
X111486Y102214D01*
Y90676D02*
X111962Y90200D01*
X107717Y82879D02*
X111135Y79461D01*
X104853Y83040D02*
X105014Y82879D01*
X113786Y79461D02*
X113947Y79300D01*
X111135Y79461D02*
X113786D01*
X105014Y82879D02*
X107717D01*
X91150Y77750D02*
Y79500D01*
X111962Y68895D02*
X113947Y70880D01*
Y75560D01*
X111962Y68600D02*
Y68895D01*
X-80600Y-11700D02*
X-55700Y-36600D01*
X-40900D02*
X-37800Y-33500D01*
X-55700Y-36600D02*
X-40900D01*
X-49200Y-26400D02*
X-49000Y-26200D01*
X-45700Y-30000D02*
X-42100Y-26400D01*
X-78400Y-5900D02*
X-54300Y-30000D01*
X-45700D01*
X-54200Y-26400D02*
X-49200D01*
X-76900Y-3700D02*
X-54200Y-26400D01*
X-55536Y-32900D02*
X-42900D01*
X-79368Y-9068D02*
X-55536Y-32900D01*
X-67181Y13519D02*
X-42681D01*
X-76000Y4700D02*
X-67181Y13519D01*
X-78900Y9500D02*
X-68000Y20400D01*
X-47100D01*
X-67965Y16700D02*
X-45100D01*
X-77659Y7006D02*
X-67965Y16700D01*
X-69036Y24200D02*
X-49000D01*
X-80664Y12572D02*
X-69036Y24200D01*
X-37800Y-33500D02*
X-10500D01*
X-7400Y-30400D01*
X-13700D02*
X-9700Y-26400D01*
X16000D01*
X-40400Y-30400D02*
X-13700D01*
X-42900Y-32900D02*
X-40400Y-30400D01*
X-42100Y-26400D02*
X-16500D01*
X-47100Y20400D02*
X-43335Y24165D01*
X-45100Y16700D02*
X-41700Y20100D01*
X-42681Y13519D02*
X-39600Y16600D01*
X-14200Y20100D02*
X-10100Y24200D01*
X16000D01*
X21944Y23944D02*
X48500D01*
X-12000Y16600D02*
X-8200Y20400D01*
X18400D01*
X21944Y23944D01*
X-41700Y20100D02*
X-14200D01*
X-43335Y24165D02*
X-16500D01*
X-39600Y16600D02*
X-12000D01*
D49*
X-110100Y25644D02*
X-109880Y25864D01*
Y30876D01*
X-110100Y25400D02*
Y25644D01*
X104900Y-41100D02*
X105979Y-40021D01*
Y-35996D01*
X-76776Y-39676D02*
X-76500Y-39953D01*
X-80624Y-39676D02*
X-76776D01*
X-80900Y-39400D02*
X-80624Y-39676D01*
X-76451Y-34096D02*
X-70149D01*
X-70100Y-34146D01*
X-76500Y-34047D02*
X-76451Y-34096D01*
X-71122Y-40876D02*
Y-40384D01*
X-77000Y-46754D02*
X-71122Y-40876D01*
X-70592Y-39854D02*
X-70100D01*
X-71122Y-40384D02*
X-70592Y-39854D01*
X-77000Y-62300D02*
Y-46754D01*
X-78762Y-94200D02*
X-78518D01*
X-80000Y-93200D02*
X-79762D01*
X-78762Y-94200D01*
X-126200Y-88828D02*
X-122613D01*
X126698Y-3206D02*
X130154Y249D01*
X126575Y-7527D02*
X126698Y-7403D01*
Y-3206D01*
X124100Y-7442D02*
Y-2900D01*
X124016Y-7527D02*
X124100Y-7442D01*
X66802Y-99198D02*
X69669D01*
X66400Y-99600D02*
X66802Y-99198D01*
X72805Y-96062D02*
X73100D01*
X69669Y-99198D02*
X72805Y-96062D01*
X73100D02*
X73149Y-96111D01*
X81451D02*
X81500Y-96160D01*
X73149Y-96111D02*
X81451D01*
X113837Y-71747D02*
X119484D01*
X120232Y-71000D01*
X120800D01*
X-87990Y389D02*
X-73989D01*
X-73900Y300D01*
X-88051Y450D02*
X-87990Y389D01*
X-84470Y3011D02*
X-77689D01*
X-76000Y4700D01*
X-88051Y-2050D02*
X-78550D01*
X-76900Y-3700D01*
X-99950Y56578D02*
X-99644Y56272D01*
X-102738Y62005D02*
X-99950Y59217D01*
Y56578D02*
Y59217D01*
X-99644Y53124D02*
Y56272D01*
X129117Y-44221D02*
X129219Y-44119D01*
X129100Y-44238D02*
X129117Y-44221D01*
X129219Y-44119D02*
X133381D01*
X133500Y-44000D01*
X129117Y-35890D02*
X129134Y-35873D01*
X129117Y-44221D02*
Y-35890D01*
X113831Y-83487D02*
X115418Y-81900D01*
X113831Y-87231D02*
Y-83487D01*
X113794Y-87269D02*
X113831Y-87231D01*
X102576Y-83190D02*
Y-82622D01*
X103520Y-87231D02*
Y-84135D01*
Y-87231D02*
X103558Y-87269D01*
X102576Y-83190D02*
X103520Y-84135D01*
X-99644Y53124D02*
X-99643Y53124D01*
X-102688Y62350D02*
Y70050D01*
X-102738Y62300D02*
X-102688Y62350D01*
Y70050D02*
X-102638Y70100D01*
X-102738Y62005D02*
Y62300D01*
X-109880Y30876D02*
X-109880Y30876D01*
X-117556Y26401D02*
Y30876D01*
X-117557Y30876D02*
X-117556Y30876D01*
X-109880Y30876D02*
X-107320D01*
X-99643Y53000D02*
Y53124D01*
Y53000D02*
X-99643Y53000D01*
X-96600D01*
X-84470Y-4611D02*
X-79689D01*
X-78400Y-5900D01*
X-88051Y5450D02*
X-79215D01*
X-77659Y7006D01*
X106201Y-799D02*
X106300Y-700D01*
X106102Y-7527D02*
X106201Y-7428D01*
Y-799D01*
X105979Y-35996D02*
X106102Y-35873D01*
X-81250Y-7050D02*
X-79368Y-8932D01*
X-88051Y-7050D02*
X-81250D01*
X-79368Y-9068D02*
Y-8932D01*
X-87990Y-9611D02*
X-82689D01*
X-80600Y-11700D01*
X-88051Y7950D02*
X-80450D01*
X-78900Y9500D01*
X-88051Y-9550D02*
X-87990Y-9611D01*
Y10511D02*
X-82724D01*
X-80664Y12572D01*
X-88051Y10450D02*
X-87990Y10511D01*
D50*
X121000Y-41800D02*
X121228Y-41572D01*
Y-36102D02*
X121457Y-35873D01*
X121228Y-41572D02*
Y-36102D01*
X124016Y-35873D02*
X124308Y-36165D01*
Y-41508D02*
X124600Y-41800D01*
X124308Y-41508D02*
Y-36165D01*
D51*
X49900Y39600D02*
X71043Y60743D01*
X83590Y19410D02*
X83800Y19200D01*
X83590Y19410D02*
Y20677D01*
X80800Y23466D02*
Y23663D01*
Y23466D02*
X83590Y20677D01*
D52*
X133485Y56715D02*
Y61515D01*
X124661Y70339D02*
X133485Y61515D01*
Y56715D02*
X133600Y56600D01*
X122600Y70339D02*
X124661D01*
X-82400Y34500D02*
X50700D01*
X-71000Y39600D02*
X49900D01*
X71276Y13924D02*
X94461D01*
X50700Y34500D02*
X71276Y13924D01*
X94461D02*
X94638Y14100D01*
X94800D01*
D54*
X116121Y102500D02*
D03*
X121043D02*
D03*
X111200D02*
D03*
X106279D02*
D03*
D55*
X-62000Y-81000D02*
D03*
X-57000D02*
D03*
X-52000D02*
D03*
X-47000D02*
D03*
X-42000D02*
D03*
X-62000Y-86000D02*
D03*
X-57000D02*
D03*
X-52000D02*
D03*
X-47000D02*
D03*
X-42000D02*
D03*
D56*
X86614Y-47244D02*
D03*
X-86614D02*
D03*
Y47244D02*
D03*
X86614D02*
D03*
D57*
X-132700Y57106D02*
D03*
Y52185D02*
D03*
Y47264D02*
D03*
Y42342D02*
D03*
Y37421D02*
D03*
Y32500D02*
D03*
Y27579D02*
D03*
Y22658D02*
D03*
Y17736D02*
D03*
Y12815D02*
D03*
Y7894D02*
D03*
D58*
Y2972D02*
D03*
D59*
X-110100Y25400D02*
D03*
X4500Y-85900D02*
D03*
X37000Y-90900D02*
D03*
X59500Y-95900D02*
D03*
Y-75900D02*
D03*
X129500D02*
D03*
X137000Y-40900D02*
D03*
X42000Y-90900D02*
D03*
X112000Y-20900D02*
D03*
X47000Y-80900D02*
D03*
X79500Y-5900D02*
D03*
X9500Y-105900D02*
D03*
X-500D02*
D03*
X-5500Y-85900D02*
D03*
X-20500Y-95900D02*
D03*
X-30500Y-105900D02*
D03*
X-50500D02*
D03*
X47000Y-90900D02*
D03*
X-63000Y-110900D02*
D03*
X124500Y-65900D02*
D03*
X-70500Y4100D02*
D03*
X-10500Y-105900D02*
D03*
X-138000Y-110900D02*
D03*
X134500Y-65900D02*
D03*
X-58000Y-110900D02*
D03*
X134500Y-25900D02*
D03*
X107000Y-20900D02*
D03*
X117000D02*
D03*
X-500Y-85900D02*
D03*
X82000Y-70900D02*
D03*
X44500Y-85900D02*
D03*
X-15500Y-105900D02*
D03*
X137000Y-10900D02*
D03*
X-35500Y-95900D02*
D03*
X-138000Y-900D02*
D03*
X137000Y-20900D02*
D03*
X132000Y-70900D02*
D03*
X-123000Y-120900D02*
D03*
X124500Y-55900D02*
D03*
X29500Y-75900D02*
D03*
X-58000Y-90900D02*
D03*
X-28000D02*
D03*
X-93000Y-30900D02*
D03*
X77000Y-50900D02*
D03*
X24500Y-75900D02*
D03*
X57000Y-100900D02*
D03*
X52000Y-80900D02*
D03*
X77000Y-70900D02*
D03*
X39500Y-85900D02*
D03*
X-8000Y-80900D02*
D03*
X57000D02*
D03*
X-83000Y-60900D02*
D03*
X-35500Y-105900D02*
D03*
X137000Y-80900D02*
D03*
X114500Y-15900D02*
D03*
X-133000Y-120900D02*
D03*
X14500Y-105900D02*
D03*
X129500Y-65900D02*
D03*
X-85500Y-55900D02*
D03*
X-25500Y-105900D02*
D03*
X132000Y-80900D02*
D03*
X-10500Y-75900D02*
D03*
X-105500Y-115900D02*
D03*
X-88000Y29100D02*
D03*
X2000Y-80900D02*
D03*
X134500Y-55900D02*
D03*
X9500Y-95900D02*
D03*
X32000Y-90900D02*
D03*
X-130500Y-115900D02*
D03*
X-110500D02*
D03*
X62000Y-100900D02*
D03*
X137000Y-30900D02*
D03*
X39500Y-95900D02*
D03*
X82000Y-20900D02*
D03*
X-90500Y-115900D02*
D03*
X49500Y-85900D02*
D03*
X72000Y-70900D02*
D03*
X-80500Y-115900D02*
D03*
X-138000Y19100D02*
D03*
X137000Y-90900D02*
D03*
X79500Y-65900D02*
D03*
X134500Y-85900D02*
D03*
X-40500Y-105900D02*
D03*
X-48000Y-110900D02*
D03*
X124500Y-75900D02*
D03*
X14500Y-95900D02*
D03*
X-43000Y-110900D02*
D03*
X-33000Y-90900D02*
D03*
X-53000Y-110900D02*
D03*
X-90500Y-35900D02*
D03*
X137000Y-60900D02*
D03*
X29500Y-85900D02*
D03*
X19500Y-105900D02*
D03*
X-73000Y29100D02*
D03*
X-90500Y-55900D02*
D03*
X-93000Y29100D02*
D03*
X-95500Y-35900D02*
D03*
X84500Y-55900D02*
D03*
X77000Y-10900D02*
D03*
X27000Y-80900D02*
D03*
X137000Y-50900D02*
D03*
X-80500Y-55900D02*
D03*
X134500Y-75900D02*
D03*
X-138000Y29100D02*
D03*
X64500Y-75900D02*
D03*
X127000Y-70900D02*
D03*
X29500Y-95900D02*
D03*
X-5500Y-75900D02*
D03*
X132000Y-20900D02*
D03*
X134500Y-5900D02*
D03*
X129500Y-55900D02*
D03*
X62000Y-90900D02*
D03*
X-33000Y-70900D02*
D03*
X-108000Y-120900D02*
D03*
X-118000D02*
D03*
X79500Y-15900D02*
D03*
X-135500Y-5900D02*
D03*
X64500Y-95900D02*
D03*
X84500Y-35900D02*
D03*
X-100500Y-115900D02*
D03*
X34500Y-95900D02*
D03*
X54500Y-75900D02*
D03*
X-15500Y-95900D02*
D03*
X24500Y-85900D02*
D03*
X52000Y-100900D02*
D03*
X14500Y-75900D02*
D03*
X-88000Y-30900D02*
D03*
X-138000Y-10900D02*
D03*
X24500Y-95900D02*
D03*
X127000Y-80900D02*
D03*
X7000D02*
D03*
X-135500Y-115900D02*
D03*
X129500Y-15900D02*
D03*
X39500Y-75900D02*
D03*
X132000Y-60900D02*
D03*
X37000Y-80900D02*
D03*
X-113000Y-120900D02*
D03*
X-128000D02*
D03*
X-138000D02*
D03*
X127000Y-60900D02*
D03*
X129500Y-25900D02*
D03*
X-95500Y-115900D02*
D03*
X42000Y-80900D02*
D03*
X74500Y4100D02*
D03*
Y-65900D02*
D03*
X4500Y-75900D02*
D03*
X97000Y-50900D02*
D03*
X4500Y-105900D02*
D03*
X49500Y-75900D02*
D03*
X44500D02*
D03*
X-45500Y-105900D02*
D03*
X19500Y-95900D02*
D03*
X-133000Y-110900D02*
D03*
X104500Y-15900D02*
D03*
X44500Y-95900D02*
D03*
X22000Y-90900D02*
D03*
X-20500Y-105900D02*
D03*
X-93000Y-40900D02*
D03*
X-10500Y-85900D02*
D03*
X82000Y-10900D02*
D03*
X9500Y-75900D02*
D03*
X134500Y-15900D02*
D03*
X109500D02*
D03*
X-500Y-75900D02*
D03*
X34500D02*
D03*
X-85500Y-115900D02*
D03*
X34500Y-85900D02*
D03*
X32000Y-80900D02*
D03*
X127000Y-20900D02*
D03*
X77000D02*
D03*
X27000Y-90900D02*
D03*
X19500Y-75900D02*
D03*
X-68000Y-110900D02*
D03*
X-95500Y-45900D02*
D03*
X137000Y-70900D02*
D03*
X-3000Y-80900D02*
D03*
X54500Y-85900D02*
D03*
X-30500Y-95900D02*
D03*
X-5500Y-105900D02*
D03*
X-138000Y9100D02*
D03*
X-25500Y-95900D02*
D03*
X16600Y-90000D02*
D03*
X-19500D02*
D03*
X-116800Y-31500D02*
D03*
X-100200Y-31700D02*
D03*
X110000Y-43100D02*
D03*
X-94960Y8961D02*
D03*
X-101200Y-12489D02*
D03*
X-61600Y-65700D02*
D03*
X-77000Y-62300D02*
D03*
X-78518Y-94200D02*
D03*
X-84345Y-98413D02*
D03*
X-82000Y-95900D02*
D03*
X121000Y-41800D02*
D03*
X-100600Y-103500D02*
D03*
X125096Y-47879D02*
D03*
X124600Y-41800D02*
D03*
X-20800Y400D02*
D03*
X11700D02*
D03*
X44200Y500D02*
D03*
X-9291Y-95671D02*
D03*
X-124246Y-104578D02*
D03*
X-121814Y-107205D02*
D03*
X-127900Y-96300D02*
D03*
X-130407Y-98803D02*
D03*
X-123422Y-91874D02*
D03*
X-126200Y-88828D02*
D03*
X-116710Y-111790D02*
D03*
X-119114Y-109386D02*
D03*
X-135400Y-103800D02*
D03*
X-132900Y-101300D02*
D03*
X-117352Y-50762D02*
D03*
X-99600Y-50600D02*
D03*
X-104600Y41700D02*
D03*
X-77400Y-20800D02*
D03*
X-116899Y25500D02*
D03*
X64000Y65400D02*
D03*
X-76500Y21900D02*
D03*
X-118103Y-69015D02*
D03*
X-119563Y-65927D02*
D03*
X-115846Y-66352D02*
D03*
X-114475Y35519D02*
D03*
X-95600Y47600D02*
D03*
X-97000Y57800D02*
D03*
X71150Y5200D02*
D03*
X71100Y-2600D02*
D03*
X71150Y9000D02*
D03*
Y1400D02*
D03*
X94226Y9000D02*
D03*
X97977Y-57841D02*
D03*
X-113500Y25400D02*
D03*
X-96600Y53000D02*
D03*
X-112100Y-18000D02*
D03*
X-113105Y-63898D02*
D03*
X-87980Y-61980D02*
D03*
X-81684Y-66700D02*
D03*
X109800Y-25900D02*
D03*
X3400Y-65700D02*
D03*
X20000D02*
D03*
X102300Y-900D02*
D03*
X-29100Y-65700D02*
D03*
X35900D02*
D03*
X63900Y-6900D02*
D03*
X65709Y-69709D02*
D03*
X29500Y-3919D02*
D03*
X53900Y-65800D02*
D03*
X-9000Y65800D02*
D03*
X-17000Y65620D02*
D03*
X23500Y65400D02*
D03*
X-33515Y65700D02*
D03*
X-41500D02*
D03*
X-25000Y65720D02*
D03*
X-1017Y65800D02*
D03*
X-49500Y65656D02*
D03*
X31500Y65400D02*
D03*
X56000Y-7200D02*
D03*
Y65400D02*
D03*
X48000Y-7200D02*
D03*
X40000Y-7100D02*
D03*
X35900Y6900D02*
D03*
X11700Y6800D02*
D03*
X7500Y-7100D02*
D03*
X-25000D02*
D03*
X-33500Y-7200D02*
D03*
X-29131Y7608D02*
D03*
X-45000Y7527D02*
D03*
X-79563Y-17263D02*
D03*
X-53300Y7527D02*
D03*
X-61600Y7556D02*
D03*
X-79200Y19200D02*
D03*
X-81500Y16600D02*
D03*
X-74700Y-23100D02*
D03*
X-1000Y-7200D02*
D03*
X-9000D02*
D03*
X-41500D02*
D03*
X-17000D02*
D03*
X-49500D02*
D03*
X-72200Y-25800D02*
D03*
X-58583Y-7100D02*
D03*
X-20800Y-65800D02*
D03*
X-53300D02*
D03*
X11700D02*
D03*
X44200D02*
D03*
X-12500Y-65700D02*
D03*
X-45000D02*
D03*
X23500Y-7200D02*
D03*
X15500D02*
D03*
X-57500Y65756D02*
D03*
X-20800Y7021D02*
D03*
X3400Y6900D02*
D03*
X20000D02*
D03*
X-12500Y7120D02*
D03*
X7500Y65500D02*
D03*
X15500Y65400D02*
D03*
X48000D02*
D03*
X40000Y65500D02*
D03*
X44200Y6800D02*
D03*
X52500Y6900D02*
D03*
D60*
X127400Y40300D02*
D03*
X127300Y50800D02*
D03*
X133600Y56600D02*
D03*
X127300Y59300D02*
D03*
X102014Y-42114D02*
D03*
X-71200Y-93100D02*
D03*
X-66400D02*
D03*
X-80900Y-39400D02*
D03*
X99500Y72400D02*
D03*
X80100Y82600D02*
D03*
X126700Y17900D02*
D03*
X88593Y18224D02*
D03*
X134200Y90800D02*
D03*
X102500Y91100D02*
D03*
X124163Y137D02*
D03*
X-71000Y39600D02*
D03*
X-82400Y34500D02*
D03*
X83800Y19200D02*
D03*
X-114900Y900D02*
D03*
X66400Y-99600D02*
D03*
X120800Y-71000D02*
D03*
X-73900Y300D02*
D03*
X-105400Y-21500D02*
D03*
X94800Y14100D02*
D03*
X126600Y24400D02*
D03*
Y32100D02*
D03*
X94000Y-1000D02*
D03*
X133735Y-49139D02*
D03*
X98200Y-26300D02*
D03*
X133500Y-44000D02*
D03*
X118700Y-78800D02*
D03*
X102576Y-82622D02*
D03*
X-112200Y67400D02*
D03*
X106300Y-700D02*
D03*
X130154Y249D02*
D03*
X72500Y96600D02*
D03*
Y106900D02*
D03*
X-49000Y-26200D02*
D03*
X-16500Y-26400D02*
D03*
X48500D02*
D03*
X16000D02*
D03*
X-16500Y24165D02*
D03*
X48500Y23944D02*
D03*
X16000Y24200D02*
D03*
X-49000D02*
D03*
D61*
X112936Y51000D02*
D03*
X123664D02*
D03*
Y60400D02*
D03*
X112936D02*
D03*
D62*
X105276Y-48700D02*
D03*
X110000D02*
D03*
X114724D02*
D03*
D63*
X89807Y96600D02*
D03*
X78193D02*
D03*
X112493Y40500D02*
D03*
X124107D02*
D03*
X78093Y106800D02*
D03*
X89707D02*
D03*
D64*
X-83957Y-90199D02*
D03*
X-96485Y-102726D02*
D03*
X-90917Y-97159D02*
D03*
X-89525Y-95767D02*
D03*
X-105115Y-63474D02*
D03*
X-106507Y-64866D02*
D03*
X-107899Y-66258D02*
D03*
X-109291Y-67649D02*
D03*
X-110683Y-69041D02*
D03*
X-112075Y-70433D02*
D03*
X-113467Y-71825D02*
D03*
X-114859Y-73217D02*
D03*
X-116251Y-74609D02*
D03*
X-117642Y-76001D02*
D03*
X-119034Y-77393D02*
D03*
X-120426Y-78785D02*
D03*
X-95093Y-101335D02*
D03*
X-93701Y-99942D02*
D03*
X-92309Y-98551D02*
D03*
X-88133Y-94375D02*
D03*
X-86741Y-92983D02*
D03*
X-85349Y-91591D02*
D03*
X-82565Y-88807D02*
D03*
X-81174Y-87415D02*
D03*
D65*
X-105115Y-102726D02*
D03*
X-120426Y-87415D02*
D03*
X-119034Y-88807D02*
D03*
X-117642Y-90199D02*
D03*
X-116251Y-91591D02*
D03*
X-114859Y-92983D02*
D03*
X-113467Y-94375D02*
D03*
X-112075Y-95767D02*
D03*
X-110683Y-97159D02*
D03*
X-109291Y-98551D02*
D03*
X-107899Y-99942D02*
D03*
X-106507Y-101335D02*
D03*
X-81174Y-78785D02*
D03*
X-82565Y-77393D02*
D03*
X-83957Y-76001D02*
D03*
X-85349Y-74609D02*
D03*
X-86741Y-73217D02*
D03*
X-88133Y-71825D02*
D03*
X-89525Y-70433D02*
D03*
X-90917Y-69041D02*
D03*
X-92309Y-67649D02*
D03*
X-93701Y-66258D02*
D03*
X-95093Y-64866D02*
D03*
X-96485Y-63474D02*
D03*
D66*
X-98000Y-56875D02*
D03*
Y-53725D02*
D03*
X-118800Y-53525D02*
D03*
Y-56675D02*
D03*
D67*
X80800Y23663D02*
D03*
X84540Y31537D02*
D03*
X77060D02*
D03*
X122500Y88147D02*
D03*
Y81454D02*
D03*
D68*
X-99643Y30876D02*
D03*
D69*
X-102202D02*
D03*
X-104761D02*
D03*
X-107320D02*
D03*
X-109880D02*
D03*
X-112439D02*
D03*
X-114998D02*
D03*
X-117557D02*
D03*
Y53124D02*
D03*
X-114998D02*
D03*
X-112439D02*
D03*
X-109880D02*
D03*
X-107320D02*
D03*
X-104761D02*
D03*
X-102202D02*
D03*
X-99643D02*
D03*
D70*
X-19590Y-83000D02*
D03*
D71*
X16590D02*
D03*
D72*
X113837Y-71747D02*
D03*
D73*
Y-78440D02*
D03*
X105963D02*
D03*
Y-70960D02*
D03*
D74*
X-106949Y-14550D02*
D03*
Y-12050D02*
D03*
Y-9550D02*
D03*
Y-7050D02*
D03*
Y-4550D02*
D03*
Y-2050D02*
D03*
Y450D02*
D03*
Y2950D02*
D03*
Y5450D02*
D03*
Y7950D02*
D03*
Y10450D02*
D03*
Y12950D02*
D03*
X-88051Y-14550D02*
D03*
Y-12050D02*
D03*
Y-9550D02*
D03*
Y-7050D02*
D03*
Y-4550D02*
D03*
Y-2050D02*
D03*
Y450D02*
D03*
Y2950D02*
D03*
Y5450D02*
D03*
Y7950D02*
D03*
Y10450D02*
D03*
Y12950D02*
D03*
D75*
X-103364Y-55200D02*
D03*
X-113600D02*
D03*
D76*
X-108482Y-30594D02*
D03*
D77*
X93715Y-97800D02*
D03*
X123636D02*
D03*
X103951D02*
D03*
X113400D02*
D03*
D78*
X96471Y-87761D02*
D03*
X120880D02*
D03*
D79*
X103558Y-87269D02*
D03*
X106116D02*
D03*
X108676D02*
D03*
X111235D02*
D03*
X113794D02*
D03*
D80*
X129134Y-7527D02*
D03*
X126575D02*
D03*
X124016D02*
D03*
X121457D02*
D03*
X118898D02*
D03*
X116339D02*
D03*
X113779D02*
D03*
X111221D02*
D03*
X108661D02*
D03*
X106102D02*
D03*
X103543D02*
D03*
X100984D02*
D03*
X98425D02*
D03*
X95866D02*
D03*
Y-35873D02*
D03*
X98425D02*
D03*
X100984D02*
D03*
X103543D02*
D03*
X106102D02*
D03*
X108661D02*
D03*
X111221D02*
D03*
X113779D02*
D03*
X116339D02*
D03*
X118898D02*
D03*
X121457D02*
D03*
X124016D02*
D03*
X126575D02*
D03*
X129134D02*
D03*
D81*
X100460Y22213D02*
D03*
X104200D02*
D03*
X107940D02*
D03*
Y11387D02*
D03*
X100460D02*
D03*
D82*
X122600Y75261D02*
D03*
Y70339D02*
D03*
D83*
X72050Y79500D02*
D03*
X91150D02*
D03*
D84*
X81500Y-96160D02*
D03*
Y-90640D02*
D03*
D85*
X103900Y51230D02*
D03*
Y39970D02*
D03*
D86*
X104853Y75560D02*
D03*
Y79300D02*
D03*
Y83040D02*
D03*
X113947D02*
D03*
Y79300D02*
D03*
Y75560D02*
D03*
D87*
X-110523Y-109439D02*
X-75379D01*
X-109767Y-111263D02*
X-74623D01*
X-66548Y-103188D02*
X44492D01*
X-67304Y-101364D02*
X43736D01*
X-115586Y-114502D02*
X-110523Y-109439D01*
X-74623Y-111263D02*
X-66548Y-103188D01*
X43736Y-101364D02*
X67367Y-77733D01*
X-75379Y-109439D02*
X-67304Y-101364D01*
X44492Y-103188D02*
X68123Y-79557D01*
X-114831Y-116327D02*
X-109767Y-111263D01*
X98284Y-73898D02*
X108665D01*
X110812Y-76046D01*
Y-77840D02*
Y-76046D01*
X108988Y-77840D02*
Y-76801D01*
X107909Y-75723D02*
X108988Y-76801D01*
X108388Y-78440D02*
X108988Y-77840D01*
X110812D02*
X111412Y-78440D01*
X99039Y-75723D02*
X107909D01*
X68123Y-79557D02*
X95205D01*
X110812Y-79040D02*
X111412Y-78440D01*
X110812Y-80202D02*
Y-79040D01*
X110959Y-86993D02*
Y-83935D01*
X110867Y-83842D02*
X110959Y-83935D01*
Y-86993D02*
X111235Y-87269D01*
X110812Y-80202D02*
X110867Y-80257D01*
Y-83842D02*
Y-80257D01*
X67367Y-77733D02*
X94449D01*
X-116293Y-91591D02*
X-116251D01*
X-118181Y-93479D02*
X-116293Y-91591D01*
X-128300Y-103547D02*
X-118232Y-93479D01*
X-118181D01*
X-128300Y-108700D02*
X-122498Y-114502D01*
X-128300Y-108700D02*
Y-103547D01*
X-122498Y-114502D02*
X-115586D01*
X108988Y-80957D02*
Y-79040D01*
X108388Y-78440D02*
X108988Y-79040D01*
X109043Y-83842D02*
Y-81012D01*
X108988Y-80957D02*
X109043Y-81012D01*
X108951Y-83935D02*
X109043Y-83842D01*
X108951Y-86993D02*
Y-83935D01*
X108676Y-87269D02*
X108951Y-86993D01*
X-117642Y-90241D02*
Y-90199D01*
X-119530Y-92129D02*
X-117642Y-90241D01*
X-119530Y-92180D02*
Y-92129D01*
X-119963Y-92612D02*
X-119530Y-92180D01*
X-119963Y-92630D02*
Y-92612D01*
X-123253Y-116327D02*
X-114831D01*
X-130124Y-109456D02*
Y-102792D01*
X-119963Y-92630D01*
X-130124Y-109456D02*
X-123253Y-116327D01*
X94449Y-77733D02*
X98284Y-73898D01*
X111412Y-78440D02*
X113837D01*
X95205Y-79557D02*
X99039Y-75723D01*
X105963Y-78440D02*
X108388D01*
X-82056Y-66700D02*
X-81684D01*
X-83469Y-68113D02*
X-82056Y-66700D01*
X-87163Y-68113D02*
X-83469D01*
X-89483Y-70433D02*
X-87163Y-68113D01*
X-89525Y-70433D02*
X-89483D01*
D88*
X-121485Y-83815D02*
X-117875D01*
X-102907Y-98783D01*
Y-100415D02*
Y-98783D01*
X-105115Y-102623D02*
X-102907Y-100415D01*
X-105115Y-102726D02*
Y-102623D01*
X-116696Y-82515D02*
X-96485Y-102726D01*
X-119229Y-82515D02*
X-116696D01*
X-124027Y-77717D02*
Y-25826D01*
X-119186Y-20987D02*
Y7413D01*
X-124027Y-25826D02*
X-119186Y-20987D01*
X-126500Y-24477D02*
X-121200Y-19177D01*
X-126500Y-78800D02*
Y-24477D01*
Y-78800D02*
X-121485Y-83815D01*
X-124027Y-77717D02*
X-119229Y-82515D01*
X-93255Y-83685D02*
X-76238D01*
X-70073Y-77521D01*
X-91771Y-82385D02*
X-76776D01*
X-70073Y-77521D02*
X-50480D01*
X-70612Y-76221D02*
X-46780D01*
X-76776Y-82385D02*
X-70612Y-76221D01*
X-107899Y-66258D02*
X-91771Y-82385D01*
X-109291Y-67649D02*
X-93255Y-83685D01*
X-95623Y50300D02*
X-94000Y51923D01*
X-95600Y26100D02*
Y47600D01*
X-98300Y45600D02*
X-97694Y44994D01*
X-98300Y45600D02*
Y48577D01*
X-96577Y50300D01*
X-97694Y27121D02*
Y44994D01*
X-94000Y51923D02*
Y54800D01*
X-107214Y17600D02*
X-97694Y27121D01*
X-96577Y50300D02*
X-95623D01*
X-97000Y57800D02*
X-94000Y54800D01*
X-106200Y15500D02*
X-95600Y26100D01*
X-121200Y-19177D02*
Y8100D01*
X-111700Y17600D01*
X-107214D01*
X-111100Y15500D02*
X-106200D01*
X-119186Y7413D02*
X-111100Y15500D01*
X-46780Y-76221D02*
X-42000Y-81000D01*
X-50480Y-77521D02*
X-47000Y-81000D01*
M02*
