G04*
G04 #@! TF.GenerationSoftware,Altium Limited,Altium Designer,22.4.2 (48)*
G04*
G04 Layer_Color=2752767*
%FSLAX25Y25*%
%MOIN*%
G70*
G04*
G04 #@! TF.SameCoordinates,FFA694D2-1829-43A5-BD7A-47FC6BC8C01B*
G04*
G04*
G04 #@! TF.FilePolarity,Positive*
G04*
G01*
G75*
%ADD107C,0.00500*%
%ADD110C,0.00667*%
D107*
X114121Y100500D02*
Y104500D01*
X118121D01*
Y100500D01*
X114121D01*
X119043D02*
Y104500D01*
X123043D01*
Y100500D01*
X119043D01*
X109200D02*
Y104500D01*
X113200D01*
Y100500D01*
X109200D01*
X104279D02*
Y104500D01*
X108279D01*
Y100500D01*
X104279D01*
X86614Y-49244D02*
X84614Y-45244D01*
X88614D01*
X86614Y-49244D01*
X-86614D02*
X-88614Y-45244D01*
X-84614D01*
X-86614Y-49244D01*
Y45244D02*
X-88614Y49244D01*
X-84614D01*
X-86614Y45244D01*
X86614D02*
X84614Y49244D01*
X88614D01*
X86614Y45244D01*
X-132700Y55106D02*
X-131700Y56106D01*
X-130700D01*
X-131700Y57106D01*
X-130700Y58106D01*
X-131700D01*
X-132700Y59106D01*
X-133700Y58106D01*
X-134700D01*
X-133700Y57106D01*
X-134700Y56106D01*
X-133700D01*
X-132700Y55106D01*
Y50185D02*
X-131700Y51185D01*
X-130700D01*
X-131700Y52185D01*
X-130700Y53185D01*
X-131700D01*
X-132700Y54185D01*
X-133700Y53185D01*
X-134700D01*
X-133700Y52185D01*
X-134700Y51185D01*
X-133700D01*
X-132700Y50185D01*
Y45264D02*
X-131700Y46264D01*
X-130700D01*
X-131700Y47264D01*
X-130700Y48264D01*
X-131700D01*
X-132700Y49264D01*
X-133700Y48264D01*
X-134700D01*
X-133700Y47264D01*
X-134700Y46264D01*
X-133700D01*
X-132700Y45264D01*
Y40343D02*
X-131700Y41342D01*
X-130700D01*
X-131700Y42342D01*
X-130700Y43343D01*
X-131700D01*
X-132700Y44342D01*
X-133700Y43343D01*
X-134700D01*
X-133700Y42342D01*
X-134700Y41342D01*
X-133700D01*
X-132700Y40343D01*
Y35421D02*
X-131700Y36421D01*
X-130700D01*
X-131700Y37421D01*
X-130700Y38421D01*
X-131700D01*
X-132700Y39421D01*
X-133700Y38421D01*
X-134700D01*
X-133700Y37421D01*
X-134700Y36421D01*
X-133700D01*
X-132700Y35421D01*
Y30500D02*
X-131700Y31500D01*
X-130700D01*
X-131700Y32500D01*
X-130700Y33500D01*
X-131700D01*
X-132700Y34500D01*
X-133700Y33500D01*
X-134700D01*
X-133700Y32500D01*
X-134700Y31500D01*
X-133700D01*
X-132700Y30500D01*
Y25579D02*
X-131700Y26579D01*
X-130700D01*
X-131700Y27579D01*
X-130700Y28579D01*
X-131700D01*
X-132700Y29579D01*
X-133700Y28579D01*
X-134700D01*
X-133700Y27579D01*
X-134700Y26579D01*
X-133700D01*
X-132700Y25579D01*
Y20658D02*
X-131700Y21657D01*
X-130700D01*
X-131700Y22658D01*
X-130700Y23658D01*
X-131700D01*
X-132700Y24657D01*
X-133700Y23658D01*
X-134700D01*
X-133700Y22658D01*
X-134700Y21657D01*
X-133700D01*
X-132700Y20658D01*
Y15736D02*
X-131700Y16736D01*
X-130700D01*
X-131700Y17736D01*
X-130700Y18736D01*
X-131700D01*
X-132700Y19736D01*
X-133700Y18736D01*
X-134700D01*
X-133700Y17736D01*
X-134700Y16736D01*
X-133700D01*
X-132700Y15736D01*
Y10815D02*
X-131700Y11815D01*
X-130700D01*
X-131700Y12815D01*
X-130700Y13815D01*
X-131700D01*
X-132700Y14815D01*
X-133700Y13815D01*
X-134700D01*
X-133700Y12815D01*
X-134700Y11815D01*
X-133700D01*
X-132700Y10815D01*
Y5894D02*
X-131700Y6894D01*
X-130700D01*
X-131700Y7894D01*
X-130700Y8894D01*
X-131700D01*
X-132700Y9894D01*
X-133700Y8894D01*
X-134700D01*
X-133700Y7894D01*
X-134700Y6894D01*
X-133700D01*
X-132700Y5894D01*
Y972D02*
X-131700Y1972D01*
X-130700D01*
X-131700Y2972D01*
X-130700Y3972D01*
X-131700D01*
X-132700Y4972D01*
X-133700Y3972D01*
X-134700D01*
X-133700Y2972D01*
X-134700Y1972D01*
X-133700D01*
X-132700Y972D01*
X-112100Y23400D02*
X-111100Y25400D01*
X-112100Y27400D01*
X-110100Y26400D01*
X-108100Y27400D01*
X-109100Y25400D01*
X-108100Y23400D01*
X-110100Y24400D01*
X-112100Y23400D01*
X2500Y-87900D02*
X3500Y-85900D01*
X2500Y-83900D01*
X4500Y-84900D01*
X6500Y-83900D01*
X5500Y-85900D01*
X6500Y-87900D01*
X4500Y-86900D01*
X2500Y-87900D01*
X35000Y-92900D02*
X36000Y-90900D01*
X35000Y-88900D01*
X37000Y-89900D01*
X39000Y-88900D01*
X38000Y-90900D01*
X39000Y-92900D01*
X37000Y-91900D01*
X35000Y-92900D01*
X57500Y-97900D02*
X58500Y-95900D01*
X57500Y-93900D01*
X59500Y-94900D01*
X61500Y-93900D01*
X60500Y-95900D01*
X61500Y-97900D01*
X59500Y-96900D01*
X57500Y-97900D01*
Y-77900D02*
X58500Y-75900D01*
X57500Y-73900D01*
X59500Y-74900D01*
X61500Y-73900D01*
X60500Y-75900D01*
X61500Y-77900D01*
X59500Y-76900D01*
X57500Y-77900D01*
X127500D02*
X128500Y-75900D01*
X127500Y-73900D01*
X129500Y-74900D01*
X131500Y-73900D01*
X130500Y-75900D01*
X131500Y-77900D01*
X129500Y-76900D01*
X127500Y-77900D01*
X135000Y-42900D02*
X136000Y-40900D01*
X135000Y-38900D01*
X137000Y-39900D01*
X139000Y-38900D01*
X138000Y-40900D01*
X139000Y-42900D01*
X137000Y-41900D01*
X135000Y-42900D01*
X40000Y-92900D02*
X41000Y-90900D01*
X40000Y-88900D01*
X42000Y-89900D01*
X44000Y-88900D01*
X43000Y-90900D01*
X44000Y-92900D01*
X42000Y-91900D01*
X40000Y-92900D01*
X110000Y-22900D02*
X111000Y-20900D01*
X110000Y-18900D01*
X112000Y-19900D01*
X114000Y-18900D01*
X113000Y-20900D01*
X114000Y-22900D01*
X112000Y-21900D01*
X110000Y-22900D01*
X45000Y-82900D02*
X46000Y-80900D01*
X45000Y-78900D01*
X47000Y-79900D01*
X49000Y-78900D01*
X48000Y-80900D01*
X49000Y-82900D01*
X47000Y-81900D01*
X45000Y-82900D01*
X77500Y-7900D02*
X78500Y-5900D01*
X77500Y-3900D01*
X79500Y-4900D01*
X81500Y-3900D01*
X80500Y-5900D01*
X81500Y-7900D01*
X79500Y-6900D01*
X77500Y-7900D01*
X7500Y-107900D02*
X8500Y-105900D01*
X7500Y-103900D01*
X9500Y-104900D01*
X11500Y-103900D01*
X10500Y-105900D01*
X11500Y-107900D01*
X9500Y-106900D01*
X7500Y-107900D01*
X-2500D02*
X-1500Y-105900D01*
X-2500Y-103900D01*
X-500Y-104900D01*
X1500Y-103900D01*
X500Y-105900D01*
X1500Y-107900D01*
X-500Y-106900D01*
X-2500Y-107900D01*
X-7500Y-87900D02*
X-6500Y-85900D01*
X-7500Y-83900D01*
X-5500Y-84900D01*
X-3500Y-83900D01*
X-4500Y-85900D01*
X-3500Y-87900D01*
X-5500Y-86900D01*
X-7500Y-87900D01*
X-22500Y-97900D02*
X-21500Y-95900D01*
X-22500Y-93900D01*
X-20500Y-94900D01*
X-18500Y-93900D01*
X-19500Y-95900D01*
X-18500Y-97900D01*
X-20500Y-96900D01*
X-22500Y-97900D01*
X-32500Y-107900D02*
X-31500Y-105900D01*
X-32500Y-103900D01*
X-30500Y-104900D01*
X-28500Y-103900D01*
X-29500Y-105900D01*
X-28500Y-107900D01*
X-30500Y-106900D01*
X-32500Y-107900D01*
X-52500D02*
X-51500Y-105900D01*
X-52500Y-103900D01*
X-50500Y-104900D01*
X-48500Y-103900D01*
X-49500Y-105900D01*
X-48500Y-107900D01*
X-50500Y-106900D01*
X-52500Y-107900D01*
X45000Y-92900D02*
X46000Y-90900D01*
X45000Y-88900D01*
X47000Y-89900D01*
X49000Y-88900D01*
X48000Y-90900D01*
X49000Y-92900D01*
X47000Y-91900D01*
X45000Y-92900D01*
X-65000Y-112900D02*
X-64000Y-110900D01*
X-65000Y-108900D01*
X-63000Y-109900D01*
X-61000Y-108900D01*
X-62000Y-110900D01*
X-61000Y-112900D01*
X-63000Y-111900D01*
X-65000Y-112900D01*
X122500Y-67900D02*
X123500Y-65900D01*
X122500Y-63900D01*
X124500Y-64900D01*
X126500Y-63900D01*
X125500Y-65900D01*
X126500Y-67900D01*
X124500Y-66900D01*
X122500Y-67900D01*
X-72500Y2100D02*
X-71500Y4100D01*
X-72500Y6100D01*
X-70500Y5100D01*
X-68500Y6100D01*
X-69500Y4100D01*
X-68500Y2100D01*
X-70500Y3100D01*
X-72500Y2100D01*
X-12500Y-107900D02*
X-11500Y-105900D01*
X-12500Y-103900D01*
X-10500Y-104900D01*
X-8500Y-103900D01*
X-9500Y-105900D01*
X-8500Y-107900D01*
X-10500Y-106900D01*
X-12500Y-107900D01*
X-140000Y-112900D02*
X-139000Y-110900D01*
X-140000Y-108900D01*
X-138000Y-109900D01*
X-136000Y-108900D01*
X-137000Y-110900D01*
X-136000Y-112900D01*
X-138000Y-111900D01*
X-140000Y-112900D01*
X132500Y-67900D02*
X133500Y-65900D01*
X132500Y-63900D01*
X134500Y-64900D01*
X136500Y-63900D01*
X135500Y-65900D01*
X136500Y-67900D01*
X134500Y-66900D01*
X132500Y-67900D01*
X-60000Y-112900D02*
X-59000Y-110900D01*
X-60000Y-108900D01*
X-58000Y-109900D01*
X-56000Y-108900D01*
X-57000Y-110900D01*
X-56000Y-112900D01*
X-58000Y-111900D01*
X-60000Y-112900D01*
X132500Y-27900D02*
X133500Y-25900D01*
X132500Y-23900D01*
X134500Y-24900D01*
X136500Y-23900D01*
X135500Y-25900D01*
X136500Y-27900D01*
X134500Y-26900D01*
X132500Y-27900D01*
X105000Y-22900D02*
X106000Y-20900D01*
X105000Y-18900D01*
X107000Y-19900D01*
X109000Y-18900D01*
X108000Y-20900D01*
X109000Y-22900D01*
X107000Y-21900D01*
X105000Y-22900D01*
X115000D02*
X116000Y-20900D01*
X115000Y-18900D01*
X117000Y-19900D01*
X119000Y-18900D01*
X118000Y-20900D01*
X119000Y-22900D01*
X117000Y-21900D01*
X115000Y-22900D01*
X-2500Y-87900D02*
X-1500Y-85900D01*
X-2500Y-83900D01*
X-500Y-84900D01*
X1500Y-83900D01*
X500Y-85900D01*
X1500Y-87900D01*
X-500Y-86900D01*
X-2500Y-87900D01*
X80000Y-72900D02*
X81000Y-70900D01*
X80000Y-68900D01*
X82000Y-69900D01*
X84000Y-68900D01*
X83000Y-70900D01*
X84000Y-72900D01*
X82000Y-71900D01*
X80000Y-72900D01*
X42500Y-87900D02*
X43500Y-85900D01*
X42500Y-83900D01*
X44500Y-84900D01*
X46500Y-83900D01*
X45500Y-85900D01*
X46500Y-87900D01*
X44500Y-86900D01*
X42500Y-87900D01*
X-17500Y-107900D02*
X-16500Y-105900D01*
X-17500Y-103900D01*
X-15500Y-104900D01*
X-13500Y-103900D01*
X-14500Y-105900D01*
X-13500Y-107900D01*
X-15500Y-106900D01*
X-17500Y-107900D01*
X135000Y-12900D02*
X136000Y-10900D01*
X135000Y-8900D01*
X137000Y-9900D01*
X139000Y-8900D01*
X138000Y-10900D01*
X139000Y-12900D01*
X137000Y-11900D01*
X135000Y-12900D01*
X-37500Y-97900D02*
X-36500Y-95900D01*
X-37500Y-93900D01*
X-35500Y-94900D01*
X-33500Y-93900D01*
X-34500Y-95900D01*
X-33500Y-97900D01*
X-35500Y-96900D01*
X-37500Y-97900D01*
X-140000Y-2900D02*
X-139000Y-900D01*
X-140000Y1100D01*
X-138000Y100D01*
X-136000Y1100D01*
X-137000Y-900D01*
X-136000Y-2900D01*
X-138000Y-1900D01*
X-140000Y-2900D01*
X135000Y-22900D02*
X136000Y-20900D01*
X135000Y-18900D01*
X137000Y-19900D01*
X139000Y-18900D01*
X138000Y-20900D01*
X139000Y-22900D01*
X137000Y-21900D01*
X135000Y-22900D01*
X130000Y-72900D02*
X131000Y-70900D01*
X130000Y-68900D01*
X132000Y-69900D01*
X134000Y-68900D01*
X133000Y-70900D01*
X134000Y-72900D01*
X132000Y-71900D01*
X130000Y-72900D01*
X-125000Y-122900D02*
X-124000Y-120900D01*
X-125000Y-118900D01*
X-123000Y-119900D01*
X-121000Y-118900D01*
X-122000Y-120900D01*
X-121000Y-122900D01*
X-123000Y-121900D01*
X-125000Y-122900D01*
X122500Y-57900D02*
X123500Y-55900D01*
X122500Y-53900D01*
X124500Y-54900D01*
X126500Y-53900D01*
X125500Y-55900D01*
X126500Y-57900D01*
X124500Y-56900D01*
X122500Y-57900D01*
X27500Y-77900D02*
X28500Y-75900D01*
X27500Y-73900D01*
X29500Y-74900D01*
X31500Y-73900D01*
X30500Y-75900D01*
X31500Y-77900D01*
X29500Y-76900D01*
X27500Y-77900D01*
X-60000Y-92900D02*
X-59000Y-90900D01*
X-60000Y-88900D01*
X-58000Y-89900D01*
X-56000Y-88900D01*
X-57000Y-90900D01*
X-56000Y-92900D01*
X-58000Y-91900D01*
X-60000Y-92900D01*
X-30000D02*
X-29000Y-90900D01*
X-30000Y-88900D01*
X-28000Y-89900D01*
X-26000Y-88900D01*
X-27000Y-90900D01*
X-26000Y-92900D01*
X-28000Y-91900D01*
X-30000Y-92900D01*
X-95000Y-32900D02*
X-94000Y-30900D01*
X-95000Y-28900D01*
X-93000Y-29900D01*
X-91000Y-28900D01*
X-92000Y-30900D01*
X-91000Y-32900D01*
X-93000Y-31900D01*
X-95000Y-32900D01*
X75000Y-52900D02*
X76000Y-50900D01*
X75000Y-48900D01*
X77000Y-49900D01*
X79000Y-48900D01*
X78000Y-50900D01*
X79000Y-52900D01*
X77000Y-51900D01*
X75000Y-52900D01*
X22500Y-77900D02*
X23500Y-75900D01*
X22500Y-73900D01*
X24500Y-74900D01*
X26500Y-73900D01*
X25500Y-75900D01*
X26500Y-77900D01*
X24500Y-76900D01*
X22500Y-77900D01*
X55000Y-102900D02*
X56000Y-100900D01*
X55000Y-98900D01*
X57000Y-99900D01*
X59000Y-98900D01*
X58000Y-100900D01*
X59000Y-102900D01*
X57000Y-101900D01*
X55000Y-102900D01*
X50000Y-82900D02*
X51000Y-80900D01*
X50000Y-78900D01*
X52000Y-79900D01*
X54000Y-78900D01*
X53000Y-80900D01*
X54000Y-82900D01*
X52000Y-81900D01*
X50000Y-82900D01*
X75000Y-72900D02*
X76000Y-70900D01*
X75000Y-68900D01*
X77000Y-69900D01*
X79000Y-68900D01*
X78000Y-70900D01*
X79000Y-72900D01*
X77000Y-71900D01*
X75000Y-72900D01*
X37500Y-87900D02*
X38500Y-85900D01*
X37500Y-83900D01*
X39500Y-84900D01*
X41500Y-83900D01*
X40500Y-85900D01*
X41500Y-87900D01*
X39500Y-86900D01*
X37500Y-87900D01*
X-10000Y-82900D02*
X-9000Y-80900D01*
X-10000Y-78900D01*
X-8000Y-79900D01*
X-6000Y-78900D01*
X-7000Y-80900D01*
X-6000Y-82900D01*
X-8000Y-81900D01*
X-10000Y-82900D01*
X55000D02*
X56000Y-80900D01*
X55000Y-78900D01*
X57000Y-79900D01*
X59000Y-78900D01*
X58000Y-80900D01*
X59000Y-82900D01*
X57000Y-81900D01*
X55000Y-82900D01*
X-85000Y-62900D02*
X-84000Y-60900D01*
X-85000Y-58900D01*
X-83000Y-59900D01*
X-81000Y-58900D01*
X-82000Y-60900D01*
X-81000Y-62900D01*
X-83000Y-61900D01*
X-85000Y-62900D01*
X-37500Y-107900D02*
X-36500Y-105900D01*
X-37500Y-103900D01*
X-35500Y-104900D01*
X-33500Y-103900D01*
X-34500Y-105900D01*
X-33500Y-107900D01*
X-35500Y-106900D01*
X-37500Y-107900D01*
X135000Y-82900D02*
X136000Y-80900D01*
X135000Y-78900D01*
X137000Y-79900D01*
X139000Y-78900D01*
X138000Y-80900D01*
X139000Y-82900D01*
X137000Y-81900D01*
X135000Y-82900D01*
X112500Y-17900D02*
X113500Y-15900D01*
X112500Y-13900D01*
X114500Y-14900D01*
X116500Y-13900D01*
X115500Y-15900D01*
X116500Y-17900D01*
X114500Y-16900D01*
X112500Y-17900D01*
X-135000Y-122900D02*
X-134000Y-120900D01*
X-135000Y-118900D01*
X-133000Y-119900D01*
X-131000Y-118900D01*
X-132000Y-120900D01*
X-131000Y-122900D01*
X-133000Y-121900D01*
X-135000Y-122900D01*
X12500Y-107900D02*
X13500Y-105900D01*
X12500Y-103900D01*
X14500Y-104900D01*
X16500Y-103900D01*
X15500Y-105900D01*
X16500Y-107900D01*
X14500Y-106900D01*
X12500Y-107900D01*
X127500Y-67900D02*
X128500Y-65900D01*
X127500Y-63900D01*
X129500Y-64900D01*
X131500Y-63900D01*
X130500Y-65900D01*
X131500Y-67900D01*
X129500Y-66900D01*
X127500Y-67900D01*
X-87500Y-57900D02*
X-86500Y-55900D01*
X-87500Y-53900D01*
X-85500Y-54900D01*
X-83500Y-53900D01*
X-84500Y-55900D01*
X-83500Y-57900D01*
X-85500Y-56900D01*
X-87500Y-57900D01*
X-27500Y-107900D02*
X-26500Y-105900D01*
X-27500Y-103900D01*
X-25500Y-104900D01*
X-23500Y-103900D01*
X-24500Y-105900D01*
X-23500Y-107900D01*
X-25500Y-106900D01*
X-27500Y-107900D01*
X130000Y-82900D02*
X131000Y-80900D01*
X130000Y-78900D01*
X132000Y-79900D01*
X134000Y-78900D01*
X133000Y-80900D01*
X134000Y-82900D01*
X132000Y-81900D01*
X130000Y-82900D01*
X-12500Y-77900D02*
X-11500Y-75900D01*
X-12500Y-73900D01*
X-10500Y-74900D01*
X-8500Y-73900D01*
X-9500Y-75900D01*
X-8500Y-77900D01*
X-10500Y-76900D01*
X-12500Y-77900D01*
X-107500Y-117900D02*
X-106500Y-115900D01*
X-107500Y-113900D01*
X-105500Y-114900D01*
X-103500Y-113900D01*
X-104500Y-115900D01*
X-103500Y-117900D01*
X-105500Y-116900D01*
X-107500Y-117900D01*
X-90000Y27100D02*
X-89000Y29100D01*
X-90000Y31100D01*
X-88000Y30100D01*
X-86000Y31100D01*
X-87000Y29100D01*
X-86000Y27100D01*
X-88000Y28100D01*
X-90000Y27100D01*
X0Y-82900D02*
X1000Y-80900D01*
X0Y-78900D01*
X2000Y-79900D01*
X4000Y-78900D01*
X3000Y-80900D01*
X4000Y-82900D01*
X2000Y-81900D01*
X0Y-82900D01*
X132500Y-57900D02*
X133500Y-55900D01*
X132500Y-53900D01*
X134500Y-54900D01*
X136500Y-53900D01*
X135500Y-55900D01*
X136500Y-57900D01*
X134500Y-56900D01*
X132500Y-57900D01*
X7500Y-97900D02*
X8500Y-95900D01*
X7500Y-93900D01*
X9500Y-94900D01*
X11500Y-93900D01*
X10500Y-95900D01*
X11500Y-97900D01*
X9500Y-96900D01*
X7500Y-97900D01*
X30000Y-92900D02*
X31000Y-90900D01*
X30000Y-88900D01*
X32000Y-89900D01*
X34000Y-88900D01*
X33000Y-90900D01*
X34000Y-92900D01*
X32000Y-91900D01*
X30000Y-92900D01*
X-132500Y-117900D02*
X-131500Y-115900D01*
X-132500Y-113900D01*
X-130500Y-114900D01*
X-128500Y-113900D01*
X-129500Y-115900D01*
X-128500Y-117900D01*
X-130500Y-116900D01*
X-132500Y-117900D01*
X-112500D02*
X-111500Y-115900D01*
X-112500Y-113900D01*
X-110500Y-114900D01*
X-108500Y-113900D01*
X-109500Y-115900D01*
X-108500Y-117900D01*
X-110500Y-116900D01*
X-112500Y-117900D01*
X60000Y-102900D02*
X61000Y-100900D01*
X60000Y-98900D01*
X62000Y-99900D01*
X64000Y-98900D01*
X63000Y-100900D01*
X64000Y-102900D01*
X62000Y-101900D01*
X60000Y-102900D01*
X135000Y-32900D02*
X136000Y-30900D01*
X135000Y-28900D01*
X137000Y-29900D01*
X139000Y-28900D01*
X138000Y-30900D01*
X139000Y-32900D01*
X137000Y-31900D01*
X135000Y-32900D01*
X37500Y-97900D02*
X38500Y-95900D01*
X37500Y-93900D01*
X39500Y-94900D01*
X41500Y-93900D01*
X40500Y-95900D01*
X41500Y-97900D01*
X39500Y-96900D01*
X37500Y-97900D01*
X80000Y-22900D02*
X81000Y-20900D01*
X80000Y-18900D01*
X82000Y-19900D01*
X84000Y-18900D01*
X83000Y-20900D01*
X84000Y-22900D01*
X82000Y-21900D01*
X80000Y-22900D01*
X-92500Y-117900D02*
X-91500Y-115900D01*
X-92500Y-113900D01*
X-90500Y-114900D01*
X-88500Y-113900D01*
X-89500Y-115900D01*
X-88500Y-117900D01*
X-90500Y-116900D01*
X-92500Y-117900D01*
X47500Y-87900D02*
X48500Y-85900D01*
X47500Y-83900D01*
X49500Y-84900D01*
X51500Y-83900D01*
X50500Y-85900D01*
X51500Y-87900D01*
X49500Y-86900D01*
X47500Y-87900D01*
X70000Y-72900D02*
X71000Y-70900D01*
X70000Y-68900D01*
X72000Y-69900D01*
X74000Y-68900D01*
X73000Y-70900D01*
X74000Y-72900D01*
X72000Y-71900D01*
X70000Y-72900D01*
X-82500Y-117900D02*
X-81500Y-115900D01*
X-82500Y-113900D01*
X-80500Y-114900D01*
X-78500Y-113900D01*
X-79500Y-115900D01*
X-78500Y-117900D01*
X-80500Y-116900D01*
X-82500Y-117900D01*
X-140000Y17100D02*
X-139000Y19100D01*
X-140000Y21100D01*
X-138000Y20100D01*
X-136000Y21100D01*
X-137000Y19100D01*
X-136000Y17100D01*
X-138000Y18100D01*
X-140000Y17100D01*
X135000Y-92900D02*
X136000Y-90900D01*
X135000Y-88900D01*
X137000Y-89900D01*
X139000Y-88900D01*
X138000Y-90900D01*
X139000Y-92900D01*
X137000Y-91900D01*
X135000Y-92900D01*
X77500Y-67900D02*
X78500Y-65900D01*
X77500Y-63900D01*
X79500Y-64900D01*
X81500Y-63900D01*
X80500Y-65900D01*
X81500Y-67900D01*
X79500Y-66900D01*
X77500Y-67900D01*
X132500Y-87900D02*
X133500Y-85900D01*
X132500Y-83900D01*
X134500Y-84900D01*
X136500Y-83900D01*
X135500Y-85900D01*
X136500Y-87900D01*
X134500Y-86900D01*
X132500Y-87900D01*
X-42500Y-107900D02*
X-41500Y-105900D01*
X-42500Y-103900D01*
X-40500Y-104900D01*
X-38500Y-103900D01*
X-39500Y-105900D01*
X-38500Y-107900D01*
X-40500Y-106900D01*
X-42500Y-107900D01*
X-50000Y-112900D02*
X-49000Y-110900D01*
X-50000Y-108900D01*
X-48000Y-109900D01*
X-46000Y-108900D01*
X-47000Y-110900D01*
X-46000Y-112900D01*
X-48000Y-111900D01*
X-50000Y-112900D01*
X122500Y-77900D02*
X123500Y-75900D01*
X122500Y-73900D01*
X124500Y-74900D01*
X126500Y-73900D01*
X125500Y-75900D01*
X126500Y-77900D01*
X124500Y-76900D01*
X122500Y-77900D01*
X12500Y-97900D02*
X13500Y-95900D01*
X12500Y-93900D01*
X14500Y-94900D01*
X16500Y-93900D01*
X15500Y-95900D01*
X16500Y-97900D01*
X14500Y-96900D01*
X12500Y-97900D01*
X-45000Y-112900D02*
X-44000Y-110900D01*
X-45000Y-108900D01*
X-43000Y-109900D01*
X-41000Y-108900D01*
X-42000Y-110900D01*
X-41000Y-112900D01*
X-43000Y-111900D01*
X-45000Y-112900D01*
X-35000Y-92900D02*
X-34000Y-90900D01*
X-35000Y-88900D01*
X-33000Y-89900D01*
X-31000Y-88900D01*
X-32000Y-90900D01*
X-31000Y-92900D01*
X-33000Y-91900D01*
X-35000Y-92900D01*
X-55000Y-112900D02*
X-54000Y-110900D01*
X-55000Y-108900D01*
X-53000Y-109900D01*
X-51000Y-108900D01*
X-52000Y-110900D01*
X-51000Y-112900D01*
X-53000Y-111900D01*
X-55000Y-112900D01*
X-92500Y-37900D02*
X-91500Y-35900D01*
X-92500Y-33900D01*
X-90500Y-34900D01*
X-88500Y-33900D01*
X-89500Y-35900D01*
X-88500Y-37900D01*
X-90500Y-36900D01*
X-92500Y-37900D01*
X135000Y-62900D02*
X136000Y-60900D01*
X135000Y-58900D01*
X137000Y-59900D01*
X139000Y-58900D01*
X138000Y-60900D01*
X139000Y-62900D01*
X137000Y-61900D01*
X135000Y-62900D01*
X27500Y-87900D02*
X28500Y-85900D01*
X27500Y-83900D01*
X29500Y-84900D01*
X31500Y-83900D01*
X30500Y-85900D01*
X31500Y-87900D01*
X29500Y-86900D01*
X27500Y-87900D01*
X17500Y-107900D02*
X18500Y-105900D01*
X17500Y-103900D01*
X19500Y-104900D01*
X21500Y-103900D01*
X20500Y-105900D01*
X21500Y-107900D01*
X19500Y-106900D01*
X17500Y-107900D01*
X-75000Y27100D02*
X-74000Y29100D01*
X-75000Y31100D01*
X-73000Y30100D01*
X-71000Y31100D01*
X-72000Y29100D01*
X-71000Y27100D01*
X-73000Y28100D01*
X-75000Y27100D01*
X-92500Y-57900D02*
X-91500Y-55900D01*
X-92500Y-53900D01*
X-90500Y-54900D01*
X-88500Y-53900D01*
X-89500Y-55900D01*
X-88500Y-57900D01*
X-90500Y-56900D01*
X-92500Y-57900D01*
X-95000Y27100D02*
X-94000Y29100D01*
X-95000Y31100D01*
X-93000Y30100D01*
X-91000Y31100D01*
X-92000Y29100D01*
X-91000Y27100D01*
X-93000Y28100D01*
X-95000Y27100D01*
X-97500Y-37900D02*
X-96500Y-35900D01*
X-97500Y-33900D01*
X-95500Y-34900D01*
X-93500Y-33900D01*
X-94500Y-35900D01*
X-93500Y-37900D01*
X-95500Y-36900D01*
X-97500Y-37900D01*
X82500Y-57900D02*
X83500Y-55900D01*
X82500Y-53900D01*
X84500Y-54900D01*
X86500Y-53900D01*
X85500Y-55900D01*
X86500Y-57900D01*
X84500Y-56900D01*
X82500Y-57900D01*
X75000Y-12900D02*
X76000Y-10900D01*
X75000Y-8900D01*
X77000Y-9900D01*
X79000Y-8900D01*
X78000Y-10900D01*
X79000Y-12900D01*
X77000Y-11900D01*
X75000Y-12900D01*
X25000Y-82900D02*
X26000Y-80900D01*
X25000Y-78900D01*
X27000Y-79900D01*
X29000Y-78900D01*
X28000Y-80900D01*
X29000Y-82900D01*
X27000Y-81900D01*
X25000Y-82900D01*
X135000Y-52900D02*
X136000Y-50900D01*
X135000Y-48900D01*
X137000Y-49900D01*
X139000Y-48900D01*
X138000Y-50900D01*
X139000Y-52900D01*
X137000Y-51900D01*
X135000Y-52900D01*
X-82500Y-57900D02*
X-81500Y-55900D01*
X-82500Y-53900D01*
X-80500Y-54900D01*
X-78500Y-53900D01*
X-79500Y-55900D01*
X-78500Y-57900D01*
X-80500Y-56900D01*
X-82500Y-57900D01*
X132500Y-77900D02*
X133500Y-75900D01*
X132500Y-73900D01*
X134500Y-74900D01*
X136500Y-73900D01*
X135500Y-75900D01*
X136500Y-77900D01*
X134500Y-76900D01*
X132500Y-77900D01*
X-140000Y27100D02*
X-139000Y29100D01*
X-140000Y31100D01*
X-138000Y30100D01*
X-136000Y31100D01*
X-137000Y29100D01*
X-136000Y27100D01*
X-138000Y28100D01*
X-140000Y27100D01*
X62500Y-77900D02*
X63500Y-75900D01*
X62500Y-73900D01*
X64500Y-74900D01*
X66500Y-73900D01*
X65500Y-75900D01*
X66500Y-77900D01*
X64500Y-76900D01*
X62500Y-77900D01*
X125000Y-72900D02*
X126000Y-70900D01*
X125000Y-68900D01*
X127000Y-69900D01*
X129000Y-68900D01*
X128000Y-70900D01*
X129000Y-72900D01*
X127000Y-71900D01*
X125000Y-72900D01*
X27500Y-97900D02*
X28500Y-95900D01*
X27500Y-93900D01*
X29500Y-94900D01*
X31500Y-93900D01*
X30500Y-95900D01*
X31500Y-97900D01*
X29500Y-96900D01*
X27500Y-97900D01*
X-7500Y-77900D02*
X-6500Y-75900D01*
X-7500Y-73900D01*
X-5500Y-74900D01*
X-3500Y-73900D01*
X-4500Y-75900D01*
X-3500Y-77900D01*
X-5500Y-76900D01*
X-7500Y-77900D01*
X130000Y-22900D02*
X131000Y-20900D01*
X130000Y-18900D01*
X132000Y-19900D01*
X134000Y-18900D01*
X133000Y-20900D01*
X134000Y-22900D01*
X132000Y-21900D01*
X130000Y-22900D01*
X132500Y-7900D02*
X133500Y-5900D01*
X132500Y-3900D01*
X134500Y-4900D01*
X136500Y-3900D01*
X135500Y-5900D01*
X136500Y-7900D01*
X134500Y-6900D01*
X132500Y-7900D01*
X127500Y-57900D02*
X128500Y-55900D01*
X127500Y-53900D01*
X129500Y-54900D01*
X131500Y-53900D01*
X130500Y-55900D01*
X131500Y-57900D01*
X129500Y-56900D01*
X127500Y-57900D01*
X60000Y-92900D02*
X61000Y-90900D01*
X60000Y-88900D01*
X62000Y-89900D01*
X64000Y-88900D01*
X63000Y-90900D01*
X64000Y-92900D01*
X62000Y-91900D01*
X60000Y-92900D01*
X-35000Y-72900D02*
X-34000Y-70900D01*
X-35000Y-68900D01*
X-33000Y-69900D01*
X-31000Y-68900D01*
X-32000Y-70900D01*
X-31000Y-72900D01*
X-33000Y-71900D01*
X-35000Y-72900D01*
X-110000Y-122900D02*
X-109000Y-120900D01*
X-110000Y-118900D01*
X-108000Y-119900D01*
X-106000Y-118900D01*
X-107000Y-120900D01*
X-106000Y-122900D01*
X-108000Y-121900D01*
X-110000Y-122900D01*
X-120000D02*
X-119000Y-120900D01*
X-120000Y-118900D01*
X-118000Y-119900D01*
X-116000Y-118900D01*
X-117000Y-120900D01*
X-116000Y-122900D01*
X-118000Y-121900D01*
X-120000Y-122900D01*
X77500Y-17900D02*
X78500Y-15900D01*
X77500Y-13900D01*
X79500Y-14900D01*
X81500Y-13900D01*
X80500Y-15900D01*
X81500Y-17900D01*
X79500Y-16900D01*
X77500Y-17900D01*
X-137500Y-7900D02*
X-136500Y-5900D01*
X-137500Y-3900D01*
X-135500Y-4900D01*
X-133500Y-3900D01*
X-134500Y-5900D01*
X-133500Y-7900D01*
X-135500Y-6900D01*
X-137500Y-7900D01*
X62500Y-97900D02*
X63500Y-95900D01*
X62500Y-93900D01*
X64500Y-94900D01*
X66500Y-93900D01*
X65500Y-95900D01*
X66500Y-97900D01*
X64500Y-96900D01*
X62500Y-97900D01*
X82500Y-37900D02*
X83500Y-35900D01*
X82500Y-33900D01*
X84500Y-34900D01*
X86500Y-33900D01*
X85500Y-35900D01*
X86500Y-37900D01*
X84500Y-36900D01*
X82500Y-37900D01*
X-102500Y-117900D02*
X-101500Y-115900D01*
X-102500Y-113900D01*
X-100500Y-114900D01*
X-98500Y-113900D01*
X-99500Y-115900D01*
X-98500Y-117900D01*
X-100500Y-116900D01*
X-102500Y-117900D01*
X32500Y-97900D02*
X33500Y-95900D01*
X32500Y-93900D01*
X34500Y-94900D01*
X36500Y-93900D01*
X35500Y-95900D01*
X36500Y-97900D01*
X34500Y-96900D01*
X32500Y-97900D01*
X52500Y-77900D02*
X53500Y-75900D01*
X52500Y-73900D01*
X54500Y-74900D01*
X56500Y-73900D01*
X55500Y-75900D01*
X56500Y-77900D01*
X54500Y-76900D01*
X52500Y-77900D01*
X-17500Y-97900D02*
X-16500Y-95900D01*
X-17500Y-93900D01*
X-15500Y-94900D01*
X-13500Y-93900D01*
X-14500Y-95900D01*
X-13500Y-97900D01*
X-15500Y-96900D01*
X-17500Y-97900D01*
X22500Y-87900D02*
X23500Y-85900D01*
X22500Y-83900D01*
X24500Y-84900D01*
X26500Y-83900D01*
X25500Y-85900D01*
X26500Y-87900D01*
X24500Y-86900D01*
X22500Y-87900D01*
X50000Y-102900D02*
X51000Y-100900D01*
X50000Y-98900D01*
X52000Y-99900D01*
X54000Y-98900D01*
X53000Y-100900D01*
X54000Y-102900D01*
X52000Y-101900D01*
X50000Y-102900D01*
X12500Y-77900D02*
X13500Y-75900D01*
X12500Y-73900D01*
X14500Y-74900D01*
X16500Y-73900D01*
X15500Y-75900D01*
X16500Y-77900D01*
X14500Y-76900D01*
X12500Y-77900D01*
X-90000Y-32900D02*
X-89000Y-30900D01*
X-90000Y-28900D01*
X-88000Y-29900D01*
X-86000Y-28900D01*
X-87000Y-30900D01*
X-86000Y-32900D01*
X-88000Y-31900D01*
X-90000Y-32900D01*
X-140000Y-12900D02*
X-139000Y-10900D01*
X-140000Y-8900D01*
X-138000Y-9900D01*
X-136000Y-8900D01*
X-137000Y-10900D01*
X-136000Y-12900D01*
X-138000Y-11900D01*
X-140000Y-12900D01*
X22500Y-97900D02*
X23500Y-95900D01*
X22500Y-93900D01*
X24500Y-94900D01*
X26500Y-93900D01*
X25500Y-95900D01*
X26500Y-97900D01*
X24500Y-96900D01*
X22500Y-97900D01*
X125000Y-82900D02*
X126000Y-80900D01*
X125000Y-78900D01*
X127000Y-79900D01*
X129000Y-78900D01*
X128000Y-80900D01*
X129000Y-82900D01*
X127000Y-81900D01*
X125000Y-82900D01*
X5000D02*
X6000Y-80900D01*
X5000Y-78900D01*
X7000Y-79900D01*
X9000Y-78900D01*
X8000Y-80900D01*
X9000Y-82900D01*
X7000Y-81900D01*
X5000Y-82900D01*
X-137500Y-117900D02*
X-136500Y-115900D01*
X-137500Y-113900D01*
X-135500Y-114900D01*
X-133500Y-113900D01*
X-134500Y-115900D01*
X-133500Y-117900D01*
X-135500Y-116900D01*
X-137500Y-117900D01*
X127500Y-17900D02*
X128500Y-15900D01*
X127500Y-13900D01*
X129500Y-14900D01*
X131500Y-13900D01*
X130500Y-15900D01*
X131500Y-17900D01*
X129500Y-16900D01*
X127500Y-17900D01*
X37500Y-77900D02*
X38500Y-75900D01*
X37500Y-73900D01*
X39500Y-74900D01*
X41500Y-73900D01*
X40500Y-75900D01*
X41500Y-77900D01*
X39500Y-76900D01*
X37500Y-77900D01*
X130000Y-62900D02*
X131000Y-60900D01*
X130000Y-58900D01*
X132000Y-59900D01*
X134000Y-58900D01*
X133000Y-60900D01*
X134000Y-62900D01*
X132000Y-61900D01*
X130000Y-62900D01*
X35000Y-82900D02*
X36000Y-80900D01*
X35000Y-78900D01*
X37000Y-79900D01*
X39000Y-78900D01*
X38000Y-80900D01*
X39000Y-82900D01*
X37000Y-81900D01*
X35000Y-82900D01*
X-115000Y-122900D02*
X-114000Y-120900D01*
X-115000Y-118900D01*
X-113000Y-119900D01*
X-111000Y-118900D01*
X-112000Y-120900D01*
X-111000Y-122900D01*
X-113000Y-121900D01*
X-115000Y-122900D01*
X-130000D02*
X-129000Y-120900D01*
X-130000Y-118900D01*
X-128000Y-119900D01*
X-126000Y-118900D01*
X-127000Y-120900D01*
X-126000Y-122900D01*
X-128000Y-121900D01*
X-130000Y-122900D01*
X-140000D02*
X-139000Y-120900D01*
X-140000Y-118900D01*
X-138000Y-119900D01*
X-136000Y-118900D01*
X-137000Y-120900D01*
X-136000Y-122900D01*
X-138000Y-121900D01*
X-140000Y-122900D01*
X125000Y-62900D02*
X126000Y-60900D01*
X125000Y-58900D01*
X127000Y-59900D01*
X129000Y-58900D01*
X128000Y-60900D01*
X129000Y-62900D01*
X127000Y-61900D01*
X125000Y-62900D01*
X127500Y-27900D02*
X128500Y-25900D01*
X127500Y-23900D01*
X129500Y-24900D01*
X131500Y-23900D01*
X130500Y-25900D01*
X131500Y-27900D01*
X129500Y-26900D01*
X127500Y-27900D01*
X-97500Y-117900D02*
X-96500Y-115900D01*
X-97500Y-113900D01*
X-95500Y-114900D01*
X-93500Y-113900D01*
X-94500Y-115900D01*
X-93500Y-117900D01*
X-95500Y-116900D01*
X-97500Y-117900D01*
X40000Y-82900D02*
X41000Y-80900D01*
X40000Y-78900D01*
X42000Y-79900D01*
X44000Y-78900D01*
X43000Y-80900D01*
X44000Y-82900D01*
X42000Y-81900D01*
X40000Y-82900D01*
X72500Y2100D02*
X73500Y4100D01*
X72500Y6100D01*
X74500Y5100D01*
X76500Y6100D01*
X75500Y4100D01*
X76500Y2100D01*
X74500Y3100D01*
X72500Y2100D01*
Y-67900D02*
X73500Y-65900D01*
X72500Y-63900D01*
X74500Y-64900D01*
X76500Y-63900D01*
X75500Y-65900D01*
X76500Y-67900D01*
X74500Y-66900D01*
X72500Y-67900D01*
X2500Y-77900D02*
X3500Y-75900D01*
X2500Y-73900D01*
X4500Y-74900D01*
X6500Y-73900D01*
X5500Y-75900D01*
X6500Y-77900D01*
X4500Y-76900D01*
X2500Y-77900D01*
X95000Y-52900D02*
X96000Y-50900D01*
X95000Y-48900D01*
X97000Y-49900D01*
X99000Y-48900D01*
X98000Y-50900D01*
X99000Y-52900D01*
X97000Y-51900D01*
X95000Y-52900D01*
X2500Y-107900D02*
X3500Y-105900D01*
X2500Y-103900D01*
X4500Y-104900D01*
X6500Y-103900D01*
X5500Y-105900D01*
X6500Y-107900D01*
X4500Y-106900D01*
X2500Y-107900D01*
X47500Y-77900D02*
X48500Y-75900D01*
X47500Y-73900D01*
X49500Y-74900D01*
X51500Y-73900D01*
X50500Y-75900D01*
X51500Y-77900D01*
X49500Y-76900D01*
X47500Y-77900D01*
X42500D02*
X43500Y-75900D01*
X42500Y-73900D01*
X44500Y-74900D01*
X46500Y-73900D01*
X45500Y-75900D01*
X46500Y-77900D01*
X44500Y-76900D01*
X42500Y-77900D01*
X-47500Y-107900D02*
X-46500Y-105900D01*
X-47500Y-103900D01*
X-45500Y-104900D01*
X-43500Y-103900D01*
X-44500Y-105900D01*
X-43500Y-107900D01*
X-45500Y-106900D01*
X-47500Y-107900D01*
X17500Y-97900D02*
X18500Y-95900D01*
X17500Y-93900D01*
X19500Y-94900D01*
X21500Y-93900D01*
X20500Y-95900D01*
X21500Y-97900D01*
X19500Y-96900D01*
X17500Y-97900D01*
X-135000Y-112900D02*
X-134000Y-110900D01*
X-135000Y-108900D01*
X-133000Y-109900D01*
X-131000Y-108900D01*
X-132000Y-110900D01*
X-131000Y-112900D01*
X-133000Y-111900D01*
X-135000Y-112900D01*
X102500Y-17900D02*
X103500Y-15900D01*
X102500Y-13900D01*
X104500Y-14900D01*
X106500Y-13900D01*
X105500Y-15900D01*
X106500Y-17900D01*
X104500Y-16900D01*
X102500Y-17900D01*
X42500Y-97900D02*
X43500Y-95900D01*
X42500Y-93900D01*
X44500Y-94900D01*
X46500Y-93900D01*
X45500Y-95900D01*
X46500Y-97900D01*
X44500Y-96900D01*
X42500Y-97900D01*
X20000Y-92900D02*
X21000Y-90900D01*
X20000Y-88900D01*
X22000Y-89900D01*
X24000Y-88900D01*
X23000Y-90900D01*
X24000Y-92900D01*
X22000Y-91900D01*
X20000Y-92900D01*
X-22500Y-107900D02*
X-21500Y-105900D01*
X-22500Y-103900D01*
X-20500Y-104900D01*
X-18500Y-103900D01*
X-19500Y-105900D01*
X-18500Y-107900D01*
X-20500Y-106900D01*
X-22500Y-107900D01*
X-95000Y-42900D02*
X-94000Y-40900D01*
X-95000Y-38900D01*
X-93000Y-39900D01*
X-91000Y-38900D01*
X-92000Y-40900D01*
X-91000Y-42900D01*
X-93000Y-41900D01*
X-95000Y-42900D01*
X-12500Y-87900D02*
X-11500Y-85900D01*
X-12500Y-83900D01*
X-10500Y-84900D01*
X-8500Y-83900D01*
X-9500Y-85900D01*
X-8500Y-87900D01*
X-10500Y-86900D01*
X-12500Y-87900D01*
X80000Y-12900D02*
X81000Y-10900D01*
X80000Y-8900D01*
X82000Y-9900D01*
X84000Y-8900D01*
X83000Y-10900D01*
X84000Y-12900D01*
X82000Y-11900D01*
X80000Y-12900D01*
X7500Y-77900D02*
X8500Y-75900D01*
X7500Y-73900D01*
X9500Y-74900D01*
X11500Y-73900D01*
X10500Y-75900D01*
X11500Y-77900D01*
X9500Y-76900D01*
X7500Y-77900D01*
X132500Y-17900D02*
X133500Y-15900D01*
X132500Y-13900D01*
X134500Y-14900D01*
X136500Y-13900D01*
X135500Y-15900D01*
X136500Y-17900D01*
X134500Y-16900D01*
X132500Y-17900D01*
X107500D02*
X108500Y-15900D01*
X107500Y-13900D01*
X109500Y-14900D01*
X111500Y-13900D01*
X110500Y-15900D01*
X111500Y-17900D01*
X109500Y-16900D01*
X107500Y-17900D01*
X-2500Y-77900D02*
X-1500Y-75900D01*
X-2500Y-73900D01*
X-500Y-74900D01*
X1500Y-73900D01*
X500Y-75900D01*
X1500Y-77900D01*
X-500Y-76900D01*
X-2500Y-77900D01*
X32500D02*
X33500Y-75900D01*
X32500Y-73900D01*
X34500Y-74900D01*
X36500Y-73900D01*
X35500Y-75900D01*
X36500Y-77900D01*
X34500Y-76900D01*
X32500Y-77900D01*
X-87500Y-117900D02*
X-86500Y-115900D01*
X-87500Y-113900D01*
X-85500Y-114900D01*
X-83500Y-113900D01*
X-84500Y-115900D01*
X-83500Y-117900D01*
X-85500Y-116900D01*
X-87500Y-117900D01*
X32500Y-87900D02*
X33500Y-85900D01*
X32500Y-83900D01*
X34500Y-84900D01*
X36500Y-83900D01*
X35500Y-85900D01*
X36500Y-87900D01*
X34500Y-86900D01*
X32500Y-87900D01*
X30000Y-82900D02*
X31000Y-80900D01*
X30000Y-78900D01*
X32000Y-79900D01*
X34000Y-78900D01*
X33000Y-80900D01*
X34000Y-82900D01*
X32000Y-81900D01*
X30000Y-82900D01*
X125000Y-22900D02*
X126000Y-20900D01*
X125000Y-18900D01*
X127000Y-19900D01*
X129000Y-18900D01*
X128000Y-20900D01*
X129000Y-22900D01*
X127000Y-21900D01*
X125000Y-22900D01*
X75000D02*
X76000Y-20900D01*
X75000Y-18900D01*
X77000Y-19900D01*
X79000Y-18900D01*
X78000Y-20900D01*
X79000Y-22900D01*
X77000Y-21900D01*
X75000Y-22900D01*
X25000Y-92900D02*
X26000Y-90900D01*
X25000Y-88900D01*
X27000Y-89900D01*
X29000Y-88900D01*
X28000Y-90900D01*
X29000Y-92900D01*
X27000Y-91900D01*
X25000Y-92900D01*
X17500Y-77900D02*
X18500Y-75900D01*
X17500Y-73900D01*
X19500Y-74900D01*
X21500Y-73900D01*
X20500Y-75900D01*
X21500Y-77900D01*
X19500Y-76900D01*
X17500Y-77900D01*
X-70000Y-112900D02*
X-69000Y-110900D01*
X-70000Y-108900D01*
X-68000Y-109900D01*
X-66000Y-108900D01*
X-67000Y-110900D01*
X-66000Y-112900D01*
X-68000Y-111900D01*
X-70000Y-112900D01*
X-97500Y-47900D02*
X-96500Y-45900D01*
X-97500Y-43900D01*
X-95500Y-44900D01*
X-93500Y-43900D01*
X-94500Y-45900D01*
X-93500Y-47900D01*
X-95500Y-46900D01*
X-97500Y-47900D01*
X135000Y-72900D02*
X136000Y-70900D01*
X135000Y-68900D01*
X137000Y-69900D01*
X139000Y-68900D01*
X138000Y-70900D01*
X139000Y-72900D01*
X137000Y-71900D01*
X135000Y-72900D01*
X-5000Y-82900D02*
X-4000Y-80900D01*
X-5000Y-78900D01*
X-3000Y-79900D01*
X-1000Y-78900D01*
X-2000Y-80900D01*
X-1000Y-82900D01*
X-3000Y-81900D01*
X-5000Y-82900D01*
X52500Y-87900D02*
X53500Y-85900D01*
X52500Y-83900D01*
X54500Y-84900D01*
X56500Y-83900D01*
X55500Y-85900D01*
X56500Y-87900D01*
X54500Y-86900D01*
X52500Y-87900D01*
X-32500Y-97900D02*
X-31500Y-95900D01*
X-32500Y-93900D01*
X-30500Y-94900D01*
X-28500Y-93900D01*
X-29500Y-95900D01*
X-28500Y-97900D01*
X-30500Y-96900D01*
X-32500Y-97900D01*
X-7500Y-107900D02*
X-6500Y-105900D01*
X-7500Y-103900D01*
X-5500Y-104900D01*
X-3500Y-103900D01*
X-4500Y-105900D01*
X-3500Y-107900D01*
X-5500Y-106900D01*
X-7500Y-107900D01*
X-140000Y7100D02*
X-139000Y9100D01*
X-140000Y11100D01*
X-138000Y10100D01*
X-136000Y11100D01*
X-137000Y9100D01*
X-136000Y7100D01*
X-138000Y8100D01*
X-140000Y7100D01*
X-27500Y-97900D02*
X-26500Y-95900D01*
X-27500Y-93900D01*
X-25500Y-94900D01*
X-23500Y-93900D01*
X-24500Y-95900D01*
X-23500Y-97900D01*
X-25500Y-96900D01*
X-27500Y-97900D01*
X14600Y-92000D02*
X15600Y-90000D01*
X14600Y-88000D01*
X16600Y-89000D01*
X18600Y-88000D01*
X17600Y-90000D01*
X18600Y-92000D01*
X16600Y-91000D01*
X14600Y-92000D01*
X126400Y39300D02*
Y38300D01*
X128400D01*
Y39300D01*
X129400D01*
Y41300D01*
X128400D01*
Y42300D01*
X126400D01*
Y41300D01*
X125400D01*
Y39300D01*
X126400D01*
X126300Y49800D02*
Y48800D01*
X128300D01*
Y49800D01*
X129300D01*
Y51800D01*
X128300D01*
Y52800D01*
X126300D01*
Y51800D01*
X125300D01*
Y49800D01*
X126300D01*
X-21500Y-92000D02*
X-20500Y-90000D01*
X-21500Y-88000D01*
X-19500Y-89000D01*
X-17500Y-88000D01*
X-18500Y-90000D01*
X-17500Y-92000D01*
X-19500Y-91000D01*
X-21500Y-92000D01*
X132600Y55600D02*
Y54600D01*
X134600D01*
Y55600D01*
X135600D01*
Y57600D01*
X134600D01*
Y58600D01*
X132600D01*
Y57600D01*
X131600D01*
Y55600D01*
X132600D01*
X126300Y58300D02*
Y57300D01*
X128300D01*
Y58300D01*
X129300D01*
Y60300D01*
X128300D01*
Y61300D01*
X126300D01*
Y60300D01*
X125300D01*
Y58300D01*
X126300D01*
X-118800Y-33500D02*
X-117800Y-31500D01*
X-118800Y-29500D01*
X-116800Y-30500D01*
X-114800Y-29500D01*
X-115800Y-31500D01*
X-114800Y-33500D01*
X-116800Y-32500D01*
X-118800Y-33500D01*
X-102200Y-33700D02*
X-101200Y-31700D01*
X-102200Y-29700D01*
X-100200Y-30700D01*
X-98200Y-29700D01*
X-99200Y-31700D01*
X-98200Y-33700D01*
X-100200Y-32700D01*
X-102200Y-33700D01*
X108000Y-45100D02*
X109000Y-43100D01*
X108000Y-41100D01*
X110000Y-42100D01*
X112000Y-41100D01*
X111000Y-43100D01*
X112000Y-45100D01*
X110000Y-44100D01*
X108000Y-45100D01*
X101014Y-43114D02*
Y-44114D01*
X103014D01*
Y-43114D01*
X104014D01*
Y-41114D01*
X103014D01*
Y-40114D01*
X101014D01*
Y-41114D01*
X100014D01*
Y-43114D01*
X101014D01*
X-96961Y6961D02*
X-95960Y8961D01*
X-96961Y10960D01*
X-94960Y9961D01*
X-92961Y10960D01*
X-93960Y8961D01*
X-92961Y6961D01*
X-94960Y7960D01*
X-96961Y6961D01*
X-103200Y-14489D02*
X-102200Y-12489D01*
X-103200Y-10489D01*
X-101200Y-11489D01*
X-99200Y-10489D01*
X-100200Y-12489D01*
X-99200Y-14489D01*
X-101200Y-13489D01*
X-103200Y-14489D01*
X-72200Y-94100D02*
Y-95100D01*
X-70200D01*
Y-94100D01*
X-69200D01*
Y-92100D01*
X-70200D01*
Y-91100D01*
X-72200D01*
Y-92100D01*
X-73200D01*
Y-94100D01*
X-72200D01*
X-67400D02*
Y-95100D01*
X-65400D01*
Y-94100D01*
X-64400D01*
Y-92100D01*
X-65400D01*
Y-91100D01*
X-67400D01*
Y-92100D01*
X-68400D01*
Y-94100D01*
X-67400D01*
X-63600Y-67700D02*
X-62600Y-65700D01*
X-63600Y-63700D01*
X-61600Y-64700D01*
X-59600Y-63700D01*
X-60600Y-65700D01*
X-59600Y-67700D01*
X-61600Y-66700D01*
X-63600Y-67700D01*
X-81900Y-40400D02*
Y-41400D01*
X-79900D01*
Y-40400D01*
X-78900D01*
Y-38400D01*
X-79900D01*
Y-37400D01*
X-81900D01*
Y-38400D01*
X-82900D01*
Y-40400D01*
X-81900D01*
X98500Y71400D02*
Y70400D01*
X100500D01*
Y71400D01*
X101500D01*
Y73400D01*
X100500D01*
Y74400D01*
X98500D01*
Y73400D01*
X97500D01*
Y71400D01*
X98500D01*
X79100Y81600D02*
Y80600D01*
X81100D01*
Y81600D01*
X82100D01*
Y83600D01*
X81100D01*
Y84600D01*
X79100D01*
Y83600D01*
X78100D01*
Y81600D01*
X79100D01*
X-79000Y-64300D02*
X-78000Y-62300D01*
X-79000Y-60300D01*
X-77000Y-61300D01*
X-75000Y-60300D01*
X-76000Y-62300D01*
X-75000Y-64300D01*
X-77000Y-63300D01*
X-79000Y-64300D01*
X-80518Y-96200D02*
X-79518Y-94200D01*
X-80518Y-92200D01*
X-78518Y-93200D01*
X-76518Y-92200D01*
X-77518Y-94200D01*
X-76518Y-96200D01*
X-78518Y-95200D01*
X-80518Y-96200D01*
X-86344Y-100414D02*
X-85344Y-98413D01*
X-86344Y-96413D01*
X-84345Y-97413D01*
X-82345Y-96413D01*
X-83345Y-98413D01*
X-82345Y-100414D01*
X-84345Y-99414D01*
X-86344Y-100414D01*
X-84000Y-97900D02*
X-83000Y-95900D01*
X-84000Y-93900D01*
X-82000Y-94900D01*
X-80000Y-93900D01*
X-81000Y-95900D01*
X-80000Y-97900D01*
X-82000Y-96900D01*
X-84000Y-97900D01*
X119000Y-43800D02*
X120000Y-41800D01*
X119000Y-39800D01*
X121000Y-40800D01*
X123000Y-39800D01*
X122000Y-41800D01*
X123000Y-43800D01*
X121000Y-42800D01*
X119000Y-43800D01*
X-102600Y-105500D02*
X-101600Y-103500D01*
X-102600Y-101500D01*
X-100600Y-102500D01*
X-98600Y-101500D01*
X-99600Y-103500D01*
X-98600Y-105500D01*
X-100600Y-104500D01*
X-102600Y-105500D01*
X123096Y-49878D02*
X124096Y-47879D01*
X123096Y-45878D01*
X125096Y-46878D01*
X127096Y-45878D01*
X126096Y-47879D01*
X127096Y-49878D01*
X125096Y-48878D01*
X123096Y-49878D01*
X125700Y16900D02*
Y15900D01*
X127700D01*
Y16900D01*
X128700D01*
Y18900D01*
X127700D01*
Y19900D01*
X125700D01*
Y18900D01*
X124700D01*
Y16900D01*
X125700D01*
X87593Y17224D02*
Y16224D01*
X89593D01*
Y17224D01*
X90593D01*
Y19224D01*
X89593D01*
Y20224D01*
X87593D01*
Y19224D01*
X86593D01*
Y17224D01*
X87593D01*
X122600Y-43800D02*
X123600Y-41800D01*
X122600Y-39800D01*
X124600Y-40800D01*
X126600Y-39800D01*
X125600Y-41800D01*
X126600Y-43800D01*
X124600Y-42800D01*
X122600Y-43800D01*
X-22800Y-1600D02*
X-21800Y400D01*
X-22800Y2400D01*
X-20800Y1400D01*
X-18800Y2400D01*
X-19800Y400D01*
X-18800Y-1600D01*
X-20800Y-600D01*
X-22800Y-1600D01*
X9700D02*
X10700Y400D01*
X9700Y2400D01*
X11700Y1400D01*
X13700Y2400D01*
X12700Y400D01*
X13700Y-1600D01*
X11700Y-600D01*
X9700Y-1600D01*
X42200Y-1500D02*
X43200Y500D01*
X42200Y2500D01*
X44200Y1500D01*
X46200Y2500D01*
X45200Y500D01*
X46200Y-1500D01*
X44200Y-500D01*
X42200Y-1500D01*
X-11291Y-97671D02*
X-10291Y-95671D01*
X-11291Y-93671D01*
X-9291Y-94671D01*
X-7291Y-93671D01*
X-8291Y-95671D01*
X-7291Y-97671D01*
X-9291Y-96671D01*
X-11291Y-97671D01*
X133200Y89800D02*
Y88800D01*
X135200D01*
Y89800D01*
X136200D01*
Y91800D01*
X135200D01*
Y92800D01*
X133200D01*
Y91800D01*
X132200D01*
Y89800D01*
X133200D01*
X101500Y90100D02*
Y89100D01*
X103500D01*
Y90100D01*
X104500D01*
Y92100D01*
X103500D01*
Y93100D01*
X101500D01*
Y92100D01*
X100500D01*
Y90100D01*
X101500D01*
X123163Y-863D02*
Y-1863D01*
X125163D01*
Y-863D01*
X126163D01*
Y1137D01*
X125163D01*
Y2137D01*
X123163D01*
Y1137D01*
X122163D01*
Y-863D01*
X123163D01*
X-126246Y-106578D02*
X-125246Y-104578D01*
X-126246Y-102578D01*
X-124246Y-103578D01*
X-122246Y-102578D01*
X-123246Y-104578D01*
X-122246Y-106578D01*
X-124246Y-105578D01*
X-126246Y-106578D01*
X-123814Y-109205D02*
X-122814Y-107205D01*
X-123814Y-105205D01*
X-121814Y-106205D01*
X-119814Y-105205D01*
X-120814Y-107205D01*
X-119814Y-109205D01*
X-121814Y-108205D01*
X-123814Y-109205D01*
X-129900Y-98300D02*
X-128900Y-96300D01*
X-129900Y-94300D01*
X-127900Y-95300D01*
X-125900Y-94300D01*
X-126900Y-96300D01*
X-125900Y-98300D01*
X-127900Y-97300D01*
X-129900Y-98300D01*
X-132407Y-100803D02*
X-131407Y-98803D01*
X-132407Y-96803D01*
X-130407Y-97803D01*
X-128407Y-96803D01*
X-129407Y-98803D01*
X-128407Y-100803D01*
X-130407Y-99803D01*
X-132407Y-100803D01*
X-125422Y-93874D02*
X-124422Y-91874D01*
X-125422Y-89873D01*
X-123422Y-90873D01*
X-121422Y-89873D01*
X-122422Y-91874D01*
X-121422Y-93874D01*
X-123422Y-92874D01*
X-125422Y-93874D01*
X-128200Y-90828D02*
X-127200Y-88828D01*
X-128200Y-86828D01*
X-126200Y-87828D01*
X-124200Y-86828D01*
X-125200Y-88828D01*
X-124200Y-90828D01*
X-126200Y-89828D01*
X-128200Y-90828D01*
X-118710Y-113790D02*
X-117710Y-111790D01*
X-118710Y-109790D01*
X-116710Y-110790D01*
X-114710Y-109790D01*
X-115710Y-111790D01*
X-114710Y-113790D01*
X-116710Y-112790D01*
X-118710Y-113790D01*
X-121114Y-111386D02*
X-120114Y-109386D01*
X-121114Y-107386D01*
X-119114Y-108386D01*
X-117114Y-107386D01*
X-118114Y-109386D01*
X-117114Y-111386D01*
X-119114Y-110386D01*
X-121114Y-111386D01*
X-137400Y-105800D02*
X-136400Y-103800D01*
X-137400Y-101800D01*
X-135400Y-102800D01*
X-133400Y-101800D01*
X-134400Y-103800D01*
X-133400Y-105800D01*
X-135400Y-104800D01*
X-137400Y-105800D01*
X-134900Y-103300D02*
X-133900Y-101300D01*
X-134900Y-99300D01*
X-132900Y-100300D01*
X-130900Y-99300D01*
X-131900Y-101300D01*
X-130900Y-103300D01*
X-132900Y-102300D01*
X-134900Y-103300D01*
X-119352Y-52762D02*
X-118352Y-50762D01*
X-119352Y-48762D01*
X-117352Y-49762D01*
X-115352Y-48762D01*
X-116352Y-50762D01*
X-115352Y-52762D01*
X-117352Y-51762D01*
X-119352Y-52762D01*
X-101600Y-52600D02*
X-100600Y-50600D01*
X-101600Y-48600D01*
X-99600Y-49600D01*
X-97600Y-48600D01*
X-98600Y-50600D01*
X-97600Y-52600D01*
X-99600Y-51600D01*
X-101600Y-52600D01*
X-106600Y39700D02*
X-105600Y41700D01*
X-106600Y43700D01*
X-104600Y42700D01*
X-102600Y43700D01*
X-103600Y41700D01*
X-102600Y39700D01*
X-104600Y40700D01*
X-106600Y39700D01*
X-79400Y-22800D02*
X-78400Y-20800D01*
X-79400Y-18800D01*
X-77400Y-19800D01*
X-75400Y-18800D01*
X-76400Y-20800D01*
X-75400Y-22800D01*
X-77400Y-21800D01*
X-79400Y-22800D01*
X-118898Y23500D02*
X-117898Y25500D01*
X-118898Y27500D01*
X-116899Y26500D01*
X-114899Y27500D01*
X-115899Y25500D01*
X-114899Y23500D01*
X-116899Y24500D01*
X-118898Y23500D01*
X-72000Y38600D02*
Y37600D01*
X-70000D01*
Y38600D01*
X-69000D01*
Y40600D01*
X-70000D01*
Y41600D01*
X-72000D01*
Y40600D01*
X-73000D01*
Y38600D01*
X-72000D01*
X62000Y63400D02*
X63000Y65400D01*
X62000Y67400D01*
X64000Y66400D01*
X66000Y67400D01*
X65000Y65400D01*
X66000Y63400D01*
X64000Y64400D01*
X62000Y63400D01*
X-78500Y19900D02*
X-77500Y21900D01*
X-78500Y23900D01*
X-76500Y22900D01*
X-74500Y23900D01*
X-75500Y21900D01*
X-74500Y19900D01*
X-76500Y20900D01*
X-78500Y19900D01*
X-83400Y33500D02*
Y32500D01*
X-81400D01*
Y33500D01*
X-80400D01*
Y35500D01*
X-81400D01*
Y36500D01*
X-83400D01*
Y35500D01*
X-84400D01*
Y33500D01*
X-83400D01*
X82800Y18200D02*
Y17200D01*
X84800D01*
Y18200D01*
X85800D01*
Y20200D01*
X84800D01*
Y21200D01*
X82800D01*
Y20200D01*
X81800D01*
Y18200D01*
X82800D01*
X-120103Y-71014D02*
X-119103Y-69015D01*
X-120103Y-67014D01*
X-118103Y-68015D01*
X-116103Y-67014D01*
X-117103Y-69015D01*
X-116103Y-71014D01*
X-118103Y-70015D01*
X-120103Y-71014D01*
X-121563Y-67927D02*
X-120563Y-65927D01*
X-121563Y-63927D01*
X-119563Y-64927D01*
X-117563Y-63927D01*
X-118563Y-65927D01*
X-117563Y-67927D01*
X-119563Y-66927D01*
X-121563Y-67927D01*
X-117846Y-68352D02*
X-116846Y-66352D01*
X-117846Y-64352D01*
X-115846Y-65352D01*
X-113846Y-64352D01*
X-114846Y-66352D01*
X-113846Y-68352D01*
X-115846Y-67352D01*
X-117846Y-68352D01*
X-115900Y-100D02*
Y-1100D01*
X-113900D01*
Y-100D01*
X-112900D01*
Y1900D01*
X-113900D01*
Y2900D01*
X-115900D01*
Y1900D01*
X-116900D01*
Y-100D01*
X-115900D01*
X-116475Y33519D02*
X-115475Y35519D01*
X-116475Y37519D01*
X-114475Y36519D01*
X-112475Y37519D01*
X-113475Y35519D01*
X-112475Y33519D01*
X-114475Y34519D01*
X-116475Y33519D01*
X65400Y-100600D02*
Y-101600D01*
X67400D01*
Y-100600D01*
X68400D01*
Y-98600D01*
X67400D01*
Y-97600D01*
X65400D01*
Y-98600D01*
X64400D01*
Y-100600D01*
X65400D01*
X119800Y-72000D02*
Y-73000D01*
X121800D01*
Y-72000D01*
X122800D01*
Y-70000D01*
X121800D01*
Y-69000D01*
X119800D01*
Y-70000D01*
X118800D01*
Y-72000D01*
X119800D01*
X-74900Y-700D02*
Y-1700D01*
X-72900D01*
Y-700D01*
X-71900D01*
Y1300D01*
X-72900D01*
Y2300D01*
X-74900D01*
Y1300D01*
X-75900D01*
Y-700D01*
X-74900D01*
X-106400Y-22500D02*
Y-23500D01*
X-104400D01*
Y-22500D01*
X-103400D01*
Y-20500D01*
X-104400D01*
Y-19500D01*
X-106400D01*
Y-20500D01*
X-107400D01*
Y-22500D01*
X-106400D01*
X-97600Y45600D02*
X-96600Y47600D01*
X-97600Y49600D01*
X-95600Y48600D01*
X-93600Y49600D01*
X-94600Y47600D01*
X-93600Y45600D01*
X-95600Y46600D01*
X-97600Y45600D01*
X-99000Y55800D02*
X-98000Y57800D01*
X-99000Y59800D01*
X-97000Y58800D01*
X-95000Y59800D01*
X-96000Y57800D01*
X-95000Y55800D01*
X-97000Y56800D01*
X-99000Y55800D01*
X93800Y13100D02*
Y12100D01*
X95800D01*
Y13100D01*
X96800D01*
Y15100D01*
X95800D01*
Y16100D01*
X93800D01*
Y15100D01*
X92800D01*
Y13100D01*
X93800D01*
X125600Y23400D02*
Y22400D01*
X127600D01*
Y23400D01*
X128600D01*
Y25400D01*
X127600D01*
Y26400D01*
X125600D01*
Y25400D01*
X124600D01*
Y23400D01*
X125600D01*
Y31100D02*
Y30100D01*
X127600D01*
Y31100D01*
X128600D01*
Y33100D01*
X127600D01*
Y34100D01*
X125600D01*
Y33100D01*
X124600D01*
Y31100D01*
X125600D01*
X69150Y3200D02*
X70150Y5200D01*
X69150Y7200D01*
X71150Y6200D01*
X73150Y7200D01*
X72150Y5200D01*
X73150Y3200D01*
X71150Y4200D01*
X69150Y3200D01*
X69100Y-4600D02*
X70100Y-2600D01*
X69100Y-600D01*
X71100Y-1600D01*
X73100Y-600D01*
X72100Y-2600D01*
X73100Y-4600D01*
X71100Y-3600D01*
X69100Y-4600D01*
X69150Y7000D02*
X70150Y9000D01*
X69150Y11000D01*
X71150Y10000D01*
X73150Y11000D01*
X72150Y9000D01*
X73150Y7000D01*
X71150Y8000D01*
X69150Y7000D01*
Y-600D02*
X70150Y1400D01*
X69150Y3400D01*
X71150Y2400D01*
X73150Y3400D01*
X72150Y1400D01*
X73150Y-600D01*
X71150Y400D01*
X69150Y-600D01*
X93000Y-2000D02*
Y-3000D01*
X95000D01*
Y-2000D01*
X96000D01*
Y0D01*
X95000D01*
Y1000D01*
X93000D01*
Y0D01*
X92000D01*
Y-2000D01*
X93000D01*
X92225Y7000D02*
X93226Y9000D01*
X92225Y11000D01*
X94226Y10000D01*
X96226Y11000D01*
X95226Y9000D01*
X96226Y7000D01*
X94226Y8000D01*
X92225Y7000D01*
X132735Y-50139D02*
Y-51139D01*
X134735D01*
Y-50139D01*
X135735D01*
Y-48139D01*
X134735D01*
Y-47139D01*
X132735D01*
Y-48139D01*
X131735D01*
Y-50139D01*
X132735D01*
X97200Y-27300D02*
Y-28300D01*
X99200D01*
Y-27300D01*
X100200D01*
Y-25300D01*
X99200D01*
Y-24300D01*
X97200D01*
Y-25300D01*
X96200D01*
Y-27300D01*
X97200D01*
X132500Y-45000D02*
Y-46000D01*
X134500D01*
Y-45000D01*
X135500D01*
Y-43000D01*
X134500D01*
Y-42000D01*
X132500D01*
Y-43000D01*
X131500D01*
Y-45000D01*
X132500D01*
X95977Y-59841D02*
X96977Y-57841D01*
X95977Y-55841D01*
X97977Y-56841D01*
X99977Y-55841D01*
X98977Y-57841D01*
X99977Y-59841D01*
X97977Y-58841D01*
X95977Y-59841D01*
X117700Y-79800D02*
Y-80800D01*
X119700D01*
Y-79800D01*
X120700D01*
Y-77800D01*
X119700D01*
Y-76800D01*
X117700D01*
Y-77800D01*
X116700D01*
Y-79800D01*
X117700D01*
X101576Y-83622D02*
Y-84622D01*
X103576D01*
Y-83622D01*
X104576D01*
Y-81622D01*
X103576D01*
Y-80622D01*
X101576D01*
Y-81622D01*
X100575D01*
Y-83622D01*
X101576D01*
X-113200Y66400D02*
Y65400D01*
X-111200D01*
Y66400D01*
X-110200D01*
Y68400D01*
X-111200D01*
Y69400D01*
X-113200D01*
Y68400D01*
X-114200D01*
Y66400D01*
X-113200D01*
X-115500Y23400D02*
X-114500Y25400D01*
X-115500Y27400D01*
X-113500Y26400D01*
X-111500Y27400D01*
X-112500Y25400D01*
X-111500Y23400D01*
X-113500Y24400D01*
X-115500Y23400D01*
X-98600Y51000D02*
X-97600Y53000D01*
X-98600Y55000D01*
X-96600Y54000D01*
X-94600Y55000D01*
X-95600Y53000D01*
X-94600Y51000D01*
X-96600Y52000D01*
X-98600Y51000D01*
X-114100Y-20000D02*
X-113100Y-18000D01*
X-114100Y-16000D01*
X-112100Y-17000D01*
X-110100Y-16000D01*
X-111100Y-18000D01*
X-110100Y-20000D01*
X-112100Y-19000D01*
X-114100Y-20000D01*
X-115105Y-65899D02*
X-114105Y-63898D01*
X-115105Y-61898D01*
X-113105Y-62898D01*
X-111105Y-61898D01*
X-112105Y-63898D01*
X-111105Y-65899D01*
X-113105Y-64899D01*
X-115105Y-65899D01*
X-89980Y-63980D02*
X-88980Y-61980D01*
X-89980Y-59980D01*
X-87980Y-60980D01*
X-85980Y-59980D01*
X-86980Y-61980D01*
X-85980Y-63980D01*
X-87980Y-62980D01*
X-89980Y-63980D01*
X-83684Y-68700D02*
X-82684Y-66700D01*
X-83684Y-64700D01*
X-81684Y-65700D01*
X-79684Y-64700D01*
X-80684Y-66700D01*
X-79684Y-68700D01*
X-81684Y-67700D01*
X-83684Y-68700D01*
X107800Y-27900D02*
X108800Y-25900D01*
X107800Y-23900D01*
X109800Y-24900D01*
X111800Y-23900D01*
X110800Y-25900D01*
X111800Y-27900D01*
X109800Y-26900D01*
X107800Y-27900D01*
X105300Y-1700D02*
Y-2700D01*
X107300D01*
Y-1700D01*
X108300D01*
Y300D01*
X107300D01*
Y1300D01*
X105300D01*
Y300D01*
X104300D01*
Y-1700D01*
X105300D01*
X129154Y-751D02*
Y-1750D01*
X131154D01*
Y-751D01*
X132154D01*
Y1249D01*
X131154D01*
Y2249D01*
X129154D01*
Y1249D01*
X128154D01*
Y-751D01*
X129154D01*
X1400Y-67700D02*
X2400Y-65700D01*
X1400Y-63700D01*
X3400Y-64700D01*
X5400Y-63700D01*
X4400Y-65700D01*
X5400Y-67700D01*
X3400Y-66700D01*
X1400Y-67700D01*
X18000D02*
X19000Y-65700D01*
X18000Y-63700D01*
X20000Y-64700D01*
X22000Y-63700D01*
X21000Y-65700D01*
X22000Y-67700D01*
X20000Y-66700D01*
X18000Y-67700D01*
X100300Y-2900D02*
X101300Y-900D01*
X100300Y1100D01*
X102300Y100D01*
X104300Y1100D01*
X103300Y-900D01*
X104300Y-2900D01*
X102300Y-1900D01*
X100300Y-2900D01*
X71500Y95600D02*
Y94600D01*
X73500D01*
Y95600D01*
X74500D01*
Y97600D01*
X73500D01*
Y98600D01*
X71500D01*
Y97600D01*
X70500D01*
Y95600D01*
X71500D01*
Y105900D02*
Y104900D01*
X73500D01*
Y105900D01*
X74500D01*
Y107900D01*
X73500D01*
Y108900D01*
X71500D01*
Y107900D01*
X70500D01*
Y105900D01*
X71500D01*
X-31100Y-67700D02*
X-30100Y-65700D01*
X-31100Y-63700D01*
X-29100Y-64700D01*
X-27100Y-63700D01*
X-28100Y-65700D01*
X-27100Y-67700D01*
X-29100Y-66700D01*
X-31100Y-67700D01*
X33900D02*
X34900Y-65700D01*
X33900Y-63700D01*
X35900Y-64700D01*
X37900Y-63700D01*
X36900Y-65700D01*
X37900Y-67700D01*
X35900Y-66700D01*
X33900Y-67700D01*
X61900Y-8900D02*
X62900Y-6900D01*
X61900Y-4900D01*
X63900Y-5900D01*
X65900Y-4900D01*
X64900Y-6900D01*
X65900Y-8900D01*
X63900Y-7900D01*
X61900Y-8900D01*
X63709Y-71709D02*
X64709Y-69709D01*
X63709Y-67709D01*
X65709Y-68709D01*
X67709Y-67709D01*
X66709Y-69709D01*
X67709Y-71709D01*
X65709Y-70709D01*
X63709Y-71709D01*
X27500Y-5919D02*
X28500Y-3919D01*
X27500Y-1919D01*
X29500Y-2919D01*
X31500Y-1919D01*
X30500Y-3919D01*
X31500Y-5919D01*
X29500Y-4919D01*
X27500Y-5919D01*
X51900Y-67800D02*
X52900Y-65800D01*
X51900Y-63800D01*
X53900Y-64800D01*
X55900Y-63800D01*
X54900Y-65800D01*
X55900Y-67800D01*
X53900Y-66800D01*
X51900Y-67800D01*
X-11000Y63800D02*
X-10000Y65800D01*
X-11000Y67800D01*
X-9000Y66800D01*
X-7000Y67800D01*
X-8000Y65800D01*
X-7000Y63800D01*
X-9000Y64800D01*
X-11000Y63800D01*
X-19000Y63621D02*
X-18000Y65620D01*
X-19000Y67620D01*
X-17000Y66620D01*
X-15000Y67620D01*
X-16000Y65620D01*
X-15000Y63621D01*
X-17000Y64621D01*
X-19000Y63621D01*
X21500Y63400D02*
X22500Y65400D01*
X21500Y67400D01*
X23500Y66400D01*
X25500Y67400D01*
X24500Y65400D01*
X25500Y63400D01*
X23500Y64400D01*
X21500Y63400D01*
X-35515Y63700D02*
X-34515Y65700D01*
X-35515Y67700D01*
X-33515Y66700D01*
X-31515Y67700D01*
X-32515Y65700D01*
X-31515Y63700D01*
X-33515Y64700D01*
X-35515Y63700D01*
X-43500D02*
X-42500Y65700D01*
X-43500Y67700D01*
X-41500Y66700D01*
X-39500Y67700D01*
X-40500Y65700D01*
X-39500Y63700D01*
X-41500Y64700D01*
X-43500Y63700D01*
X-27000Y63721D02*
X-26000Y65720D01*
X-27000Y67721D01*
X-25000Y66720D01*
X-23000Y67721D01*
X-24000Y65720D01*
X-23000Y63721D01*
X-25000Y64720D01*
X-27000Y63721D01*
X-3017Y63800D02*
X-2017Y65800D01*
X-3017Y67800D01*
X-1017Y66800D01*
X983Y67800D01*
X-17Y65800D01*
X983Y63800D01*
X-1017Y64800D01*
X-3017Y63800D01*
X-51500Y63656D02*
X-50500Y65656D01*
X-51500Y67656D01*
X-49500Y66656D01*
X-47500Y67656D01*
X-48500Y65656D01*
X-47500Y63656D01*
X-49500Y64656D01*
X-51500Y63656D01*
X29500Y63400D02*
X30500Y65400D01*
X29500Y67400D01*
X31500Y66400D01*
X33500Y67400D01*
X32500Y65400D01*
X33500Y63400D01*
X31500Y64400D01*
X29500Y63400D01*
X54000Y-9200D02*
X55000Y-7200D01*
X54000Y-5200D01*
X56000Y-6200D01*
X58000Y-5200D01*
X57000Y-7200D01*
X58000Y-9200D01*
X56000Y-8200D01*
X54000Y-9200D01*
Y63400D02*
X55000Y65400D01*
X54000Y67400D01*
X56000Y66400D01*
X58000Y67400D01*
X57000Y65400D01*
X58000Y63400D01*
X56000Y64400D01*
X54000Y63400D01*
X46000Y-9200D02*
X47000Y-7200D01*
X46000Y-5200D01*
X48000Y-6200D01*
X50000Y-5200D01*
X49000Y-7200D01*
X50000Y-9200D01*
X48000Y-8200D01*
X46000Y-9200D01*
X38000Y-9100D02*
X39000Y-7100D01*
X38000Y-5100D01*
X40000Y-6100D01*
X42000Y-5100D01*
X41000Y-7100D01*
X42000Y-9100D01*
X40000Y-8100D01*
X38000Y-9100D01*
X33900Y4900D02*
X34900Y6900D01*
X33900Y8900D01*
X35900Y7900D01*
X37900Y8900D01*
X36900Y6900D01*
X37900Y4900D01*
X35900Y5900D01*
X33900Y4900D01*
X9700Y4800D02*
X10700Y6800D01*
X9700Y8800D01*
X11700Y7800D01*
X13700Y8800D01*
X12700Y6800D01*
X13700Y4800D01*
X11700Y5800D01*
X9700Y4800D01*
X5500Y-9100D02*
X6500Y-7100D01*
X5500Y-5100D01*
X7500Y-6100D01*
X9500Y-5100D01*
X8500Y-7100D01*
X9500Y-9100D01*
X7500Y-8100D01*
X5500Y-9100D01*
X-27000D02*
X-26000Y-7100D01*
X-27000Y-5100D01*
X-25000Y-6100D01*
X-23000Y-5100D01*
X-24000Y-7100D01*
X-23000Y-9100D01*
X-25000Y-8100D01*
X-27000Y-9100D01*
X-35500Y-9200D02*
X-34500Y-7200D01*
X-35500Y-5200D01*
X-33500Y-6200D01*
X-31500Y-5200D01*
X-32500Y-7200D01*
X-31500Y-9200D01*
X-33500Y-8200D01*
X-35500Y-9200D01*
X-31131Y5608D02*
X-30131Y7608D01*
X-31131Y9608D01*
X-29131Y8608D01*
X-27131Y9608D01*
X-28131Y7608D01*
X-27131Y5608D01*
X-29131Y6608D01*
X-31131Y5608D01*
X-47000Y5527D02*
X-46000Y7527D01*
X-47000Y9527D01*
X-45000Y8527D01*
X-43000Y9527D01*
X-44000Y7527D01*
X-43000Y5527D01*
X-45000Y6527D01*
X-47000Y5527D01*
X-81563Y-19263D02*
X-80563Y-17263D01*
X-81563Y-15263D01*
X-79563Y-16263D01*
X-77563Y-15263D01*
X-78563Y-17263D01*
X-77563Y-19263D01*
X-79563Y-18263D01*
X-81563Y-19263D01*
X-55300Y5527D02*
X-54300Y7527D01*
X-55300Y9527D01*
X-53300Y8527D01*
X-51300Y9527D01*
X-52300Y7527D01*
X-51300Y5527D01*
X-53300Y6527D01*
X-55300Y5527D01*
X-63600Y5556D02*
X-62600Y7556D01*
X-63600Y9556D01*
X-61600Y8556D01*
X-59600Y9556D01*
X-60600Y7556D01*
X-59600Y5556D01*
X-61600Y6556D01*
X-63600Y5556D01*
X-81200Y17200D02*
X-80200Y19200D01*
X-81200Y21200D01*
X-79200Y20200D01*
X-77200Y21200D01*
X-78200Y19200D01*
X-77200Y17200D01*
X-79200Y18200D01*
X-81200Y17200D01*
X-83500Y14600D02*
X-82500Y16600D01*
X-83500Y18600D01*
X-81500Y17600D01*
X-79500Y18600D01*
X-80500Y16600D01*
X-79500Y14600D01*
X-81500Y15600D01*
X-83500Y14600D01*
X-50000Y-27200D02*
Y-28200D01*
X-48000D01*
Y-27200D01*
X-47000D01*
Y-25200D01*
X-48000D01*
Y-24200D01*
X-50000D01*
Y-25200D01*
X-51000D01*
Y-27200D01*
X-50000D01*
X-76700Y-25100D02*
X-75700Y-23100D01*
X-76700Y-21100D01*
X-74700Y-22100D01*
X-72700Y-21100D01*
X-73700Y-23100D01*
X-72700Y-25100D01*
X-74700Y-24100D01*
X-76700Y-25100D01*
X-17500Y-27400D02*
Y-28400D01*
X-15500D01*
Y-27400D01*
X-14500D01*
Y-25400D01*
X-15500D01*
Y-24400D01*
X-17500D01*
Y-25400D01*
X-18500D01*
Y-27400D01*
X-17500D01*
X-3000Y-9200D02*
X-2000Y-7200D01*
X-3000Y-5200D01*
X-1000Y-6200D01*
X1000Y-5200D01*
X0Y-7200D01*
X1000Y-9200D01*
X-1000Y-8200D01*
X-3000Y-9200D01*
X-11000D02*
X-10000Y-7200D01*
X-11000Y-5200D01*
X-9000Y-6200D01*
X-7000Y-5200D01*
X-8000Y-7200D01*
X-7000Y-9200D01*
X-9000Y-8200D01*
X-11000Y-9200D01*
X-43500D02*
X-42500Y-7200D01*
X-43500Y-5200D01*
X-41500Y-6200D01*
X-39500Y-5200D01*
X-40500Y-7200D01*
X-39500Y-9200D01*
X-41500Y-8200D01*
X-43500Y-9200D01*
X-19000D02*
X-18000Y-7200D01*
X-19000Y-5200D01*
X-17000Y-6200D01*
X-15000Y-5200D01*
X-16000Y-7200D01*
X-15000Y-9200D01*
X-17000Y-8200D01*
X-19000Y-9200D01*
X-51500D02*
X-50500Y-7200D01*
X-51500Y-5200D01*
X-49500Y-6200D01*
X-47500Y-5200D01*
X-48500Y-7200D01*
X-47500Y-9200D01*
X-49500Y-8200D01*
X-51500Y-9200D01*
X-74200Y-27800D02*
X-73200Y-25800D01*
X-74200Y-23800D01*
X-72200Y-24800D01*
X-70200Y-23800D01*
X-71200Y-25800D01*
X-70200Y-27800D01*
X-72200Y-26800D01*
X-74200Y-27800D01*
X-60583Y-9100D02*
X-59583Y-7100D01*
X-60583Y-5100D01*
X-58583Y-6100D01*
X-56583Y-5100D01*
X-57583Y-7100D01*
X-56583Y-9100D01*
X-58583Y-8100D01*
X-60583Y-9100D01*
X-22800Y-67800D02*
X-21800Y-65800D01*
X-22800Y-63800D01*
X-20800Y-64800D01*
X-18800Y-63800D01*
X-19800Y-65800D01*
X-18800Y-67800D01*
X-20800Y-66800D01*
X-22800Y-67800D01*
X-55300D02*
X-54300Y-65800D01*
X-55300Y-63800D01*
X-53300Y-64800D01*
X-51300Y-63800D01*
X-52300Y-65800D01*
X-51300Y-67800D01*
X-53300Y-66800D01*
X-55300Y-67800D01*
X9700D02*
X10700Y-65800D01*
X9700Y-63800D01*
X11700Y-64800D01*
X13700Y-63800D01*
X12700Y-65800D01*
X13700Y-67800D01*
X11700Y-66800D01*
X9700Y-67800D01*
X42200D02*
X43200Y-65800D01*
X42200Y-63800D01*
X44200Y-64800D01*
X46200Y-63800D01*
X45200Y-65800D01*
X46200Y-67800D01*
X44200Y-66800D01*
X42200Y-67800D01*
X-14500Y-67700D02*
X-13500Y-65700D01*
X-14500Y-63700D01*
X-12500Y-64700D01*
X-10500Y-63700D01*
X-11500Y-65700D01*
X-10500Y-67700D01*
X-12500Y-66700D01*
X-14500Y-67700D01*
X-47000D02*
X-46000Y-65700D01*
X-47000Y-63700D01*
X-45000Y-64700D01*
X-43000Y-63700D01*
X-44000Y-65700D01*
X-43000Y-67700D01*
X-45000Y-66700D01*
X-47000Y-67700D01*
X47500Y-27400D02*
Y-28400D01*
X49500D01*
Y-27400D01*
X50500D01*
Y-25400D01*
X49500D01*
Y-24400D01*
X47500D01*
Y-25400D01*
X46500D01*
Y-27400D01*
X47500D01*
X21500Y-9200D02*
X22500Y-7200D01*
X21500Y-5200D01*
X23500Y-6200D01*
X25500Y-5200D01*
X24500Y-7200D01*
X25500Y-9200D01*
X23500Y-8200D01*
X21500Y-9200D01*
X15000Y-27400D02*
Y-28400D01*
X17000D01*
Y-27400D01*
X18000D01*
Y-25400D01*
X17000D01*
Y-24400D01*
X15000D01*
Y-25400D01*
X14000D01*
Y-27400D01*
X15000D01*
X13500Y-9200D02*
X14500Y-7200D01*
X13500Y-5200D01*
X15500Y-6200D01*
X17500Y-5200D01*
X16500Y-7200D01*
X17500Y-9200D01*
X15500Y-8200D01*
X13500Y-9200D01*
X-59500Y63756D02*
X-58500Y65756D01*
X-59500Y67756D01*
X-57500Y66756D01*
X-55500Y67756D01*
X-56500Y65756D01*
X-55500Y63756D01*
X-57500Y64756D01*
X-59500Y63756D01*
X-22800Y5020D02*
X-21800Y7021D01*
X-22800Y9020D01*
X-20800Y8021D01*
X-18800Y9020D01*
X-19800Y7021D01*
X-18800Y5020D01*
X-20800Y6021D01*
X-22800Y5020D01*
X1400Y4900D02*
X2400Y6900D01*
X1400Y8900D01*
X3400Y7900D01*
X5400Y8900D01*
X4400Y6900D01*
X5400Y4900D01*
X3400Y5900D01*
X1400Y4900D01*
X18000D02*
X19000Y6900D01*
X18000Y8900D01*
X20000Y7900D01*
X22000Y8900D01*
X21000Y6900D01*
X22000Y4900D01*
X20000Y5900D01*
X18000Y4900D01*
X-17500Y23165D02*
Y22165D01*
X-15500D01*
Y23165D01*
X-14500D01*
Y25165D01*
X-15500D01*
Y26165D01*
X-17500D01*
Y25165D01*
X-18500D01*
Y23165D01*
X-17500D01*
X-14500Y5121D02*
X-13500Y7120D01*
X-14500Y9121D01*
X-12500Y8121D01*
X-10500Y9121D01*
X-11500Y7120D01*
X-10500Y5121D01*
X-12500Y6120D01*
X-14500Y5121D01*
X47500Y22944D02*
Y21944D01*
X49500D01*
Y22944D01*
X50500D01*
Y24944D01*
X49500D01*
Y25944D01*
X47500D01*
Y24944D01*
X46500D01*
Y22944D01*
X47500D01*
X5500Y63500D02*
X6500Y65500D01*
X5500Y67500D01*
X7500Y66500D01*
X9500Y67500D01*
X8500Y65500D01*
X9500Y63500D01*
X7500Y64500D01*
X5500Y63500D01*
X13500Y63400D02*
X14500Y65400D01*
X13500Y67400D01*
X15500Y66400D01*
X17500Y67400D01*
X16500Y65400D01*
X17500Y63400D01*
X15500Y64400D01*
X13500Y63400D01*
X46000D02*
X47000Y65400D01*
X46000Y67400D01*
X48000Y66400D01*
X50000Y67400D01*
X49000Y65400D01*
X50000Y63400D01*
X48000Y64400D01*
X46000Y63400D01*
X38000Y63500D02*
X39000Y65500D01*
X38000Y67500D01*
X40000Y66500D01*
X42000Y67500D01*
X41000Y65500D01*
X42000Y63500D01*
X40000Y64500D01*
X38000Y63500D01*
X15000Y23200D02*
Y22200D01*
X17000D01*
Y23200D01*
X18000D01*
Y25200D01*
X17000D01*
Y26200D01*
X15000D01*
Y25200D01*
X14000D01*
Y23200D01*
X15000D01*
X-50000D02*
Y22200D01*
X-48000D01*
Y23200D01*
X-47000D01*
Y25200D01*
X-48000D01*
Y26200D01*
X-50000D01*
Y25200D01*
X-51000D01*
Y23200D01*
X-50000D01*
X42200Y4800D02*
X43200Y6800D01*
X42200Y8800D01*
X44200Y7800D01*
X46200Y8800D01*
X45200Y6800D01*
X46200Y4800D01*
X44200Y5800D01*
X42200Y4800D01*
X50500Y4900D02*
X51500Y6900D01*
X50500Y8900D01*
X52500Y7900D01*
X54500Y8900D01*
X53500Y6900D01*
X54500Y4900D01*
X52500Y5900D01*
X50500Y4900D01*
D110*
X-60000Y-81000D02*
X-60229Y-80071D01*
X-60864Y-79354D01*
X-61759Y-79015D01*
X-62709Y-79130D01*
X-63497Y-79674D01*
X-63942Y-80521D01*
Y-81479D01*
X-63497Y-82326D01*
X-62709Y-82870D01*
X-61759Y-82985D01*
X-60864Y-82646D01*
X-60229Y-81929D01*
X-60000Y-81000D01*
X-55000D02*
X-55229Y-80071D01*
X-55864Y-79354D01*
X-56759Y-79015D01*
X-57709Y-79130D01*
X-58497Y-79674D01*
X-58942Y-80521D01*
Y-81479D01*
X-58497Y-82326D01*
X-57709Y-82870D01*
X-56759Y-82985D01*
X-55864Y-82646D01*
X-55229Y-81929D01*
X-55000Y-81000D01*
X-50000D02*
X-50229Y-80071D01*
X-50864Y-79354D01*
X-51759Y-79015D01*
X-52709Y-79130D01*
X-53497Y-79674D01*
X-53942Y-80521D01*
Y-81479D01*
X-53497Y-82326D01*
X-52709Y-82870D01*
X-51759Y-82985D01*
X-50864Y-82646D01*
X-50229Y-81929D01*
X-50000Y-81000D01*
X-45000D02*
X-45229Y-80071D01*
X-45864Y-79354D01*
X-46759Y-79015D01*
X-47709Y-79130D01*
X-48497Y-79674D01*
X-48942Y-80521D01*
Y-81479D01*
X-48497Y-82326D01*
X-47709Y-82870D01*
X-46759Y-82985D01*
X-45864Y-82646D01*
X-45229Y-81929D01*
X-45000Y-81000D01*
X-40000D02*
X-40229Y-80071D01*
X-40864Y-79354D01*
X-41759Y-79015D01*
X-42709Y-79130D01*
X-43497Y-79674D01*
X-43942Y-80521D01*
Y-81479D01*
X-43497Y-82326D01*
X-42709Y-82870D01*
X-41759Y-82985D01*
X-40864Y-82646D01*
X-40229Y-81929D01*
X-40000Y-81000D01*
X-60000Y-86000D02*
X-60229Y-85071D01*
X-60864Y-84354D01*
X-61759Y-84015D01*
X-62709Y-84130D01*
X-63497Y-84674D01*
X-63942Y-85521D01*
Y-86479D01*
X-63497Y-87326D01*
X-62709Y-87870D01*
X-61759Y-87985D01*
X-60864Y-87646D01*
X-60229Y-86929D01*
X-60000Y-86000D01*
X-55000D02*
X-55229Y-85071D01*
X-55864Y-84354D01*
X-56759Y-84015D01*
X-57709Y-84130D01*
X-58497Y-84674D01*
X-58942Y-85521D01*
Y-86479D01*
X-58497Y-87326D01*
X-57709Y-87870D01*
X-56759Y-87985D01*
X-55864Y-87646D01*
X-55229Y-86929D01*
X-55000Y-86000D01*
X-50000D02*
X-50229Y-85071D01*
X-50864Y-84354D01*
X-51759Y-84015D01*
X-52709Y-84130D01*
X-53497Y-84674D01*
X-53942Y-85521D01*
Y-86479D01*
X-53497Y-87326D01*
X-52709Y-87870D01*
X-51759Y-87985D01*
X-50864Y-87646D01*
X-50229Y-86929D01*
X-50000Y-86000D01*
X-45000D02*
X-45229Y-85071D01*
X-45864Y-84354D01*
X-46759Y-84015D01*
X-47709Y-84130D01*
X-48497Y-84674D01*
X-48942Y-85521D01*
Y-86479D01*
X-48497Y-87326D01*
X-47709Y-87870D01*
X-46759Y-87985D01*
X-45864Y-87646D01*
X-45229Y-86929D01*
X-45000Y-86000D01*
X-40000D02*
X-40229Y-85071D01*
X-40864Y-84354D01*
X-41759Y-84015D01*
X-42709Y-84130D01*
X-43497Y-84674D01*
X-43942Y-85521D01*
Y-86479D01*
X-43497Y-87326D01*
X-42709Y-87870D01*
X-41759Y-87985D01*
X-40864Y-87646D01*
X-40229Y-86929D01*
X-40000Y-86000D01*
M02*
